<svg xmlns="http://www.w3.org/2000/svg" xmlns:xlink="http://www.w3.org/1999/xlink" width="1902" zoomAndPan="magnify" viewBox="0 0 1426.5 92.249997" height="123" preserveAspectRatio="xMidYMid meet" version="1.0"><defs><g/><clipPath id="be7cda5d75"><rect x="0" width="233" y="0" height="82"/></clipPath><clipPath id="2b1eed2ef0"><path d="M 660.015625 0 L 665 0 L 665 91.507812 L 660.015625 91.507812 Z M 660.015625 0 " clip-rule="nonzero"/></clipPath><clipPath id="91a6969ca0"><path d="M 660.015625 44 L 662 44 L 662 47 L 660.015625 47 Z M 660.015625 44 " clip-rule="nonzero"/></clipPath></defs><g fill="#e2cbf6" fill-opacity="1"><g transform="translate(704.723149, 62.491931)"><g><path d="M -0.234375 8.390625 C -0.960938 8.390625 -1.601562 8.335938 -2.15625 8.234375 C -2.707031 8.128906 -3.179688 7.988281 -3.578125 7.8125 L -3.578125 4.65625 C -3.109375 4.800781 -2.601562 4.910156 -2.0625 4.984375 C -1.53125 5.066406 -0.953125 5.109375 -0.328125 5.109375 C 0.484375 5.109375 1.226562 4.945312 1.90625 4.625 C 2.59375 4.3125 3.140625 3.769531 3.546875 3 C 3.953125 2.226562 4.15625 1.171875 4.15625 -0.171875 L 4.15625 -31.828125 L 7.875 -31.828125 L 7.875 -0.453125 C 7.875 1.535156 7.546875 3.179688 6.890625 4.484375 C 6.234375 5.785156 5.296875 6.757812 4.078125 7.40625 C 2.867188 8.0625 1.429688 8.390625 -0.234375 8.390625 Z M -0.234375 8.390625 "/></g></g></g><g fill="#e2cbf6" fill-opacity="1"><g transform="translate(716.698163, 62.491931)"><g><path d="M 18.359375 0 L 7.671875 -28.171875 L 7.484375 -28.171875 C 7.546875 -27.578125 7.597656 -26.851562 7.640625 -26 C 7.679688 -25.144531 7.71875 -24.210938 7.75 -23.203125 C 7.78125 -22.191406 7.796875 -21.164062 7.796875 -20.125 L 7.796875 0 L 4.359375 0 L 4.359375 -31.828125 L 9.84375 -31.828125 L 19.921875 -5.359375 L 20.078125 -5.359375 L 30.3125 -31.828125 L 35.75 -31.828125 L 35.75 0 L 32.09375 0 L 32.09375 -20.375 C 32.09375 -21.320312 32.109375 -22.269531 32.140625 -23.21875 C 32.171875 -24.175781 32.207031 -25.078125 32.25 -25.921875 C 32.289062 -26.773438 32.332031 -27.507812 32.375 -28.125 L 32.203125 -28.125 L 21.375 0 Z M 18.359375 0 "/></g></g></g><g fill="#e2cbf6" fill-opacity="1"><g transform="translate(756.803572, 62.491931)"><g/></g></g><g fill="#e2cbf6" fill-opacity="1"><g transform="translate(768.386677, 62.491931)"><g><path d="M 14.125 0 L 10.40625 0 L 10.40625 -28.5625 L 0.390625 -28.5625 L 0.390625 -31.828125 L 24.109375 -31.828125 L 24.109375 -28.5625 L 14.125 -28.5625 Z M 14.125 0 "/></g></g></g><g fill="#e2cbf6" fill-opacity="1"><g transform="translate(792.946341, 62.491931)"><g><path d="M 22.078125 0 L 4.359375 0 L 4.359375 -31.828125 L 22.078125 -31.828125 L 22.078125 -28.5625 L 8.0625 -28.5625 L 8.0625 -18.265625 L 21.28125 -18.265625 L 21.28125 -15.046875 L 8.0625 -15.046875 L 8.0625 -3.265625 L 22.078125 -3.265625 Z M 22.078125 0 "/></g></g></g><g fill="#e2cbf6" fill-opacity="1"><g transform="translate(817.723733, 62.491931)"><g><path d="M 4.359375 0 L 4.359375 -31.828125 L 8.0625 -31.828125 L 8.0625 -3.3125 L 22.1875 -3.3125 L 22.1875 0 Z M 4.359375 0 "/></g></g></g><g fill="#e2cbf6" fill-opacity="1"><g transform="translate(840.998805, 62.491931)"><g><path d="M 22.078125 0 L 4.359375 0 L 4.359375 -31.828125 L 22.078125 -31.828125 L 22.078125 -28.5625 L 8.0625 -28.5625 L 8.0625 -18.265625 L 21.28125 -18.265625 L 21.28125 -15.046875 L 8.0625 -15.046875 L 8.0625 -3.265625 L 22.078125 -3.265625 Z M 22.078125 0 "/></g></g></g><g fill="#e2cbf6" fill-opacity="1"><g transform="translate(865.776197, 62.491931)"><g><path d="M 17.96875 -29.03125 C 16.207031 -29.03125 14.625 -28.726562 13.21875 -28.125 C 11.820312 -27.519531 10.632812 -26.644531 9.65625 -25.5 C 8.675781 -24.363281 7.925781 -22.988281 7.40625 -21.375 C 6.882812 -19.769531 6.625 -17.957031 6.625 -15.9375 C 6.625 -13.269531 7.039062 -10.953125 7.875 -8.984375 C 8.707031 -7.015625 9.953125 -5.492188 11.609375 -4.421875 C 13.273438 -3.347656 15.359375 -2.8125 17.859375 -2.8125 C 19.273438 -2.8125 20.609375 -2.929688 21.859375 -3.171875 C 23.117188 -3.410156 24.347656 -3.710938 25.546875 -4.078125 L 25.546875 -0.84375 C 24.378906 -0.414062 23.15625 -0.0976562 21.875 0.109375 C 20.601562 0.328125 19.085938 0.4375 17.328125 0.4375 C 14.097656 0.4375 11.394531 -0.234375 9.21875 -1.578125 C 7.050781 -2.921875 5.425781 -4.816406 4.34375 -7.265625 C 3.257812 -9.722656 2.71875 -12.617188 2.71875 -15.953125 C 2.71875 -18.367188 3.054688 -20.570312 3.734375 -22.5625 C 4.410156 -24.5625 5.394531 -26.285156 6.6875 -27.734375 C 7.988281 -29.191406 9.585938 -30.316406 11.484375 -31.109375 C 13.378906 -31.898438 15.550781 -32.296875 18 -32.296875 C 19.613281 -32.296875 21.164062 -32.132812 22.65625 -31.8125 C 24.15625 -31.488281 25.507812 -31.03125 26.71875 -30.4375 L 25.234375 -27.3125 C 24.222656 -27.769531 23.109375 -28.171875 21.890625 -28.515625 C 20.679688 -28.859375 19.375 -29.03125 17.96875 -29.03125 Z M 17.96875 -29.03125 "/></g></g></g><g fill="#e2cbf6" fill-opacity="1"><g transform="translate(893.863048, 62.491931)"><g><path d="M 31.96875 -15.953125 C 31.96875 -13.503906 31.65625 -11.273438 31.03125 -9.265625 C 30.40625 -7.253906 29.476562 -5.523438 28.25 -4.078125 C 27.019531 -2.640625 25.5 -1.523438 23.6875 -0.734375 C 21.875 0.046875 19.769531 0.4375 17.375 0.4375 C 14.90625 0.4375 12.753906 0.046875 10.921875 -0.734375 C 9.085938 -1.523438 7.5625 -2.644531 6.34375 -4.09375 C 5.132812 -5.539062 4.226562 -7.273438 3.625 -9.296875 C 3.019531 -11.316406 2.71875 -13.550781 2.71875 -16 C 2.71875 -19.25 3.253906 -22.097656 4.328125 -24.546875 C 5.398438 -27.003906 7.03125 -28.914062 9.21875 -30.28125 C 11.40625 -31.644531 14.144531 -32.328125 17.4375 -32.328125 C 20.59375 -32.328125 23.25 -31.648438 25.40625 -30.296875 C 27.5625 -28.953125 29.191406 -27.054688 30.296875 -24.609375 C 31.410156 -22.171875 31.96875 -19.285156 31.96875 -15.953125 Z M 6.625 -15.953125 C 6.625 -13.253906 7.003906 -10.914062 7.765625 -8.9375 C 8.535156 -6.96875 9.71875 -5.445312 11.3125 -4.375 C 12.90625 -3.300781 14.925781 -2.765625 17.375 -2.765625 C 19.84375 -2.765625 21.863281 -3.300781 23.4375 -4.375 C 25.007812 -5.445312 26.171875 -6.96875 26.921875 -8.9375 C 27.679688 -10.914062 28.0625 -13.253906 28.0625 -15.953125 C 28.0625 -20.066406 27.203125 -23.28125 25.484375 -25.59375 C 23.765625 -27.90625 21.082031 -29.0625 17.4375 -29.0625 C 14.96875 -29.0625 12.9375 -28.53125 11.34375 -27.46875 C 9.75 -26.414062 8.5625 -24.910156 7.78125 -22.953125 C 7.007812 -21.003906 6.625 -18.671875 6.625 -15.953125 Z M 6.625 -15.953125 "/></g></g></g><g fill="#e2cbf6" fill-opacity="1"><g transform="translate(928.547041, 62.491931)"><g><path d="M 18.359375 0 L 7.671875 -28.171875 L 7.484375 -28.171875 C 7.546875 -27.578125 7.597656 -26.851562 7.640625 -26 C 7.679688 -25.144531 7.71875 -24.210938 7.75 -23.203125 C 7.78125 -22.191406 7.796875 -21.164062 7.796875 -20.125 L 7.796875 0 L 4.359375 0 L 4.359375 -31.828125 L 9.84375 -31.828125 L 19.921875 -5.359375 L 20.078125 -5.359375 L 30.3125 -31.828125 L 35.75 -31.828125 L 35.75 0 L 32.09375 0 L 32.09375 -20.375 C 32.09375 -21.320312 32.109375 -22.269531 32.140625 -23.21875 C 32.171875 -24.175781 32.207031 -25.078125 32.25 -25.921875 C 32.289062 -26.773438 32.332031 -27.507812 32.375 -28.125 L 32.203125 -28.125 L 21.375 0 Z M 18.359375 0 "/></g></g></g><g transform="matrix(1, 0, 0, 1, 405, 0)"><g clip-path="url(#be7cda5d75)"><g fill="#ffffff" fill-opacity="1"><g transform="translate(1.68065, 80.523469)"><g><path d="M 49.71875 -31.140625 L 58.859375 -31.140625 L 58.859375 -0.1875 L 37.328125 -0.09375 C 27.359375 -0.09375 19.390625 -3.078125 13.421875 -9.046875 C 8.160156 -14.503906 5.273438 -21.835938 4.765625 -31.046875 L 14.375 -31.046875 C 14.757812 -25.203125 17.046875 -19.929688 21.234375 -15.234375 C 23.390625 -13.015625 25.738281 -11.394531 28.28125 -10.375 C 29.613281 -9.9375 31.085938 -9.570312 32.703125 -9.28125 C 34.328125 -9 36.09375 -8.859375 38 -8.859375 L 49.71875 -8.953125 Z M 37.421875 -67.046875 L 58.859375 -66.953125 L 58.859375 -58.09375 L 38.1875 -58.28125 C 36.40625 -58.28125 34.769531 -58.148438 33.28125 -57.890625 C 31.789062 -57.640625 30.410156 -57.234375 29.140625 -56.671875 C 27.929688 -56.160156 26.722656 -55.539062 25.515625 -54.8125 C 24.316406 -54.082031 23.144531 -53.207031 22 -52.1875 C 18.570312 -48.375 16.285156 -44.375 15.140625 -40.1875 L 5.140625 -40.1875 C 6.222656 -47.425781 8.984375 -53.332031 13.421875 -57.90625 C 19.453125 -64 27.453125 -67.046875 37.421875 -67.046875 Z M 37.421875 -67.046875 "/></g></g></g><g fill="#ffffff" fill-opacity="1"><g transform="translate(65.289668, 80.523469)"><g><path d="M 28.46875 -50 L 37.625 -50 L 37.625 0 L 28.46875 0 Z M 4.765625 -66.859375 L 61.328125 -66.859375 L 61.328125 -59.234375 L 37.625 -59.234375 L 37.625 -59.140625 L 28.46875 -59.140625 L 28.46875 -59.234375 L 4.765625 -59.234375 Z M 4.765625 -66.859375 "/></g></g></g><g fill="#ffffff" fill-opacity="1"><g transform="translate(131.374482, 80.523469)"><g><path d="M 4.765625 -30.765625 L 13.90625 -30.765625 L 13.90625 0 L 4.765625 0 Z M 4.765625 -66.765625 L 13.90625 -66.765625 L 13.90625 -39.8125 L 4.765625 -39.8125 Z M 4.765625 -66.765625 "/></g></g></g><g fill="#ffffff" fill-opacity="1"><g transform="translate(149.942974, 80.523469)"><g><path d="M 4.765625 -30.46875 L 14.375 -30.46875 C 14.820312 -24.820312 17.109375 -19.710938 21.234375 -15.140625 C 23.328125 -12.859375 25.675781 -11.207031 28.28125 -10.1875 C 30.945312 -9.238281 34.1875 -8.765625 38 -8.765625 L 58.765625 -8.859375 L 58.859375 -0.09375 L 37.328125 0 C 27.296875 0 19.328125 -2.953125 13.421875 -8.859375 C 8.222656 -14.378906 5.335938 -21.582031 4.765625 -30.46875 Z M 37.328125 -66.859375 L 58.859375 -66.859375 L 58.765625 -58 L 38.1875 -58.1875 C 36.40625 -58.1875 34.769531 -58.054688 33.28125 -57.796875 C 31.789062 -57.546875 30.410156 -57.132812 29.140625 -56.5625 C 27.929688 -56.0625 26.722656 -55.441406 25.515625 -54.703125 C 24.316406 -53.972656 23.144531 -53.070312 22 -52 C 18.25 -47.875 15.835938 -43.492188 14.765625 -38.859375 L 4.953125 -38.859375 C 5.898438 -46.734375 8.722656 -53.019531 13.421875 -57.71875 C 19.453125 -63.8125 27.421875 -66.859375 37.328125 -66.859375 Z M 37.328125 -66.859375 "/></g></g></g><g fill="#ffffff" fill-opacity="1"><g transform="translate(213.471141, 80.523469)"><g/></g></g></g></g><g clip-path="url(#2b1eed2ef0)"><path fill="#ffffff" d="M 662.109375 -4.945312 L 662.816406 -4.945312 L 662.816406 42.777344 C 664 42.949219 664.910156 43.96875 664.910156 45.199219 C 664.910156 46.429688 664 47.449219 662.816406 47.621094 L 662.816406 95.34375 L 662.109375 95.34375 L 662.109375 47.621094 C 660.925781 47.449219 660.015625 46.429688 660.015625 45.199219 C 660.015625 43.96875 660.925781 42.949219 662.109375 42.777344 Z M 660.492188 45.199219 L 661.335938 44.355469 L 661.335938 46.042969 Z M 664.433594 45.199219 L 663.589844 44.355469 L 663.589844 46.042969 Z M 664.433594 45.199219 " fill-opacity="1" fill-rule="evenodd"/></g><g clip-path="url(#91a6969ca0)"><path fill="#fefefe" d="M 660.492188 45.199219 L 661.335938 44.355469 L 661.335938 46.042969 Z M 660.492188 45.199219 " fill-opacity="1" fill-rule="evenodd"/></g><path fill="#fefefe" d="M 664.433594 45.199219 L 663.589844 44.355469 L 663.589844 46.042969 Z M 664.433594 45.199219 " fill-opacity="1" fill-rule="evenodd"/></svg>