<svg xmlns="http://www.w3.org/2000/svg" xmlns:xlink="http://www.w3.org/1999/xlink" width="1902" zoomAndPan="magnify" viewBox="0 0 1426.5 92.249997" height="123" preserveAspectRatio="xMidYMid meet" version="1.0"><defs><g/><clipPath id="90afa8d41d"><path d="M 695 3 L 1016 3 L 1016 91.507812 L 695 91.507812 Z M 695 3 " clip-rule="nonzero"/></clipPath><clipPath id="cce6c00a8d"><rect x="0" width="321" y="0" height="89"/></clipPath><clipPath id="d152443788"><rect x="0" width="233" y="0" height="82"/></clipPath><clipPath id="57c12e6748"><path d="M 660.015625 0 L 665 0 L 665 91.507812 L 660.015625 91.507812 Z M 660.015625 0 " clip-rule="nonzero"/></clipPath><clipPath id="16c6f9136e"><path d="M 660.015625 44 L 662 44 L 662 47 L 660.015625 47 Z M 660.015625 44 " clip-rule="nonzero"/></clipPath></defs><g clip-path="url(#90afa8d41d)"><g transform="matrix(1, 0, 0, 1, 695, 3)"><g clip-path="url(#cce6c00a8d)"><g fill="#e2cbf6" fill-opacity="1"><g transform="translate(1.319211, 70.315095)"><g><path d="M 43.53125 0 L 37.1875 0 L 11.34375 -39.8125 L 11.09375 -39.8125 C 11.15625 -38.75 11.226562 -37.539062 11.3125 -36.1875 C 11.394531 -34.84375 11.460938 -33.40625 11.515625 -31.875 C 11.578125 -30.351562 11.609375 -28.804688 11.609375 -27.234375 L 11.609375 0 L 6.484375 0 L 6.484375 -47.390625 L 12.8125 -47.390625 L 38.546875 -7.71875 L 38.765625 -7.71875 C 38.722656 -8.46875 38.671875 -9.539062 38.609375 -10.9375 C 38.546875 -12.332031 38.484375 -13.832031 38.421875 -15.4375 C 38.367188 -17.050781 38.34375 -18.550781 38.34375 -19.9375 L 38.34375 -47.390625 L 43.53125 -47.390625 Z M 43.53125 0 "/></g></g></g><g fill="#e2cbf6" fill-opacity="1"><g transform="translate(51.297797, 70.315095)"><g><path d="M 32.875 0 L 6.484375 0 L 6.484375 -47.390625 L 32.875 -47.390625 L 32.875 -42.53125 L 12 -42.53125 L 12 -27.203125 L 31.671875 -27.203125 L 31.671875 -22.40625 L 12 -22.40625 L 12 -4.859375 L 32.875 -4.859375 Z M 32.875 0 "/></g></g></g><g fill="#e2cbf6" fill-opacity="1"><g transform="translate(88.182124, 70.315095)"><g><path d="M 21.03125 0 L 15.5 0 L 15.5 -42.53125 L 0.578125 -42.53125 L 0.578125 -47.390625 L 35.890625 -47.390625 L 35.890625 -42.53125 L 21.03125 -42.53125 Z M 21.03125 0 "/></g></g></g><g fill="#e2cbf6" fill-opacity="1"><g transform="translate(124.742335, 70.315095)"><g><path d="M 60.328125 -47.390625 L 47.65625 0 L 42.109375 0 L 32.703125 -31.90625 C 32.421875 -32.8125 32.15625 -33.722656 31.90625 -34.640625 C 31.664062 -35.554688 31.4375 -36.429688 31.21875 -37.265625 C 31 -38.097656 30.816406 -38.832031 30.671875 -39.46875 C 30.535156 -40.101562 30.4375 -40.582031 30.375 -40.90625 C 30.332031 -40.582031 30.25 -40.109375 30.125 -39.484375 C 30.007812 -38.859375 29.859375 -38.132812 29.671875 -37.3125 C 29.492188 -36.488281 29.28125 -35.613281 29.03125 -34.6875 C 28.78125 -33.757812 28.515625 -32.816406 28.234375 -31.859375 L 19.09375 0 L 13.546875 0 L 0.96875 -47.390625 L 6.703125 -47.390625 L 14.328125 -17.671875 C 14.585938 -16.671875 14.828125 -15.691406 15.046875 -14.734375 C 15.273438 -13.773438 15.484375 -12.835938 15.671875 -11.921875 C 15.859375 -11.015625 16.023438 -10.128906 16.171875 -9.265625 C 16.328125 -8.398438 16.46875 -7.5625 16.59375 -6.75 C 16.707031 -7.582031 16.847656 -8.457031 17.015625 -9.375 C 17.191406 -10.300781 17.378906 -11.238281 17.578125 -12.1875 C 17.785156 -13.132812 18.015625 -14.09375 18.265625 -15.0625 C 18.515625 -16.039062 18.78125 -17.015625 19.0625 -17.984375 L 27.59375 -47.390625 L 33.265625 -47.390625 L 42.140625 -17.765625 C 42.441406 -16.742188 42.722656 -15.738281 42.984375 -14.75 C 43.242188 -13.757812 43.472656 -12.789062 43.671875 -11.84375 C 43.878906 -10.90625 44.0625 -10.007812 44.21875 -9.15625 C 44.382812 -8.300781 44.535156 -7.5 44.671875 -6.75 C 44.816406 -7.800781 45 -8.910156 45.21875 -10.078125 C 45.4375 -11.242188 45.691406 -12.460938 45.984375 -13.734375 C 46.273438 -15.015625 46.59375 -16.335938 46.9375 -17.703125 L 54.5625 -47.390625 Z M 60.328125 -47.390625 "/></g></g></g><g fill="#e2cbf6" fill-opacity="1"><g transform="translate(186.032546, 70.315095)"><g><path d="M 47.59375 -23.765625 C 47.59375 -20.109375 47.125 -16.78125 46.1875 -13.78125 C 45.257812 -10.789062 43.882812 -8.222656 42.0625 -6.078125 C 40.238281 -3.929688 37.972656 -2.273438 35.265625 -1.109375 C 32.566406 0.0546875 29.4375 0.640625 25.875 0.640625 C 22.195312 0.640625 18.988281 0.0546875 16.25 -1.109375 C 13.519531 -2.273438 11.253906 -3.9375 9.453125 -6.09375 C 7.648438 -8.257812 6.296875 -10.84375 5.390625 -13.84375 C 4.492188 -16.84375 4.046875 -20.171875 4.046875 -23.828125 C 4.046875 -28.671875 4.84375 -32.914062 6.4375 -36.5625 C 8.039062 -40.21875 10.46875 -43.0625 13.71875 -45.09375 C 16.976562 -47.125 21.0625 -48.140625 25.96875 -48.140625 C 30.65625 -48.140625 34.601562 -47.132812 37.8125 -45.125 C 41.019531 -43.113281 43.453125 -40.285156 45.109375 -36.640625 C 46.765625 -33.003906 47.59375 -28.710938 47.59375 -23.765625 Z M 9.859375 -23.765625 C 9.859375 -19.742188 10.429688 -16.265625 11.578125 -13.328125 C 12.722656 -10.390625 14.476562 -8.117188 16.84375 -6.515625 C 19.207031 -4.910156 22.21875 -4.109375 25.875 -4.109375 C 29.539062 -4.109375 32.546875 -4.910156 34.890625 -6.515625 C 37.242188 -8.117188 38.976562 -10.390625 40.09375 -13.328125 C 41.21875 -16.265625 41.78125 -19.742188 41.78125 -23.765625 C 41.78125 -29.878906 40.5 -34.660156 37.9375 -38.109375 C 35.382812 -41.554688 31.394531 -43.28125 25.96875 -43.28125 C 22.289062 -43.28125 19.265625 -42.488281 16.890625 -40.90625 C 14.515625 -39.332031 12.75 -37.09375 11.59375 -34.1875 C 10.4375 -31.28125 9.859375 -27.804688 9.859375 -23.765625 Z M 9.859375 -23.765625 "/></g></g></g><g fill="#e2cbf6" fill-opacity="1"><g transform="translate(237.664121, 70.315095)"><g><path d="M 19.28125 -47.390625 C 23.175781 -47.390625 26.390625 -46.910156 28.921875 -45.953125 C 31.460938 -44.992188 33.359375 -43.53125 34.609375 -41.5625 C 35.867188 -39.59375 36.5 -37.082031 36.5 -34.03125 C 36.5 -31.53125 36.046875 -29.441406 35.140625 -27.765625 C 34.234375 -26.085938 33.046875 -24.726562 31.578125 -23.6875 C 30.109375 -22.65625 28.539062 -21.859375 26.875 -21.296875 L 39.875 0 L 33.453125 0 L 21.84375 -19.78125 L 12 -19.78125 L 12 0 L 6.484375 0 L 6.484375 -47.390625 Z M 18.96875 -42.625 L 12 -42.625 L 12 -24.4375 L 19.515625 -24.4375 C 23.378906 -24.4375 26.222656 -25.222656 28.046875 -26.796875 C 29.878906 -28.378906 30.796875 -30.707031 30.796875 -33.78125 C 30.796875 -37 29.828125 -39.273438 27.890625 -40.609375 C 25.960938 -41.953125 22.988281 -42.625 18.96875 -42.625 Z M 18.96875 -42.625 "/></g></g></g><g fill="#e2cbf6" fill-opacity="1"><g transform="translate(278.632301, 70.315095)"><g><path d="M 40.65625 0 L 34.140625 0 L 17.046875 -23.046875 L 12 -18.515625 L 12 0 L 6.484375 0 L 6.484375 -47.390625 L 12 -47.390625 L 12 -23.765625 C 13.226562 -25.171875 14.488281 -26.566406 15.78125 -27.953125 C 17.082031 -29.347656 18.367188 -30.757812 19.640625 -32.1875 L 33.484375 -47.390625 L 39.9375 -47.390625 L 21.078125 -26.84375 Z M 40.65625 0 "/></g></g></g></g></g></g><g transform="matrix(1, 0, 0, 1, 405, 0)"><g clip-path="url(#d152443788)"><g fill="#ffffff" fill-opacity="1"><g transform="translate(1.68065, 80.523469)"><g><path d="M 49.71875 -31.140625 L 58.859375 -31.140625 L 58.859375 -0.1875 L 37.328125 -0.09375 C 27.359375 -0.09375 19.390625 -3.078125 13.421875 -9.046875 C 8.160156 -14.503906 5.273438 -21.835938 4.765625 -31.046875 L 14.375 -31.046875 C 14.757812 -25.203125 17.046875 -19.929688 21.234375 -15.234375 C 23.390625 -13.015625 25.738281 -11.394531 28.28125 -10.375 C 29.613281 -9.9375 31.085938 -9.570312 32.703125 -9.28125 C 34.328125 -9 36.09375 -8.859375 38 -8.859375 L 49.71875 -8.953125 Z M 37.421875 -67.046875 L 58.859375 -66.953125 L 58.859375 -58.09375 L 38.1875 -58.28125 C 36.40625 -58.28125 34.769531 -58.148438 33.28125 -57.890625 C 31.789062 -57.640625 30.410156 -57.234375 29.140625 -56.671875 C 27.929688 -56.160156 26.722656 -55.539062 25.515625 -54.8125 C 24.316406 -54.082031 23.144531 -53.207031 22 -52.1875 C 18.570312 -48.375 16.285156 -44.375 15.140625 -40.1875 L 5.140625 -40.1875 C 6.222656 -47.425781 8.984375 -53.332031 13.421875 -57.90625 C 19.453125 -64 27.453125 -67.046875 37.421875 -67.046875 Z M 37.421875 -67.046875 "/></g></g></g><g fill="#ffffff" fill-opacity="1"><g transform="translate(65.289668, 80.523469)"><g><path d="M 28.46875 -50 L 37.625 -50 L 37.625 0 L 28.46875 0 Z M 4.765625 -66.859375 L 61.328125 -66.859375 L 61.328125 -59.234375 L 37.625 -59.234375 L 37.625 -59.140625 L 28.46875 -59.140625 L 28.46875 -59.234375 L 4.765625 -59.234375 Z M 4.765625 -66.859375 "/></g></g></g><g fill="#ffffff" fill-opacity="1"><g transform="translate(131.374482, 80.523469)"><g><path d="M 4.765625 -30.765625 L 13.90625 -30.765625 L 13.90625 0 L 4.765625 0 Z M 4.765625 -66.765625 L 13.90625 -66.765625 L 13.90625 -39.8125 L 4.765625 -39.8125 Z M 4.765625 -66.765625 "/></g></g></g><g fill="#ffffff" fill-opacity="1"><g transform="translate(149.942974, 80.523469)"><g><path d="M 4.765625 -30.46875 L 14.375 -30.46875 C 14.820312 -24.820312 17.109375 -19.710938 21.234375 -15.140625 C 23.328125 -12.859375 25.675781 -11.207031 28.28125 -10.1875 C 30.945312 -9.238281 34.1875 -8.765625 38 -8.765625 L 58.765625 -8.859375 L 58.859375 -0.09375 L 37.328125 0 C 27.296875 0 19.328125 -2.953125 13.421875 -8.859375 C 8.222656 -14.378906 5.335938 -21.582031 4.765625 -30.46875 Z M 37.328125 -66.859375 L 58.859375 -66.859375 L 58.765625 -58 L 38.1875 -58.1875 C 36.40625 -58.1875 34.769531 -58.054688 33.28125 -57.796875 C 31.789062 -57.546875 30.410156 -57.132812 29.140625 -56.5625 C 27.929688 -56.0625 26.722656 -55.441406 25.515625 -54.703125 C 24.316406 -53.972656 23.144531 -53.070312 22 -52 C 18.25 -47.875 15.835938 -43.492188 14.765625 -38.859375 L 4.953125 -38.859375 C 5.898438 -46.734375 8.722656 -53.019531 13.421875 -57.71875 C 19.453125 -63.8125 27.421875 -66.859375 37.328125 -66.859375 Z M 37.328125 -66.859375 "/></g></g></g><g fill="#ffffff" fill-opacity="1"><g transform="translate(213.471141, 80.523469)"><g/></g></g></g></g><g clip-path="url(#57c12e6748)"><path fill="#ffffff" d="M 662.109375 -4.945312 L 662.816406 -4.945312 L 662.816406 42.777344 C 664 42.949219 664.910156 43.96875 664.910156 45.199219 C 664.910156 46.429688 664 47.449219 662.816406 47.621094 L 662.816406 95.34375 L 662.109375 95.34375 L 662.109375 47.621094 C 660.925781 47.449219 660.015625 46.429688 660.015625 45.199219 C 660.015625 43.96875 660.925781 42.949219 662.109375 42.777344 Z M 660.492188 45.199219 L 661.335938 44.355469 L 661.335938 46.042969 Z M 664.433594 45.199219 L 663.589844 44.355469 L 663.589844 46.042969 Z M 664.433594 45.199219 " fill-opacity="1" fill-rule="evenodd"/></g><g clip-path="url(#16c6f9136e)"><path fill="#fefefe" d="M 660.492188 45.199219 L 661.335938 44.355469 L 661.335938 46.042969 Z M 660.492188 45.199219 " fill-opacity="1" fill-rule="evenodd"/></g><path fill="#fefefe" d="M 664.433594 45.199219 L 663.589844 44.355469 L 663.589844 46.042969 Z M 664.433594 45.199219 " fill-opacity="1" fill-rule="evenodd"/></svg>