<svg xmlns="http://www.w3.org/2000/svg" xmlns:xlink="http://www.w3.org/1999/xlink" width="1902" zoomAndPan="magnify" viewBox="0 0 1426.5 92.249997" height="123" preserveAspectRatio="xMidYMid meet" version="1.0"><defs><g/><clipPath id="a2d89da528"><rect x="0" width="233" y="0" height="82"/></clipPath><clipPath id="37eeb9fef3"><path d="M 660.015625 0 L 665 0 L 665 91.507812 L 660.015625 91.507812 Z M 660.015625 0 " clip-rule="nonzero"/></clipPath><clipPath id="30f504cc9c"><path d="M 660.015625 44 L 662 44 L 662 47 L 660.015625 47 Z M 660.015625 44 " clip-rule="nonzero"/></clipPath></defs><g fill="#e2cbf6" fill-opacity="1"><g transform="translate(695.14871, 66.775806)"><g><path d="M 29.265625 -11.109375 C 29.265625 -8.628906 28.648438 -6.519531 27.421875 -4.78125 C 26.203125 -3.039062 24.488281 -1.710938 22.28125 -0.796875 C 20.070312 0.117188 17.472656 0.578125 14.484375 0.578125 C 12.898438 0.578125 11.398438 0.5 9.984375 0.34375 C 8.578125 0.1875 7.285156 -0.03125 6.109375 -0.3125 C 4.929688 -0.601562 3.894531 -0.957031 3 -1.375 L 3 -6.03125 C 4.425781 -5.4375 6.164062 -4.882812 8.21875 -4.375 C 10.28125 -3.875 12.429688 -3.625 14.671875 -3.625 C 16.765625 -3.625 18.535156 -3.90625 19.984375 -4.46875 C 21.429688 -5.03125 22.53125 -5.835938 23.28125 -6.890625 C 24.039062 -7.953125 24.421875 -9.222656 24.421875 -10.703125 C 24.421875 -12.128906 24.101562 -13.320312 23.46875 -14.28125 C 22.84375 -15.25 21.800781 -16.128906 20.34375 -16.921875 C 18.882812 -17.710938 16.898438 -18.554688 14.390625 -19.453125 C 12.617188 -20.078125 11.054688 -20.765625 9.703125 -21.515625 C 8.359375 -22.265625 7.226562 -23.113281 6.3125 -24.0625 C 5.394531 -25.019531 4.703125 -26.125 4.234375 -27.375 C 3.773438 -28.632812 3.546875 -30.078125 3.546875 -31.703125 C 3.546875 -33.929688 4.109375 -35.835938 5.234375 -37.421875 C 6.367188 -39.015625 7.941406 -40.234375 9.953125 -41.078125 C 11.960938 -41.921875 14.269531 -42.34375 16.875 -42.34375 C 19.101562 -42.34375 21.164062 -42.132812 23.0625 -41.71875 C 24.957031 -41.300781 26.691406 -40.738281 28.265625 -40.03125 L 26.75 -35.875 C 25.25 -36.5 23.65625 -37.019531 21.96875 -37.4375 C 20.289062 -37.851562 18.554688 -38.0625 16.765625 -38.0625 C 14.972656 -38.0625 13.460938 -37.800781 12.234375 -37.28125 C 11.003906 -36.757812 10.066406 -36.019531 9.421875 -35.0625 C 8.773438 -34.113281 8.453125 -32.984375 8.453125 -31.671875 C 8.453125 -30.203125 8.757812 -28.984375 9.375 -28.015625 C 10 -27.046875 10.988281 -26.179688 12.34375 -25.421875 C 13.707031 -24.671875 15.515625 -23.890625 17.765625 -23.078125 C 20.222656 -22.179688 22.304688 -21.234375 24.015625 -20.234375 C 25.734375 -19.234375 27.035156 -18.015625 27.921875 -16.578125 C 28.816406 -15.140625 29.265625 -13.316406 29.265625 -11.109375 Z M 29.265625 -11.109375 "/></g></g></g><g fill="#e2cbf6" fill-opacity="1"><g transform="translate(727.216489, 66.775806)"><g><path d="M 5.71875 0 L 5.71875 -41.75 L 10.5625 -41.75 L 10.5625 0 Z M 5.71875 0 "/></g></g></g><g fill="#e2cbf6" fill-opacity="1"><g transform="translate(743.550208, 66.775806)"><g><path d="M 18.53125 0 L 13.65625 0 L 13.65625 -37.46875 L 0.515625 -37.46875 L 0.515625 -41.75 L 31.609375 -41.75 L 31.609375 -37.46875 L 18.53125 -37.46875 Z M 18.53125 0 "/></g></g></g><g fill="#e2cbf6" fill-opacity="1"><g transform="translate(775.760759, 66.775806)"><g><path d="M 28.953125 0 L 5.71875 0 L 5.71875 -41.75 L 28.953125 -41.75 L 28.953125 -37.46875 L 10.5625 -37.46875 L 10.5625 -23.953125 L 27.90625 -23.953125 L 27.90625 -19.734375 L 10.5625 -19.734375 L 10.5625 -4.28125 L 28.953125 -4.28125 Z M 28.953125 0 "/></g></g></g><g fill="#e2cbf6" fill-opacity="1"><g transform="translate(808.256864, 66.775806)"><g><path d="M 29.265625 -11.109375 C 29.265625 -8.628906 28.648438 -6.519531 27.421875 -4.78125 C 26.203125 -3.039062 24.488281 -1.710938 22.28125 -0.796875 C 20.070312 0.117188 17.472656 0.578125 14.484375 0.578125 C 12.898438 0.578125 11.398438 0.5 9.984375 0.34375 C 8.578125 0.1875 7.285156 -0.03125 6.109375 -0.3125 C 4.929688 -0.601562 3.894531 -0.957031 3 -1.375 L 3 -6.03125 C 4.425781 -5.4375 6.164062 -4.882812 8.21875 -4.375 C 10.28125 -3.875 12.429688 -3.625 14.671875 -3.625 C 16.765625 -3.625 18.535156 -3.90625 19.984375 -4.46875 C 21.429688 -5.03125 22.53125 -5.835938 23.28125 -6.890625 C 24.039062 -7.953125 24.421875 -9.222656 24.421875 -10.703125 C 24.421875 -12.128906 24.101562 -13.320312 23.46875 -14.28125 C 22.84375 -15.25 21.800781 -16.128906 20.34375 -16.921875 C 18.882812 -17.710938 16.898438 -18.554688 14.390625 -19.453125 C 12.617188 -20.078125 11.054688 -20.765625 9.703125 -21.515625 C 8.359375 -22.265625 7.226562 -23.113281 6.3125 -24.0625 C 5.394531 -25.019531 4.703125 -26.125 4.234375 -27.375 C 3.773438 -28.632812 3.546875 -30.078125 3.546875 -31.703125 C 3.546875 -33.929688 4.109375 -35.835938 5.234375 -37.421875 C 6.367188 -39.015625 7.941406 -40.234375 9.953125 -41.078125 C 11.960938 -41.921875 14.269531 -42.34375 16.875 -42.34375 C 19.101562 -42.34375 21.164062 -42.132812 23.0625 -41.71875 C 24.957031 -41.300781 26.691406 -40.738281 28.265625 -40.03125 L 26.75 -35.875 C 25.25 -36.5 23.65625 -37.019531 21.96875 -37.4375 C 20.289062 -37.851562 18.554688 -38.0625 16.765625 -38.0625 C 14.972656 -38.0625 13.460938 -37.800781 12.234375 -37.28125 C 11.003906 -36.757812 10.066406 -36.019531 9.421875 -35.0625 C 8.773438 -34.113281 8.453125 -32.984375 8.453125 -31.671875 C 8.453125 -30.203125 8.757812 -28.984375 9.375 -28.015625 C 10 -27.046875 10.988281 -26.179688 12.34375 -25.421875 C 13.707031 -24.671875 15.515625 -23.890625 17.765625 -23.078125 C 20.222656 -22.179688 22.304688 -21.234375 24.015625 -20.234375 C 25.734375 -19.234375 27.035156 -18.015625 27.921875 -16.578125 C 28.816406 -15.140625 29.265625 -13.316406 29.265625 -11.109375 Z M 29.265625 -11.109375 "/></g></g></g><g transform="matrix(1, 0, 0, 1, 405, 0)"><g clip-path="url(#a2d89da528)"><g fill="#ffffff" fill-opacity="1"><g transform="translate(1.68065, 80.523469)"><g><path d="M 49.71875 -31.140625 L 58.859375 -31.140625 L 58.859375 -0.1875 L 37.328125 -0.09375 C 27.359375 -0.09375 19.390625 -3.078125 13.421875 -9.046875 C 8.160156 -14.503906 5.273438 -21.835938 4.765625 -31.046875 L 14.375 -31.046875 C 14.757812 -25.203125 17.046875 -19.929688 21.234375 -15.234375 C 23.390625 -13.015625 25.738281 -11.394531 28.28125 -10.375 C 29.613281 -9.9375 31.085938 -9.570312 32.703125 -9.28125 C 34.328125 -9 36.09375 -8.859375 38 -8.859375 L 49.71875 -8.953125 Z M 37.421875 -67.046875 L 58.859375 -66.953125 L 58.859375 -58.09375 L 38.1875 -58.28125 C 36.40625 -58.28125 34.769531 -58.148438 33.28125 -57.890625 C 31.789062 -57.640625 30.410156 -57.234375 29.140625 -56.671875 C 27.929688 -56.160156 26.722656 -55.539062 25.515625 -54.8125 C 24.316406 -54.082031 23.144531 -53.207031 22 -52.1875 C 18.570312 -48.375 16.285156 -44.375 15.140625 -40.1875 L 5.140625 -40.1875 C 6.222656 -47.425781 8.984375 -53.332031 13.421875 -57.90625 C 19.453125 -64 27.453125 -67.046875 37.421875 -67.046875 Z M 37.421875 -67.046875 "/></g></g></g><g fill="#ffffff" fill-opacity="1"><g transform="translate(65.289668, 80.523469)"><g><path d="M 28.46875 -50 L 37.625 -50 L 37.625 0 L 28.46875 0 Z M 4.765625 -66.859375 L 61.328125 -66.859375 L 61.328125 -59.234375 L 37.625 -59.234375 L 37.625 -59.140625 L 28.46875 -59.140625 L 28.46875 -59.234375 L 4.765625 -59.234375 Z M 4.765625 -66.859375 "/></g></g></g><g fill="#ffffff" fill-opacity="1"><g transform="translate(131.374482, 80.523469)"><g><path d="M 4.765625 -30.765625 L 13.90625 -30.765625 L 13.90625 0 L 4.765625 0 Z M 4.765625 -66.765625 L 13.90625 -66.765625 L 13.90625 -39.8125 L 4.765625 -39.8125 Z M 4.765625 -66.765625 "/></g></g></g><g fill="#ffffff" fill-opacity="1"><g transform="translate(149.942974, 80.523469)"><g><path d="M 4.765625 -30.46875 L 14.375 -30.46875 C 14.820312 -24.820312 17.109375 -19.710938 21.234375 -15.140625 C 23.328125 -12.859375 25.675781 -11.207031 28.28125 -10.1875 C 30.945312 -9.238281 34.1875 -8.765625 38 -8.765625 L 58.765625 -8.859375 L 58.859375 -0.09375 L 37.328125 0 C 27.296875 0 19.328125 -2.953125 13.421875 -8.859375 C 8.222656 -14.378906 5.335938 -21.582031 4.765625 -30.46875 Z M 37.328125 -66.859375 L 58.859375 -66.859375 L 58.765625 -58 L 38.1875 -58.1875 C 36.40625 -58.1875 34.769531 -58.054688 33.28125 -57.796875 C 31.789062 -57.546875 30.410156 -57.132812 29.140625 -56.5625 C 27.929688 -56.0625 26.722656 -55.441406 25.515625 -54.703125 C 24.316406 -53.972656 23.144531 -53.070312 22 -52 C 18.25 -47.875 15.835938 -43.492188 14.765625 -38.859375 L 4.953125 -38.859375 C 5.898438 -46.734375 8.722656 -53.019531 13.421875 -57.71875 C 19.453125 -63.8125 27.421875 -66.859375 37.328125 -66.859375 Z M 37.328125 -66.859375 "/></g></g></g><g fill="#ffffff" fill-opacity="1"><g transform="translate(213.471141, 80.523469)"><g/></g></g></g></g><g clip-path="url(#37eeb9fef3)"><path fill="#ffffff" d="M 662.109375 -4.945312 L 662.816406 -4.945312 L 662.816406 42.777344 C 664 42.949219 664.910156 43.96875 664.910156 45.199219 C 664.910156 46.429688 664 47.449219 662.816406 47.621094 L 662.816406 95.34375 L 662.109375 95.34375 L 662.109375 47.621094 C 660.925781 47.449219 660.015625 46.429688 660.015625 45.199219 C 660.015625 43.96875 660.925781 42.949219 662.109375 42.777344 Z M 660.492188 45.199219 L 661.335938 44.355469 L 661.335938 46.042969 Z M 664.433594 45.199219 L 663.589844 44.355469 L 663.589844 46.042969 Z M 664.433594 45.199219 " fill-opacity="1" fill-rule="evenodd"/></g><g clip-path="url(#30f504cc9c)"><path fill="#fefefe" d="M 660.492188 45.199219 L 661.335938 44.355469 L 661.335938 46.042969 Z M 660.492188 45.199219 " fill-opacity="1" fill-rule="evenodd"/></g><path fill="#fefefe" d="M 664.433594 45.199219 L 663.589844 44.355469 L 663.589844 46.042969 Z M 664.433594 45.199219 " fill-opacity="1" fill-rule="evenodd"/></svg>