<svg xmlns="http://www.w3.org/2000/svg" xmlns:xlink="http://www.w3.org/1999/xlink" width="1902" zoomAndPan="magnify" viewBox="0 0 1426.5 92.249997" height="123" preserveAspectRatio="xMidYMid meet" version="1.0"><defs><g/><clipPath id="ca6e45b14f"><path d="M 5.503906 0 L 1420.5 0 L 1420.5 91.507812 L 5.503906 91.507812 Z M 5.503906 0 " clip-rule="nonzero"/></clipPath><clipPath id="284f252d44"><rect x="0" width="233" y="0" height="82"/></clipPath><clipPath id="369e7e6f8c"><path d="M 660.015625 0 L 665 0 L 665 91.507812 L 660.015625 91.507812 Z M 660.015625 0 " clip-rule="nonzero"/></clipPath><clipPath id="059584b347"><path d="M 660.015625 44 L 662 44 L 662 47 L 660.015625 47 Z M 660.015625 44 " clip-rule="nonzero"/></clipPath></defs><g clip-path="url(#ca6e45b14f)"><path fill="#ffffff" d="M 5.503906 0 L 1420.5 0 L 1420.5 91.507812 L 5.503906 91.507812 Z M 5.503906 0 " fill-opacity="1" fill-rule="nonzero"/><path fill="#18013c" d="M 5.503906 0 L 1420.5 0 L 1420.5 91.507812 L 5.503906 91.507812 Z M 5.503906 0 " fill-opacity="1" fill-rule="nonzero"/></g><g fill="#e2cbf6" fill-opacity="1"><g transform="translate(680.579472, 36.217884)"><g><path d="M 10.0625 -24.734375 C 12.09375 -24.734375 13.769531 -24.484375 15.09375 -23.984375 C 16.425781 -23.484375 17.414062 -22.71875 18.0625 -21.6875 C 18.71875 -20.664062 19.046875 -19.359375 19.046875 -17.765625 C 19.046875 -16.460938 18.804688 -15.375 18.328125 -14.5 C 17.859375 -13.625 17.238281 -12.914062 16.46875 -12.375 C 15.707031 -11.832031 14.894531 -11.414062 14.03125 -11.125 L 20.8125 0 L 17.46875 0 L 11.40625 -10.328125 L 6.265625 -10.328125 L 6.265625 0 L 3.390625 0 L 3.390625 -24.734375 Z M 9.90625 -22.25 L 6.265625 -22.25 L 6.265625 -12.765625 L 10.1875 -12.765625 C 12.207031 -12.765625 13.691406 -13.175781 14.640625 -14 C 15.597656 -14.820312 16.078125 -16.03125 16.078125 -17.625 C 16.078125 -19.3125 15.570312 -20.503906 14.5625 -21.203125 C 13.550781 -21.898438 12 -22.25 9.90625 -22.25 Z M 9.90625 -22.25 "/></g></g></g><g fill="#e2cbf6" fill-opacity="1"><g transform="translate(701.966172, 36.217884)"><g><path d="M 17.15625 0 L 3.390625 0 L 3.390625 -24.734375 L 17.15625 -24.734375 L 17.15625 -22.203125 L 6.265625 -22.203125 L 6.265625 -14.203125 L 16.53125 -14.203125 L 16.53125 -11.6875 L 6.265625 -11.6875 L 6.265625 -2.53125 L 17.15625 -2.53125 Z M 17.15625 0 "/></g></g></g><g fill="#e2cbf6" fill-opacity="1"><g transform="translate(721.22097, 36.217884)"><g><path d="M 3.390625 0 L 3.390625 -24.734375 L 6.265625 -24.734375 L 6.265625 -2.578125 L 17.25 -2.578125 L 17.25 0 Z M 3.390625 0 "/></g></g></g><g fill="#e2cbf6" fill-opacity="1"><g transform="translate(739.308303, 36.217884)"><g><path d="M 18.90625 0 L 15.859375 -7.859375 L 5.9375 -7.859375 L 2.90625 0 L 0 0 L 9.671875 -24.84375 L 12.265625 -24.84375 L 21.875 0 Z M 15 -10.40625 L 12.09375 -18.203125 C 12.03125 -18.410156 11.921875 -18.742188 11.765625 -19.203125 C 11.617188 -19.671875 11.460938 -20.148438 11.296875 -20.640625 C 11.140625 -21.140625 11.015625 -21.539062 10.921875 -21.84375 C 10.804688 -21.382812 10.679688 -20.925781 10.546875 -20.46875 C 10.421875 -20.007812 10.296875 -19.582031 10.171875 -19.1875 C 10.046875 -18.800781 9.9375 -18.472656 9.84375 -18.203125 L 6.90625 -10.40625 Z M 15 -10.40625 "/></g></g></g><g fill="#e2cbf6" fill-opacity="1"><g transform="translate(761.219525, 36.217884)"><g><path d="M 10.984375 0 L 8.09375 0 L 8.09375 -22.203125 L 0.296875 -22.203125 L 0.296875 -24.734375 L 18.734375 -24.734375 L 18.734375 -22.203125 L 10.984375 -22.203125 Z M 10.984375 0 "/></g></g></g><g fill="#e2cbf6" fill-opacity="1"><g transform="translate(780.305124, 36.217884)"><g><path d="M 24.84375 -12.40625 C 24.84375 -10.5 24.597656 -8.765625 24.109375 -7.203125 C 23.628906 -5.640625 22.910156 -4.296875 21.953125 -3.171875 C 21.003906 -2.046875 19.820312 -1.175781 18.40625 -0.5625 C 17 0.0390625 15.363281 0.34375 13.5 0.34375 C 11.582031 0.34375 9.910156 0.0390625 8.484375 -0.5625 C 7.054688 -1.175781 5.867188 -2.046875 4.921875 -3.171875 C 3.984375 -4.304688 3.28125 -5.65625 2.8125 -7.21875 C 2.34375 -8.789062 2.109375 -10.53125 2.109375 -12.4375 C 2.109375 -14.96875 2.523438 -17.1875 3.359375 -19.09375 C 4.203125 -21 5.472656 -22.476562 7.171875 -23.53125 C 8.867188 -24.59375 10.992188 -25.125 13.546875 -25.125 C 16.003906 -25.125 18.066406 -24.597656 19.734375 -23.546875 C 21.410156 -22.503906 22.679688 -21.03125 23.546875 -19.125 C 24.410156 -17.226562 24.84375 -14.988281 24.84375 -12.40625 Z M 5.140625 -12.40625 C 5.140625 -10.300781 5.4375 -8.484375 6.03125 -6.953125 C 6.632812 -5.421875 7.550781 -4.238281 8.78125 -3.40625 C 10.019531 -2.570312 11.59375 -2.15625 13.5 -2.15625 C 15.414062 -2.15625 16.984375 -2.570312 18.203125 -3.40625 C 19.429688 -4.238281 20.335938 -5.421875 20.921875 -6.953125 C 21.515625 -8.484375 21.8125 -10.300781 21.8125 -12.40625 C 21.8125 -15.59375 21.140625 -18.085938 19.796875 -19.890625 C 18.460938 -21.691406 16.378906 -22.59375 13.546875 -22.59375 C 11.628906 -22.59375 10.050781 -22.179688 8.8125 -21.359375 C 7.570312 -20.535156 6.648438 -19.363281 6.046875 -17.84375 C 5.441406 -16.320312 5.140625 -14.507812 5.140625 -12.40625 Z M 18.390625 -32.75 L 18.390625 -32.421875 C 18.171875 -32.085938 17.863281 -31.691406 17.46875 -31.234375 C 17.082031 -30.773438 16.648438 -30.296875 16.171875 -29.796875 C 15.703125 -29.296875 15.226562 -28.816406 14.75 -28.359375 C 14.269531 -27.910156 13.828125 -27.523438 13.421875 -27.203125 L 11.546875 -27.203125 L 11.546875 -27.609375 C 11.898438 -28.035156 12.289062 -28.550781 12.71875 -29.15625 C 13.15625 -29.757812 13.578125 -30.378906 13.984375 -31.015625 C 14.390625 -31.648438 14.726562 -32.226562 15 -32.75 Z M 18.390625 -32.75 "/></g></g></g><g fill="#e2cbf6" fill-opacity="1"><g transform="translate(807.258463, 36.217884)"><g><path d="M 10.0625 -24.734375 C 12.09375 -24.734375 13.769531 -24.484375 15.09375 -23.984375 C 16.425781 -23.484375 17.414062 -22.71875 18.0625 -21.6875 C 18.71875 -20.664062 19.046875 -19.359375 19.046875 -17.765625 C 19.046875 -16.460938 18.804688 -15.375 18.328125 -14.5 C 17.859375 -13.625 17.238281 -12.914062 16.46875 -12.375 C 15.707031 -11.832031 14.894531 -11.414062 14.03125 -11.125 L 20.8125 0 L 17.46875 0 L 11.40625 -10.328125 L 6.265625 -10.328125 L 6.265625 0 L 3.390625 0 L 3.390625 -24.734375 Z M 9.90625 -22.25 L 6.265625 -22.25 L 6.265625 -12.765625 L 10.1875 -12.765625 C 12.207031 -12.765625 13.691406 -13.175781 14.640625 -14 C 15.597656 -14.820312 16.078125 -16.03125 16.078125 -17.625 C 16.078125 -19.3125 15.570312 -20.503906 14.5625 -21.203125 C 13.550781 -21.898438 12 -22.25 9.90625 -22.25 Z M 9.90625 -22.25 "/></g></g></g><g fill="#e2cbf6" fill-opacity="1"><g transform="translate(828.645164, 36.217884)"><g><path d="M 3.390625 0 L 3.390625 -24.734375 L 6.265625 -24.734375 L 6.265625 0 Z M 3.390625 0 "/></g></g></g><g fill="#e2cbf6" fill-opacity="1"><g transform="translate(838.323322, 36.217884)"><g><path d="M 24.84375 -12.40625 C 24.84375 -10.5 24.597656 -8.765625 24.109375 -7.203125 C 23.628906 -5.640625 22.910156 -4.296875 21.953125 -3.171875 C 21.003906 -2.046875 19.820312 -1.175781 18.40625 -0.5625 C 17 0.0390625 15.363281 0.34375 13.5 0.34375 C 11.582031 0.34375 9.910156 0.0390625 8.484375 -0.5625 C 7.054688 -1.175781 5.867188 -2.046875 4.921875 -3.171875 C 3.984375 -4.304688 3.28125 -5.65625 2.8125 -7.21875 C 2.34375 -8.789062 2.109375 -10.53125 2.109375 -12.4375 C 2.109375 -14.96875 2.523438 -17.1875 3.359375 -19.09375 C 4.203125 -21 5.472656 -22.476562 7.171875 -23.53125 C 8.867188 -24.59375 10.992188 -25.125 13.546875 -25.125 C 16.003906 -25.125 18.066406 -24.597656 19.734375 -23.546875 C 21.410156 -22.503906 22.679688 -21.03125 23.546875 -19.125 C 24.410156 -17.226562 24.84375 -14.988281 24.84375 -12.40625 Z M 5.140625 -12.40625 C 5.140625 -10.300781 5.4375 -8.484375 6.03125 -6.953125 C 6.632812 -5.421875 7.550781 -4.238281 8.78125 -3.40625 C 10.019531 -2.570312 11.59375 -2.15625 13.5 -2.15625 C 15.414062 -2.15625 16.984375 -2.570312 18.203125 -3.40625 C 19.429688 -4.238281 20.335938 -5.421875 20.921875 -6.953125 C 21.515625 -8.484375 21.8125 -10.300781 21.8125 -12.40625 C 21.8125 -15.59375 21.140625 -18.085938 19.796875 -19.890625 C 18.460938 -21.691406 16.378906 -22.59375 13.546875 -22.59375 C 11.628906 -22.59375 10.050781 -22.179688 8.8125 -21.359375 C 7.570312 -20.535156 6.648438 -19.363281 6.046875 -17.84375 C 5.441406 -16.320312 5.140625 -14.507812 5.140625 -12.40625 Z M 5.140625 -12.40625 "/></g></g></g><g fill="#e2cbf6" fill-opacity="1"><g transform="translate(865.276661, 36.217884)"><g/></g></g><g fill="#e2cbf6" fill-opacity="1"><g transform="translate(874.278026, 36.217884)"><g><path d="M 23.03125 -12.609375 C 23.03125 -9.816406 22.519531 -7.488281 21.5 -5.625 C 20.488281 -3.757812 19.019531 -2.351562 17.09375 -1.40625 C 15.175781 -0.46875 12.847656 0 10.109375 0 L 3.390625 0 L 3.390625 -24.734375 L 10.84375 -24.734375 C 13.363281 -24.734375 15.53125 -24.273438 17.34375 -23.359375 C 19.15625 -22.441406 20.554688 -21.082031 21.546875 -19.28125 C 22.535156 -17.476562 23.03125 -15.253906 23.03125 -12.609375 Z M 20 -12.5 C 20 -14.726562 19.628906 -16.5625 18.890625 -18 C 18.148438 -19.445312 17.066406 -20.519531 15.640625 -21.21875 C 14.210938 -21.925781 12.46875 -22.28125 10.40625 -22.28125 L 6.265625 -22.28125 L 6.265625 -2.46875 L 9.765625 -2.46875 C 13.171875 -2.46875 15.726562 -3.304688 17.4375 -4.984375 C 19.144531 -6.671875 20 -9.175781 20 -12.5 Z M 20 -12.5 "/></g></g></g><g fill="#e2cbf6" fill-opacity="1"><g transform="translate(899.420923, 36.217884)"><g><path d="M 17.15625 0 L 3.390625 0 L 3.390625 -24.734375 L 17.15625 -24.734375 L 17.15625 -22.203125 L 6.265625 -22.203125 L 6.265625 -14.203125 L 16.53125 -14.203125 L 16.53125 -11.6875 L 6.265625 -11.6875 L 6.265625 -2.53125 L 17.15625 -2.53125 Z M 17.15625 0 "/></g></g></g><g fill="#e2cbf6" fill-opacity="1"><g transform="translate(702.072697, 84.574735)"><g><path d="M 3.390625 0 L 3.390625 -24.734375 L 6.265625 -24.734375 L 6.265625 0 Z M 3.390625 0 "/></g></g></g><g fill="#e2cbf6" fill-opacity="1"><g transform="translate(711.750856, 84.574735)"><g><path d="M 22.71875 0 L 19.40625 0 L 5.921875 -20.78125 L 5.78125 -20.78125 C 5.820312 -20.226562 5.863281 -19.597656 5.90625 -18.890625 C 5.945312 -18.179688 5.984375 -17.429688 6.015625 -16.640625 C 6.046875 -15.847656 6.0625 -15.039062 6.0625 -14.21875 L 6.0625 0 L 3.390625 0 L 3.390625 -24.734375 L 6.6875 -24.734375 L 20.125 -4.03125 L 20.234375 -4.03125 C 20.210938 -4.425781 20.1875 -4.984375 20.15625 -5.703125 C 20.125 -6.429688 20.09375 -7.21875 20.0625 -8.0625 C 20.03125 -8.90625 20.015625 -9.6875 20.015625 -10.40625 L 20.015625 -24.734375 L 22.71875 -24.734375 Z M 22.71875 0 "/></g></g></g><g fill="#e2cbf6" fill-opacity="1"><g transform="translate(737.841276, 84.574735)"><g><path d="M 13.953125 -22.5625 C 12.585938 -22.5625 11.359375 -22.328125 10.265625 -21.859375 C 9.179688 -21.390625 8.257812 -20.710938 7.5 -19.828125 C 6.738281 -18.941406 6.15625 -17.867188 5.75 -16.609375 C 5.34375 -15.359375 5.140625 -13.953125 5.140625 -12.390625 C 5.140625 -10.304688 5.460938 -8.5 6.109375 -6.96875 C 6.765625 -5.445312 7.738281 -4.269531 9.03125 -3.4375 C 10.320312 -2.601562 11.9375 -2.1875 13.875 -2.1875 C 14.976562 -2.1875 16.019531 -2.273438 17 -2.453125 C 17.976562 -2.640625 18.925781 -2.878906 19.84375 -3.171875 L 19.84375 -0.65625 C 18.945312 -0.320312 18 -0.0703125 17 0.09375 C 16.007812 0.257812 14.832031 0.34375 13.46875 0.34375 C 10.957031 0.34375 8.859375 -0.175781 7.171875 -1.21875 C 5.484375 -2.269531 4.21875 -3.75 3.375 -5.65625 C 2.53125 -7.5625 2.109375 -9.8125 2.109375 -12.40625 C 2.109375 -14.28125 2.367188 -15.988281 2.890625 -17.53125 C 3.421875 -19.082031 4.191406 -20.421875 5.203125 -21.546875 C 6.210938 -22.679688 7.453125 -23.554688 8.921875 -24.171875 C 10.398438 -24.785156 12.09375 -25.09375 14 -25.09375 C 15.25 -25.09375 16.453125 -24.96875 17.609375 -24.71875 C 18.773438 -24.46875 19.828125 -24.113281 20.765625 -23.65625 L 19.609375 -21.21875 C 18.816406 -21.582031 17.953125 -21.894531 17.015625 -22.15625 C 16.078125 -22.425781 15.054688 -22.5625 13.953125 -22.5625 Z M 13.953125 -22.5625 "/></g></g></g><g fill="#e2cbf6" fill-opacity="1"><g transform="translate(759.667892, 84.574735)"><g><path d="M 3.390625 0 L 3.390625 -24.734375 L 6.265625 -24.734375 L 6.265625 0 Z M 3.390625 0 "/></g></g></g><g fill="#e2cbf6" fill-opacity="1"><g transform="translate(769.346051, 84.574735)"><g><path d="M 23.03125 -12.609375 C 23.03125 -9.816406 22.519531 -7.488281 21.5 -5.625 C 20.488281 -3.757812 19.019531 -2.351562 17.09375 -1.40625 C 15.175781 -0.46875 12.847656 0 10.109375 0 L 3.390625 0 L 3.390625 -24.734375 L 10.84375 -24.734375 C 13.363281 -24.734375 15.53125 -24.273438 17.34375 -23.359375 C 19.15625 -22.441406 20.554688 -21.082031 21.546875 -19.28125 C 22.535156 -17.476562 23.03125 -15.253906 23.03125 -12.609375 Z M 20 -12.5 C 20 -14.726562 19.628906 -16.5625 18.890625 -18 C 18.148438 -19.445312 17.066406 -20.519531 15.640625 -21.21875 C 14.210938 -21.925781 12.46875 -22.28125 10.40625 -22.28125 L 6.265625 -22.28125 L 6.265625 -2.46875 L 9.765625 -2.46875 C 13.171875 -2.46875 15.726562 -3.304688 17.4375 -4.984375 C 19.144531 -6.671875 20 -9.175781 20 -12.5 Z M 20 -12.5 "/></g></g></g><g fill="#e2cbf6" fill-opacity="1"><g transform="translate(794.488959, 84.574735)"><g><path d="M 17.15625 0 L 3.390625 0 L 3.390625 -24.734375 L 17.15625 -24.734375 L 17.15625 -22.203125 L 6.265625 -22.203125 L 6.265625 -14.203125 L 16.53125 -14.203125 L 16.53125 -11.6875 L 6.265625 -11.6875 L 6.265625 -2.53125 L 17.15625 -2.53125 Z M 17.15625 0 "/></g></g></g><g fill="#e2cbf6" fill-opacity="1"><g transform="translate(813.743757, 84.574735)"><g><path d="M 22.71875 0 L 19.40625 0 L 5.921875 -20.78125 L 5.78125 -20.78125 C 5.820312 -20.226562 5.863281 -19.597656 5.90625 -18.890625 C 5.945312 -18.179688 5.984375 -17.429688 6.015625 -16.640625 C 6.046875 -15.847656 6.0625 -15.039062 6.0625 -14.21875 L 6.0625 0 L 3.390625 0 L 3.390625 -24.734375 L 6.6875 -24.734375 L 20.125 -4.03125 L 20.234375 -4.03125 C 20.210938 -4.425781 20.1875 -4.984375 20.15625 -5.703125 C 20.125 -6.429688 20.09375 -7.21875 20.0625 -8.0625 C 20.03125 -8.90625 20.015625 -9.6875 20.015625 -10.40625 L 20.015625 -24.734375 L 22.71875 -24.734375 Z M 22.71875 0 "/></g></g></g><g fill="#e2cbf6" fill-opacity="1"><g transform="translate(839.834178, 84.574735)"><g><path d="M 10.984375 0 L 8.09375 0 L 8.09375 -22.203125 L 0.296875 -22.203125 L 0.296875 -24.734375 L 18.734375 -24.734375 L 18.734375 -22.203125 L 10.984375 -22.203125 Z M 10.984375 0 "/></g></g></g><g fill="#e2cbf6" fill-opacity="1"><g transform="translate(858.919777, 84.574735)"><g><path d="M 17.15625 0 L 3.390625 0 L 3.390625 -24.734375 L 17.15625 -24.734375 L 17.15625 -22.203125 L 6.265625 -22.203125 L 6.265625 -14.203125 L 16.53125 -14.203125 L 16.53125 -11.6875 L 6.265625 -11.6875 L 6.265625 -2.53125 L 17.15625 -2.53125 Z M 17.15625 0 "/></g></g></g><g fill="#e2cbf6" fill-opacity="1"><g transform="translate(878.174575, 84.574735)"><g><path d="M 17.34375 -6.578125 C 17.34375 -5.109375 16.976562 -3.859375 16.25 -2.828125 C 15.519531 -1.796875 14.5 -1.007812 13.1875 -0.46875 C 11.882812 0.0703125 10.347656 0.34375 8.578125 0.34375 C 7.640625 0.34375 6.753906 0.296875 5.921875 0.203125 C 5.085938 0.109375 4.320312 -0.0195312 3.625 -0.1875 C 2.925781 -0.351562 2.3125 -0.5625 1.78125 -0.8125 L 1.78125 -3.578125 C 2.625 -3.222656 3.65625 -2.894531 4.875 -2.59375 C 6.09375 -2.300781 7.367188 -2.15625 8.703125 -2.15625 C 9.941406 -2.15625 10.988281 -2.316406 11.84375 -2.640625 C 12.695312 -2.972656 13.347656 -3.453125 13.796875 -4.078125 C 14.242188 -4.710938 14.46875 -5.46875 14.46875 -6.34375 C 14.46875 -7.1875 14.28125 -7.894531 13.90625 -8.46875 C 13.53125 -9.039062 12.910156 -9.5625 12.046875 -10.03125 C 11.191406 -10.5 10.019531 -11 8.53125 -11.53125 C 7.476562 -11.894531 6.550781 -12.300781 5.75 -12.75 C 4.945312 -13.195312 4.273438 -13.703125 3.734375 -14.265625 C 3.191406 -14.828125 2.78125 -15.476562 2.5 -16.21875 C 2.226562 -16.96875 2.09375 -17.820312 2.09375 -18.78125 C 2.09375 -20.101562 2.425781 -21.234375 3.09375 -22.171875 C 3.769531 -23.117188 4.703125 -23.84375 5.890625 -24.34375 C 7.085938 -24.84375 8.457031 -25.09375 10 -25.09375 C 11.320312 -25.09375 12.539062 -24.96875 13.65625 -24.71875 C 14.78125 -24.46875 15.8125 -24.132812 16.75 -23.71875 L 15.859375 -21.25 C 14.960938 -21.625 14.015625 -21.9375 13.015625 -22.1875 C 12.023438 -22.4375 11 -22.5625 9.9375 -22.5625 C 8.875 -22.5625 7.976562 -22.40625 7.25 -22.09375 C 6.519531 -21.78125 5.960938 -21.34375 5.578125 -20.78125 C 5.203125 -20.21875 5.015625 -19.546875 5.015625 -18.765625 C 5.015625 -17.898438 5.195312 -17.175781 5.5625 -16.59375 C 5.925781 -16.019531 6.507812 -15.507812 7.3125 -15.0625 C 8.125 -14.625 9.195312 -14.160156 10.53125 -13.671875 C 11.976562 -13.140625 13.207031 -12.578125 14.21875 -11.984375 C 15.238281 -11.390625 16.015625 -10.664062 16.546875 -9.8125 C 17.078125 -8.96875 17.34375 -7.890625 17.34375 -6.578125 Z M 17.34375 -6.578125 "/></g></g></g><g transform="matrix(1, 0, 0, 1, 405, 0)"><g clip-path="url(#284f252d44)"><g fill="#ffffff" fill-opacity="1"><g transform="translate(1.68065, 80.523469)"><g><path d="M 49.71875 -31.140625 L 58.859375 -31.140625 L 58.859375 -0.1875 L 37.328125 -0.09375 C 27.359375 -0.09375 19.390625 -3.078125 13.421875 -9.046875 C 8.160156 -14.503906 5.273438 -21.835938 4.765625 -31.046875 L 14.375 -31.046875 C 14.757812 -25.203125 17.046875 -19.929688 21.234375 -15.234375 C 23.390625 -13.015625 25.738281 -11.394531 28.28125 -10.375 C 29.613281 -9.9375 31.085938 -9.570312 32.703125 -9.28125 C 34.328125 -9 36.09375 -8.859375 38 -8.859375 L 49.71875 -8.953125 Z M 37.421875 -67.046875 L 58.859375 -66.953125 L 58.859375 -58.09375 L 38.1875 -58.28125 C 36.40625 -58.28125 34.769531 -58.148438 33.28125 -57.890625 C 31.789062 -57.640625 30.410156 -57.234375 29.140625 -56.671875 C 27.929688 -56.160156 26.722656 -55.539062 25.515625 -54.8125 C 24.316406 -54.082031 23.144531 -53.207031 22 -52.1875 C 18.570312 -48.375 16.285156 -44.375 15.140625 -40.1875 L 5.140625 -40.1875 C 6.222656 -47.425781 8.984375 -53.332031 13.421875 -57.90625 C 19.453125 -64 27.453125 -67.046875 37.421875 -67.046875 Z M 37.421875 -67.046875 "/></g></g></g><g fill="#ffffff" fill-opacity="1"><g transform="translate(65.289668, 80.523469)"><g><path d="M 28.46875 -50 L 37.625 -50 L 37.625 0 L 28.46875 0 Z M 4.765625 -66.859375 L 61.328125 -66.859375 L 61.328125 -59.234375 L 37.625 -59.234375 L 37.625 -59.140625 L 28.46875 -59.140625 L 28.46875 -59.234375 L 4.765625 -59.234375 Z M 4.765625 -66.859375 "/></g></g></g><g fill="#ffffff" fill-opacity="1"><g transform="translate(131.374482, 80.523469)"><g><path d="M 4.765625 -30.765625 L 13.90625 -30.765625 L 13.90625 0 L 4.765625 0 Z M 4.765625 -66.765625 L 13.90625 -66.765625 L 13.90625 -39.8125 L 4.765625 -39.8125 Z M 4.765625 -66.765625 "/></g></g></g><g fill="#ffffff" fill-opacity="1"><g transform="translate(149.942974, 80.523469)"><g><path d="M 4.765625 -30.46875 L 14.375 -30.46875 C 14.820312 -24.820312 17.109375 -19.710938 21.234375 -15.140625 C 23.328125 -12.859375 25.675781 -11.207031 28.28125 -10.1875 C 30.945312 -9.238281 34.1875 -8.765625 38 -8.765625 L 58.765625 -8.859375 L 58.859375 -0.09375 L 37.328125 0 C 27.296875 0 19.328125 -2.953125 13.421875 -8.859375 C 8.222656 -14.378906 5.335938 -21.582031 4.765625 -30.46875 Z M 37.328125 -66.859375 L 58.859375 -66.859375 L 58.765625 -58 L 38.1875 -58.1875 C 36.40625 -58.1875 34.769531 -58.054688 33.28125 -57.796875 C 31.789062 -57.546875 30.410156 -57.132812 29.140625 -56.5625 C 27.929688 -56.0625 26.722656 -55.441406 25.515625 -54.703125 C 24.316406 -53.972656 23.144531 -53.070312 22 -52 C 18.25 -47.875 15.835938 -43.492188 14.765625 -38.859375 L 4.953125 -38.859375 C 5.898438 -46.734375 8.722656 -53.019531 13.421875 -57.71875 C 19.453125 -63.8125 27.421875 -66.859375 37.328125 -66.859375 Z M 37.328125 -66.859375 "/></g></g></g><g fill="#ffffff" fill-opacity="1"><g transform="translate(213.471141, 80.523469)"><g/></g></g></g></g><g clip-path="url(#369e7e6f8c)"><path fill="#ffffff" d="M 662.109375 -4.945312 L 662.816406 -4.945312 L 662.816406 42.777344 C 664 42.949219 664.910156 43.96875 664.910156 45.199219 C 664.910156 46.429688 664 47.449219 662.816406 47.621094 L 662.816406 95.34375 L 662.109375 95.34375 L 662.109375 47.621094 C 660.925781 47.449219 660.015625 46.429688 660.015625 45.199219 C 660.015625 43.96875 660.925781 42.949219 662.109375 42.777344 Z M 660.492188 45.199219 L 661.335938 44.355469 L 661.335938 46.042969 Z M 664.433594 45.199219 L 663.589844 44.355469 L 663.589844 46.042969 Z M 664.433594 45.199219 " fill-opacity="1" fill-rule="evenodd"/></g><g clip-path="url(#059584b347)"><path fill="#fefefe" d="M 660.492188 45.199219 L 661.335938 44.355469 L 661.335938 46.042969 Z M 660.492188 45.199219 " fill-opacity="1" fill-rule="evenodd"/></g><path fill="#fefefe" d="M 664.433594 45.199219 L 663.589844 44.355469 L 663.589844 46.042969 Z M 664.433594 45.199219 " fill-opacity="1" fill-rule="evenodd"/></svg>