<svg xmlns="http://www.w3.org/2000/svg" xmlns:xlink="http://www.w3.org/1999/xlink" width="1902" zoomAndPan="magnify" viewBox="0 0 1426.5 92.249997" height="123" preserveAspectRatio="xMidYMid meet" version="1.0"><defs><g/><clipPath id="75b78ab4f6"><path d="M 700 0 L 945 0 L 945 91.507812 L 700 91.507812 Z M 700 0 " clip-rule="nonzero"/></clipPath><clipPath id="7d0722db53"><rect x="0" width="245" y="0" height="92"/></clipPath><clipPath id="63a64cef75"><rect x="0" width="233" y="0" height="82"/></clipPath><clipPath id="5b9499d3e6"><path d="M 660.015625 0 L 665 0 L 665 91.507812 L 660.015625 91.507812 Z M 660.015625 0 " clip-rule="nonzero"/></clipPath><clipPath id="38afa1f39c"><path d="M 660.015625 44 L 662 44 L 662 47 L 660.015625 47 Z M 660.015625 44 " clip-rule="nonzero"/></clipPath></defs><g clip-path="url(#75b78ab4f6)"><g transform="matrix(1, 0, 0, 1, 700, 0)"><g clip-path="url(#7d0722db53)"><g fill="#e2cbf6" fill-opacity="1"><g transform="translate(0.483503, 34.849503)"><g><path d="M 10.28125 -25.28125 C 12.351562 -25.28125 14.066406 -25.019531 15.421875 -24.5 C 16.785156 -23.988281 17.800781 -23.207031 18.46875 -22.15625 C 19.132812 -21.113281 19.46875 -19.78125 19.46875 -18.15625 C 19.46875 -16.8125 19.222656 -15.691406 18.734375 -14.796875 C 18.253906 -13.910156 17.617188 -13.191406 16.828125 -12.640625 C 16.046875 -12.085938 15.210938 -11.660156 14.328125 -11.359375 L 21.265625 0 L 17.84375 0 L 11.65625 -10.546875 L 6.390625 -10.546875 L 6.390625 0 L 3.453125 0 L 3.453125 -25.28125 Z M 10.109375 -22.734375 L 6.390625 -22.734375 L 6.390625 -13.03125 L 10.40625 -13.03125 C 12.46875 -13.03125 13.984375 -13.453125 14.953125 -14.296875 C 15.929688 -15.140625 16.421875 -16.378906 16.421875 -18.015625 C 16.421875 -19.734375 15.90625 -20.945312 14.875 -21.65625 C 13.84375 -22.375 12.253906 -22.734375 10.109375 -22.734375 Z M 10.109375 -22.734375 "/></g></g></g><g fill="#e2cbf6" fill-opacity="1"><g transform="translate(22.33378, 34.849503)"><g><path d="M 17.53125 0 L 3.453125 0 L 3.453125 -25.28125 L 17.53125 -25.28125 L 17.53125 -22.6875 L 6.390625 -22.6875 L 6.390625 -14.5 L 16.890625 -14.5 L 16.890625 -11.953125 L 6.390625 -11.953125 L 6.390625 -2.59375 L 17.53125 -2.59375 Z M 17.53125 0 "/></g></g></g><g fill="#e2cbf6" fill-opacity="1"><g transform="translate(42.005943, 34.849503)"><g><path d="M 3.453125 0 L 3.453125 -25.28125 L 6.390625 -25.28125 L 6.390625 -2.625 L 17.609375 -2.625 L 17.609375 0 Z M 3.453125 0 "/></g></g></g><g fill="#e2cbf6" fill-opacity="1"><g transform="translate(60.485336, 34.849503)"><g><path d="M 19.3125 0 L 16.203125 -8.015625 L 6.0625 -8.015625 L 2.96875 0 L 0 0 L 9.890625 -25.375 L 12.53125 -25.375 L 22.359375 0 Z M 15.3125 -10.625 L 12.359375 -18.609375 C 12.285156 -18.804688 12.171875 -19.140625 12.015625 -19.609375 C 11.867188 -20.085938 11.710938 -20.582031 11.546875 -21.09375 C 11.390625 -21.601562 11.257812 -22.007812 11.15625 -22.3125 C 11.039062 -21.84375 10.914062 -21.375 10.78125 -20.90625 C 10.644531 -20.4375 10.515625 -20.003906 10.390625 -19.609375 C 10.265625 -19.210938 10.15625 -18.878906 10.0625 -18.609375 L 7.046875 -10.625 Z M 15.3125 -10.625 "/></g></g></g><g fill="#e2cbf6" fill-opacity="1"><g transform="translate(82.871503, 34.849503)"><g><path d="M 11.21875 0 L 8.265625 0 L 8.265625 -22.6875 L 0.3125 -22.6875 L 0.3125 -25.28125 L 19.140625 -25.28125 L 19.140625 -22.6875 L 11.21875 -22.6875 Z M 11.21875 0 "/></g></g></g><g fill="#e2cbf6" fill-opacity="1"><g transform="translate(102.370801, 34.849503)"><g><path d="M 25.375 -12.671875 C 25.375 -10.722656 25.125 -8.953125 24.625 -7.359375 C 24.132812 -5.765625 23.398438 -4.390625 22.421875 -3.234375 C 21.453125 -2.085938 20.25 -1.203125 18.8125 -0.578125 C 17.375 0.0351562 15.703125 0.34375 13.796875 0.34375 C 11.835938 0.34375 10.128906 0.0351562 8.671875 -0.578125 C 7.210938 -1.203125 6 -2.09375 5.03125 -3.25 C 4.070312 -4.40625 3.351562 -5.78125 2.875 -7.375 C 2.394531 -8.976562 2.15625 -10.753906 2.15625 -12.703125 C 2.15625 -15.285156 2.582031 -17.550781 3.4375 -19.5 C 4.289062 -21.445312 5.582031 -22.960938 7.3125 -24.046875 C 9.050781 -25.128906 11.226562 -25.671875 13.84375 -25.671875 C 16.34375 -25.671875 18.445312 -25.132812 20.15625 -24.0625 C 21.875 -22.988281 23.171875 -21.476562 24.046875 -19.53125 C 24.929688 -17.59375 25.375 -15.304688 25.375 -12.671875 Z M 5.25 -12.671875 C 5.25 -10.523438 5.554688 -8.664062 6.171875 -7.09375 C 6.785156 -5.53125 7.722656 -4.320312 8.984375 -3.46875 C 10.242188 -2.625 11.847656 -2.203125 13.796875 -2.203125 C 15.753906 -2.203125 17.359375 -2.625 18.609375 -3.46875 C 19.859375 -4.320312 20.78125 -5.53125 21.375 -7.09375 C 21.976562 -8.664062 22.28125 -10.523438 22.28125 -12.671875 C 22.28125 -15.929688 21.597656 -18.476562 20.234375 -20.3125 C 18.867188 -22.15625 16.738281 -23.078125 13.84375 -23.078125 C 11.882812 -23.078125 10.269531 -22.65625 9 -21.8125 C 7.738281 -20.976562 6.796875 -19.785156 6.171875 -18.234375 C 5.554688 -16.679688 5.25 -14.828125 5.25 -12.671875 Z M 18.796875 -33.46875 L 18.796875 -33.125 C 18.566406 -32.789062 18.25 -32.390625 17.84375 -31.921875 C 17.445312 -31.453125 17.003906 -30.960938 16.515625 -30.453125 C 16.035156 -29.941406 15.550781 -29.453125 15.0625 -28.984375 C 14.570312 -28.523438 14.125 -28.128906 13.71875 -27.796875 L 11.796875 -27.796875 L 11.796875 -28.21875 C 12.160156 -28.65625 12.5625 -29.179688 13 -29.796875 C 13.4375 -30.410156 13.863281 -31.039062 14.28125 -31.6875 C 14.695312 -32.34375 15.039062 -32.9375 15.3125 -33.46875 Z M 18.796875 -33.46875 "/></g></g></g><g fill="#e2cbf6" fill-opacity="1"><g transform="translate(129.908378, 34.849503)"><g><path d="M 10.28125 -25.28125 C 12.351562 -25.28125 14.066406 -25.019531 15.421875 -24.5 C 16.785156 -23.988281 17.800781 -23.207031 18.46875 -22.15625 C 19.132812 -21.113281 19.46875 -19.78125 19.46875 -18.15625 C 19.46875 -16.8125 19.222656 -15.691406 18.734375 -14.796875 C 18.253906 -13.910156 17.617188 -13.191406 16.828125 -12.640625 C 16.046875 -12.085938 15.210938 -11.660156 14.328125 -11.359375 L 21.265625 0 L 17.84375 0 L 11.65625 -10.546875 L 6.390625 -10.546875 L 6.390625 0 L 3.453125 0 L 3.453125 -25.28125 Z M 10.109375 -22.734375 L 6.390625 -22.734375 L 6.390625 -13.03125 L 10.40625 -13.03125 C 12.46875 -13.03125 13.984375 -13.453125 14.953125 -14.296875 C 15.929688 -15.140625 16.421875 -16.378906 16.421875 -18.015625 C 16.421875 -19.734375 15.90625 -20.945312 14.875 -21.65625 C 13.84375 -22.375 12.253906 -22.734375 10.109375 -22.734375 Z M 10.109375 -22.734375 "/></g></g></g><g fill="#e2cbf6" fill-opacity="1"><g transform="translate(151.758654, 34.849503)"><g><path d="M 3.453125 0 L 3.453125 -25.28125 L 6.390625 -25.28125 L 6.390625 0 Z M 3.453125 0 "/></g></g></g><g fill="#e2cbf6" fill-opacity="1"><g transform="translate(161.646596, 34.849503)"><g><path d="M 25.375 -12.671875 C 25.375 -10.722656 25.125 -8.953125 24.625 -7.359375 C 24.132812 -5.765625 23.398438 -4.390625 22.421875 -3.234375 C 21.453125 -2.085938 20.25 -1.203125 18.8125 -0.578125 C 17.375 0.0351562 15.703125 0.34375 13.796875 0.34375 C 11.835938 0.34375 10.128906 0.0351562 8.671875 -0.578125 C 7.210938 -1.203125 6 -2.09375 5.03125 -3.25 C 4.070312 -4.40625 3.351562 -5.78125 2.875 -7.375 C 2.394531 -8.976562 2.15625 -10.753906 2.15625 -12.703125 C 2.15625 -15.285156 2.582031 -17.550781 3.4375 -19.5 C 4.289062 -21.445312 5.582031 -22.960938 7.3125 -24.046875 C 9.050781 -25.128906 11.226562 -25.671875 13.84375 -25.671875 C 16.34375 -25.671875 18.445312 -25.132812 20.15625 -24.0625 C 21.875 -22.988281 23.171875 -21.476562 24.046875 -19.53125 C 24.929688 -17.59375 25.375 -15.304688 25.375 -12.671875 Z M 5.25 -12.671875 C 5.25 -10.523438 5.554688 -8.664062 6.171875 -7.09375 C 6.785156 -5.53125 7.722656 -4.320312 8.984375 -3.46875 C 10.242188 -2.625 11.847656 -2.203125 13.796875 -2.203125 C 15.753906 -2.203125 17.359375 -2.625 18.609375 -3.46875 C 19.859375 -4.320312 20.78125 -5.53125 21.375 -7.09375 C 21.976562 -8.664062 22.28125 -10.523438 22.28125 -12.671875 C 22.28125 -15.929688 21.597656 -18.476562 20.234375 -20.3125 C 18.867188 -22.15625 16.738281 -23.078125 13.84375 -23.078125 C 11.882812 -23.078125 10.269531 -22.65625 9 -21.8125 C 7.738281 -20.976562 6.796875 -19.785156 6.171875 -18.234375 C 5.554688 -16.679688 5.25 -14.828125 5.25 -12.671875 Z M 5.25 -12.671875 "/></g></g></g><g fill="#e2cbf6" fill-opacity="1"><g transform="translate(189.184173, 34.849503)"><g/></g></g><g fill="#e2cbf6" fill-opacity="1"><g transform="translate(198.38065, 34.849503)"><g><path d="M 23.53125 -12.875 C 23.53125 -10.03125 23.007812 -7.65625 21.96875 -5.75 C 20.9375 -3.84375 19.4375 -2.40625 17.46875 -1.4375 C 15.5 -0.476562 13.117188 0 10.328125 0 L 3.453125 0 L 3.453125 -25.28125 L 11.078125 -25.28125 C 13.648438 -25.28125 15.863281 -24.804688 17.71875 -23.859375 C 19.570312 -22.921875 21.003906 -21.53125 22.015625 -19.6875 C 23.023438 -17.851562 23.53125 -15.582031 23.53125 -12.875 Z M 20.4375 -12.78125 C 20.4375 -15.050781 20.054688 -16.921875 19.296875 -18.390625 C 18.546875 -19.867188 17.441406 -20.96875 15.984375 -21.6875 C 14.523438 -22.40625 12.738281 -22.765625 10.625 -22.765625 L 6.390625 -22.765625 L 6.390625 -2.53125 L 9.96875 -2.53125 C 13.457031 -2.53125 16.070312 -3.382812 17.8125 -5.09375 C 19.5625 -6.8125 20.4375 -9.375 20.4375 -12.78125 Z M 20.4375 -12.78125 "/></g></g></g><g fill="#e2cbf6" fill-opacity="1"><g transform="translate(224.068544, 34.849503)"><g><path d="M 17.53125 0 L 3.453125 0 L 3.453125 -25.28125 L 17.53125 -25.28125 L 17.53125 -22.6875 L 6.390625 -22.6875 L 6.390625 -14.5 L 16.890625 -14.5 L 16.890625 -11.953125 L 6.390625 -11.953125 L 6.390625 -2.59375 L 17.53125 -2.59375 Z M 17.53125 0 "/></g></g></g><g fill="#e2cbf6" fill-opacity="1"><g transform="translate(22.444944, 83.84714)"><g><path d="M 3.453125 0 L 3.453125 -25.28125 L 6.390625 -25.28125 L 6.390625 0 Z M 3.453125 0 "/></g></g></g><g fill="#e2cbf6" fill-opacity="1"><g transform="translate(32.332885, 83.84714)"><g><path d="M 23.21875 0 L 19.828125 0 L 6.046875 -21.234375 L 5.90625 -21.234375 C 5.945312 -20.660156 5.988281 -20.015625 6.03125 -19.296875 C 6.082031 -18.578125 6.117188 -17.8125 6.140625 -17 C 6.171875 -16.1875 6.1875 -15.359375 6.1875 -14.515625 L 6.1875 0 L 3.453125 0 L 3.453125 -25.28125 L 6.828125 -25.28125 L 20.5625 -4.109375 L 20.671875 -4.109375 C 20.648438 -4.515625 20.617188 -5.085938 20.578125 -5.828125 C 20.546875 -6.578125 20.515625 -7.378906 20.484375 -8.234375 C 20.460938 -9.097656 20.453125 -9.894531 20.453125 -10.625 L 20.453125 -25.28125 L 23.21875 -25.28125 Z M 23.21875 0 "/></g></g></g><g fill="#e2cbf6" fill-opacity="1"><g transform="translate(58.98884, 83.84714)"><g><path d="M 14.265625 -23.046875 C 12.867188 -23.046875 11.613281 -22.804688 10.5 -22.328125 C 9.382812 -21.847656 8.4375 -21.15625 7.65625 -20.25 C 6.882812 -19.34375 6.289062 -18.25 5.875 -16.96875 C 5.457031 -15.695312 5.25 -14.257812 5.25 -12.65625 C 5.25 -10.53125 5.582031 -8.6875 6.25 -7.125 C 6.914062 -5.5625 7.90625 -4.351562 9.21875 -3.5 C 10.539062 -2.65625 12.191406 -2.234375 14.171875 -2.234375 C 15.304688 -2.234375 16.367188 -2.328125 17.359375 -2.515625 C 18.359375 -2.703125 19.332031 -2.941406 20.28125 -3.234375 L 20.28125 -0.671875 C 19.351562 -0.328125 18.382812 -0.0703125 17.375 0.09375 C 16.363281 0.257812 15.160156 0.34375 13.765625 0.34375 C 11.191406 0.34375 9.039062 -0.1875 7.3125 -1.25 C 5.59375 -2.320312 4.300781 -3.832031 3.4375 -5.78125 C 2.582031 -7.726562 2.15625 -10.023438 2.15625 -12.671875 C 2.15625 -14.585938 2.421875 -16.335938 2.953125 -17.921875 C 3.492188 -19.503906 4.28125 -20.867188 5.3125 -22.015625 C 6.34375 -23.171875 7.609375 -24.0625 9.109375 -24.6875 C 10.617188 -25.320312 12.347656 -25.640625 14.296875 -25.640625 C 15.578125 -25.640625 16.8125 -25.507812 18 -25.25 C 19.1875 -25 20.257812 -24.640625 21.21875 -24.171875 L 20.03125 -21.671875 C 19.226562 -22.046875 18.34375 -22.367188 17.375 -22.640625 C 16.414062 -22.910156 15.378906 -23.046875 14.265625 -23.046875 Z M 14.265625 -23.046875 "/></g></g></g><g fill="#e2cbf6" fill-opacity="1"><g transform="translate(81.288569, 83.84714)"><g><path d="M 3.453125 0 L 3.453125 -25.28125 L 6.390625 -25.28125 L 6.390625 0 Z M 3.453125 0 "/></g></g></g><g fill="#e2cbf6" fill-opacity="1"><g transform="translate(91.176511, 83.84714)"><g><path d="M 23.53125 -12.875 C 23.53125 -10.03125 23.007812 -7.65625 21.96875 -5.75 C 20.9375 -3.84375 19.4375 -2.40625 17.46875 -1.4375 C 15.5 -0.476562 13.117188 0 10.328125 0 L 3.453125 0 L 3.453125 -25.28125 L 11.078125 -25.28125 C 13.648438 -25.28125 15.863281 -24.804688 17.71875 -23.859375 C 19.570312 -22.921875 21.003906 -21.53125 22.015625 -19.6875 C 23.023438 -17.851562 23.53125 -15.582031 23.53125 -12.875 Z M 20.4375 -12.78125 C 20.4375 -15.050781 20.054688 -16.921875 19.296875 -18.390625 C 18.546875 -19.867188 17.441406 -20.96875 15.984375 -21.6875 C 14.523438 -22.40625 12.738281 -22.765625 10.625 -22.765625 L 6.390625 -22.765625 L 6.390625 -2.53125 L 9.96875 -2.53125 C 13.457031 -2.53125 16.070312 -3.382812 17.8125 -5.09375 C 19.5625 -6.8125 20.4375 -9.375 20.4375 -12.78125 Z M 20.4375 -12.78125 "/></g></g></g><g fill="#e2cbf6" fill-opacity="1"><g transform="translate(116.864415, 83.84714)"><g><path d="M 17.53125 0 L 3.453125 0 L 3.453125 -25.28125 L 17.53125 -25.28125 L 17.53125 -22.6875 L 6.390625 -22.6875 L 6.390625 -14.5 L 16.890625 -14.5 L 16.890625 -11.953125 L 6.390625 -11.953125 L 6.390625 -2.59375 L 17.53125 -2.59375 Z M 17.53125 0 "/></g></g></g><g fill="#e2cbf6" fill-opacity="1"><g transform="translate(136.536578, 83.84714)"><g><path d="M 23.21875 0 L 19.828125 0 L 6.046875 -21.234375 L 5.90625 -21.234375 C 5.945312 -20.660156 5.988281 -20.015625 6.03125 -19.296875 C 6.082031 -18.578125 6.117188 -17.8125 6.140625 -17 C 6.171875 -16.1875 6.1875 -15.359375 6.1875 -14.515625 L 6.1875 0 L 3.453125 0 L 3.453125 -25.28125 L 6.828125 -25.28125 L 20.5625 -4.109375 L 20.671875 -4.109375 C 20.648438 -4.515625 20.617188 -5.085938 20.578125 -5.828125 C 20.546875 -6.578125 20.515625 -7.378906 20.484375 -8.234375 C 20.460938 -9.097656 20.453125 -9.894531 20.453125 -10.625 L 20.453125 -25.28125 L 23.21875 -25.28125 Z M 23.21875 0 "/></g></g></g><g fill="#e2cbf6" fill-opacity="1"><g transform="translate(163.192533, 83.84714)"><g><path d="M 11.21875 0 L 8.265625 0 L 8.265625 -22.6875 L 0.3125 -22.6875 L 0.3125 -25.28125 L 19.140625 -25.28125 L 19.140625 -22.6875 L 11.21875 -22.6875 Z M 11.21875 0 "/></g></g></g><g fill="#e2cbf6" fill-opacity="1"><g transform="translate(182.69183, 83.84714)"><g><path d="M 17.53125 0 L 3.453125 0 L 3.453125 -25.28125 L 17.53125 -25.28125 L 17.53125 -22.6875 L 6.390625 -22.6875 L 6.390625 -14.5 L 16.890625 -14.5 L 16.890625 -11.953125 L 6.390625 -11.953125 L 6.390625 -2.59375 L 17.53125 -2.59375 Z M 17.53125 0 "/></g></g></g><g fill="#e2cbf6" fill-opacity="1"><g transform="translate(202.363994, 83.84714)"><g><path d="M 17.71875 -6.71875 C 17.71875 -5.226562 17.34375 -3.953125 16.59375 -2.890625 C 15.851562 -1.835938 14.816406 -1.035156 13.484375 -0.484375 C 12.148438 0.0664062 10.578125 0.34375 8.765625 0.34375 C 7.804688 0.34375 6.898438 0.296875 6.046875 0.203125 C 5.191406 0.109375 4.40625 -0.0195312 3.6875 -0.1875 C 2.976562 -0.363281 2.351562 -0.578125 1.8125 -0.828125 L 1.8125 -3.640625 C 2.675781 -3.285156 3.726562 -2.957031 4.96875 -2.65625 C 6.21875 -2.351562 7.523438 -2.203125 8.890625 -2.203125 C 10.148438 -2.203125 11.21875 -2.367188 12.09375 -2.703125 C 12.976562 -3.046875 13.644531 -3.535156 14.09375 -4.171875 C 14.550781 -4.816406 14.78125 -5.585938 14.78125 -6.484375 C 14.78125 -7.347656 14.585938 -8.070312 14.203125 -8.65625 C 13.828125 -9.238281 13.195312 -9.765625 12.3125 -10.234375 C 11.4375 -10.710938 10.238281 -11.222656 8.71875 -11.765625 C 7.644531 -12.148438 6.695312 -12.566406 5.875 -13.015625 C 5.0625 -13.472656 4.375 -13.988281 3.8125 -14.5625 C 3.257812 -15.144531 2.84375 -15.816406 2.5625 -16.578125 C 2.28125 -17.335938 2.140625 -18.207031 2.140625 -19.1875 C 2.140625 -20.539062 2.484375 -21.695312 3.171875 -22.65625 C 3.859375 -23.613281 4.804688 -24.347656 6.015625 -24.859375 C 7.234375 -25.378906 8.632812 -25.640625 10.21875 -25.640625 C 11.5625 -25.640625 12.804688 -25.507812 13.953125 -25.25 C 15.109375 -25 16.160156 -24.660156 17.109375 -24.234375 L 16.203125 -21.71875 C 15.285156 -22.09375 14.316406 -22.40625 13.296875 -22.65625 C 12.273438 -22.914062 11.222656 -23.046875 10.140625 -23.046875 C 9.054688 -23.046875 8.144531 -22.882812 7.40625 -22.5625 C 6.664062 -22.25 6.097656 -21.800781 5.703125 -21.21875 C 5.316406 -20.644531 5.125 -19.960938 5.125 -19.171875 C 5.125 -18.285156 5.304688 -17.546875 5.671875 -16.953125 C 6.046875 -16.367188 6.644531 -15.847656 7.46875 -15.390625 C 8.300781 -14.941406 9.394531 -14.46875 10.75 -13.96875 C 12.238281 -13.425781 13.5 -12.851562 14.53125 -12.25 C 15.570312 -11.644531 16.363281 -10.90625 16.90625 -10.03125 C 17.445312 -9.164062 17.71875 -8.0625 17.71875 -6.71875 Z M 17.71875 -6.71875 "/></g></g></g></g></g></g><g transform="matrix(1, 0, 0, 1, 405, 0)"><g clip-path="url(#63a64cef75)"><g fill="#ffffff" fill-opacity="1"><g transform="translate(1.68065, 80.523469)"><g><path d="M 49.71875 -31.140625 L 58.859375 -31.140625 L 58.859375 -0.1875 L 37.328125 -0.09375 C 27.359375 -0.09375 19.390625 -3.078125 13.421875 -9.046875 C 8.160156 -14.503906 5.273438 -21.835938 4.765625 -31.046875 L 14.375 -31.046875 C 14.757812 -25.203125 17.046875 -19.929688 21.234375 -15.234375 C 23.390625 -13.015625 25.738281 -11.394531 28.28125 -10.375 C 29.613281 -9.9375 31.085938 -9.570312 32.703125 -9.28125 C 34.328125 -9 36.09375 -8.859375 38 -8.859375 L 49.71875 -8.953125 Z M 37.421875 -67.046875 L 58.859375 -66.953125 L 58.859375 -58.09375 L 38.1875 -58.28125 C 36.40625 -58.28125 34.769531 -58.148438 33.28125 -57.890625 C 31.789062 -57.640625 30.410156 -57.234375 29.140625 -56.671875 C 27.929688 -56.160156 26.722656 -55.539062 25.515625 -54.8125 C 24.316406 -54.082031 23.144531 -53.207031 22 -52.1875 C 18.570312 -48.375 16.285156 -44.375 15.140625 -40.1875 L 5.140625 -40.1875 C 6.222656 -47.425781 8.984375 -53.332031 13.421875 -57.90625 C 19.453125 -64 27.453125 -67.046875 37.421875 -67.046875 Z M 37.421875 -67.046875 "/></g></g></g><g fill="#ffffff" fill-opacity="1"><g transform="translate(65.289668, 80.523469)"><g><path d="M 28.46875 -50 L 37.625 -50 L 37.625 0 L 28.46875 0 Z M 4.765625 -66.859375 L 61.328125 -66.859375 L 61.328125 -59.234375 L 37.625 -59.234375 L 37.625 -59.140625 L 28.46875 -59.140625 L 28.46875 -59.234375 L 4.765625 -59.234375 Z M 4.765625 -66.859375 "/></g></g></g><g fill="#ffffff" fill-opacity="1"><g transform="translate(131.374482, 80.523469)"><g><path d="M 4.765625 -30.765625 L 13.90625 -30.765625 L 13.90625 0 L 4.765625 0 Z M 4.765625 -66.765625 L 13.90625 -66.765625 L 13.90625 -39.8125 L 4.765625 -39.8125 Z M 4.765625 -66.765625 "/></g></g></g><g fill="#ffffff" fill-opacity="1"><g transform="translate(149.942974, 80.523469)"><g><path d="M 4.765625 -30.46875 L 14.375 -30.46875 C 14.820312 -24.820312 17.109375 -19.710938 21.234375 -15.140625 C 23.328125 -12.859375 25.675781 -11.207031 28.28125 -10.1875 C 30.945312 -9.238281 34.1875 -8.765625 38 -8.765625 L 58.765625 -8.859375 L 58.859375 -0.09375 L 37.328125 0 C 27.296875 0 19.328125 -2.953125 13.421875 -8.859375 C 8.222656 -14.378906 5.335938 -21.582031 4.765625 -30.46875 Z M 37.328125 -66.859375 L 58.859375 -66.859375 L 58.765625 -58 L 38.1875 -58.1875 C 36.40625 -58.1875 34.769531 -58.054688 33.28125 -57.796875 C 31.789062 -57.546875 30.410156 -57.132812 29.140625 -56.5625 C 27.929688 -56.0625 26.722656 -55.441406 25.515625 -54.703125 C 24.316406 -53.972656 23.144531 -53.070312 22 -52 C 18.25 -47.875 15.835938 -43.492188 14.765625 -38.859375 L 4.953125 -38.859375 C 5.898438 -46.734375 8.722656 -53.019531 13.421875 -57.71875 C 19.453125 -63.8125 27.421875 -66.859375 37.328125 -66.859375 Z M 37.328125 -66.859375 "/></g></g></g><g fill="#ffffff" fill-opacity="1"><g transform="translate(213.471141, 80.523469)"><g/></g></g></g></g><g clip-path="url(#5b9499d3e6)"><path fill="#ffffff" d="M 662.109375 -4.945312 L 662.816406 -4.945312 L 662.816406 42.777344 C 664 42.949219 664.910156 43.96875 664.910156 45.199219 C 664.910156 46.429688 664 47.449219 662.816406 47.621094 L 662.816406 95.34375 L 662.109375 95.34375 L 662.109375 47.621094 C 660.925781 47.449219 660.015625 46.429688 660.015625 45.199219 C 660.015625 43.96875 660.925781 42.949219 662.109375 42.777344 Z M 660.492188 45.199219 L 661.335938 44.355469 L 661.335938 46.042969 Z M 664.433594 45.199219 L 663.589844 44.355469 L 663.589844 46.042969 Z M 664.433594 45.199219 " fill-opacity="1" fill-rule="evenodd"/></g><g clip-path="url(#38afa1f39c)"><path fill="#fefefe" d="M 660.492188 45.199219 L 661.335938 44.355469 L 661.335938 46.042969 Z M 660.492188 45.199219 " fill-opacity="1" fill-rule="evenodd"/></g><path fill="#fefefe" d="M 664.433594 45.199219 L 663.589844 44.355469 L 663.589844 46.042969 Z M 664.433594 45.199219 " fill-opacity="1" fill-rule="evenodd"/></svg>