<svg xmlns="http://www.w3.org/2000/svg" xmlns:xlink="http://www.w3.org/1999/xlink" width="875" zoomAndPan="magnify" viewBox="0 0 656.25 44.999999" height="60" preserveAspectRatio="xMidYMid meet" version="1.0"><defs><g/><clipPath id="e8463ac27e"><path d="M 0 0.0273438 L 655.5 0.0273438 L 655.5 44.972656 L 0 44.972656 Z M 0 0.0273438 " clip-rule="nonzero"/></clipPath><linearGradient x1="0" gradientTransform="matrix(0.749144, 0, 0, 0.749144, 0, 0.0256844)" y1="30" x2="874.999964" gradientUnits="userSpaceOnUse" y2="30" id="a488fa3c7b"><stop stop-opacity="1" stop-color="rgb(0%, 0%, 0%)" offset="0"/><stop stop-opacity="1" stop-color="rgb(0.175476%, 0.175476%, 0.175476%)" offset="0.0078125"/><stop stop-opacity="1" stop-color="rgb(0.526428%, 0.526428%, 0.526428%)" offset="0.015625"/><stop stop-opacity="1" stop-color="rgb(0.878906%, 0.878906%, 0.878906%)" offset="0.0234375"/><stop stop-opacity="1" stop-color="rgb(1.231384%, 1.231384%, 1.231384%)" offset="0.03125"/><stop stop-opacity="1" stop-color="rgb(1.583862%, 1.583862%, 1.583862%)" offset="0.0390625"/><stop stop-opacity="1" stop-color="rgb(1.93634%, 1.93634%, 1.93634%)" offset="0.046875"/><stop stop-opacity="1" stop-color="rgb(2.288818%, 2.288818%, 2.288818%)" offset="0.0546875"/><stop stop-opacity="1" stop-color="rgb(2.641296%, 2.641296%, 2.641296%)" offset="0.0625"/><stop stop-opacity="1" stop-color="rgb(2.993774%, 2.993774%, 2.993774%)" offset="0.0703125"/><stop stop-opacity="1" stop-color="rgb(3.346252%, 3.346252%, 3.346252%)" offset="0.078125"/><stop stop-opacity="1" stop-color="rgb(3.69873%, 3.69873%, 3.69873%)" offset="0.0859375"/><stop stop-opacity="1" stop-color="rgb(4.051208%, 4.051208%, 4.051208%)" offset="0.09375"/><stop stop-opacity="1" stop-color="rgb(4.402161%, 4.402161%, 4.402161%)" offset="0.101562"/><stop stop-opacity="1" stop-color="rgb(4.754639%, 4.754639%, 4.754639%)" offset="0.109375"/><stop stop-opacity="1" stop-color="rgb(5.107117%, 5.107117%, 5.107117%)" offset="0.117188"/><stop stop-opacity="1" stop-color="rgb(5.459595%, 5.459595%, 5.459595%)" offset="0.125"/><stop stop-opacity="1" stop-color="rgb(5.812073%, 5.812073%, 5.812073%)" offset="0.132812"/><stop stop-opacity="1" stop-color="rgb(6.164551%, 6.164551%, 6.164551%)" offset="0.140625"/><stop stop-opacity="1" stop-color="rgb(6.517029%, 6.517029%, 6.517029%)" offset="0.148438"/><stop stop-opacity="1" stop-color="rgb(6.869507%, 6.869507%, 6.869507%)" offset="0.15625"/><stop stop-opacity="1" stop-color="rgb(7.221985%, 7.221985%, 7.221985%)" offset="0.164062"/><stop stop-opacity="1" stop-color="rgb(7.574463%, 7.574463%, 7.574463%)" offset="0.171875"/><stop stop-opacity="1" stop-color="rgb(7.926941%, 7.926941%, 7.926941%)" offset="0.179688"/><stop stop-opacity="1" stop-color="rgb(8.277893%, 8.277893%, 8.277893%)" offset="0.1875"/><stop stop-opacity="1" stop-color="rgb(8.630371%, 8.630371%, 8.630371%)" offset="0.195312"/><stop stop-opacity="1" stop-color="rgb(8.982849%, 8.982849%, 8.982849%)" offset="0.203125"/><stop stop-opacity="1" stop-color="rgb(9.335327%, 9.335327%, 9.335327%)" offset="0.210938"/><stop stop-opacity="1" stop-color="rgb(9.687805%, 9.687805%, 9.687805%)" offset="0.21875"/><stop stop-opacity="1" stop-color="rgb(10.040283%, 10.040283%, 10.040283%)" offset="0.226562"/><stop stop-opacity="1" stop-color="rgb(10.392761%, 10.392761%, 10.392761%)" offset="0.234375"/><stop stop-opacity="1" stop-color="rgb(10.745239%, 10.745239%, 10.745239%)" offset="0.242188"/><stop stop-opacity="1" stop-color="rgb(11.097717%, 11.097717%, 11.097717%)" offset="0.25"/><stop stop-opacity="1" stop-color="rgb(11.450195%, 11.450195%, 11.450195%)" offset="0.257812"/><stop stop-opacity="1" stop-color="rgb(11.802673%, 11.802673%, 11.802673%)" offset="0.265625"/><stop stop-opacity="1" stop-color="rgb(12.155151%, 12.155151%, 12.155151%)" offset="0.273438"/><stop stop-opacity="1" stop-color="rgb(12.506104%, 12.506104%, 12.506104%)" offset="0.28125"/><stop stop-opacity="1" stop-color="rgb(12.858582%, 12.858582%, 12.858582%)" offset="0.289062"/><stop stop-opacity="1" stop-color="rgb(13.21106%, 13.21106%, 13.21106%)" offset="0.296875"/><stop stop-opacity="1" stop-color="rgb(13.563538%, 13.563538%, 13.563538%)" offset="0.304688"/><stop stop-opacity="1" stop-color="rgb(13.916016%, 13.916016%, 13.916016%)" offset="0.3125"/><stop stop-opacity="1" stop-color="rgb(14.268494%, 14.268494%, 14.268494%)" offset="0.320312"/><stop stop-opacity="1" stop-color="rgb(14.620972%, 14.620972%, 14.620972%)" offset="0.328125"/><stop stop-opacity="1" stop-color="rgb(14.97345%, 14.97345%, 14.97345%)" offset="0.335938"/><stop stop-opacity="1" stop-color="rgb(15.325928%, 15.325928%, 15.325928%)" offset="0.34375"/><stop stop-opacity="1" stop-color="rgb(15.678406%, 15.678406%, 15.678406%)" offset="0.351562"/><stop stop-opacity="1" stop-color="rgb(16.030884%, 16.030884%, 16.030884%)" offset="0.359375"/><stop stop-opacity="1" stop-color="rgb(16.381836%, 16.381836%, 16.381836%)" offset="0.367188"/><stop stop-opacity="1" stop-color="rgb(16.734314%, 16.734314%, 16.734314%)" offset="0.375"/><stop stop-opacity="1" stop-color="rgb(17.086792%, 17.086792%, 17.086792%)" offset="0.382812"/><stop stop-opacity="1" stop-color="rgb(17.43927%, 17.43927%, 17.43927%)" offset="0.390625"/><stop stop-opacity="1" stop-color="rgb(17.791748%, 17.791748%, 17.791748%)" offset="0.398438"/><stop stop-opacity="1" stop-color="rgb(18.144226%, 18.144226%, 18.144226%)" offset="0.40625"/><stop stop-opacity="1" stop-color="rgb(18.496704%, 18.496704%, 18.496704%)" offset="0.414062"/><stop stop-opacity="1" stop-color="rgb(18.849182%, 18.849182%, 18.849182%)" offset="0.421875"/><stop stop-opacity="1" stop-color="rgb(19.20166%, 19.20166%, 19.20166%)" offset="0.429688"/><stop stop-opacity="1" stop-color="rgb(19.554138%, 19.554138%, 19.554138%)" offset="0.4375"/><stop stop-opacity="1" stop-color="rgb(19.906616%, 19.906616%, 19.906616%)" offset="0.445312"/><stop stop-opacity="1" stop-color="rgb(20.257568%, 20.257568%, 20.257568%)" offset="0.453125"/><stop stop-opacity="1" stop-color="rgb(20.610046%, 20.610046%, 20.610046%)" offset="0.460938"/><stop stop-opacity="1" stop-color="rgb(20.962524%, 20.962524%, 20.962524%)" offset="0.46875"/><stop stop-opacity="1" stop-color="rgb(21.315002%, 21.315002%, 21.315002%)" offset="0.476562"/><stop stop-opacity="1" stop-color="rgb(21.66748%, 21.66748%, 21.66748%)" offset="0.484375"/><stop stop-opacity="1" stop-color="rgb(22.019958%, 22.019958%, 22.019958%)" offset="0.492188"/><stop stop-opacity="1" stop-color="rgb(22.372437%, 22.372437%, 22.372437%)" offset="0.5"/><stop stop-opacity="1" stop-color="rgb(22.724915%, 22.724915%, 22.724915%)" offset="0.507812"/><stop stop-opacity="1" stop-color="rgb(23.077393%, 23.077393%, 23.077393%)" offset="0.515625"/><stop stop-opacity="1" stop-color="rgb(23.429871%, 23.429871%, 23.429871%)" offset="0.523438"/><stop stop-opacity="1" stop-color="rgb(23.782349%, 23.782349%, 23.782349%)" offset="0.53125"/><stop stop-opacity="1" stop-color="rgb(24.134827%, 24.134827%, 24.134827%)" offset="0.539062"/><stop stop-opacity="1" stop-color="rgb(24.485779%, 24.485779%, 24.485779%)" offset="0.546875"/><stop stop-opacity="1" stop-color="rgb(24.838257%, 24.838257%, 24.838257%)" offset="0.554688"/><stop stop-opacity="1" stop-color="rgb(25.190735%, 25.190735%, 25.190735%)" offset="0.5625"/><stop stop-opacity="1" stop-color="rgb(25.543213%, 25.543213%, 25.543213%)" offset="0.570312"/><stop stop-opacity="1" stop-color="rgb(25.895691%, 25.895691%, 25.895691%)" offset="0.578125"/><stop stop-opacity="1" stop-color="rgb(26.248169%, 26.248169%, 26.248169%)" offset="0.585938"/><stop stop-opacity="1" stop-color="rgb(26.600647%, 26.600647%, 26.600647%)" offset="0.59375"/><stop stop-opacity="1" stop-color="rgb(26.953125%, 26.953125%, 26.953125%)" offset="0.601562"/><stop stop-opacity="1" stop-color="rgb(27.305603%, 27.305603%, 27.305603%)" offset="0.609375"/><stop stop-opacity="1" stop-color="rgb(27.658081%, 27.658081%, 27.658081%)" offset="0.617188"/><stop stop-opacity="1" stop-color="rgb(28.010559%, 28.010559%, 28.010559%)" offset="0.625"/><stop stop-opacity="1" stop-color="rgb(28.361511%, 28.361511%, 28.361511%)" offset="0.632812"/><stop stop-opacity="1" stop-color="rgb(28.713989%, 28.713989%, 28.713989%)" offset="0.640625"/><stop stop-opacity="1" stop-color="rgb(29.066467%, 29.066467%, 29.066467%)" offset="0.648438"/><stop stop-opacity="1" stop-color="rgb(29.418945%, 29.418945%, 29.418945%)" offset="0.65625"/><stop stop-opacity="1" stop-color="rgb(29.771423%, 29.771423%, 29.771423%)" offset="0.664062"/><stop stop-opacity="1" stop-color="rgb(30.123901%, 30.123901%, 30.123901%)" offset="0.671875"/><stop stop-opacity="1" stop-color="rgb(30.476379%, 30.476379%, 30.476379%)" offset="0.679688"/><stop stop-opacity="1" stop-color="rgb(30.828857%, 30.828857%, 30.828857%)" offset="0.6875"/><stop stop-opacity="1" stop-color="rgb(31.181335%, 31.181335%, 31.181335%)" offset="0.695312"/><stop stop-opacity="1" stop-color="rgb(31.533813%, 31.533813%, 31.533813%)" offset="0.703125"/><stop stop-opacity="1" stop-color="rgb(31.886292%, 31.886292%, 31.886292%)" offset="0.710938"/><stop stop-opacity="1" stop-color="rgb(32.237244%, 32.237244%, 32.237244%)" offset="0.71875"/><stop stop-opacity="1" stop-color="rgb(32.589722%, 32.589722%, 32.589722%)" offset="0.726562"/><stop stop-opacity="1" stop-color="rgb(32.9422%, 32.9422%, 32.9422%)" offset="0.734375"/><stop stop-opacity="1" stop-color="rgb(33.294678%, 33.294678%, 33.294678%)" offset="0.742188"/><stop stop-opacity="1" stop-color="rgb(33.647156%, 33.647156%, 33.647156%)" offset="0.75"/><stop stop-opacity="1" stop-color="rgb(33.999634%, 33.999634%, 33.999634%)" offset="0.757812"/><stop stop-opacity="1" stop-color="rgb(34.352112%, 34.352112%, 34.352112%)" offset="0.765625"/><stop stop-opacity="1" stop-color="rgb(34.70459%, 34.70459%, 34.70459%)" offset="0.773438"/><stop stop-opacity="1" stop-color="rgb(35.057068%, 35.057068%, 35.057068%)" offset="0.78125"/><stop stop-opacity="1" stop-color="rgb(35.409546%, 35.409546%, 35.409546%)" offset="0.789062"/><stop stop-opacity="1" stop-color="rgb(35.762024%, 35.762024%, 35.762024%)" offset="0.796875"/><stop stop-opacity="1" stop-color="rgb(36.114502%, 36.114502%, 36.114502%)" offset="0.804688"/><stop stop-opacity="1" stop-color="rgb(36.465454%, 36.465454%, 36.465454%)" offset="0.8125"/><stop stop-opacity="1" stop-color="rgb(36.817932%, 36.817932%, 36.817932%)" offset="0.820312"/><stop stop-opacity="1" stop-color="rgb(37.17041%, 37.17041%, 37.17041%)" offset="0.828125"/><stop stop-opacity="1" stop-color="rgb(37.522888%, 37.522888%, 37.522888%)" offset="0.835938"/><stop stop-opacity="1" stop-color="rgb(37.875366%, 37.875366%, 37.875366%)" offset="0.84375"/><stop stop-opacity="1" stop-color="rgb(38.227844%, 38.227844%, 38.227844%)" offset="0.851562"/><stop stop-opacity="1" stop-color="rgb(38.580322%, 38.580322%, 38.580322%)" offset="0.859375"/><stop stop-opacity="1" stop-color="rgb(38.9328%, 38.9328%, 38.9328%)" offset="0.867188"/><stop stop-opacity="1" stop-color="rgb(39.285278%, 39.285278%, 39.285278%)" offset="0.875"/><stop stop-opacity="1" stop-color="rgb(39.637756%, 39.637756%, 39.637756%)" offset="0.882812"/><stop stop-opacity="1" stop-color="rgb(39.990234%, 39.990234%, 39.990234%)" offset="0.890625"/><stop stop-opacity="1" stop-color="rgb(40.341187%, 40.341187%, 40.341187%)" offset="0.898438"/><stop stop-opacity="1" stop-color="rgb(40.693665%, 40.693665%, 40.693665%)" offset="0.90625"/><stop stop-opacity="1" stop-color="rgb(41.046143%, 41.046143%, 41.046143%)" offset="0.914062"/><stop stop-opacity="1" stop-color="rgb(41.398621%, 41.398621%, 41.398621%)" offset="0.921875"/><stop stop-opacity="1" stop-color="rgb(41.751099%, 41.751099%, 41.751099%)" offset="0.929688"/><stop stop-opacity="1" stop-color="rgb(42.103577%, 42.103577%, 42.103577%)" offset="0.9375"/><stop stop-opacity="1" stop-color="rgb(42.456055%, 42.456055%, 42.456055%)" offset="0.945312"/><stop stop-opacity="1" stop-color="rgb(42.808533%, 42.808533%, 42.808533%)" offset="0.953125"/><stop stop-opacity="1" stop-color="rgb(43.161011%, 43.161011%, 43.161011%)" offset="0.960938"/><stop stop-opacity="1" stop-color="rgb(43.513489%, 43.513489%, 43.513489%)" offset="0.96875"/><stop stop-opacity="1" stop-color="rgb(43.865967%, 43.865967%, 43.865967%)" offset="0.976562"/><stop stop-opacity="1" stop-color="rgb(44.216919%, 44.216919%, 44.216919%)" offset="0.984375"/><stop stop-opacity="1" stop-color="rgb(44.569397%, 44.569397%, 44.569397%)" offset="0.992188"/><stop stop-opacity="1" stop-color="rgb(44.921875%, 44.921875%, 44.921875%)" offset="1"/></linearGradient><clipPath id="90f90b27a7"><path d="M 244 0.0273438 L 412 0.0273438 L 412 44.972656 L 244 44.972656 Z M 244 0.0273438 " clip-rule="nonzero"/></clipPath><clipPath id="98bcc5fb0f"><path d="M 145 8 L 167.847656 8 L 167.847656 35 L 145 35 Z M 145 8 " clip-rule="nonzero"/></clipPath><clipPath id="8847b123e2"><rect x="0" width="168" y="0" height="45"/></clipPath><clipPath id="328b115f7c"><path d="M 562 0.0273438 L 604 0.0273438 L 604 44.972656 L 562 44.972656 Z M 562 0.0273438 " clip-rule="nonzero"/></clipPath></defs><g clip-path="url(#e8463ac27e)"><path fill="#ffffff" d="M 0 0.0273438 L 655.5 0.0273438 L 655.5 44.972656 L 0 44.972656 Z M 0 0.0273438 " fill-opacity="1" fill-rule="nonzero"/><path fill="url(#a488fa3c7b)" d="M 0 0.0273438 L 0 44.972656 L 655.5 44.972656 L 655.5 0.0273438 Z M 0 0.0273438 " fill-rule="nonzero"/></g><g clip-path="url(#90f90b27a7)"><g transform="matrix(1, 0, 0, 1, 244, 0.000000000000000326)"><g clip-path="url(#8847b123e2)"><g fill="#ffffff" fill-opacity="1"><g transform="translate(1.104475, 34.316077)"><g><path d="M 30.546875 -26.015625 C 29.742188 -25.023438 29.210938 -24.113281 28.953125 -23.28125 C 28.703125 -22.445312 28.578125 -21.320312 28.578125 -19.90625 L 28.578125 -7.5 C 28.578125 -5.925781 28.65625 -4.566406 28.8125 -3.421875 C 28.96875 -2.285156 29.226562 -1.144531 29.59375 0 L 23.765625 0 C 24.140625 -1.125 24.398438 -2.25 24.546875 -3.375 C 24.703125 -4.507812 24.78125 -5.882812 24.78125 -7.5 L 24.78125 -19.171875 L 15.75 -8 L 6.796875 -19.078125 L 6.796875 -7.5 C 6.796875 -5.925781 6.875 -4.566406 7.03125 -3.421875 C 7.1875 -2.285156 7.445312 -1.144531 7.8125 0 L 1.984375 0 C 2.359375 -1.125 2.617188 -2.25 2.765625 -3.375 C 2.921875 -4.507812 3 -5.882812 3 -7.5 L 3 -23.3125 C 2.1875 -24.332031 1.335938 -25.234375 0.453125 -26.015625 L 0.453125 -26.125 L 6.21875 -26.125 C 6.5 -25.457031 6.816406 -24.835938 7.171875 -24.265625 C 7.535156 -23.691406 8.066406 -22.976562 8.765625 -22.125 L 15.78125 -13.453125 L 23.59375 -23.15625 C 24.445312 -24.195312 25.097656 -25.1875 25.546875 -26.125 L 30.546875 -26.125 Z M 30.546875 -26.015625 "/></g></g></g><g fill="#ffffff" fill-opacity="1"><g transform="translate(32.66886, 34.316077)"><g><path d="M 1.984375 0 C 2.335938 -1.144531 2.59375 -2.285156 2.75 -3.421875 C 2.914062 -4.566406 3 -5.925781 3 -7.5 L 3 -18.625 C 3 -20.195312 2.914062 -21.550781 2.75 -22.6875 C 2.59375 -23.820312 2.335938 -24.96875 1.984375 -26.125 L 7.8125 -26.125 C 7.445312 -24.96875 7.1875 -23.820312 7.03125 -22.6875 C 6.875 -21.550781 6.796875 -20.195312 6.796875 -18.625 L 6.796875 -7.5 C 6.796875 -5.925781 6.875 -4.566406 7.03125 -3.421875 C 7.1875 -2.285156 7.445312 -1.144531 7.8125 0 Z M 1.984375 0 "/></g></g></g><g fill="#ffffff" fill-opacity="1"><g transform="translate(42.457008, 34.316077)"><g><path d="M 19.171875 -4.8125 C 20.910156 -2.726562 22.460938 -1.164062 23.828125 -0.125 L 23.828125 0 L 17.03125 0 C 16.90625 -0.613281 16.578125 -1.390625 16.046875 -2.328125 C 15.515625 -3.265625 14.863281 -4.210938 14.09375 -5.171875 L 6.796875 -14.15625 L 6.796875 -7.5 C 6.796875 -5.925781 6.875 -4.566406 7.03125 -3.421875 C 7.1875 -2.285156 7.445312 -1.144531 7.8125 0 L 1.984375 0 C 2.335938 -1.144531 2.59375 -2.285156 2.75 -3.421875 C 2.914062 -4.566406 3 -5.925781 3 -7.5 L 3 -18.625 C 3 -20.195312 2.914062 -21.550781 2.75 -22.6875 C 2.59375 -23.820312 2.335938 -24.96875 1.984375 -26.125 L 7.8125 -26.125 C 7.445312 -24.96875 7.1875 -23.820312 7.03125 -22.6875 C 6.875 -21.550781 6.796875 -20.195312 6.796875 -18.625 L 6.796875 -14.546875 L 13.359375 -22.421875 C 13.929688 -23.097656 14.332031 -23.707031 14.5625 -24.25 C 14.800781 -24.789062 14.953125 -25.414062 15.015625 -26.125 L 22.234375 -26.125 L 22.234375 -25.984375 C 19.929688 -24.242188 17.859375 -22.28125 16.015625 -20.09375 L 11.328125 -14.484375 Z M 19.171875 -4.8125 "/></g></g></g><g fill="#ffffff" fill-opacity="1"><g transform="translate(65.317276, 34.316077)"><g><path d="M 12.09375 -11.578125 C 13.21875 -9.703125 14.414062 -7.921875 15.6875 -6.234375 C 16.96875 -4.546875 18.601562 -2.507812 20.59375 -0.125 L 20.59375 0 L 17.515625 0 C 16.554688 -0.363281 15.3125 -1.40625 13.78125 -3.125 C 11.695312 -5.46875 9.367188 -8.421875 6.796875 -11.984375 L 6.796875 -7.5 C 6.796875 -5.925781 6.875 -4.566406 7.03125 -3.421875 C 7.1875 -2.285156 7.445312 -1.144531 7.8125 0 L 1.984375 0 C 2.335938 -1.144531 2.59375 -2.285156 2.75 -3.421875 C 2.914062 -4.566406 3 -5.925781 3 -7.5 L 3 -18.625 C 3 -20.195312 2.914062 -21.550781 2.75 -22.6875 C 2.59375 -23.820312 2.335938 -24.96875 1.984375 -26.125 L 7.40625 -26.125 C 9.550781 -26.125 11.375 -25.785156 12.875 -25.109375 C 14.382812 -24.441406 15.515625 -23.550781 16.265625 -22.4375 C 17.023438 -21.320312 17.40625 -20.070312 17.40625 -18.6875 C 17.40625 -15.582031 15.632812 -13.210938 12.09375 -11.578125 Z M 6.796875 -12.40625 C 8.960938 -12.851562 10.609375 -13.582031 11.734375 -14.59375 C 12.859375 -15.601562 13.421875 -16.804688 13.421875 -18.203125 C 13.421875 -19.335938 13.128906 -20.332031 12.546875 -21.1875 C 11.960938 -22.050781 11.164062 -22.71875 10.15625 -23.1875 C 9.144531 -23.65625 8.023438 -23.890625 6.796875 -23.890625 Z M 6.796875 -12.40625 "/></g></g></g><g fill="#ffffff" fill-opacity="1"><g transform="translate(84.797855, 34.316077)"><g><path d="M 15.078125 -26.4375 C 17.566406 -26.4375 19.851562 -25.882812 21.9375 -24.78125 C 24.019531 -23.675781 25.671875 -22.125 26.890625 -20.125 C 28.117188 -18.125 28.734375 -15.828125 28.734375 -13.234375 C 28.734375 -10.640625 28.125 -8.3125 26.90625 -6.25 C 25.695312 -4.1875 24.039062 -2.578125 21.9375 -1.421875 C 19.832031 -0.265625 17.503906 0.3125 14.953125 0.3125 C 12.296875 0.3125 9.941406 -0.304688 7.890625 -1.546875 C 5.835938 -2.785156 4.257812 -4.429688 3.15625 -6.484375 C 2.050781 -8.535156 1.5 -10.722656 1.5 -13.046875 C 1.5 -15.460938 2.097656 -17.695312 3.296875 -19.75 C 4.503906 -21.800781 6.144531 -23.425781 8.21875 -24.625 C 10.289062 -25.832031 12.578125 -26.4375 15.078125 -26.4375 Z M 14.3125 -23.65625 C 12.757812 -23.65625 11.320312 -23.25 10 -22.4375 C 8.6875 -21.632812 7.640625 -20.492188 6.859375 -19.015625 C 6.085938 -17.546875 5.703125 -15.84375 5.703125 -13.90625 C 5.703125 -11.882812 6.125 -9.992188 6.96875 -8.234375 C 7.8125 -6.484375 8.988281 -5.082031 10.5 -4.03125 C 12.019531 -2.976562 13.757812 -2.453125 15.71875 -2.453125 C 17.445312 -2.453125 18.976562 -2.890625 20.3125 -3.765625 C 21.65625 -4.640625 22.695312 -5.820312 23.4375 -7.3125 C 24.1875 -8.8125 24.5625 -10.46875 24.5625 -12.28125 C 24.5625 -14.300781 24.101562 -16.1875 23.1875 -17.9375 C 22.269531 -19.6875 21.03125 -21.078125 19.46875 -22.109375 C 17.90625 -23.140625 16.1875 -23.65625 14.3125 -23.65625 Z M 14.3125 -23.65625 "/></g></g></g><g fill="#ffffff" fill-opacity="1"><g transform="translate(113.779572, 34.316077)"><g><path d="M 6.890625 0 C 7.273438 -1.125 7.539062 -2.25 7.6875 -3.375 C 7.832031 -4.507812 7.90625 -5.882812 7.90625 -7.5 L 7.90625 -23.375 C 6.351562 -23.375 4.867188 -23.21875 3.453125 -22.90625 C 2.046875 -22.601562 0.78125 -22.175781 -0.34375 -21.625 L -0.421875 -21.6875 L 0.890625 -26.125 L 20.40625 -26.125 L 18.625 -21.96875 C 17.601562 -22.457031 16.5625 -22.8125 15.5 -23.03125 C 14.4375 -23.257812 13.171875 -23.375 11.703125 -23.375 L 11.703125 -7.5 C 11.703125 -5.925781 11.78125 -4.566406 11.9375 -3.421875 C 12.101562 -2.285156 12.363281 -1.144531 12.71875 0 Z M 6.890625 0 "/></g></g></g><g fill="#ffffff" fill-opacity="1"><g transform="translate(133.738463, 34.316077)"><g><path d="M 1.984375 0 C 2.335938 -1.144531 2.59375 -2.285156 2.75 -3.421875 C 2.914062 -4.566406 3 -5.925781 3 -7.5 L 3 -18.625 C 3 -20.195312 2.914062 -21.550781 2.75 -22.6875 C 2.59375 -23.820312 2.335938 -24.96875 1.984375 -26.125 L 7.8125 -26.125 C 7.445312 -24.96875 7.1875 -23.820312 7.03125 -22.6875 C 6.875 -21.550781 6.796875 -20.195312 6.796875 -18.625 L 6.796875 -7.5 C 6.796875 -5.925781 6.875 -4.566406 7.03125 -3.421875 C 7.1875 -2.285156 7.445312 -1.144531 7.8125 0 Z M 1.984375 0 "/></g></g></g><g clip-path="url(#98bcc5fb0f)"><g fill="#ffffff" fill-opacity="1"><g transform="translate(143.526615, 34.316077)"><g><path d="M 19.171875 -4.8125 C 20.910156 -2.726562 22.460938 -1.164062 23.828125 -0.125 L 23.828125 0 L 17.03125 0 C 16.90625 -0.613281 16.578125 -1.390625 16.046875 -2.328125 C 15.515625 -3.265625 14.863281 -4.210938 14.09375 -5.171875 L 6.796875 -14.15625 L 6.796875 -7.5 C 6.796875 -5.925781 6.875 -4.566406 7.03125 -3.421875 C 7.1875 -2.285156 7.445312 -1.144531 7.8125 0 L 1.984375 0 C 2.335938 -1.144531 2.59375 -2.285156 2.75 -3.421875 C 2.914062 -4.566406 3 -5.925781 3 -7.5 L 3 -18.625 C 3 -20.195312 2.914062 -21.550781 2.75 -22.6875 C 2.59375 -23.820312 2.335938 -24.96875 1.984375 -26.125 L 7.8125 -26.125 C 7.445312 -24.96875 7.1875 -23.820312 7.03125 -22.6875 C 6.875 -21.550781 6.796875 -20.195312 6.796875 -18.625 L 6.796875 -14.546875 L 13.359375 -22.421875 C 13.929688 -23.097656 14.332031 -23.707031 14.5625 -24.25 C 14.800781 -24.789062 14.953125 -25.414062 15.015625 -26.125 L 22.234375 -26.125 L 22.234375 -25.984375 C 19.929688 -24.242188 17.859375 -22.28125 16.015625 -20.09375 L 11.328125 -14.484375 Z M 19.171875 -4.8125 "/></g></g></g></g></g></g></g><g clip-path="url(#328b115f7c)"><path fill="#000000" d="M 603.789062 14.277344 L 603.789062 30.671875 C 603.789062 31.6875 603.664062 32.558594 603.382812 33.199219 C 603.332031 33.316406 603.273438 33.433594 603.214844 33.546875 C 602.808594 34.203125 601.992188 34.851562 600.886719 35.453125 L 585.929688 43.648438 C 585 44.15625 584.144531 44.488281 583.421875 44.582031 C 583.285156 44.601562 583.152344 44.613281 583.023438 44.613281 C 582.890625 44.613281 582.757812 44.601562 582.621094 44.582031 C 581.898438 44.488281 581.042969 44.15625 580.113281 43.648438 L 572.636719 39.550781 L 565.164062 35.453125 C 564.050781 34.851562 563.234375 34.203125 562.835938 33.546875 C 562.429688 32.882812 562.253906 31.886719 562.253906 30.671875 L 562.253906 14.277344 C 562.253906 13.257812 562.378906 12.398438 562.65625 11.757812 C 562.710938 11.632812 562.769531 11.511719 562.835938 11.410156 C 562.898438 11.300781 562.972656 11.195312 563.054688 11.09375 C 563.503906 10.539062 564.234375 10.011719 565.164062 9.496094 L 572.636719 5.398438 L 580.113281 1.300781 C 581.21875 0.695312 582.222656 0.34375 583.023438 0.34375 C 583.152344 0.34375 583.285156 0.351562 583.421875 0.371094 C 584.144531 0.460938 585 0.792969 585.929688 1.300781 L 593.40625 5.398438 L 600.886719 9.496094 C 601.816406 10.011719 602.535156 10.539062 602.988281 11.09375 C 603.074219 11.195312 603.152344 11.300781 603.214844 11.410156 C 603.273438 11.511719 603.332031 11.632812 603.382812 11.757812 C 603.664062 12.398438 603.789062 13.257812 603.789062 14.277344 M 596.238281 16.722656 C 596.238281 16 595.847656 15.335938 595.21875 15 L 583.96875 8.832031 C 583.378906 8.507812 582.664062 8.507812 582.074219 8.832031 L 579.207031 10.402344 C 578.867188 10.59375 578.867188 11.078125 579.207031 11.261719 L 587.785156 15.964844 C 588.125 16.15625 588.125 16.640625 587.785156 16.824219 L 583.96875 18.917969 C 583.378906 19.242188 582.664062 19.242188 582.074219 18.917969 L 573.820312 14.394531 C 573.230469 14.070312 572.515625 14.070312 571.929688 14.394531 L 570.828125 15 C 570.195312 15.34375 569.804688 16 569.804688 16.722656 L 569.804688 17.238281 L 579.789062 22.714844 C 580.425781 23.050781 580.8125 23.714844 580.8125 24.429688 L 580.8125 34.851562 C 580.8125 35.203125 581.007812 35.535156 581.324219 35.710938 L 582.074219 36.125 C 582.664062 36.449219 583.378906 36.449219 583.96875 36.125 L 584.726562 35.710938 C 585.035156 35.535156 585.234375 35.203125 585.234375 34.851562 L 585.234375 24.429688 C 585.234375 23.714844 585.625 23.050781 586.261719 22.714844 L 591.085938 20.0625 C 591.417969 19.882812 591.816406 20.121094 591.816406 20.496094 L 591.816406 30.988281 C 591.816406 31.363281 592.214844 31.601562 592.546875 31.421875 L 595.21875 29.957031 C 595.847656 29.609375 596.238281 28.949219 596.238281 28.234375 Z M 574.226562 22.484375 C 574.226562 22.132812 574.035156 21.800781 573.71875 21.625 L 570.535156 19.875 C 570.203125 19.699219 569.804688 19.9375 569.804688 20.3125 L 569.804688 28.234375 C 569.804688 28.949219 570.195312 29.609375 570.828125 29.957031 L 573.503906 31.421875 C 573.828125 31.601562 574.226562 31.363281 574.226562 30.988281 Z M 574.226562 22.484375 " fill-opacity="1" fill-rule="evenodd"/></g></svg>