<svg xmlns="http://www.w3.org/2000/svg" xmlns:xlink="http://www.w3.org/1999/xlink" width="1902" zoomAndPan="magnify" viewBox="0 0 1426.5 92.249997" height="123" preserveAspectRatio="xMidYMid meet" version="1.0"><defs><g/><clipPath id="ebf3eb18cd"><rect x="0" width="233" y="0" height="82"/></clipPath><clipPath id="398c0c9b62"><path d="M 660.015625 0 L 665 0 L 665 91.507812 L 660.015625 91.507812 Z M 660.015625 0 " clip-rule="nonzero"/></clipPath><clipPath id="ebb371fc8b"><path d="M 660.015625 44 L 662 44 L 662 47 L 660.015625 47 Z M 660.015625 44 " clip-rule="nonzero"/></clipPath></defs><g fill="#e2cbf6" fill-opacity="1"><g transform="translate(706.502465, 63.759848)"><g><path d="M 5.515625 0 L 5.515625 -40.328125 L 10.203125 -40.328125 L 10.203125 0 Z M 5.515625 0 "/></g></g></g><g fill="#e2cbf6" fill-opacity="1"><g transform="translate(722.281012, 63.759848)"><g><path d="M 23.25 0 L 9.71875 -35.703125 L 9.484375 -35.703125 C 9.554688 -34.941406 9.617188 -34.019531 9.671875 -32.9375 C 9.734375 -31.851562 9.78125 -30.671875 9.8125 -29.390625 C 9.851562 -28.117188 9.875 -26.816406 9.875 -25.484375 L 9.875 0 L 5.515625 0 L 5.515625 -40.328125 L 12.46875 -40.328125 L 25.25 -6.78125 L 25.4375 -6.78125 L 38.40625 -40.328125 L 45.296875 -40.328125 L 45.296875 0 L 40.671875 0 L 40.671875 -25.828125 C 40.671875 -27.015625 40.6875 -28.210938 40.71875 -29.421875 C 40.757812 -30.628906 40.804688 -31.769531 40.859375 -32.84375 C 40.910156 -33.914062 40.960938 -34.847656 41.015625 -35.640625 L 40.796875 -35.640625 L 27.09375 0 Z M 23.25 0 "/></g></g></g><g fill="#e2cbf6" fill-opacity="1"><g transform="translate(773.09235, 63.759848)"><g><path d="M 16.0625 -40.328125 C 21.257812 -40.328125 25.054688 -39.3125 27.453125 -37.28125 C 29.859375 -35.25 31.0625 -32.335938 31.0625 -28.546875 C 31.0625 -26.835938 30.78125 -25.210938 30.21875 -23.671875 C 29.65625 -22.140625 28.75 -20.789062 27.5 -19.625 C 26.25 -18.457031 24.609375 -17.535156 22.578125 -16.859375 C 20.546875 -16.191406 18.0625 -15.859375 15.125 -15.859375 L 10.203125 -15.859375 L 10.203125 0 L 5.515625 0 L 5.515625 -40.328125 Z M 15.609375 -36.328125 L 10.203125 -36.328125 L 10.203125 -19.890625 L 14.59375 -19.890625 C 17.164062 -19.890625 19.3125 -20.164062 21.03125 -20.71875 C 22.75 -21.269531 24.039062 -22.164062 24.90625 -23.40625 C 25.769531 -24.644531 26.203125 -26.296875 26.203125 -28.359375 C 26.203125 -31.046875 25.347656 -33.046875 23.640625 -34.359375 C 21.929688 -35.671875 19.253906 -36.328125 15.609375 -36.328125 Z M 15.609375 -36.328125 "/></g></g></g><g fill="#e2cbf6" fill-opacity="1"><g transform="translate(807.076914, 63.759848)"><g><path d="M 16.421875 -40.328125 C 19.722656 -40.328125 22.453125 -39.914062 24.609375 -39.09375 C 26.773438 -38.28125 28.390625 -37.035156 29.453125 -35.359375 C 30.523438 -33.691406 31.0625 -31.5625 31.0625 -28.96875 C 31.0625 -26.832031 30.675781 -25.050781 29.90625 -23.625 C 29.132812 -22.195312 28.125 -21.039062 26.875 -20.15625 C 25.625 -19.28125 24.289062 -18.601562 22.875 -18.125 L 33.9375 0 L 28.46875 0 L 18.59375 -16.828125 L 10.203125 -16.828125 L 10.203125 0 L 5.515625 0 L 5.515625 -40.328125 Z M 16.140625 -36.28125 L 10.203125 -36.28125 L 10.203125 -20.796875 L 16.609375 -20.796875 C 19.898438 -20.796875 22.320312 -21.46875 23.875 -22.8125 C 25.425781 -24.15625 26.203125 -26.132812 26.203125 -28.75 C 26.203125 -31.488281 25.378906 -33.425781 23.734375 -34.5625 C 22.085938 -35.707031 19.554688 -36.28125 16.140625 -36.28125 Z M 16.140625 -36.28125 "/></g></g></g><g fill="#e2cbf6" fill-opacity="1"><g transform="translate(841.944194, 63.759848)"><g><path d="M 27.96875 0 L 5.515625 0 L 5.515625 -40.328125 L 27.96875 -40.328125 L 27.96875 -36.203125 L 10.203125 -36.203125 L 10.203125 -23.140625 L 26.953125 -23.140625 L 26.953125 -19.0625 L 10.203125 -19.0625 L 10.203125 -4.140625 L 27.96875 -4.140625 Z M 27.96875 0 "/></g></g></g><g fill="#e2cbf6" fill-opacity="1"><g transform="translate(873.335781, 63.759848)"><g><path d="M 28.28125 -10.734375 C 28.28125 -8.335938 27.6875 -6.296875 26.5 -4.609375 C 25.3125 -2.929688 23.648438 -1.648438 21.515625 -0.765625 C 19.378906 0.109375 16.867188 0.546875 13.984375 0.546875 C 12.460938 0.546875 11.019531 0.472656 9.65625 0.328125 C 8.289062 0.179688 7.035156 -0.0234375 5.890625 -0.296875 C 4.753906 -0.578125 3.753906 -0.921875 2.890625 -1.328125 L 2.890625 -5.828125 C 4.273438 -5.253906 5.957031 -4.722656 7.9375 -4.234375 C 9.925781 -3.742188 12.007812 -3.5 14.1875 -3.5 C 16.207031 -3.5 17.914062 -3.769531 19.3125 -4.3125 C 20.707031 -4.851562 21.769531 -5.632812 22.5 -6.65625 C 23.226562 -7.675781 23.59375 -8.90625 23.59375 -10.34375 C 23.59375 -11.726562 23.285156 -12.882812 22.671875 -13.8125 C 22.066406 -14.738281 21.0625 -15.582031 19.65625 -16.34375 C 18.25 -17.101562 16.332031 -17.914062 13.90625 -18.78125 C 12.195312 -19.394531 10.6875 -20.0625 9.375 -20.78125 C 8.070312 -21.507812 6.976562 -22.332031 6.09375 -23.25 C 5.207031 -24.175781 4.539062 -25.242188 4.09375 -26.453125 C 3.644531 -27.671875 3.421875 -29.0625 3.421875 -30.625 C 3.421875 -32.769531 3.96875 -34.609375 5.0625 -36.140625 C 6.15625 -37.679688 7.671875 -38.859375 9.609375 -39.671875 C 11.554688 -40.492188 13.785156 -40.90625 16.296875 -40.90625 C 18.453125 -40.90625 20.441406 -40.703125 22.265625 -40.296875 C 24.097656 -39.898438 25.78125 -39.359375 27.3125 -38.671875 L 25.84375 -34.65625 C 24.394531 -35.257812 22.851562 -35.765625 21.21875 -36.171875 C 19.59375 -36.578125 17.914062 -36.78125 16.1875 -36.78125 C 14.457031 -36.78125 13 -36.523438 11.8125 -36.015625 C 10.632812 -35.503906 9.734375 -34.789062 9.109375 -33.875 C 8.484375 -32.957031 8.171875 -31.863281 8.171875 -30.59375 C 8.171875 -29.175781 8.46875 -28 9.0625 -27.0625 C 9.65625 -26.125 10.609375 -25.289062 11.921875 -24.5625 C 13.242188 -23.84375 14.988281 -23.085938 17.15625 -22.296875 C 19.53125 -21.429688 21.546875 -20.515625 23.203125 -19.546875 C 24.859375 -18.578125 26.117188 -17.398438 26.984375 -16.015625 C 27.847656 -14.628906 28.28125 -12.867188 28.28125 -10.734375 Z M 28.28125 -10.734375 "/></g></g></g><g fill="#e2cbf6" fill-opacity="1"><g transform="translate(904.313594, 63.759848)"><g><path d="M 28.28125 -10.734375 C 28.28125 -8.335938 27.6875 -6.296875 26.5 -4.609375 C 25.3125 -2.929688 23.648438 -1.648438 21.515625 -0.765625 C 19.378906 0.109375 16.867188 0.546875 13.984375 0.546875 C 12.460938 0.546875 11.019531 0.472656 9.65625 0.328125 C 8.289062 0.179688 7.035156 -0.0234375 5.890625 -0.296875 C 4.753906 -0.578125 3.753906 -0.921875 2.890625 -1.328125 L 2.890625 -5.828125 C 4.273438 -5.253906 5.957031 -4.722656 7.9375 -4.234375 C 9.925781 -3.742188 12.007812 -3.5 14.1875 -3.5 C 16.207031 -3.5 17.914062 -3.769531 19.3125 -4.3125 C 20.707031 -4.851562 21.769531 -5.632812 22.5 -6.65625 C 23.226562 -7.675781 23.59375 -8.90625 23.59375 -10.34375 C 23.59375 -11.726562 23.285156 -12.882812 22.671875 -13.8125 C 22.066406 -14.738281 21.0625 -15.582031 19.65625 -16.34375 C 18.25 -17.101562 16.332031 -17.914062 13.90625 -18.78125 C 12.195312 -19.394531 10.6875 -20.0625 9.375 -20.78125 C 8.070312 -21.507812 6.976562 -22.332031 6.09375 -23.25 C 5.207031 -24.175781 4.539062 -25.242188 4.09375 -26.453125 C 3.644531 -27.671875 3.421875 -29.0625 3.421875 -30.625 C 3.421875 -32.769531 3.96875 -34.609375 5.0625 -36.140625 C 6.15625 -37.679688 7.671875 -38.859375 9.609375 -39.671875 C 11.554688 -40.492188 13.785156 -40.90625 16.296875 -40.90625 C 18.453125 -40.90625 20.441406 -40.703125 22.265625 -40.296875 C 24.097656 -39.898438 25.78125 -39.359375 27.3125 -38.671875 L 25.84375 -34.65625 C 24.394531 -35.257812 22.851562 -35.765625 21.21875 -36.171875 C 19.59375 -36.578125 17.914062 -36.78125 16.1875 -36.78125 C 14.457031 -36.78125 13 -36.523438 11.8125 -36.015625 C 10.632812 -35.503906 9.734375 -34.789062 9.109375 -33.875 C 8.484375 -32.957031 8.171875 -31.863281 8.171875 -30.59375 C 8.171875 -29.175781 8.46875 -28 9.0625 -27.0625 C 9.65625 -26.125 10.609375 -25.289062 11.921875 -24.5625 C 13.242188 -23.84375 14.988281 -23.085938 17.15625 -22.296875 C 19.53125 -21.429688 21.546875 -20.515625 23.203125 -19.546875 C 24.859375 -18.578125 26.117188 -17.398438 26.984375 -16.015625 C 27.847656 -14.628906 28.28125 -12.867188 28.28125 -10.734375 Z M 28.28125 -10.734375 "/></g></g></g><g fill="#e2cbf6" fill-opacity="1"><g transform="translate(935.291407, 63.759848)"><g><path d="M 40.5 -20.21875 C 40.5 -17.113281 40.101562 -14.285156 39.3125 -11.734375 C 38.519531 -9.191406 37.347656 -7.003906 35.796875 -5.171875 C 34.242188 -3.335938 32.316406 -1.925781 30.015625 -0.9375 C 27.710938 0.0507812 25.046875 0.546875 22.015625 0.546875 C 18.890625 0.546875 16.160156 0.0507812 13.828125 -0.9375 C 11.503906 -1.925781 9.570312 -3.34375 8.03125 -5.1875 C 6.5 -7.03125 5.351562 -9.226562 4.59375 -11.78125 C 3.832031 -14.332031 3.453125 -17.164062 3.453125 -20.28125 C 3.453125 -24.394531 4.128906 -28.003906 5.484375 -31.109375 C 6.847656 -34.222656 8.910156 -36.644531 11.671875 -38.375 C 14.441406 -40.101562 17.914062 -40.96875 22.09375 -40.96875 C 26.082031 -40.96875 29.441406 -40.113281 32.171875 -38.40625 C 34.910156 -36.695312 36.984375 -34.289062 38.390625 -31.1875 C 39.796875 -28.09375 40.5 -24.4375 40.5 -20.21875 Z M 8.390625 -20.21875 C 8.390625 -16.800781 8.875 -13.84375 9.84375 -11.34375 C 10.820312 -8.84375 12.316406 -6.910156 14.328125 -5.546875 C 16.347656 -4.179688 18.910156 -3.5 22.015625 -3.5 C 25.140625 -3.5 27.695312 -4.179688 29.6875 -5.546875 C 31.6875 -6.910156 33.164062 -8.84375 34.125 -11.34375 C 35.082031 -13.84375 35.5625 -16.800781 35.5625 -20.21875 C 35.5625 -25.425781 34.46875 -29.492188 32.28125 -32.421875 C 30.101562 -35.359375 26.707031 -36.828125 22.09375 -36.828125 C 18.96875 -36.828125 16.394531 -36.15625 14.375 -34.8125 C 12.351562 -33.46875 10.847656 -31.554688 9.859375 -29.078125 C 8.878906 -26.609375 8.390625 -23.65625 8.390625 -20.21875 Z M 8.390625 -20.21875 "/></g></g></g><g fill="#e2cbf6" fill-opacity="1"><g transform="translate(979.234111, 63.759848)"><g><path d="M 16.421875 -40.328125 C 19.722656 -40.328125 22.453125 -39.914062 24.609375 -39.09375 C 26.773438 -38.28125 28.390625 -37.035156 29.453125 -35.359375 C 30.523438 -33.691406 31.0625 -31.5625 31.0625 -28.96875 C 31.0625 -26.832031 30.675781 -25.050781 29.90625 -23.625 C 29.132812 -22.195312 28.125 -21.039062 26.875 -20.15625 C 25.625 -19.28125 24.289062 -18.601562 22.875 -18.125 L 33.9375 0 L 28.46875 0 L 18.59375 -16.828125 L 10.203125 -16.828125 L 10.203125 0 L 5.515625 0 L 5.515625 -40.328125 Z M 16.140625 -36.28125 L 10.203125 -36.28125 L 10.203125 -20.796875 L 16.609375 -20.796875 C 19.898438 -20.796875 22.320312 -21.46875 23.875 -22.8125 C 25.425781 -24.15625 26.203125 -26.132812 26.203125 -28.75 C 26.203125 -31.488281 25.378906 -33.425781 23.734375 -34.5625 C 22.085938 -35.707031 19.554688 -36.28125 16.140625 -36.28125 Z M 16.140625 -36.28125 "/></g></g></g><g fill="#e2cbf6" fill-opacity="1"><g transform="translate(1014.101392, 63.759848)"><g><path d="M 30.8125 0 L 25.84375 -12.796875 L 9.6875 -12.796875 L 4.75 0 L 0 0 L 15.78125 -40.5 L 20 -40.5 L 35.671875 0 Z M 24.4375 -16.96875 L 19.71875 -29.6875 C 19.613281 -30.019531 19.4375 -30.5625 19.1875 -31.3125 C 18.9375 -32.0625 18.679688 -32.84375 18.421875 -33.65625 C 18.171875 -34.46875 17.960938 -35.117188 17.796875 -35.609375 C 17.609375 -34.859375 17.410156 -34.109375 17.203125 -33.359375 C 16.992188 -32.617188 16.785156 -31.929688 16.578125 -31.296875 C 16.378906 -30.660156 16.207031 -30.125 16.0625 -29.6875 L 11.25 -16.96875 Z M 24.4375 -16.96875 "/></g></g></g><g fill="#e2cbf6" fill-opacity="1"><g transform="translate(1049.823803, 63.759848)"><g><path d="M 28.28125 -10.734375 C 28.28125 -8.335938 27.6875 -6.296875 26.5 -4.609375 C 25.3125 -2.929688 23.648438 -1.648438 21.515625 -0.765625 C 19.378906 0.109375 16.867188 0.546875 13.984375 0.546875 C 12.460938 0.546875 11.019531 0.472656 9.65625 0.328125 C 8.289062 0.179688 7.035156 -0.0234375 5.890625 -0.296875 C 4.753906 -0.578125 3.753906 -0.921875 2.890625 -1.328125 L 2.890625 -5.828125 C 4.273438 -5.253906 5.957031 -4.722656 7.9375 -4.234375 C 9.925781 -3.742188 12.007812 -3.5 14.1875 -3.5 C 16.207031 -3.5 17.914062 -3.769531 19.3125 -4.3125 C 20.707031 -4.851562 21.769531 -5.632812 22.5 -6.65625 C 23.226562 -7.675781 23.59375 -8.90625 23.59375 -10.34375 C 23.59375 -11.726562 23.285156 -12.882812 22.671875 -13.8125 C 22.066406 -14.738281 21.0625 -15.582031 19.65625 -16.34375 C 18.25 -17.101562 16.332031 -17.914062 13.90625 -18.78125 C 12.195312 -19.394531 10.6875 -20.0625 9.375 -20.78125 C 8.070312 -21.507812 6.976562 -22.332031 6.09375 -23.25 C 5.207031 -24.175781 4.539062 -25.242188 4.09375 -26.453125 C 3.644531 -27.671875 3.421875 -29.0625 3.421875 -30.625 C 3.421875 -32.769531 3.96875 -34.609375 5.0625 -36.140625 C 6.15625 -37.679688 7.671875 -38.859375 9.609375 -39.671875 C 11.554688 -40.492188 13.785156 -40.90625 16.296875 -40.90625 C 18.453125 -40.90625 20.441406 -40.703125 22.265625 -40.296875 C 24.097656 -39.898438 25.78125 -39.359375 27.3125 -38.671875 L 25.84375 -34.65625 C 24.394531 -35.257812 22.851562 -35.765625 21.21875 -36.171875 C 19.59375 -36.578125 17.914062 -36.78125 16.1875 -36.78125 C 14.457031 -36.78125 13 -36.523438 11.8125 -36.015625 C 10.632812 -35.503906 9.734375 -34.789062 9.109375 -33.875 C 8.484375 -32.957031 8.171875 -31.863281 8.171875 -30.59375 C 8.171875 -29.175781 8.46875 -28 9.0625 -27.0625 C 9.65625 -26.125 10.609375 -25.289062 11.921875 -24.5625 C 13.242188 -23.84375 14.988281 -23.085938 17.15625 -22.296875 C 19.53125 -21.429688 21.546875 -20.515625 23.203125 -19.546875 C 24.859375 -18.578125 26.117188 -17.398438 26.984375 -16.015625 C 27.847656 -14.628906 28.28125 -12.867188 28.28125 -10.734375 Z M 28.28125 -10.734375 "/></g></g></g><g transform="matrix(1, 0, 0, 1, 405, 0)"><g clip-path="url(#ebf3eb18cd)"><g fill="#ffffff" fill-opacity="1"><g transform="translate(1.68065, 80.523469)"><g><path d="M 49.71875 -31.140625 L 58.859375 -31.140625 L 58.859375 -0.1875 L 37.328125 -0.09375 C 27.359375 -0.09375 19.390625 -3.078125 13.421875 -9.046875 C 8.160156 -14.503906 5.273438 -21.835938 4.765625 -31.046875 L 14.375 -31.046875 C 14.757812 -25.203125 17.046875 -19.929688 21.234375 -15.234375 C 23.390625 -13.015625 25.738281 -11.394531 28.28125 -10.375 C 29.613281 -9.9375 31.085938 -9.570312 32.703125 -9.28125 C 34.328125 -9 36.09375 -8.859375 38 -8.859375 L 49.71875 -8.953125 Z M 37.421875 -67.046875 L 58.859375 -66.953125 L 58.859375 -58.09375 L 38.1875 -58.28125 C 36.40625 -58.28125 34.769531 -58.148438 33.28125 -57.890625 C 31.789062 -57.640625 30.410156 -57.234375 29.140625 -56.671875 C 27.929688 -56.160156 26.722656 -55.539062 25.515625 -54.8125 C 24.316406 -54.082031 23.144531 -53.207031 22 -52.1875 C 18.570312 -48.375 16.285156 -44.375 15.140625 -40.1875 L 5.140625 -40.1875 C 6.222656 -47.425781 8.984375 -53.332031 13.421875 -57.90625 C 19.453125 -64 27.453125 -67.046875 37.421875 -67.046875 Z M 37.421875 -67.046875 "/></g></g></g><g fill="#ffffff" fill-opacity="1"><g transform="translate(65.289668, 80.523469)"><g><path d="M 28.46875 -50 L 37.625 -50 L 37.625 0 L 28.46875 0 Z M 4.765625 -66.859375 L 61.328125 -66.859375 L 61.328125 -59.234375 L 37.625 -59.234375 L 37.625 -59.140625 L 28.46875 -59.140625 L 28.46875 -59.234375 L 4.765625 -59.234375 Z M 4.765625 -66.859375 "/></g></g></g><g fill="#ffffff" fill-opacity="1"><g transform="translate(131.374482, 80.523469)"><g><path d="M 4.765625 -30.765625 L 13.90625 -30.765625 L 13.90625 0 L 4.765625 0 Z M 4.765625 -66.765625 L 13.90625 -66.765625 L 13.90625 -39.8125 L 4.765625 -39.8125 Z M 4.765625 -66.765625 "/></g></g></g><g fill="#ffffff" fill-opacity="1"><g transform="translate(149.942974, 80.523469)"><g><path d="M 4.765625 -30.46875 L 14.375 -30.46875 C 14.820312 -24.820312 17.109375 -19.710938 21.234375 -15.140625 C 23.328125 -12.859375 25.675781 -11.207031 28.28125 -10.1875 C 30.945312 -9.238281 34.1875 -8.765625 38 -8.765625 L 58.765625 -8.859375 L 58.859375 -0.09375 L 37.328125 0 C 27.296875 0 19.328125 -2.953125 13.421875 -8.859375 C 8.222656 -14.378906 5.335938 -21.582031 4.765625 -30.46875 Z M 37.328125 -66.859375 L 58.859375 -66.859375 L 58.765625 -58 L 38.1875 -58.1875 C 36.40625 -58.1875 34.769531 -58.054688 33.28125 -57.796875 C 31.789062 -57.546875 30.410156 -57.132812 29.140625 -56.5625 C 27.929688 -56.0625 26.722656 -55.441406 25.515625 -54.703125 C 24.316406 -53.972656 23.144531 -53.070312 22 -52 C 18.25 -47.875 15.835938 -43.492188 14.765625 -38.859375 L 4.953125 -38.859375 C 5.898438 -46.734375 8.722656 -53.019531 13.421875 -57.71875 C 19.453125 -63.8125 27.421875 -66.859375 37.328125 -66.859375 Z M 37.328125 -66.859375 "/></g></g></g><g fill="#ffffff" fill-opacity="1"><g transform="translate(213.471141, 80.523469)"><g/></g></g></g></g><g clip-path="url(#398c0c9b62)"><path fill="#ffffff" d="M 662.109375 -4.945312 L 662.816406 -4.945312 L 662.816406 42.777344 C 664 42.949219 664.910156 43.96875 664.910156 45.199219 C 664.910156 46.429688 664 47.449219 662.816406 47.621094 L 662.816406 95.34375 L 662.109375 95.34375 L 662.109375 47.621094 C 660.925781 47.449219 660.015625 46.429688 660.015625 45.199219 C 660.015625 43.96875 660.925781 42.949219 662.109375 42.777344 Z M 660.492188 45.199219 L 661.335938 44.355469 L 661.335938 46.042969 Z M 664.433594 45.199219 L 663.589844 44.355469 L 663.589844 46.042969 Z M 664.433594 45.199219 " fill-opacity="1" fill-rule="evenodd"/></g><g clip-path="url(#ebb371fc8b)"><path fill="#fefefe" d="M 660.492188 45.199219 L 661.335938 44.355469 L 661.335938 46.042969 Z M 660.492188 45.199219 " fill-opacity="1" fill-rule="evenodd"/></g><path fill="#fefefe" d="M 664.433594 45.199219 L 663.589844 44.355469 L 663.589844 46.042969 Z M 664.433594 45.199219 " fill-opacity="1" fill-rule="evenodd"/></svg>