<svg xmlns="http://www.w3.org/2000/svg" xmlns:xlink="http://www.w3.org/1999/xlink" width="380" zoomAndPan="magnify" viewBox="0 0 285 142.499996" height="190" preserveAspectRatio="xMidYMid meet" version="1.0"><defs><g/><clipPath id="22e38a9be8"><path d="M 72.953125 31.527344 L 122.28125 31.527344 L 122.28125 85.335938 L 72.953125 85.335938 Z M 72.953125 31.527344 " clip-rule="nonzero"/></clipPath><clipPath id="c7e4b749fd"><path d="M 198.207031 31.527344 L 258 31.527344 L 258 83 L 198.207031 83 Z M 198.207031 31.527344 " clip-rule="nonzero"/></clipPath><clipPath id="ba0fd8e9c5"><path d="M 0.5 0.328125 L 57.300781 0.328125 L 57.300781 57.128906 L 0.5 57.128906 Z M 0.5 0.328125 " clip-rule="nonzero"/></clipPath><clipPath id="703ea22b7b"><path d="M 57.300781 28.730469 C 57.300781 29.660156 57.253906 30.585938 57.164062 31.511719 C 57.070312 32.4375 56.933594 33.355469 56.753906 34.269531 C 56.570312 35.179688 56.347656 36.082031 56.074219 36.972656 C 55.804688 37.863281 55.492188 38.738281 55.136719 39.597656 C 54.78125 40.457031 54.382812 41.296875 53.945312 42.117188 C 53.507812 42.9375 53.03125 43.734375 52.511719 44.507812 C 51.996094 45.28125 51.441406 46.027344 50.851562 46.746094 C 50.261719 47.464844 49.636719 48.152344 48.980469 48.8125 C 48.324219 49.46875 47.632812 50.09375 46.914062 50.683594 C 46.195312 51.273438 45.449219 51.824219 44.675781 52.34375 C 43.902344 52.859375 43.105469 53.335938 42.285156 53.777344 C 41.464844 54.214844 40.625 54.609375 39.765625 54.96875 C 38.90625 55.324219 38.03125 55.636719 37.144531 55.90625 C 36.253906 56.175781 35.351562 56.402344 34.4375 56.582031 C 33.527344 56.765625 32.609375 56.902344 31.683594 56.992188 C 30.757812 57.082031 29.828125 57.128906 28.898438 57.128906 C 27.96875 57.128906 27.039062 57.082031 26.113281 56.992188 C 25.1875 56.902344 24.269531 56.765625 23.359375 56.582031 C 22.445312 56.402344 21.542969 56.175781 20.65625 55.90625 C 19.765625 55.636719 18.890625 55.324219 18.03125 54.96875 C 17.171875 54.609375 16.332031 54.214844 15.511719 53.777344 C 14.691406 53.335938 13.894531 52.859375 13.121094 52.34375 C 12.347656 51.824219 11.601562 51.273438 10.882812 50.683594 C 10.164062 50.09375 9.472656 49.46875 8.816406 48.8125 C 8.160156 48.152344 7.535156 47.464844 6.945312 46.746094 C 6.355469 46.027344 5.800781 45.28125 5.285156 44.507812 C 4.769531 43.734375 4.289062 42.9375 3.851562 42.117188 C 3.414062 41.296875 3.015625 40.457031 2.660156 39.597656 C 2.304688 38.738281 1.992188 37.863281 1.722656 36.972656 C 1.449219 36.082031 1.226562 35.179688 1.042969 34.269531 C 0.863281 33.355469 0.726562 32.4375 0.636719 31.511719 C 0.542969 30.585938 0.5 29.660156 0.5 28.730469 C 0.5 27.796875 0.542969 26.871094 0.636719 25.945312 C 0.726562 25.019531 0.863281 24.101562 1.042969 23.1875 C 1.226562 22.277344 1.449219 21.375 1.722656 20.484375 C 1.992188 19.59375 2.304688 18.71875 2.660156 17.859375 C 3.015625 17 3.414062 16.160156 3.851562 15.339844 C 4.289062 14.519531 4.769531 13.722656 5.285156 12.949219 C 5.800781 12.175781 6.355469 11.429688 6.945312 10.710938 C 7.535156 9.992188 8.160156 9.304688 8.816406 8.644531 C 9.472656 7.988281 10.164062 7.363281 10.882812 6.773438 C 11.601562 6.183594 12.347656 5.632812 13.121094 5.113281 C 13.894531 4.597656 14.691406 4.121094 15.511719 3.683594 C 16.332031 3.242188 17.171875 2.847656 18.03125 2.488281 C 18.890625 2.132812 19.765625 1.820312 20.65625 1.550781 C 21.542969 1.28125 22.445312 1.054688 23.359375 0.875 C 24.269531 0.691406 25.1875 0.554688 26.113281 0.464844 C 27.039062 0.375 27.96875 0.328125 28.898438 0.328125 C 29.828125 0.328125 30.757812 0.375 31.683594 0.464844 C 32.609375 0.554688 33.527344 0.691406 34.4375 0.875 C 35.351562 1.054688 36.253906 1.28125 37.144531 1.550781 C 38.03125 1.820312 38.90625 2.132812 39.765625 2.488281 C 40.625 2.847656 41.464844 3.242188 42.285156 3.683594 C 43.105469 4.121094 43.902344 4.597656 44.675781 5.113281 C 45.449219 5.632812 46.195312 6.183594 46.914062 6.773438 C 47.632812 7.363281 48.324219 7.988281 48.980469 8.644531 C 49.636719 9.304688 50.261719 9.992188 50.851562 10.710938 C 51.441406 11.429688 51.996094 12.175781 52.511719 12.949219 C 53.03125 13.722656 53.507812 14.519531 53.945312 15.339844 C 54.382812 16.160156 54.78125 17 55.136719 17.859375 C 55.492188 18.71875 55.804688 19.59375 56.074219 20.484375 C 56.347656 21.375 56.570312 22.277344 56.753906 23.1875 C 56.933594 24.101562 57.070312 25.019531 57.164062 25.945312 C 57.253906 26.871094 57.300781 27.796875 57.300781 28.730469 Z M 57.300781 28.730469 " clip-rule="nonzero"/></clipPath><linearGradient x1="0.0499146" gradientTransform="matrix(0.185019, 0, 0, 0.185019, 0.498256, 0.328209)" y1="307.049879" x2="307.050621" gradientUnits="userSpaceOnUse" y2="0.050584" id="f3d4a32319"><stop stop-opacity="1" stop-color="rgb(99.609375%, 75.289917%, 32.548523%)" offset="0"/><stop stop-opacity="1" stop-color="rgb(99.609375%, 75.289917%, 32.548523%)" offset="0.125"/><stop stop-opacity="1" stop-color="rgb(99.609375%, 75.289917%, 32.548523%)" offset="0.140625"/><stop stop-opacity="1" stop-color="rgb(99.594116%, 75.093079%, 32.522583%)" offset="0.144531"/><stop stop-opacity="1" stop-color="rgb(99.580383%, 74.89624%, 32.498169%)" offset="0.148438"/><stop stop-opacity="1" stop-color="rgb(99.523926%, 74.162292%, 32.400513%)" offset="0.152344"/><stop stop-opacity="1" stop-color="rgb(99.468994%, 73.428345%, 32.304382%)" offset="0.15625"/><stop stop-opacity="1" stop-color="rgb(99.414062%, 72.692871%, 32.208252%)" offset="0.160156"/><stop stop-opacity="1" stop-color="rgb(99.359131%, 71.958923%, 32.112122%)" offset="0.164062"/><stop stop-opacity="1" stop-color="rgb(99.304199%, 71.22345%, 32.014465%)" offset="0.167969"/><stop stop-opacity="1" stop-color="rgb(99.249268%, 70.489502%, 31.918335%)" offset="0.171875"/><stop stop-opacity="1" stop-color="rgb(99.19281%, 69.754028%, 31.822205%)" offset="0.175781"/><stop stop-opacity="1" stop-color="rgb(99.137878%, 69.020081%, 31.726074%)" offset="0.179688"/><stop stop-opacity="1" stop-color="rgb(99.082947%, 68.284607%, 31.628418%)" offset="0.183594"/><stop stop-opacity="1" stop-color="rgb(99.028015%, 67.550659%, 31.532288%)" offset="0.1875"/><stop stop-opacity="1" stop-color="rgb(98.973083%, 66.815186%, 31.436157%)" offset="0.191406"/><stop stop-opacity="1" stop-color="rgb(98.918152%, 66.081238%, 31.340027%)" offset="0.195313"/><stop stop-opacity="1" stop-color="rgb(98.86322%, 65.345764%, 31.242371%)" offset="0.199219"/><stop stop-opacity="1" stop-color="rgb(98.808289%, 64.611816%, 31.14624%)" offset="0.203125"/><stop stop-opacity="1" stop-color="rgb(98.751831%, 63.876343%, 31.05011%)" offset="0.207031"/><stop stop-opacity="1" stop-color="rgb(98.696899%, 63.142395%, 30.953979%)" offset="0.210938"/><stop stop-opacity="1" stop-color="rgb(98.641968%, 62.406921%, 30.856323%)" offset="0.214844"/><stop stop-opacity="1" stop-color="rgb(98.587036%, 61.672974%, 30.760193%)" offset="0.21875"/><stop stop-opacity="1" stop-color="rgb(98.532104%, 60.9375%, 30.664062%)" offset="0.222656"/><stop stop-opacity="1" stop-color="rgb(98.477173%, 60.203552%, 30.567932%)" offset="0.226562"/><stop stop-opacity="1" stop-color="rgb(98.420715%, 59.468079%, 30.471802%)" offset="0.230469"/><stop stop-opacity="1" stop-color="rgb(98.365784%, 58.734131%, 30.375671%)" offset="0.234375"/><stop stop-opacity="1" stop-color="rgb(98.310852%, 57.998657%, 30.278015%)" offset="0.238281"/><stop stop-opacity="1" stop-color="rgb(98.25592%, 57.264709%, 30.181885%)" offset="0.242188"/><stop stop-opacity="1" stop-color="rgb(98.200989%, 56.529236%, 30.085754%)" offset="0.246094"/><stop stop-opacity="1" stop-color="rgb(98.146057%, 55.795288%, 29.989624%)" offset="0.25"/><stop stop-opacity="1" stop-color="rgb(98.091125%, 55.059814%, 29.891968%)" offset="0.253906"/><stop stop-opacity="1" stop-color="rgb(98.036194%, 54.325867%, 29.795837%)" offset="0.257812"/><stop stop-opacity="1" stop-color="rgb(97.979736%, 53.590393%, 29.699707%)" offset="0.261719"/><stop stop-opacity="1" stop-color="rgb(97.924805%, 52.856445%, 29.603577%)" offset="0.265625"/><stop stop-opacity="1" stop-color="rgb(97.869873%, 52.120972%, 29.50592%)" offset="0.269531"/><stop stop-opacity="1" stop-color="rgb(97.814941%, 51.387024%, 29.40979%)" offset="0.273438"/><stop stop-opacity="1" stop-color="rgb(97.76001%, 50.65155%, 29.31366%)" offset="0.277344"/><stop stop-opacity="1" stop-color="rgb(97.705078%, 49.917603%, 29.217529%)" offset="0.28125"/><stop stop-opacity="1" stop-color="rgb(97.648621%, 49.182129%, 29.119873%)" offset="0.285156"/><stop stop-opacity="1" stop-color="rgb(97.593689%, 48.448181%, 29.023743%)" offset="0.289062"/><stop stop-opacity="1" stop-color="rgb(97.538757%, 47.712708%, 28.927612%)" offset="0.292969"/><stop stop-opacity="1" stop-color="rgb(97.483826%, 46.97876%, 28.831482%)" offset="0.296875"/><stop stop-opacity="1" stop-color="rgb(97.428894%, 46.243286%, 28.733826%)" offset="0.300781"/><stop stop-opacity="1" stop-color="rgb(97.373962%, 45.509338%, 28.637695%)" offset="0.304688"/><stop stop-opacity="1" stop-color="rgb(97.317505%, 44.773865%, 28.541565%)" offset="0.308594"/><stop stop-opacity="1" stop-color="rgb(97.262573%, 44.039917%, 28.445435%)" offset="0.3125"/><stop stop-opacity="1" stop-color="rgb(97.207642%, 43.304443%, 28.347778%)" offset="0.316406"/><stop stop-opacity="1" stop-color="rgb(97.15271%, 42.570496%, 28.251648%)" offset="0.320312"/><stop stop-opacity="1" stop-color="rgb(97.097778%, 41.835022%, 28.155518%)" offset="0.324219"/><stop stop-opacity="1" stop-color="rgb(97.042847%, 41.101074%, 28.059387%)" offset="0.328125"/><stop stop-opacity="1" stop-color="rgb(96.987915%, 40.365601%, 27.961731%)" offset="0.332031"/><stop stop-opacity="1" stop-color="rgb(96.932983%, 39.631653%, 27.865601%)" offset="0.335938"/><stop stop-opacity="1" stop-color="rgb(96.876526%, 38.896179%, 27.76947%)" offset="0.339844"/><stop stop-opacity="1" stop-color="rgb(96.821594%, 38.162231%, 27.67334%)" offset="0.34375"/><stop stop-opacity="1" stop-color="rgb(96.766663%, 37.428284%, 27.575684%)" offset="0.347656"/><stop stop-opacity="1" stop-color="rgb(96.711731%, 36.694336%, 27.479553%)" offset="0.351563"/><stop stop-opacity="1" stop-color="rgb(96.656799%, 35.958862%, 27.383423%)" offset="0.355469"/><stop stop-opacity="1" stop-color="rgb(96.601868%, 35.224915%, 27.287292%)" offset="0.359375"/><stop stop-opacity="1" stop-color="rgb(96.54541%, 34.489441%, 27.191162%)" offset="0.363281"/><stop stop-opacity="1" stop-color="rgb(96.490479%, 33.755493%, 27.095032%)" offset="0.367188"/><stop stop-opacity="1" stop-color="rgb(96.435547%, 33.02002%, 26.997375%)" offset="0.371094"/><stop stop-opacity="1" stop-color="rgb(96.380615%, 32.286072%, 26.901245%)" offset="0.375"/><stop stop-opacity="1" stop-color="rgb(96.325684%, 31.550598%, 26.805115%)" offset="0.378906"/><stop stop-opacity="1" stop-color="rgb(96.270752%, 30.81665%, 26.708984%)" offset="0.382812"/><stop stop-opacity="1" stop-color="rgb(96.21582%, 30.081177%, 26.611328%)" offset="0.386719"/><stop stop-opacity="1" stop-color="rgb(96.160889%, 29.347229%, 26.515198%)" offset="0.390625"/><stop stop-opacity="1" stop-color="rgb(96.104431%, 28.611755%, 26.419067%)" offset="0.394531"/><stop stop-opacity="1" stop-color="rgb(96.0495%, 27.877808%, 26.322937%)" offset="0.398437"/><stop stop-opacity="1" stop-color="rgb(95.994568%, 27.142334%, 26.225281%)" offset="0.402344"/><stop stop-opacity="1" stop-color="rgb(95.939636%, 26.408386%, 26.12915%)" offset="0.40625"/><stop stop-opacity="1" stop-color="rgb(95.884705%, 25.672913%, 26.03302%)" offset="0.410156"/><stop stop-opacity="1" stop-color="rgb(95.829773%, 24.938965%, 25.93689%)" offset="0.414062"/><stop stop-opacity="1" stop-color="rgb(95.773315%, 24.203491%, 25.839233%)" offset="0.417969"/><stop stop-opacity="1" stop-color="rgb(95.718384%, 23.469543%, 25.743103%)" offset="0.421875"/><stop stop-opacity="1" stop-color="rgb(95.663452%, 22.73407%, 25.646973%)" offset="0.425781"/><stop stop-opacity="1" stop-color="rgb(95.608521%, 22.000122%, 25.550842%)" offset="0.429688"/><stop stop-opacity="1" stop-color="rgb(95.553589%, 21.264648%, 25.453186%)" offset="0.433594"/><stop stop-opacity="1" stop-color="rgb(95.498657%, 20.530701%, 25.357056%)" offset="0.4375"/><stop stop-opacity="1" stop-color="rgb(95.443726%, 19.795227%, 25.260925%)" offset="0.441406"/><stop stop-opacity="1" stop-color="rgb(95.388794%, 19.061279%, 25.164795%)" offset="0.445312"/><stop stop-opacity="1" stop-color="rgb(95.332336%, 18.325806%, 25.067139%)" offset="0.449219"/><stop stop-opacity="1" stop-color="rgb(95.277405%, 17.591858%, 24.971008%)" offset="0.453125"/><stop stop-opacity="1" stop-color="rgb(95.222473%, 16.856384%, 24.874878%)" offset="0.457031"/><stop stop-opacity="1" stop-color="rgb(95.167542%, 16.122437%, 24.778748%)" offset="0.460938"/><stop stop-opacity="1" stop-color="rgb(95.11261%, 15.386963%, 24.681091%)" offset="0.464844"/><stop stop-opacity="1" stop-color="rgb(95.057678%, 14.653015%, 24.584961%)" offset="0.46875"/><stop stop-opacity="1" stop-color="rgb(95.001221%, 13.917542%, 24.488831%)" offset="0.472656"/><stop stop-opacity="1" stop-color="rgb(94.946289%, 13.183594%, 24.3927%)" offset="0.476562"/><stop stop-opacity="1" stop-color="rgb(94.621277%, 12.861633%, 24.891663%)" offset="0.480469"/><stop stop-opacity="1" stop-color="rgb(94.296265%, 12.539673%, 25.392151%)" offset="0.484375"/><stop stop-opacity="1" stop-color="rgb(93.765259%, 12.530518%, 26.345825%)" offset="0.488281"/><stop stop-opacity="1" stop-color="rgb(93.234253%, 12.521362%, 27.2995%)" offset="0.492188"/><stop stop-opacity="1" stop-color="rgb(92.703247%, 12.512207%, 28.251648%)" offset="0.496094"/><stop stop-opacity="1" stop-color="rgb(92.173767%, 12.503052%, 29.205322%)" offset="0.5"/><stop stop-opacity="1" stop-color="rgb(91.642761%, 12.493896%, 30.158997%)" offset="0.503906"/><stop stop-opacity="1" stop-color="rgb(91.111755%, 12.484741%, 31.112671%)" offset="0.507812"/><stop stop-opacity="1" stop-color="rgb(90.58075%, 12.475586%, 32.066345%)" offset="0.511719"/><stop stop-opacity="1" stop-color="rgb(90.05127%, 12.467957%, 33.02002%)" offset="0.515625"/><stop stop-opacity="1" stop-color="rgb(89.520264%, 12.458801%, 33.972168%)" offset="0.519531"/><stop stop-opacity="1" stop-color="rgb(88.989258%, 12.449646%, 34.925842%)" offset="0.523438"/><stop stop-opacity="1" stop-color="rgb(88.458252%, 12.440491%, 35.879517%)" offset="0.527344"/><stop stop-opacity="1" stop-color="rgb(87.927246%, 12.431335%, 36.833191%)" offset="0.53125"/><stop stop-opacity="1" stop-color="rgb(87.39624%, 12.42218%, 37.785339%)" offset="0.535156"/><stop stop-opacity="1" stop-color="rgb(86.86676%, 12.414551%, 38.739014%)" offset="0.539062"/><stop stop-opacity="1" stop-color="rgb(86.335754%, 12.405396%, 39.692688%)" offset="0.542969"/><stop stop-opacity="1" stop-color="rgb(85.804749%, 12.39624%, 40.646362%)" offset="0.546875"/><stop stop-opacity="1" stop-color="rgb(85.273743%, 12.387085%, 41.600037%)" offset="0.550781"/><stop stop-opacity="1" stop-color="rgb(84.744263%, 12.37793%, 42.553711%)" offset="0.554688"/><stop stop-opacity="1" stop-color="rgb(84.213257%, 12.368774%, 43.505859%)" offset="0.558594"/><stop stop-opacity="1" stop-color="rgb(83.682251%, 12.359619%, 44.459534%)" offset="0.5625"/><stop stop-opacity="1" stop-color="rgb(83.151245%, 12.350464%, 45.413208%)" offset="0.566406"/><stop stop-opacity="1" stop-color="rgb(82.621765%, 12.342834%, 46.366882%)" offset="0.570312"/><stop stop-opacity="1" stop-color="rgb(82.090759%, 12.333679%, 47.319031%)" offset="0.574219"/><stop stop-opacity="1" stop-color="rgb(81.559753%, 12.324524%, 48.272705%)" offset="0.578125"/><stop stop-opacity="1" stop-color="rgb(81.028748%, 12.315369%, 49.226379%)" offset="0.582031"/><stop stop-opacity="1" stop-color="rgb(80.497742%, 12.306213%, 50.180054%)" offset="0.585938"/><stop stop-opacity="1" stop-color="rgb(79.966736%, 12.297058%, 51.133728%)" offset="0.589844"/><stop stop-opacity="1" stop-color="rgb(79.437256%, 12.287903%, 52.087402%)" offset="0.59375"/><stop stop-opacity="1" stop-color="rgb(78.90625%, 12.278748%, 53.039551%)" offset="0.597656"/><stop stop-opacity="1" stop-color="rgb(78.375244%, 12.271118%, 53.993225%)" offset="0.601562"/><stop stop-opacity="1" stop-color="rgb(77.844238%, 12.261963%, 54.946899%)" offset="0.605469"/><stop stop-opacity="1" stop-color="rgb(77.314758%, 12.252808%, 55.900574%)" offset="0.609375"/><stop stop-opacity="1" stop-color="rgb(76.783752%, 12.243652%, 56.852722%)" offset="0.613281"/><stop stop-opacity="1" stop-color="rgb(76.252747%, 12.234497%, 57.806396%)" offset="0.617188"/><stop stop-opacity="1" stop-color="rgb(75.721741%, 12.225342%, 58.760071%)" offset="0.621094"/><stop stop-opacity="1" stop-color="rgb(75.190735%, 12.217712%, 59.713745%)" offset="0.625"/><stop stop-opacity="1" stop-color="rgb(74.659729%, 12.208557%, 60.665894%)" offset="0.628906"/><stop stop-opacity="1" stop-color="rgb(74.130249%, 12.199402%, 61.619568%)" offset="0.632812"/><stop stop-opacity="1" stop-color="rgb(73.599243%, 12.190247%, 62.573242%)" offset="0.636719"/><stop stop-opacity="1" stop-color="rgb(73.068237%, 12.181091%, 63.526917%)" offset="0.640625"/><stop stop-opacity="1" stop-color="rgb(72.537231%, 12.171936%, 64.480591%)" offset="0.644531"/><stop stop-opacity="1" stop-color="rgb(72.007751%, 12.162781%, 65.434265%)" offset="0.648438"/><stop stop-opacity="1" stop-color="rgb(71.304321%, 12.449646%, 65.922546%)" offset="0.652344"/><stop stop-opacity="1" stop-color="rgb(70.602417%, 12.738037%, 66.412354%)" offset="0.65625"/><stop stop-opacity="1" stop-color="rgb(69.847107%, 13.114929%, 66.758728%)" offset="0.660156"/><stop stop-opacity="1" stop-color="rgb(69.091797%, 13.493347%, 67.106628%)" offset="0.664062"/><stop stop-opacity="1" stop-color="rgb(68.336487%, 13.870239%, 67.453003%)" offset="0.667969"/><stop stop-opacity="1" stop-color="rgb(67.581177%, 14.247131%, 67.800903%)" offset="0.671875"/><stop stop-opacity="1" stop-color="rgb(66.825867%, 14.624023%, 68.148804%)" offset="0.675781"/><stop stop-opacity="1" stop-color="rgb(66.070557%, 15.002441%, 68.496704%)" offset="0.679688"/><stop stop-opacity="1" stop-color="rgb(65.315247%, 15.379333%, 68.843079%)" offset="0.683594"/><stop stop-opacity="1" stop-color="rgb(64.561462%, 15.757751%, 69.190979%)" offset="0.6875"/><stop stop-opacity="1" stop-color="rgb(63.806152%, 16.134644%, 69.537354%)" offset="0.691406"/><stop stop-opacity="1" stop-color="rgb(63.050842%, 16.513062%, 69.885254%)" offset="0.695313"/><stop stop-opacity="1" stop-color="rgb(62.295532%, 16.889954%, 70.233154%)" offset="0.699219"/><stop stop-opacity="1" stop-color="rgb(61.540222%, 17.266846%, 70.581055%)" offset="0.703125"/><stop stop-opacity="1" stop-color="rgb(60.784912%, 17.643738%, 70.927429%)" offset="0.707031"/><stop stop-opacity="1" stop-color="rgb(60.029602%, 18.022156%, 71.27533%)" offset="0.710938"/><stop stop-opacity="1" stop-color="rgb(59.274292%, 18.399048%, 71.62323%)" offset="0.714844"/><stop stop-opacity="1" stop-color="rgb(58.520508%, 18.777466%, 71.97113%)" offset="0.71875"/><stop stop-opacity="1" stop-color="rgb(57.765198%, 19.154358%, 72.317505%)" offset="0.722656"/><stop stop-opacity="1" stop-color="rgb(57.009888%, 19.532776%, 72.665405%)" offset="0.726563"/><stop stop-opacity="1" stop-color="rgb(56.254578%, 19.909668%, 73.01178%)" offset="0.730469"/><stop stop-opacity="1" stop-color="rgb(55.499268%, 20.28656%, 73.35968%)" offset="0.734375"/><stop stop-opacity="1" stop-color="rgb(54.743958%, 20.663452%, 73.707581%)" offset="0.738281"/><stop stop-opacity="1" stop-color="rgb(53.990173%, 21.04187%, 74.055481%)" offset="0.742188"/><stop stop-opacity="1" stop-color="rgb(53.234863%, 21.418762%, 74.401855%)" offset="0.746094"/><stop stop-opacity="1" stop-color="rgb(52.479553%, 21.79718%, 74.749756%)" offset="0.75"/><stop stop-opacity="1" stop-color="rgb(51.724243%, 22.174072%, 75.09613%)" offset="0.753906"/><stop stop-opacity="1" stop-color="rgb(50.968933%, 22.550964%, 75.444031%)" offset="0.757812"/><stop stop-opacity="1" stop-color="rgb(50.213623%, 22.927856%, 75.791931%)" offset="0.761719"/><stop stop-opacity="1" stop-color="rgb(49.458313%, 23.306274%, 76.139832%)" offset="0.765625"/><stop stop-opacity="1" stop-color="rgb(48.703003%, 23.683167%, 76.486206%)" offset="0.769531"/><stop stop-opacity="1" stop-color="rgb(47.949219%, 24.061584%, 76.834106%)" offset="0.773437"/><stop stop-opacity="1" stop-color="rgb(47.193909%, 24.438477%, 77.180481%)" offset="0.777344"/><stop stop-opacity="1" stop-color="rgb(46.438599%, 24.816895%, 77.528381%)" offset="0.78125"/><stop stop-opacity="1" stop-color="rgb(45.683289%, 25.193787%, 77.876282%)" offset="0.785156"/><stop stop-opacity="1" stop-color="rgb(44.927979%, 25.570679%, 78.224182%)" offset="0.789062"/><stop stop-opacity="1" stop-color="rgb(44.172668%, 25.947571%, 78.570557%)" offset="0.792969"/><stop stop-opacity="1" stop-color="rgb(43.417358%, 26.325989%, 78.918457%)" offset="0.796875"/><stop stop-opacity="1" stop-color="rgb(42.662048%, 26.702881%, 79.266357%)" offset="0.800781"/><stop stop-opacity="1" stop-color="rgb(41.908264%, 27.081299%, 79.614258%)" offset="0.804687"/><stop stop-opacity="1" stop-color="rgb(41.152954%, 27.458191%, 79.960632%)" offset="0.808594"/><stop stop-opacity="1" stop-color="rgb(40.397644%, 27.836609%, 80.308533%)" offset="0.8125"/><stop stop-opacity="1" stop-color="rgb(39.642334%, 28.213501%, 80.654907%)" offset="0.816406"/><stop stop-opacity="1" stop-color="rgb(38.887024%, 28.590393%, 81.002808%)" offset="0.820312"/><stop stop-opacity="1" stop-color="rgb(38.131714%, 28.967285%, 81.350708%)" offset="0.824219"/><stop stop-opacity="1" stop-color="rgb(37.376404%, 29.345703%, 81.698608%)" offset="0.828125"/><stop stop-opacity="1" stop-color="rgb(36.621094%, 29.722595%, 82.044983%)" offset="0.832031"/><stop stop-opacity="1" stop-color="rgb(35.86731%, 30.101013%, 82.392883%)" offset="0.835938"/><stop stop-opacity="1" stop-color="rgb(35.112%, 30.477905%, 82.739258%)" offset="0.839844"/><stop stop-opacity="1" stop-color="rgb(34.356689%, 30.856323%, 83.087158%)" offset="0.84375"/><stop stop-opacity="1" stop-color="rgb(33.601379%, 31.233215%, 83.435059%)" offset="0.847656"/><stop stop-opacity="1" stop-color="rgb(32.846069%, 31.610107%, 83.782959%)" offset="0.851562"/><stop stop-opacity="1" stop-color="rgb(32.696533%, 31.684875%, 83.850098%)" offset="0.859375"/><stop stop-opacity="1" stop-color="rgb(32.548523%, 31.759644%, 83.918762%)" offset="0.875"/><stop stop-opacity="1" stop-color="rgb(32.548523%, 31.759644%, 83.918762%)" offset="1"/></linearGradient></defs><g clip-path="url(#22e38a9be8)"><path fill="#ffffff" d="M 120.429688 51.195312 C 119.296875 48.527344 117.734375 46.097656 115.757812 43.984375 L 117.765625 41.976562 L 119.632812 43.84375 C 119.804688 44.015625 120.03125 44.101562 120.257812 44.101562 C 120.484375 44.101562 120.710938 44.015625 120.882812 43.84375 C 121.230469 43.496094 121.230469 42.9375 120.882812 42.589844 L 118.390625 40.097656 L 115.898438 37.601562 C 115.550781 37.257812 114.992188 37.257812 114.644531 37.601562 C 114.300781 37.949219 114.300781 38.507812 114.644531 38.855469 L 116.511719 40.722656 L 114.503906 42.730469 C 112.390625 40.753906 109.960938 39.179688 107.292969 38.054688 C 104.519531 36.878906 101.582031 36.230469 98.5625 36.136719 L 98.5625 33.285156 L 102.261719 33.285156 C 102.75 33.285156 103.148438 32.886719 103.148438 32.398438 C 103.148438 31.914062 102.761719 31.527344 102.261719 31.527344 L 93.085938 31.527344 C 92.601562 31.527344 92.203125 31.925781 92.203125 32.410156 C 92.203125 32.894531 92.601562 33.296875 93.085938 33.296875 L 96.789062 33.296875 L 96.789062 36.136719 C 93.769531 36.242188 90.832031 36.890625 88.058594 38.054688 C 85.390625 39.191406 82.960938 40.753906 80.847656 42.730469 L 78.847656 40.722656 L 80.71875 38.855469 C 81.0625 38.507812 81.0625 37.949219 80.71875 37.601562 C 80.371094 37.257812 79.808594 37.257812 79.464844 37.601562 L 74.476562 42.589844 C 74.132812 42.9375 74.132812 43.496094 74.476562 43.84375 C 74.648438 44.015625 74.875 44.101562 75.101562 44.101562 C 75.332031 44.101562 75.558594 44.015625 75.730469 43.84375 L 77.597656 41.976562 L 79.605469 43.984375 C 77.628906 46.097656 76.054688 48.527344 74.929688 51.195312 C 73.636719 54.238281 72.988281 57.476562 72.988281 60.800781 C 72.988281 64.136719 73.636719 67.363281 74.929688 70.410156 C 76.171875 73.355469 77.953125 76 80.21875 78.265625 C 82.488281 80.535156 85.132812 82.316406 88.066406 83.558594 C 91.113281 84.839844 94.351562 85.5 97.675781 85.5 C 101 85.5 104.238281 84.851562 107.28125 83.558594 C 110.21875 82.316406 112.863281 80.535156 115.132812 78.265625 C 117.398438 76 119.179688 73.355469 120.421875 70.417969 C 121.707031 67.375 122.363281 64.136719 122.363281 60.8125 C 122.375 57.476562 121.726562 54.238281 120.429688 51.195312 Z M 97.6875 83.742188 C 85.046875 83.742188 74.757812 73.453125 74.757812 60.8125 C 74.757812 48.171875 85.035156 37.871094 97.6875 37.871094 C 110.328125 37.871094 120.613281 48.160156 120.613281 60.800781 C 120.613281 73.441406 110.328125 83.742188 97.6875 83.742188 Z M 97.6875 83.742188 " fill-opacity="1" fill-rule="nonzero"/></g><path fill="#ffffff" d="M 114.246094 53.804688 C 113.339844 51.667969 112.042969 49.746094 110.390625 48.09375 C 108.742188 46.445312 106.820312 45.148438 104.679688 44.242188 C 102.46875 43.300781 100.117188 42.828125 97.6875 42.828125 C 95.257812 42.828125 92.902344 43.300781 90.691406 44.242188 C 88.554688 45.148438 86.632812 46.445312 84.980469 48.09375 C 83.328125 49.746094 82.035156 51.667969 81.128906 53.804688 C 80.1875 56.019531 79.710938 58.371094 79.710938 60.800781 C 79.710938 62.753906 80.027344 64.6875 80.640625 66.523438 C 81.234375 68.304688 82.109375 69.976562 83.230469 71.488281 C 83.492188 71.84375 83.964844 71.941406 84.34375 71.746094 C 84.367188 71.738281 84.386719 71.726562 84.398438 71.714844 C 84.398438 71.714844 84.410156 71.714844 84.410156 71.714844 C 84.429688 71.703125 84.441406 71.695312 84.460938 71.683594 L 86.976562 69.824219 C 87.367188 69.535156 87.453125 68.984375 87.160156 68.59375 C 86.871094 68.207031 86.320312 68.121094 85.929688 68.410156 L 84.148438 69.730469 C 82.5625 67.320312 81.65625 64.578125 81.503906 61.699219 L 83.71875 61.699219 C 84.203125 61.699219 84.601562 61.296875 84.601562 60.8125 C 84.601562 60.328125 84.203125 59.925781 83.71875 59.925781 L 81.492188 59.925781 C 81.699219 56.117188 83.222656 52.660156 85.617188 49.996094 L 87.183594 51.5625 C 87.355469 51.734375 87.582031 51.820312 87.808594 51.820312 C 88.035156 51.820312 88.261719 51.734375 88.433594 51.5625 C 88.78125 51.214844 88.78125 50.652344 88.433594 50.308594 L 86.871094 48.742188 C 89.535156 46.347656 93 44.824219 96.800781 44.621094 L 96.800781 46.84375 C 96.800781 47.328125 97.199219 47.730469 97.6875 47.730469 C 98.171875 47.730469 98.570312 47.328125 98.570312 46.84375 L 98.570312 44.621094 C 102.382812 44.824219 105.835938 46.347656 108.503906 48.742188 L 106.9375 50.308594 C 106.59375 50.652344 106.59375 51.214844 106.9375 51.5625 C 107.109375 51.734375 107.335938 51.820312 107.5625 51.820312 C 107.789062 51.820312 108.015625 51.734375 108.191406 51.5625 L 109.753906 49.996094 C 112.152344 52.660156 113.671875 56.128906 113.878906 59.925781 L 111.65625 59.925781 C 111.167969 59.925781 110.769531 60.328125 110.769531 60.8125 C 110.769531 61.296875 111.167969 61.699219 111.65625 61.699219 L 113.878906 61.699219 C 113.726562 64.578125 112.820312 67.332031 111.234375 69.730469 L 109.453125 68.410156 C 109.0625 68.121094 108.515625 68.207031 108.222656 68.59375 C 107.929688 68.984375 108.015625 69.535156 108.40625 69.824219 L 110.886719 71.660156 C 110.898438 71.671875 110.898438 71.671875 110.910156 71.683594 C 111.070312 71.800781 111.253906 71.855469 111.4375 71.855469 C 111.710938 71.855469 111.980469 71.738281 112.152344 71.5 C 113.273438 69.988281 114.148438 68.316406 114.742188 66.535156 C 115.359375 64.699219 115.671875 62.765625 115.671875 60.8125 C 115.660156 58.382812 115.183594 56.03125 114.246094 53.804688 Z M 114.246094 53.804688 " fill-opacity="1" fill-rule="nonzero"/><path fill="#ffffff" d="M 103.148438 65.722656 C 103.417969 65.722656 103.6875 65.605469 103.859375 65.367188 C 104.152344 64.980469 104.066406 64.429688 103.675781 64.136719 L 101.011719 62.160156 C 101.183594 61.742188 101.28125 61.285156 101.28125 60.800781 C 101.28125 59.128906 100.125 57.714844 98.570312 57.324219 L 98.570312 50.925781 C 98.570312 50.4375 98.171875 50.039062 97.6875 50.039062 C 97.199219 50.039062 96.800781 50.4375 96.800781 50.925781 L 96.800781 57.324219 C 95.246094 57.714844 94.089844 59.128906 94.089844 60.800781 C 94.089844 62.777344 95.699219 64.386719 97.675781 64.386719 C 98.539062 64.386719 99.328125 64.082031 99.941406 63.574219 L 102.609375 65.550781 C 102.78125 65.667969 102.964844 65.722656 103.148438 65.722656 Z M 97.6875 62.625 C 96.683594 62.625 95.863281 61.804688 95.863281 60.800781 C 95.863281 59.796875 96.683594 58.976562 97.6875 58.976562 C 98.691406 58.976562 99.511719 59.796875 99.511719 60.800781 C 99.511719 61.804688 98.691406 62.625 97.6875 62.625 Z M 97.6875 62.625 " fill-opacity="1" fill-rule="nonzero"/><path fill="#ffffff" d="M 96.953125 73.097656 C 96.519531 73.097656 96.121094 73.183594 95.765625 73.34375 C 95.453125 73.484375 95.183594 73.679688 94.976562 73.917969 C 94.792969 73.667969 94.566406 73.472656 94.285156 73.335938 C 93.960938 73.183594 93.59375 73.097656 93.183594 73.097656 C 92.808594 73.097656 92.460938 73.160156 92.148438 73.292969 C 91.910156 73.386719 91.707031 73.527344 91.535156 73.691406 C 91.457031 73.386719 91.1875 73.152344 90.851562 73.152344 C 90.464844 73.152344 90.152344 73.464844 90.152344 73.851562 L 90.152344 77.945312 C 90.152344 78.34375 90.476562 78.667969 90.875 78.667969 C 91.273438 78.667969 91.597656 78.34375 91.597656 77.945312 L 91.597656 75.871094 C 91.597656 75.386719 91.71875 75.007812 91.945312 74.757812 C 92.171875 74.511719 92.472656 74.382812 92.871094 74.382812 C 93.226562 74.382812 93.488281 74.488281 93.679688 74.695312 C 93.863281 74.910156 93.960938 75.234375 93.960938 75.675781 L 93.960938 77.945312 C 93.960938 78.34375 94.285156 78.667969 94.683594 78.667969 C 95.085938 78.667969 95.410156 78.34375 95.410156 77.945312 L 95.410156 75.871094 C 95.410156 75.386719 95.527344 75.019531 95.753906 74.757812 C 95.992188 74.5 96.292969 74.382812 96.683594 74.382812 C 97.039062 74.382812 97.296875 74.488281 97.492188 74.695312 C 97.675781 74.910156 97.773438 75.234375 97.773438 75.675781 L 97.773438 77.945312 C 97.773438 78.34375 98.097656 78.667969 98.496094 78.667969 C 98.894531 78.667969 99.21875 78.34375 99.21875 77.945312 L 99.21875 75.527344 C 99.21875 74.726562 99.015625 74.113281 98.605469 73.703125 C 98.203125 73.3125 97.644531 73.097656 96.953125 73.097656 Z M 96.953125 73.097656 " fill-opacity="1" fill-rule="nonzero"/><path fill="#ffffff" d="M 104.152344 75.589844 C 103.871094 75.503906 103.515625 75.429688 103.09375 75.363281 C 102.671875 75.289062 102.371094 75.210938 102.175781 75.136719 C 102.015625 75.070312 101.941406 74.964844 101.941406 74.8125 C 101.941406 74.671875 102.015625 74.566406 102.167969 74.46875 C 102.339844 74.371094 102.597656 74.316406 102.945312 74.316406 C 103.320312 74.316406 103.675781 74.382812 104 74.5 C 104.078125 74.53125 104.152344 74.542969 104.226562 74.542969 C 104.464844 74.542969 104.679688 74.414062 104.789062 74.199219 C 104.875 74.035156 104.875 73.839844 104.8125 73.667969 C 104.734375 73.496094 104.59375 73.367188 104.421875 73.3125 C 104.316406 73.28125 104.195312 73.246094 104.078125 73.214844 C 103.699219 73.128906 103.332031 73.085938 102.964844 73.085938 C 102.230469 73.085938 101.636719 73.246094 101.195312 73.5625 C 100.742188 73.882812 100.515625 74.316406 100.515625 74.855469 C 100.515625 75.265625 100.621094 75.589844 100.847656 75.828125 C 101.066406 76.054688 101.3125 76.214844 101.617188 76.3125 C 101.894531 76.398438 102.261719 76.476562 102.695312 76.539062 C 103.105469 76.605469 103.40625 76.667969 103.582031 76.746094 C 103.730469 76.800781 103.796875 76.898438 103.796875 77.035156 C 103.796875 77.15625 103.796875 77.523438 102.792969 77.523438 C 102.480469 77.523438 102.15625 77.480469 101.832031 77.382812 C 101.691406 77.339844 101.550781 77.296875 101.421875 77.242188 C 101.347656 77.210938 101.257812 77.1875 101.171875 77.1875 C 100.9375 77.1875 100.71875 77.316406 100.613281 77.535156 L 100.613281 77.542969 C 100.535156 77.707031 100.527344 77.890625 100.578125 78.050781 C 100.644531 78.214844 100.761719 78.34375 100.925781 78.40625 C 101.074219 78.472656 101.238281 78.527344 101.421875 78.570312 C 101.84375 78.6875 102.273438 78.742188 102.71875 78.742188 C 103.484375 78.742188 104.085938 78.582031 104.542969 78.277344 C 105.003906 77.964844 105.230469 77.535156 105.230469 76.992188 C 105.230469 76.59375 105.125 76.269531 104.910156 76.042969 C 104.691406 75.839844 104.445312 75.6875 104.152344 75.589844 Z M 104.152344 75.589844 " fill-opacity="1" fill-rule="nonzero"/><g clip-path="url(#c7e4b749fd)"><path fill="#ffffff" d="M 256.671875 76.625 L 231.296875 33.519531 C 231.207031 33.371094 231.109375 33.222656 231 33.085938 C 230.894531 32.949219 230.777344 32.816406 230.652344 32.695312 C 230.527344 32.570312 230.394531 32.457031 230.257812 32.351562 C 230.117188 32.246094 229.972656 32.148438 229.820312 32.0625 C 229.667969 31.972656 229.507812 31.898438 229.347656 31.832031 C 229.183594 31.765625 229.019531 31.707031 228.851562 31.664062 C 228.679688 31.617188 228.507812 31.585938 228.335938 31.5625 C 228.160156 31.539062 227.988281 31.527344 227.8125 31.527344 C 227.636719 31.527344 227.460938 31.539062 227.289062 31.5625 C 227.113281 31.585938 226.941406 31.617188 226.773438 31.664062 C 226.605469 31.707031 226.4375 31.765625 226.277344 31.832031 C 226.113281 31.898438 225.957031 31.972656 225.804688 32.0625 C 225.652344 32.148438 225.507812 32.246094 225.367188 32.351562 C 225.226562 32.457031 225.097656 32.570312 224.972656 32.695312 C 224.847656 32.816406 224.730469 32.949219 224.621094 33.085938 C 224.515625 33.222656 224.417969 33.371094 224.328125 33.519531 L 198.953125 76.625 C 198.585938 77.25 198.398438 77.921875 198.394531 78.648438 C 198.390625 79.375 198.566406 80.050781 198.925781 80.683594 C 199.285156 81.3125 199.78125 81.808594 200.40625 82.171875 C 201.035156 82.535156 201.710938 82.71875 202.4375 82.71875 L 253.1875 82.71875 C 256.316406 82.71875 258.257812 79.316406 256.671875 76.625 Z M 203.222656 78.382812 L 227.503906 37.789062 L 251.785156 78.382812 Z M 203.222656 78.382812 " fill-opacity="1" fill-rule="nonzero"/></g><path fill="#ffffff" d="M 224.519531 72.511719 C 224.519531 70.691406 225.785156 69.378906 227.503906 69.378906 C 229.324219 69.378906 230.484375 70.691406 230.484375 72.511719 C 230.484375 74.28125 229.324219 75.644531 227.503906 75.644531 C 225.734375 75.644531 224.519531 74.28125 224.519531 72.511719 Z M 225.800781 66.902344 L 224.570312 49.785156 C 224.507812 48.933594 225.847656 48.234375 227.503906 48.234375 C 229.160156 48.234375 230.503906 48.933594 230.441406 49.785156 L 229.207031 66.902344 C 229.164062 67.480469 228.417969 67.941406 227.503906 67.941406 C 226.589844 67.941406 225.839844 67.480469 225.800781 66.902344 Z M 225.800781 66.902344 " fill-opacity="1" fill-rule="nonzero"/><g clip-path="url(#ba0fd8e9c5)"><g clip-path="url(#703ea22b7b)"><path fill="url(#f3d4a32319)" d="M 0.5 0.328125 L 0.5 57.128906 L 57.300781 57.128906 L 57.300781 0.328125 Z M 0.5 0.328125 " fill-rule="nonzero"/></g></g><path fill="#ffffff" d="M 36.519531 45.867188 L 21.378906 45.867188 C 16.128906 45.867188 11.859375 41.597656 11.859375 36.347656 L 11.859375 21.207031 C 11.859375 15.957031 16.128906 11.6875 21.378906 11.6875 L 36.519531 11.6875 C 41.769531 11.6875 46.039062 15.957031 46.039062 21.207031 L 46.039062 36.347656 C 46.039062 41.597656 41.769531 45.867188 36.519531 45.867188 Z M 21.378906 14.003906 C 17.40625 14.003906 14.171875 17.234375 14.171875 21.207031 L 14.171875 36.347656 C 14.171875 40.320312 17.40625 43.554688 21.378906 43.554688 L 36.519531 43.554688 C 40.492188 43.554688 43.722656 40.320312 43.722656 36.347656 L 43.722656 21.207031 C 43.722656 17.234375 40.492188 14.003906 36.519531 14.003906 Z M 21.378906 14.003906 " fill-opacity="1" fill-rule="nonzero"/><path fill="#ffffff" d="M 28.949219 37.246094 C 24.28125 37.246094 20.484375 33.445312 20.484375 28.777344 C 20.484375 24.109375 24.28125 20.3125 28.949219 20.3125 C 33.617188 20.3125 37.414062 24.109375 37.414062 28.777344 C 37.414062 33.445312 33.617188 37.246094 28.949219 37.246094 Z M 28.949219 22.625 C 25.554688 22.625 22.796875 25.386719 22.796875 28.777344 C 22.796875 32.171875 25.558594 34.929688 28.949219 34.929688 C 32.339844 34.929688 35.101562 32.171875 35.101562 28.777344 C 35.101562 25.386719 32.339844 22.625 28.949219 22.625 Z M 28.949219 22.625 " fill-opacity="1" fill-rule="nonzero"/><g fill="#ffffff" fill-opacity="1"><g transform="translate(102.357995, 22.87441)"><g><path d="M 1.21875 0 L 1.21875 -12.453125 L 3.8125 -12.453125 L 3.8125 0 Z M 1.21875 0 "/></g></g></g><g fill="#ffffff" fill-opacity="1"><g transform="translate(107.390158, 22.87441)"><g><path d="M 8.796875 0 L 3.375 -9.59375 C 3.476562 -8.664062 3.53125 -7.914062 3.53125 -7.34375 L 3.53125 0 L 1.21875 0 L 1.21875 -12.453125 L 4.1875 -12.453125 L 9.703125 -2.78125 C 9.597656 -3.675781 9.546875 -4.488281 9.546875 -5.21875 L 9.546875 -12.453125 L 11.859375 -12.453125 L 11.859375 0 Z M 8.796875 0 "/></g></g></g><g fill="#ffffff" fill-opacity="1"><g transform="translate(120.470235, 22.87441)"><g><path d="M 11.375 -3.59375 C 11.375 -2.375 10.921875 -1.441406 10.015625 -0.796875 C 9.109375 -0.148438 7.78125 0.171875 6.03125 0.171875 C 4.4375 0.171875 3.179688 -0.109375 2.265625 -0.671875 C 1.359375 -1.234375 0.773438 -2.09375 0.515625 -3.25 L 3.046875 -3.65625 C 3.210938 -3 3.539062 -2.519531 4.03125 -2.21875 C 4.53125 -1.925781 5.21875 -1.78125 6.09375 -1.78125 C 7.914062 -1.78125 8.828125 -2.332031 8.828125 -3.4375 C 8.828125 -3.789062 8.722656 -4.082031 8.515625 -4.3125 C 8.304688 -4.539062 8.007812 -4.734375 7.625 -4.890625 C 7.25 -5.046875 6.523438 -5.234375 5.453125 -5.453125 C 4.515625 -5.671875 3.863281 -5.84375 3.5 -5.96875 C 3.132812 -6.101562 2.800781 -6.257812 2.5 -6.4375 C 2.207031 -6.625 1.957031 -6.84375 1.75 -7.09375 C 1.550781 -7.34375 1.394531 -7.640625 1.28125 -7.984375 C 1.164062 -8.328125 1.109375 -8.71875 1.109375 -9.15625 C 1.109375 -10.28125 1.53125 -11.140625 2.375 -11.734375 C 3.21875 -12.335938 4.445312 -12.640625 6.0625 -12.640625 C 7.601562 -12.640625 8.757812 -12.394531 9.53125 -11.90625 C 10.3125 -11.425781 10.816406 -10.628906 11.046875 -9.515625 L 8.515625 -9.171875 C 8.390625 -9.710938 8.125 -10.117188 7.71875 -10.390625 C 7.320312 -10.660156 6.753906 -10.796875 6.015625 -10.796875 C 4.429688 -10.796875 3.640625 -10.300781 3.640625 -9.3125 C 3.640625 -8.988281 3.722656 -8.722656 3.890625 -8.515625 C 4.054688 -8.304688 4.304688 -8.128906 4.640625 -7.984375 C 4.972656 -7.835938 5.644531 -7.660156 6.65625 -7.453125 C 7.84375 -7.191406 8.691406 -6.953125 9.203125 -6.734375 C 9.722656 -6.523438 10.132812 -6.273438 10.4375 -5.984375 C 10.738281 -5.703125 10.96875 -5.363281 11.125 -4.96875 C 11.289062 -4.570312 11.375 -4.113281 11.375 -3.59375 Z M 11.375 -3.59375 "/></g></g></g><g fill="#ffffff" fill-opacity="1"><g transform="translate(132.55095, 22.87441)"><g><path d="M 6.828125 -10.4375 L 6.828125 0 L 4.234375 0 L 4.234375 -10.4375 L 0.203125 -10.4375 L 0.203125 -12.453125 L 10.875 -12.453125 L 10.875 -10.4375 Z M 6.828125 -10.4375 "/></g></g></g><g fill="#ffffff" fill-opacity="1"><g transform="translate(142.270051, 22.87441)"><g><path d="M 10.015625 0 L 8.90625 -3.1875 L 4.171875 -3.1875 L 3.0625 0 L 0.453125 0 L 5 -12.453125 L 8.078125 -12.453125 L 12.59375 0 Z M 6.53125 -10.546875 L 6.484375 -10.34375 C 6.421875 -10.132812 6.347656 -9.894531 6.265625 -9.625 C 6.179688 -9.351562 5.675781 -7.859375 4.75 -5.140625 L 8.328125 -5.140625 L 7.09375 -8.734375 L 6.71875 -9.9375 Z M 6.53125 -10.546875 "/></g></g></g><g fill="#ffffff" fill-opacity="1"><g transform="translate(155.350128, 22.87441)"><g><path d="M 7.125 -1.859375 C 7.800781 -1.859375 8.457031 -1.957031 9.09375 -2.15625 C 9.726562 -2.351562 10.222656 -2.609375 10.578125 -2.921875 L 10.578125 -4.640625 L 7.53125 -4.640625 L 7.53125 -6.5625 L 12.96875 -6.5625 L 12.96875 -1.984375 C 12.300781 -1.304688 11.4375 -0.773438 10.375 -0.390625 C 9.320312 -0.015625 8.21875 0.171875 7.0625 0.171875 C 5.03125 0.171875 3.46875 -0.382812 2.375 -1.5 C 1.289062 -2.625 0.75 -4.21875 0.75 -6.28125 C 0.75 -8.332031 1.296875 -9.90625 2.390625 -11 C 3.484375 -12.09375 5.0625 -12.640625 7.125 -12.640625 C 10.039062 -12.640625 11.898438 -11.5625 12.703125 -9.40625 L 10.296875 -8.671875 C 10.035156 -9.304688 9.625 -9.785156 9.0625 -10.109375 C 8.507812 -10.429688 7.863281 -10.59375 7.125 -10.59375 C 5.894531 -10.59375 4.960938 -10.21875 4.328125 -9.46875 C 3.691406 -8.726562 3.375 -7.664062 3.375 -6.28125 C 3.375 -4.875 3.703125 -3.785156 4.359375 -3.015625 C 5.015625 -2.242188 5.9375 -1.859375 7.125 -1.859375 Z M 7.125 -1.859375 "/></g></g></g><g fill="#ffffff" fill-opacity="1"><g transform="translate(169.438405, 22.87441)"><g><path d="M 9.765625 0 L 6.875 -4.734375 L 3.8125 -4.734375 L 3.8125 0 L 1.21875 0 L 1.21875 -12.453125 L 7.4375 -12.453125 C 8.925781 -12.453125 10.070312 -12.132812 10.875 -11.5 C 11.6875 -10.863281 12.09375 -9.945312 12.09375 -8.75 C 12.09375 -7.875 11.84375 -7.117188 11.34375 -6.484375 C 10.851562 -5.847656 10.1875 -5.429688 9.34375 -5.234375 L 12.703125 0 Z M 9.46875 -8.640625 C 9.46875 -9.835938 8.695312 -10.4375 7.15625 -10.4375 L 3.8125 -10.4375 L 3.8125 -6.75 L 7.234375 -6.75 C 7.960938 -6.75 8.515625 -6.914062 8.890625 -7.25 C 9.273438 -7.582031 9.46875 -8.046875 9.46875 -8.640625 Z M 9.46875 -8.640625 "/></g></g></g><g fill="#ffffff" fill-opacity="1"><g transform="translate(182.518482, 22.87441)"><g><path d="M 10.015625 0 L 8.90625 -3.1875 L 4.171875 -3.1875 L 3.0625 0 L 0.453125 0 L 5 -12.453125 L 8.078125 -12.453125 L 12.59375 0 Z M 6.53125 -10.546875 L 6.484375 -10.34375 C 6.421875 -10.132812 6.347656 -9.894531 6.265625 -9.625 C 6.179688 -9.351562 5.675781 -7.859375 4.75 -5.140625 L 8.328125 -5.140625 L 7.09375 -8.734375 L 6.71875 -9.9375 Z M 6.53125 -10.546875 "/></g></g></g><g fill="#ffffff" fill-opacity="1"><g transform="translate(195.598559, 22.87441)"><g><path d="M 11.5625 0 L 11.5625 -7.546875 C 11.5625 -7.722656 11.5625 -7.894531 11.5625 -8.0625 C 11.5625 -8.238281 11.585938 -8.972656 11.640625 -10.265625 C 11.222656 -8.679688 10.914062 -7.578125 10.71875 -6.953125 L 8.46875 0 L 6.609375 0 L 4.375 -6.953125 L 3.421875 -10.265625 C 3.492188 -8.898438 3.53125 -7.992188 3.53125 -7.546875 L 3.53125 0 L 1.21875 0 L 1.21875 -12.453125 L 4.703125 -12.453125 L 6.9375 -5.484375 L 7.125 -4.8125 L 7.546875 -3.140625 L 8.109375 -5.140625 L 10.40625 -12.453125 L 13.875 -12.453125 L 13.875 0 Z M 11.5625 0 "/></g></g></g><g fill="#ffffff" fill-opacity="1"><g transform="translate(74.661813, 96.74788)"><g><path d="M 0.75 0 L 0.75 -7.765625 L 2.390625 -7.765625 L 2.390625 -1.25 L 6.546875 -1.25 L 6.546875 0 Z M 0.75 0 "/></g></g></g><g fill="#ffffff" fill-opacity="1"><g transform="translate(81.559672, 96.74788)"><g><path d="M 2.171875 0.109375 C 1.585938 0.109375 1.132812 -0.046875 0.8125 -0.359375 C 0.488281 -0.671875 0.328125 -1.113281 0.328125 -1.6875 C 0.328125 -2.300781 0.523438 -2.769531 0.921875 -3.09375 C 1.328125 -3.414062 1.914062 -3.582031 2.6875 -3.59375 L 3.96875 -3.625 L 3.96875 -3.921875 C 3.96875 -4.304688 3.898438 -4.59375 3.765625 -4.78125 C 3.628906 -4.976562 3.40625 -5.078125 3.09375 -5.078125 C 2.8125 -5.078125 2.601562 -5.007812 2.46875 -4.875 C 2.332031 -4.75 2.25 -4.535156 2.21875 -4.234375 L 0.59375 -4.3125 C 0.695312 -4.882812 0.960938 -5.320312 1.390625 -5.625 C 1.828125 -5.925781 2.421875 -6.078125 3.171875 -6.078125 C 3.921875 -6.078125 4.5 -5.890625 4.90625 -5.515625 C 5.3125 -5.148438 5.515625 -4.625 5.515625 -3.9375 L 5.515625 -1.765625 C 5.515625 -1.429688 5.550781 -1.195312 5.625 -1.0625 C 5.707031 -0.9375 5.835938 -0.875 6.015625 -0.875 C 6.128906 -0.875 6.242188 -0.890625 6.359375 -0.921875 L 6.359375 -0.078125 C 6.265625 -0.0546875 6.179688 -0.0351562 6.109375 -0.015625 C 6.035156 0.00390625 5.960938 0.0195312 5.890625 0.03125 C 5.816406 0.0390625 5.738281 0.046875 5.65625 0.046875 C 5.570312 0.0546875 5.472656 0.0625 5.359375 0.0625 C 4.972656 0.0625 4.6875 -0.03125 4.5 -0.21875 C 4.3125 -0.40625 4.203125 -0.6875 4.171875 -1.0625 L 4.125 -1.0625 C 3.695312 -0.28125 3.046875 0.109375 2.171875 0.109375 Z M 3.96875 -2.765625 L 3.171875 -2.75 C 2.816406 -2.738281 2.5625 -2.695312 2.40625 -2.625 C 2.257812 -2.5625 2.144531 -2.460938 2.0625 -2.328125 C 1.988281 -2.203125 1.953125 -2.03125 1.953125 -1.8125 C 1.953125 -1.53125 2.015625 -1.316406 2.140625 -1.171875 C 2.273438 -1.035156 2.453125 -0.96875 2.671875 -0.96875 C 2.910156 -0.96875 3.128906 -1.035156 3.328125 -1.171875 C 3.523438 -1.304688 3.679688 -1.488281 3.796875 -1.71875 C 3.910156 -1.945312 3.96875 -2.191406 3.96875 -2.453125 Z M 3.96875 -2.765625 "/></g></g></g><g fill="#ffffff" fill-opacity="1"><g transform="translate(87.839977, 96.74788)"><g><path d="M 2.3125 0.09375 C 1.851562 0.09375 1.5 -0.0234375 1.25 -0.265625 C 1.007812 -0.515625 0.890625 -0.894531 0.890625 -1.40625 L 0.890625 -4.921875 L 0.140625 -4.921875 L 0.140625 -5.96875 L 0.96875 -5.96875 L 1.453125 -7.375 L 2.421875 -7.375 L 2.421875 -5.96875 L 3.5625 -5.96875 L 3.5625 -4.921875 L 2.421875 -4.921875 L 2.421875 -1.8125 C 2.421875 -1.53125 2.476562 -1.316406 2.59375 -1.171875 C 2.707031 -1.035156 2.878906 -0.96875 3.109375 -0.96875 C 3.222656 -0.96875 3.394531 -0.992188 3.625 -1.046875 L 3.625 -0.09375 C 3.238281 0.03125 2.800781 0.09375 2.3125 0.09375 Z M 2.3125 0.09375 "/></g></g></g><g fill="#ffffff" fill-opacity="1"><g transform="translate(91.600437, 96.74788)"><g><path d="M 3.234375 0.109375 C 2.335938 0.109375 1.644531 -0.15625 1.15625 -0.6875 C 0.675781 -1.21875 0.4375 -1.992188 0.4375 -3.015625 C 0.4375 -3.992188 0.679688 -4.75 1.171875 -5.28125 C 1.660156 -5.8125 2.351562 -6.078125 3.25 -6.078125 C 4.113281 -6.078125 4.769531 -5.789062 5.21875 -5.21875 C 5.664062 -4.65625 5.890625 -3.828125 5.890625 -2.734375 L 5.890625 -2.6875 L 2.0625 -2.6875 C 2.0625 -2.101562 2.171875 -1.660156 2.390625 -1.359375 C 2.609375 -1.066406 2.914062 -0.921875 3.3125 -0.921875 C 3.851562 -0.921875 4.195312 -1.160156 4.34375 -1.640625 L 5.8125 -1.515625 C 5.382812 -0.429688 4.523438 0.109375 3.234375 0.109375 Z M 3.234375 -5.109375 C 2.867188 -5.109375 2.585938 -4.976562 2.390625 -4.71875 C 2.191406 -4.46875 2.085938 -4.113281 2.078125 -3.65625 L 4.390625 -3.65625 C 4.367188 -4.132812 4.253906 -4.492188 4.046875 -4.734375 C 3.847656 -4.984375 3.578125 -5.109375 3.234375 -5.109375 Z M 5.296875 -6.6875 L 5.296875 -6.53125 L 4.421875 -6.53125 L 3.296875 -7.578125 L 3.28125 -7.578125 L 2.109375 -6.53125 L 1.234375 -6.53125 L 1.234375 -6.6875 L 2.65625 -8.4375 L 3.921875 -8.4375 Z M 5.296875 -6.6875 "/></g></g></g><g fill="#ffffff" fill-opacity="1"><g transform="translate(97.880741, 96.74788)"><g><path d="M 4.65625 0 L 4.65625 -3.34375 C 4.65625 -4.394531 4.300781 -4.921875 3.59375 -4.921875 C 3.21875 -4.921875 2.914062 -4.757812 2.6875 -4.4375 C 2.457031 -4.113281 2.34375 -3.703125 2.34375 -3.203125 L 2.34375 0 L 0.78125 0 L 0.78125 -4.640625 C 0.78125 -4.953125 0.773438 -5.207031 0.765625 -5.40625 C 0.765625 -5.613281 0.757812 -5.800781 0.75 -5.96875 L 2.21875 -5.96875 C 2.226562 -5.894531 2.242188 -5.707031 2.265625 -5.40625 C 2.285156 -5.101562 2.296875 -4.894531 2.296875 -4.78125 L 2.3125 -4.78125 C 2.519531 -5.238281 2.78125 -5.566406 3.09375 -5.765625 C 3.414062 -5.972656 3.796875 -6.078125 4.234375 -6.078125 C 4.867188 -6.078125 5.351562 -5.882812 5.6875 -5.5 C 6.03125 -5.113281 6.203125 -4.546875 6.203125 -3.796875 L 6.203125 0 Z M 4.65625 0 "/></g></g></g><g fill="#ffffff" fill-opacity="1"><g transform="translate(104.7786, 96.74788)"><g><path d="M 3.28125 0.109375 C 2.375 0.109375 1.671875 -0.15625 1.171875 -0.6875 C 0.679688 -1.226562 0.4375 -1.984375 0.4375 -2.953125 C 0.4375 -3.929688 0.6875 -4.695312 1.1875 -5.25 C 1.6875 -5.800781 2.390625 -6.078125 3.296875 -6.078125 C 4.003906 -6.078125 4.585938 -5.898438 5.046875 -5.546875 C 5.503906 -5.191406 5.789062 -4.707031 5.90625 -4.09375 L 4.34375 -4.015625 C 4.300781 -4.316406 4.191406 -4.554688 4.015625 -4.734375 C 3.835938 -4.921875 3.585938 -5.015625 3.265625 -5.015625 C 2.460938 -5.015625 2.0625 -4.347656 2.0625 -3.015625 C 2.0625 -1.640625 2.46875 -0.953125 3.28125 -0.953125 C 3.582031 -0.953125 3.832031 -1.039062 4.03125 -1.21875 C 4.226562 -1.40625 4.347656 -1.6875 4.390625 -2.0625 L 5.953125 -1.984375 C 5.898438 -1.578125 5.753906 -1.210938 5.515625 -0.890625 C 5.273438 -0.566406 4.960938 -0.316406 4.578125 -0.140625 C 4.191406 0.0234375 3.757812 0.109375 3.28125 0.109375 Z M 3.28125 0.109375 "/></g></g></g><g fill="#ffffff" fill-opacity="1"><g transform="translate(111.058905, 96.74788)"><g><path d="M 0.78125 -7.046875 L 0.78125 -8.1875 L 2.34375 -8.1875 L 2.34375 -7.046875 Z M 0.78125 0 L 0.78125 -5.96875 L 2.34375 -5.96875 L 2.34375 0 Z M 0.78125 0 "/></g></g></g><g fill="#ffffff" fill-opacity="1"><g transform="translate(114.196303, 96.74788)"><g><path d="M 2.171875 0.109375 C 1.585938 0.109375 1.132812 -0.046875 0.8125 -0.359375 C 0.488281 -0.671875 0.328125 -1.113281 0.328125 -1.6875 C 0.328125 -2.300781 0.523438 -2.769531 0.921875 -3.09375 C 1.328125 -3.414062 1.914062 -3.582031 2.6875 -3.59375 L 3.96875 -3.625 L 3.96875 -3.921875 C 3.96875 -4.304688 3.898438 -4.59375 3.765625 -4.78125 C 3.628906 -4.976562 3.40625 -5.078125 3.09375 -5.078125 C 2.8125 -5.078125 2.601562 -5.007812 2.46875 -4.875 C 2.332031 -4.75 2.25 -4.535156 2.21875 -4.234375 L 0.59375 -4.3125 C 0.695312 -4.882812 0.960938 -5.320312 1.390625 -5.625 C 1.828125 -5.925781 2.421875 -6.078125 3.171875 -6.078125 C 3.921875 -6.078125 4.5 -5.890625 4.90625 -5.515625 C 5.3125 -5.148438 5.515625 -4.625 5.515625 -3.9375 L 5.515625 -1.765625 C 5.515625 -1.429688 5.550781 -1.195312 5.625 -1.0625 C 5.707031 -0.9375 5.835938 -0.875 6.015625 -0.875 C 6.128906 -0.875 6.242188 -0.890625 6.359375 -0.921875 L 6.359375 -0.078125 C 6.265625 -0.0546875 6.179688 -0.0351562 6.109375 -0.015625 C 6.035156 0.00390625 5.960938 0.0195312 5.890625 0.03125 C 5.816406 0.0390625 5.738281 0.046875 5.65625 0.046875 C 5.570312 0.0546875 5.472656 0.0625 5.359375 0.0625 C 4.972656 0.0625 4.6875 -0.03125 4.5 -0.21875 C 4.3125 -0.40625 4.203125 -0.6875 4.171875 -1.0625 L 4.125 -1.0625 C 3.695312 -0.28125 3.046875 0.109375 2.171875 0.109375 Z M 3.96875 -2.765625 L 3.171875 -2.75 C 2.816406 -2.738281 2.5625 -2.695312 2.40625 -2.625 C 2.257812 -2.5625 2.144531 -2.460938 2.0625 -2.328125 C 1.988281 -2.203125 1.953125 -2.03125 1.953125 -1.8125 C 1.953125 -1.53125 2.015625 -1.316406 2.140625 -1.171875 C 2.273438 -1.035156 2.453125 -0.96875 2.671875 -0.96875 C 2.910156 -0.96875 3.128906 -1.035156 3.328125 -1.171875 C 3.523438 -1.304688 3.679688 -1.488281 3.796875 -1.71875 C 3.910156 -1.945312 3.96875 -2.191406 3.96875 -2.453125 Z M 3.96875 -2.765625 "/></g></g></g><g fill="#ffffff" fill-opacity="1"><g transform="translate(179.844714, 95.586408)"><g><path d="M 7.15625 -5.3125 C 7.15625 -4.8125 7.039062 -4.363281 6.8125 -3.96875 C 6.582031 -3.570312 6.253906 -3.265625 5.828125 -3.046875 C 5.398438 -2.835938 4.894531 -2.734375 4.3125 -2.734375 L 2.390625 -2.734375 L 2.390625 0 L 0.75 0 L 0.75 -7.765625 L 4.25 -7.765625 C 5.175781 -7.765625 5.890625 -7.550781 6.390625 -7.125 C 6.898438 -6.695312 7.15625 -6.09375 7.15625 -5.3125 Z M 5.515625 -5.28125 C 5.515625 -6.101562 5.03125 -6.515625 4.0625 -6.515625 L 2.390625 -6.515625 L 2.390625 -3.984375 L 4.109375 -3.984375 C 4.554688 -3.984375 4.898438 -4.09375 5.140625 -4.3125 C 5.390625 -4.539062 5.515625 -4.863281 5.515625 -5.28125 Z M 5.515625 -5.28125 "/></g></g></g><g fill="#ffffff" fill-opacity="1"><g transform="translate(187.376662, 95.586408)"><g><path d="M 3.234375 0.109375 C 2.335938 0.109375 1.644531 -0.15625 1.15625 -0.6875 C 0.675781 -1.21875 0.4375 -1.992188 0.4375 -3.015625 C 0.4375 -3.992188 0.679688 -4.75 1.171875 -5.28125 C 1.660156 -5.8125 2.351562 -6.078125 3.25 -6.078125 C 4.113281 -6.078125 4.769531 -5.789062 5.21875 -5.21875 C 5.664062 -4.65625 5.890625 -3.828125 5.890625 -2.734375 L 5.890625 -2.6875 L 2.0625 -2.6875 C 2.0625 -2.101562 2.171875 -1.660156 2.390625 -1.359375 C 2.609375 -1.066406 2.914062 -0.921875 3.3125 -0.921875 C 3.851562 -0.921875 4.195312 -1.160156 4.34375 -1.640625 L 5.8125 -1.515625 C 5.382812 -0.429688 4.523438 0.109375 3.234375 0.109375 Z M 3.234375 -5.109375 C 2.867188 -5.109375 2.585938 -4.976562 2.390625 -4.71875 C 2.191406 -4.46875 2.085938 -4.113281 2.078125 -3.65625 L 4.390625 -3.65625 C 4.367188 -4.132812 4.253906 -4.492188 4.046875 -4.734375 C 3.847656 -4.984375 3.578125 -5.109375 3.234375 -5.109375 Z M 3.234375 -5.109375 "/></g></g></g><g fill="#ffffff" fill-opacity="1"><g transform="translate(193.656967, 95.586408)"><g><path d="M 0.78125 0 L 0.78125 -4.5625 C 0.78125 -4.894531 0.773438 -5.171875 0.765625 -5.390625 C 0.765625 -5.609375 0.757812 -5.800781 0.75 -5.96875 L 2.21875 -5.96875 C 2.226562 -5.90625 2.242188 -5.703125 2.265625 -5.359375 C 2.285156 -5.023438 2.296875 -4.800781 2.296875 -4.6875 L 2.3125 -4.6875 C 2.46875 -5.113281 2.601562 -5.410156 2.71875 -5.578125 C 2.832031 -5.753906 2.96875 -5.878906 3.125 -5.953125 C 3.289062 -6.035156 3.5 -6.078125 3.75 -6.078125 C 3.945312 -6.078125 4.101562 -6.050781 4.21875 -6 L 4.21875 -4.703125 C 3.96875 -4.753906 3.75 -4.78125 3.5625 -4.78125 C 3.175781 -4.78125 2.875 -4.625 2.65625 -4.3125 C 2.445312 -4 2.34375 -3.535156 2.34375 -2.921875 L 2.34375 0 Z M 0.78125 0 "/></g></g></g><g fill="#ffffff" fill-opacity="1"><g transform="translate(198.051528, 95.586408)"><g><path d="M 3.28125 0.109375 C 2.375 0.109375 1.671875 -0.15625 1.171875 -0.6875 C 0.679688 -1.226562 0.4375 -1.984375 0.4375 -2.953125 C 0.4375 -3.929688 0.6875 -4.695312 1.1875 -5.25 C 1.6875 -5.800781 2.390625 -6.078125 3.296875 -6.078125 C 4.003906 -6.078125 4.585938 -5.898438 5.046875 -5.546875 C 5.503906 -5.191406 5.789062 -4.707031 5.90625 -4.09375 L 4.34375 -4.015625 C 4.300781 -4.316406 4.191406 -4.554688 4.015625 -4.734375 C 3.835938 -4.921875 3.585938 -5.015625 3.265625 -5.015625 C 2.460938 -5.015625 2.0625 -4.347656 2.0625 -3.015625 C 2.0625 -1.640625 2.46875 -0.953125 3.28125 -0.953125 C 3.582031 -0.953125 3.832031 -1.039062 4.03125 -1.21875 C 4.226562 -1.40625 4.347656 -1.6875 4.390625 -2.0625 L 5.953125 -1.984375 C 5.898438 -1.578125 5.753906 -1.210938 5.515625 -0.890625 C 5.273438 -0.566406 4.960938 -0.316406 4.578125 -0.140625 C 4.191406 0.0234375 3.757812 0.109375 3.28125 0.109375 Z M 3.28125 0.109375 "/></g></g></g><g fill="#ffffff" fill-opacity="1"><g transform="translate(204.331832, 95.586408)"><g><path d="M 2.171875 0.109375 C 1.585938 0.109375 1.132812 -0.046875 0.8125 -0.359375 C 0.488281 -0.671875 0.328125 -1.113281 0.328125 -1.6875 C 0.328125 -2.300781 0.523438 -2.769531 0.921875 -3.09375 C 1.328125 -3.414062 1.914062 -3.582031 2.6875 -3.59375 L 3.96875 -3.625 L 3.96875 -3.921875 C 3.96875 -4.304688 3.898438 -4.59375 3.765625 -4.78125 C 3.628906 -4.976562 3.40625 -5.078125 3.09375 -5.078125 C 2.8125 -5.078125 2.601562 -5.007812 2.46875 -4.875 C 2.332031 -4.75 2.25 -4.535156 2.21875 -4.234375 L 0.59375 -4.3125 C 0.695312 -4.882812 0.960938 -5.320312 1.390625 -5.625 C 1.828125 -5.925781 2.421875 -6.078125 3.171875 -6.078125 C 3.921875 -6.078125 4.5 -5.890625 4.90625 -5.515625 C 5.3125 -5.148438 5.515625 -4.625 5.515625 -3.9375 L 5.515625 -1.765625 C 5.515625 -1.429688 5.550781 -1.195312 5.625 -1.0625 C 5.707031 -0.9375 5.835938 -0.875 6.015625 -0.875 C 6.128906 -0.875 6.242188 -0.890625 6.359375 -0.921875 L 6.359375 -0.078125 C 6.265625 -0.0546875 6.179688 -0.0351562 6.109375 -0.015625 C 6.035156 0.00390625 5.960938 0.0195312 5.890625 0.03125 C 5.816406 0.0390625 5.738281 0.046875 5.65625 0.046875 C 5.570312 0.0546875 5.472656 0.0625 5.359375 0.0625 C 4.972656 0.0625 4.6875 -0.03125 4.5 -0.21875 C 4.3125 -0.40625 4.203125 -0.6875 4.171875 -1.0625 L 4.125 -1.0625 C 3.695312 -0.28125 3.046875 0.109375 2.171875 0.109375 Z M 3.96875 -2.765625 L 3.171875 -2.75 C 2.816406 -2.738281 2.5625 -2.695312 2.40625 -2.625 C 2.257812 -2.5625 2.144531 -2.460938 2.0625 -2.328125 C 1.988281 -2.203125 1.953125 -2.03125 1.953125 -1.8125 C 1.953125 -1.53125 2.015625 -1.316406 2.140625 -1.171875 C 2.273438 -1.035156 2.453125 -0.96875 2.671875 -0.96875 C 2.910156 -0.96875 3.128906 -1.035156 3.328125 -1.171875 C 3.523438 -1.304688 3.679688 -1.488281 3.796875 -1.71875 C 3.910156 -1.945312 3.96875 -2.191406 3.96875 -2.453125 Z M 3.96875 -2.765625 "/></g></g></g><g fill="#ffffff" fill-opacity="1"><g transform="translate(210.612137, 95.586408)"><g/></g></g><g fill="#ffffff" fill-opacity="1"><g transform="translate(213.749536, 95.586408)"><g><path d="M 4.65625 0 C 4.644531 -0.0507812 4.628906 -0.1875 4.609375 -0.40625 C 4.585938 -0.632812 4.578125 -0.820312 4.578125 -0.96875 L 4.546875 -0.96875 C 4.210938 -0.25 3.578125 0.109375 2.640625 0.109375 C 1.941406 0.109375 1.40625 -0.160156 1.03125 -0.703125 C 0.65625 -1.242188 0.46875 -2.003906 0.46875 -2.984375 C 0.46875 -3.972656 0.664062 -4.734375 1.0625 -5.265625 C 1.457031 -5.804688 2.023438 -6.078125 2.765625 -6.078125 C 3.179688 -6.078125 3.539062 -5.988281 3.84375 -5.8125 C 4.15625 -5.632812 4.394531 -5.375 4.5625 -5.03125 L 4.578125 -5.03125 L 4.5625 -6 L 4.5625 -8.1875 L 6.109375 -8.1875 L 6.109375 -1.296875 C 6.109375 -0.929688 6.125 -0.5 6.15625 0 Z M 4.578125 -3.015625 C 4.578125 -3.660156 4.46875 -4.15625 4.25 -4.5 C 4.039062 -4.851562 3.726562 -5.03125 3.3125 -5.03125 C 2.894531 -5.03125 2.582031 -4.859375 2.375 -4.515625 C 2.175781 -4.179688 2.078125 -3.671875 2.078125 -2.984375 C 2.078125 -1.628906 2.484375 -0.953125 3.296875 -0.953125 C 3.703125 -0.953125 4.015625 -1.128906 4.234375 -1.484375 C 4.460938 -1.847656 4.578125 -2.359375 4.578125 -3.015625 Z M 4.578125 -3.015625 "/></g></g></g><g fill="#ffffff" fill-opacity="1"><g transform="translate(220.647394, 95.586408)"><g><path d="M 3.234375 0.109375 C 2.335938 0.109375 1.644531 -0.15625 1.15625 -0.6875 C 0.675781 -1.21875 0.4375 -1.992188 0.4375 -3.015625 C 0.4375 -3.992188 0.679688 -4.75 1.171875 -5.28125 C 1.660156 -5.8125 2.351562 -6.078125 3.25 -6.078125 C 4.113281 -6.078125 4.769531 -5.789062 5.21875 -5.21875 C 5.664062 -4.65625 5.890625 -3.828125 5.890625 -2.734375 L 5.890625 -2.6875 L 2.0625 -2.6875 C 2.0625 -2.101562 2.171875 -1.660156 2.390625 -1.359375 C 2.609375 -1.066406 2.914062 -0.921875 3.3125 -0.921875 C 3.851562 -0.921875 4.195312 -1.160156 4.34375 -1.640625 L 5.8125 -1.515625 C 5.382812 -0.429688 4.523438 0.109375 3.234375 0.109375 Z M 3.234375 -5.109375 C 2.867188 -5.109375 2.585938 -4.976562 2.390625 -4.71875 C 2.191406 -4.46875 2.085938 -4.113281 2.078125 -3.65625 L 4.390625 -3.65625 C 4.367188 -4.132812 4.253906 -4.492188 4.046875 -4.734375 C 3.847656 -4.984375 3.578125 -5.109375 3.234375 -5.109375 Z M 3.234375 -5.109375 "/></g></g></g><g fill="#ffffff" fill-opacity="1"><g transform="translate(226.927699, 95.586408)"><g/></g></g><g fill="#ffffff" fill-opacity="1"><g transform="translate(230.065097, 95.586408)"><g><path d="M 7.15625 -5.3125 C 7.15625 -4.8125 7.039062 -4.363281 6.8125 -3.96875 C 6.582031 -3.570312 6.253906 -3.265625 5.828125 -3.046875 C 5.398438 -2.835938 4.894531 -2.734375 4.3125 -2.734375 L 2.390625 -2.734375 L 2.390625 0 L 0.75 0 L 0.75 -7.765625 L 4.25 -7.765625 C 5.175781 -7.765625 5.890625 -7.550781 6.390625 -7.125 C 6.898438 -6.695312 7.15625 -6.09375 7.15625 -5.3125 Z M 5.515625 -5.28125 C 5.515625 -6.101562 5.03125 -6.515625 4.0625 -6.515625 L 2.390625 -6.515625 L 2.390625 -3.984375 L 4.109375 -3.984375 C 4.554688 -3.984375 4.898438 -4.09375 5.140625 -4.3125 C 5.390625 -4.539062 5.515625 -4.863281 5.515625 -5.28125 Z M 5.515625 -5.28125 "/></g></g></g><g fill="#ffffff" fill-opacity="1"><g transform="translate(237.597045, 95.586408)"><g><path d="M 2.171875 0.109375 C 1.585938 0.109375 1.132812 -0.046875 0.8125 -0.359375 C 0.488281 -0.671875 0.328125 -1.113281 0.328125 -1.6875 C 0.328125 -2.300781 0.523438 -2.769531 0.921875 -3.09375 C 1.328125 -3.414062 1.914062 -3.582031 2.6875 -3.59375 L 3.96875 -3.625 L 3.96875 -3.921875 C 3.96875 -4.304688 3.898438 -4.59375 3.765625 -4.78125 C 3.628906 -4.976562 3.40625 -5.078125 3.09375 -5.078125 C 2.8125 -5.078125 2.601562 -5.007812 2.46875 -4.875 C 2.332031 -4.75 2.25 -4.535156 2.21875 -4.234375 L 0.59375 -4.3125 C 0.695312 -4.882812 0.960938 -5.320312 1.390625 -5.625 C 1.828125 -5.925781 2.421875 -6.078125 3.171875 -6.078125 C 3.921875 -6.078125 4.5 -5.890625 4.90625 -5.515625 C 5.3125 -5.148438 5.515625 -4.625 5.515625 -3.9375 L 5.515625 -1.765625 C 5.515625 -1.429688 5.550781 -1.195312 5.625 -1.0625 C 5.707031 -0.9375 5.835938 -0.875 6.015625 -0.875 C 6.128906 -0.875 6.242188 -0.890625 6.359375 -0.921875 L 6.359375 -0.078125 C 6.265625 -0.0546875 6.179688 -0.0351562 6.109375 -0.015625 C 6.035156 0.00390625 5.960938 0.0195312 5.890625 0.03125 C 5.816406 0.0390625 5.738281 0.046875 5.65625 0.046875 C 5.570312 0.0546875 5.472656 0.0625 5.359375 0.0625 C 4.972656 0.0625 4.6875 -0.03125 4.5 -0.21875 C 4.3125 -0.40625 4.203125 -0.6875 4.171875 -1.0625 L 4.125 -1.0625 C 3.695312 -0.28125 3.046875 0.109375 2.171875 0.109375 Z M 3.96875 -2.765625 L 3.171875 -2.75 C 2.816406 -2.738281 2.5625 -2.695312 2.40625 -2.625 C 2.257812 -2.5625 2.144531 -2.460938 2.0625 -2.328125 C 1.988281 -2.203125 1.953125 -2.03125 1.953125 -1.8125 C 1.953125 -1.53125 2.015625 -1.316406 2.140625 -1.171875 C 2.273438 -1.035156 2.453125 -0.96875 2.671875 -0.96875 C 2.910156 -0.96875 3.128906 -1.035156 3.328125 -1.171875 C 3.523438 -1.304688 3.679688 -1.488281 3.796875 -1.71875 C 3.910156 -1.945312 3.96875 -2.191406 3.96875 -2.453125 Z M 3.96875 -2.765625 "/></g></g></g><g fill="#ffffff" fill-opacity="1"><g transform="translate(243.87735, 95.586408)"><g><path d="M 3.28125 0.109375 C 2.375 0.109375 1.671875 -0.15625 1.171875 -0.6875 C 0.679688 -1.226562 0.4375 -1.984375 0.4375 -2.953125 C 0.4375 -3.929688 0.6875 -4.695312 1.1875 -5.25 C 1.6875 -5.800781 2.390625 -6.078125 3.296875 -6.078125 C 4.003906 -6.078125 4.585938 -5.898438 5.046875 -5.546875 C 5.503906 -5.191406 5.789062 -4.707031 5.90625 -4.09375 L 4.34375 -4.015625 C 4.300781 -4.316406 4.191406 -4.554688 4.015625 -4.734375 C 3.835938 -4.921875 3.585938 -5.015625 3.265625 -5.015625 C 2.460938 -5.015625 2.0625 -4.347656 2.0625 -3.015625 C 2.0625 -1.640625 2.46875 -0.953125 3.28125 -0.953125 C 3.582031 -0.953125 3.832031 -1.039062 4.03125 -1.21875 C 4.226562 -1.40625 4.347656 -1.6875 4.390625 -2.0625 L 5.953125 -1.984375 C 5.898438 -1.578125 5.753906 -1.210938 5.515625 -0.890625 C 5.273438 -0.566406 4.960938 -0.316406 4.578125 -0.140625 C 4.191406 0.0234375 3.757812 0.109375 3.28125 0.109375 Z M 3.28125 0.109375 "/></g></g></g><g fill="#ffffff" fill-opacity="1"><g transform="translate(250.157655, 95.586408)"><g><path d="M 6.453125 -2.984375 C 6.453125 -2.015625 6.179688 -1.253906 5.640625 -0.703125 C 5.109375 -0.160156 4.367188 0.109375 3.421875 0.109375 C 2.492188 0.109375 1.765625 -0.164062 1.234375 -0.71875 C 0.703125 -1.269531 0.4375 -2.023438 0.4375 -2.984375 C 0.4375 -3.941406 0.703125 -4.695312 1.234375 -5.25 C 1.765625 -5.800781 2.503906 -6.078125 3.453125 -6.078125 C 4.429688 -6.078125 5.175781 -5.8125 5.6875 -5.28125 C 6.195312 -4.75 6.453125 -3.984375 6.453125 -2.984375 Z M 4.84375 -2.984375 C 4.84375 -3.691406 4.722656 -4.207031 4.484375 -4.53125 C 4.253906 -4.851562 3.921875 -5.015625 3.484375 -5.015625 C 2.535156 -5.015625 2.0625 -4.335938 2.0625 -2.984375 C 2.0625 -2.316406 2.175781 -1.8125 2.40625 -1.46875 C 2.644531 -1.125 2.976562 -0.953125 3.40625 -0.953125 C 4.363281 -0.953125 4.84375 -1.628906 4.84375 -2.984375 Z M 4.84375 -2.984375 "/></g></g></g><g fill="#ffffff" fill-opacity="1"><g transform="translate(257.055513, 95.586408)"><g><path d="M 2.3125 0.09375 C 1.851562 0.09375 1.5 -0.0234375 1.25 -0.265625 C 1.007812 -0.515625 0.890625 -0.894531 0.890625 -1.40625 L 0.890625 -4.921875 L 0.140625 -4.921875 L 0.140625 -5.96875 L 0.96875 -5.96875 L 1.453125 -7.375 L 2.421875 -7.375 L 2.421875 -5.96875 L 3.5625 -5.96875 L 3.5625 -4.921875 L 2.421875 -4.921875 L 2.421875 -1.8125 C 2.421875 -1.53125 2.476562 -1.316406 2.59375 -1.171875 C 2.707031 -1.035156 2.878906 -0.96875 3.109375 -0.96875 C 3.222656 -0.96875 3.394531 -0.992188 3.625 -1.046875 L 3.625 -0.09375 C 3.238281 0.03125 2.800781 0.09375 2.3125 0.09375 Z M 2.3125 0.09375 "/></g></g></g><g fill="#ffffff" fill-opacity="1"><g transform="translate(260.815973, 95.586408)"><g><path d="M 3.234375 0.109375 C 2.335938 0.109375 1.644531 -0.15625 1.15625 -0.6875 C 0.675781 -1.21875 0.4375 -1.992188 0.4375 -3.015625 C 0.4375 -3.992188 0.679688 -4.75 1.171875 -5.28125 C 1.660156 -5.8125 2.351562 -6.078125 3.25 -6.078125 C 4.113281 -6.078125 4.769531 -5.789062 5.21875 -5.21875 C 5.664062 -4.65625 5.890625 -3.828125 5.890625 -2.734375 L 5.890625 -2.6875 L 2.0625 -2.6875 C 2.0625 -2.101562 2.171875 -1.660156 2.390625 -1.359375 C 2.609375 -1.066406 2.914062 -0.921875 3.3125 -0.921875 C 3.851562 -0.921875 4.195312 -1.160156 4.34375 -1.640625 L 5.8125 -1.515625 C 5.382812 -0.429688 4.523438 0.109375 3.234375 0.109375 Z M 3.234375 -5.109375 C 2.867188 -5.109375 2.585938 -4.976562 2.390625 -4.71875 C 2.191406 -4.46875 2.085938 -4.113281 2.078125 -3.65625 L 4.390625 -3.65625 C 4.367188 -4.132812 4.253906 -4.492188 4.046875 -4.734375 C 3.847656 -4.984375 3.578125 -5.109375 3.234375 -5.109375 Z M 3.234375 -5.109375 "/></g></g></g></svg>