<svg xmlns="http://www.w3.org/2000/svg" xmlns:xlink="http://www.w3.org/1999/xlink" width="380" zoomAndPan="magnify" viewBox="0 0 285 142.499996" height="190" preserveAspectRatio="xMidYMid meet" version="1.0"><defs><g/><clipPath id="03a8fb9536"><path d="M 72.953125 31.527344 L 122.28125 31.527344 L 122.28125 85.335938 L 72.953125 85.335938 Z M 72.953125 31.527344 " clip-rule="nonzero"/></clipPath><clipPath id="a3f42eaf9c"><path d="M 198.207031 31.527344 L 258 31.527344 L 258 83 L 198.207031 83 Z M 198.207031 31.527344 " clip-rule="nonzero"/></clipPath><clipPath id="f883ed3ef5"><path d="M 3.320312 3.679688 L 39 3.679688 L 39 44 L 3.320312 44 Z M 3.320312 3.679688 " clip-rule="nonzero"/></clipPath><clipPath id="9df6eea229"><path d="M 41 4 L 75.816406 4 L 75.816406 44 L 41 44 Z M 41 4 " clip-rule="nonzero"/></clipPath></defs><g clip-path="url(#03a8fb9536)"><path fill="#ffffff" d="M 120.429688 51.195312 C 119.296875 48.527344 117.734375 46.097656 115.757812 43.984375 L 117.765625 41.976562 L 119.632812 43.84375 C 119.804688 44.015625 120.03125 44.101562 120.257812 44.101562 C 120.484375 44.101562 120.710938 44.015625 120.882812 43.84375 C 121.230469 43.496094 121.230469 42.9375 120.882812 42.589844 L 118.390625 40.097656 L 115.898438 37.601562 C 115.550781 37.257812 114.992188 37.257812 114.644531 37.601562 C 114.300781 37.949219 114.300781 38.507812 114.644531 38.855469 L 116.511719 40.722656 L 114.503906 42.730469 C 112.390625 40.753906 109.960938 39.179688 107.292969 38.054688 C 104.519531 36.878906 101.582031 36.230469 98.5625 36.136719 L 98.5625 33.285156 L 102.261719 33.285156 C 102.75 33.285156 103.148438 32.886719 103.148438 32.398438 C 103.148438 31.914062 102.761719 31.527344 102.261719 31.527344 L 93.085938 31.527344 C 92.601562 31.527344 92.203125 31.925781 92.203125 32.410156 C 92.203125 32.894531 92.601562 33.296875 93.085938 33.296875 L 96.789062 33.296875 L 96.789062 36.136719 C 93.769531 36.242188 90.832031 36.890625 88.058594 38.054688 C 85.390625 39.191406 82.960938 40.753906 80.847656 42.730469 L 78.847656 40.722656 L 80.71875 38.855469 C 81.0625 38.507812 81.0625 37.949219 80.71875 37.601562 C 80.371094 37.257812 79.808594 37.257812 79.464844 37.601562 L 74.476562 42.589844 C 74.132812 42.9375 74.132812 43.496094 74.476562 43.84375 C 74.648438 44.015625 74.875 44.101562 75.101562 44.101562 C 75.332031 44.101562 75.558594 44.015625 75.730469 43.84375 L 77.597656 41.976562 L 79.605469 43.984375 C 77.628906 46.097656 76.054688 48.527344 74.929688 51.195312 C 73.636719 54.238281 72.988281 57.476562 72.988281 60.800781 C 72.988281 64.136719 73.636719 67.363281 74.929688 70.410156 C 76.171875 73.355469 77.953125 76 80.21875 78.265625 C 82.488281 80.535156 85.132812 82.316406 88.066406 83.558594 C 91.113281 84.839844 94.351562 85.5 97.675781 85.5 C 101 85.5 104.238281 84.851562 107.28125 83.558594 C 110.21875 82.316406 112.863281 80.535156 115.132812 78.265625 C 117.398438 76 119.179688 73.355469 120.421875 70.417969 C 121.707031 67.375 122.363281 64.136719 122.363281 60.8125 C 122.375 57.476562 121.726562 54.238281 120.429688 51.195312 Z M 97.6875 83.742188 C 85.046875 83.742188 74.757812 73.453125 74.757812 60.8125 C 74.757812 48.171875 85.035156 37.871094 97.6875 37.871094 C 110.328125 37.871094 120.613281 48.160156 120.613281 60.800781 C 120.613281 73.441406 110.328125 83.742188 97.6875 83.742188 Z M 97.6875 83.742188 " fill-opacity="1" fill-rule="nonzero"/></g><path fill="#ffffff" d="M 114.246094 53.804688 C 113.339844 51.667969 112.042969 49.746094 110.390625 48.09375 C 108.742188 46.445312 106.820312 45.148438 104.679688 44.242188 C 102.46875 43.300781 100.117188 42.828125 97.6875 42.828125 C 95.257812 42.828125 92.902344 43.300781 90.691406 44.242188 C 88.554688 45.148438 86.632812 46.445312 84.980469 48.09375 C 83.328125 49.746094 82.035156 51.667969 81.128906 53.804688 C 80.1875 56.019531 79.710938 58.371094 79.710938 60.800781 C 79.710938 62.753906 80.027344 64.6875 80.640625 66.523438 C 81.234375 68.304688 82.109375 69.976562 83.230469 71.488281 C 83.492188 71.84375 83.964844 71.941406 84.34375 71.746094 C 84.367188 71.738281 84.386719 71.726562 84.398438 71.714844 C 84.398438 71.714844 84.410156 71.714844 84.410156 71.714844 C 84.429688 71.703125 84.441406 71.695312 84.460938 71.683594 L 86.976562 69.824219 C 87.367188 69.535156 87.453125 68.984375 87.160156 68.59375 C 86.871094 68.207031 86.320312 68.121094 85.929688 68.410156 L 84.148438 69.730469 C 82.5625 67.320312 81.65625 64.578125 81.503906 61.699219 L 83.71875 61.699219 C 84.203125 61.699219 84.601562 61.296875 84.601562 60.8125 C 84.601562 60.328125 84.203125 59.925781 83.71875 59.925781 L 81.492188 59.925781 C 81.699219 56.117188 83.222656 52.660156 85.617188 49.996094 L 87.183594 51.5625 C 87.355469 51.734375 87.582031 51.820312 87.808594 51.820312 C 88.035156 51.820312 88.261719 51.734375 88.433594 51.5625 C 88.78125 51.214844 88.78125 50.652344 88.433594 50.308594 L 86.871094 48.742188 C 89.535156 46.347656 93 44.824219 96.800781 44.621094 L 96.800781 46.84375 C 96.800781 47.328125 97.199219 47.730469 97.6875 47.730469 C 98.171875 47.730469 98.570312 47.328125 98.570312 46.84375 L 98.570312 44.621094 C 102.382812 44.824219 105.835938 46.347656 108.503906 48.742188 L 106.9375 50.308594 C 106.59375 50.652344 106.59375 51.214844 106.9375 51.5625 C 107.109375 51.734375 107.335938 51.820312 107.5625 51.820312 C 107.789062 51.820312 108.015625 51.734375 108.191406 51.5625 L 109.753906 49.996094 C 112.152344 52.660156 113.671875 56.128906 113.878906 59.925781 L 111.65625 59.925781 C 111.167969 59.925781 110.769531 60.328125 110.769531 60.8125 C 110.769531 61.296875 111.167969 61.699219 111.65625 61.699219 L 113.878906 61.699219 C 113.726562 64.578125 112.820312 67.332031 111.234375 69.730469 L 109.453125 68.410156 C 109.0625 68.121094 108.515625 68.207031 108.222656 68.59375 C 107.929688 68.984375 108.015625 69.535156 108.40625 69.824219 L 110.886719 71.660156 C 110.898438 71.671875 110.898438 71.671875 110.910156 71.683594 C 111.070312 71.800781 111.253906 71.855469 111.4375 71.855469 C 111.710938 71.855469 111.980469 71.738281 112.152344 71.5 C 113.273438 69.988281 114.148438 68.316406 114.742188 66.535156 C 115.359375 64.699219 115.671875 62.765625 115.671875 60.8125 C 115.660156 58.382812 115.183594 56.03125 114.246094 53.804688 Z M 114.246094 53.804688 " fill-opacity="1" fill-rule="nonzero"/><path fill="#ffffff" d="M 103.148438 65.722656 C 103.417969 65.722656 103.6875 65.605469 103.859375 65.367188 C 104.152344 64.980469 104.066406 64.429688 103.675781 64.136719 L 101.011719 62.160156 C 101.183594 61.742188 101.28125 61.285156 101.28125 60.800781 C 101.28125 59.128906 100.125 57.714844 98.570312 57.324219 L 98.570312 50.925781 C 98.570312 50.4375 98.171875 50.039062 97.6875 50.039062 C 97.199219 50.039062 96.800781 50.4375 96.800781 50.925781 L 96.800781 57.324219 C 95.246094 57.714844 94.089844 59.128906 94.089844 60.800781 C 94.089844 62.777344 95.699219 64.386719 97.675781 64.386719 C 98.539062 64.386719 99.328125 64.082031 99.941406 63.574219 L 102.609375 65.550781 C 102.78125 65.667969 102.964844 65.722656 103.148438 65.722656 Z M 97.6875 62.625 C 96.683594 62.625 95.863281 61.804688 95.863281 60.800781 C 95.863281 59.796875 96.683594 58.976562 97.6875 58.976562 C 98.691406 58.976562 99.511719 59.796875 99.511719 60.800781 C 99.511719 61.804688 98.691406 62.625 97.6875 62.625 Z M 97.6875 62.625 " fill-opacity="1" fill-rule="nonzero"/><path fill="#ffffff" d="M 96.953125 73.097656 C 96.519531 73.097656 96.121094 73.183594 95.765625 73.34375 C 95.453125 73.484375 95.183594 73.679688 94.976562 73.917969 C 94.792969 73.667969 94.566406 73.472656 94.285156 73.335938 C 93.960938 73.183594 93.59375 73.097656 93.183594 73.097656 C 92.808594 73.097656 92.460938 73.160156 92.148438 73.292969 C 91.910156 73.386719 91.707031 73.527344 91.535156 73.691406 C 91.457031 73.386719 91.1875 73.152344 90.851562 73.152344 C 90.464844 73.152344 90.152344 73.464844 90.152344 73.851562 L 90.152344 77.945312 C 90.152344 78.34375 90.476562 78.667969 90.875 78.667969 C 91.273438 78.667969 91.597656 78.34375 91.597656 77.945312 L 91.597656 75.871094 C 91.597656 75.386719 91.71875 75.007812 91.945312 74.757812 C 92.171875 74.511719 92.472656 74.382812 92.871094 74.382812 C 93.226562 74.382812 93.488281 74.488281 93.679688 74.695312 C 93.863281 74.910156 93.960938 75.234375 93.960938 75.675781 L 93.960938 77.945312 C 93.960938 78.34375 94.285156 78.667969 94.683594 78.667969 C 95.085938 78.667969 95.410156 78.34375 95.410156 77.945312 L 95.410156 75.871094 C 95.410156 75.386719 95.527344 75.019531 95.753906 74.757812 C 95.992188 74.5 96.292969 74.382812 96.683594 74.382812 C 97.039062 74.382812 97.296875 74.488281 97.492188 74.695312 C 97.675781 74.910156 97.773438 75.234375 97.773438 75.675781 L 97.773438 77.945312 C 97.773438 78.34375 98.097656 78.667969 98.496094 78.667969 C 98.894531 78.667969 99.21875 78.34375 99.21875 77.945312 L 99.21875 75.527344 C 99.21875 74.726562 99.015625 74.113281 98.605469 73.703125 C 98.203125 73.3125 97.644531 73.097656 96.953125 73.097656 Z M 96.953125 73.097656 " fill-opacity="1" fill-rule="nonzero"/><path fill="#ffffff" d="M 104.152344 75.589844 C 103.871094 75.503906 103.515625 75.429688 103.09375 75.363281 C 102.671875 75.289062 102.371094 75.210938 102.175781 75.136719 C 102.015625 75.070312 101.941406 74.964844 101.941406 74.8125 C 101.941406 74.671875 102.015625 74.566406 102.167969 74.46875 C 102.339844 74.371094 102.597656 74.316406 102.945312 74.316406 C 103.320312 74.316406 103.675781 74.382812 104 74.5 C 104.078125 74.53125 104.152344 74.542969 104.226562 74.542969 C 104.464844 74.542969 104.679688 74.414062 104.789062 74.199219 C 104.875 74.035156 104.875 73.839844 104.8125 73.667969 C 104.734375 73.496094 104.59375 73.367188 104.421875 73.3125 C 104.316406 73.28125 104.195312 73.246094 104.078125 73.214844 C 103.699219 73.128906 103.332031 73.085938 102.964844 73.085938 C 102.230469 73.085938 101.636719 73.246094 101.195312 73.5625 C 100.742188 73.882812 100.515625 74.316406 100.515625 74.855469 C 100.515625 75.265625 100.621094 75.589844 100.847656 75.828125 C 101.066406 76.054688 101.3125 76.214844 101.617188 76.3125 C 101.894531 76.398438 102.261719 76.476562 102.695312 76.539062 C 103.105469 76.605469 103.40625 76.667969 103.582031 76.746094 C 103.730469 76.800781 103.796875 76.898438 103.796875 77.035156 C 103.796875 77.15625 103.796875 77.523438 102.792969 77.523438 C 102.480469 77.523438 102.15625 77.480469 101.832031 77.382812 C 101.691406 77.339844 101.550781 77.296875 101.421875 77.242188 C 101.347656 77.210938 101.257812 77.1875 101.171875 77.1875 C 100.9375 77.1875 100.71875 77.316406 100.613281 77.535156 L 100.613281 77.542969 C 100.535156 77.707031 100.527344 77.890625 100.578125 78.050781 C 100.644531 78.214844 100.761719 78.34375 100.925781 78.40625 C 101.074219 78.472656 101.238281 78.527344 101.421875 78.570312 C 101.84375 78.6875 102.273438 78.742188 102.71875 78.742188 C 103.484375 78.742188 104.085938 78.582031 104.542969 78.277344 C 105.003906 77.964844 105.230469 77.535156 105.230469 76.992188 C 105.230469 76.59375 105.125 76.269531 104.910156 76.042969 C 104.691406 75.839844 104.445312 75.6875 104.152344 75.589844 Z M 104.152344 75.589844 " fill-opacity="1" fill-rule="nonzero"/><g clip-path="url(#a3f42eaf9c)"><path fill="#ffffff" d="M 256.671875 76.625 L 231.296875 33.519531 C 231.207031 33.371094 231.109375 33.222656 231 33.085938 C 230.894531 32.949219 230.777344 32.816406 230.652344 32.695312 C 230.527344 32.570312 230.394531 32.457031 230.257812 32.351562 C 230.117188 32.246094 229.972656 32.148438 229.820312 32.0625 C 229.667969 31.972656 229.507812 31.898438 229.347656 31.832031 C 229.183594 31.765625 229.019531 31.707031 228.851562 31.664062 C 228.679688 31.617188 228.507812 31.585938 228.335938 31.5625 C 228.160156 31.539062 227.988281 31.527344 227.8125 31.527344 C 227.636719 31.527344 227.460938 31.539062 227.289062 31.5625 C 227.113281 31.585938 226.941406 31.617188 226.773438 31.664062 C 226.605469 31.707031 226.4375 31.765625 226.277344 31.832031 C 226.113281 31.898438 225.957031 31.972656 225.804688 32.0625 C 225.652344 32.148438 225.507812 32.246094 225.367188 32.351562 C 225.226562 32.457031 225.097656 32.570312 224.972656 32.695312 C 224.847656 32.816406 224.730469 32.949219 224.621094 33.085938 C 224.515625 33.222656 224.417969 33.371094 224.328125 33.519531 L 198.953125 76.625 C 198.585938 77.25 198.398438 77.921875 198.394531 78.648438 C 198.390625 79.375 198.566406 80.050781 198.925781 80.683594 C 199.285156 81.3125 199.78125 81.808594 200.40625 82.171875 C 201.035156 82.535156 201.710938 82.71875 202.4375 82.71875 L 253.1875 82.71875 C 256.316406 82.71875 258.257812 79.316406 256.671875 76.625 Z M 203.222656 78.382812 L 227.503906 37.789062 L 251.785156 78.382812 Z M 203.222656 78.382812 " fill-opacity="1" fill-rule="nonzero"/></g><path fill="#ffffff" d="M 224.519531 72.511719 C 224.519531 70.691406 225.785156 69.378906 227.503906 69.378906 C 229.324219 69.378906 230.484375 70.691406 230.484375 72.511719 C 230.484375 74.28125 229.324219 75.644531 227.503906 75.644531 C 225.734375 75.644531 224.519531 74.28125 224.519531 72.511719 Z M 225.800781 66.902344 L 224.570312 49.785156 C 224.507812 48.933594 225.847656 48.234375 227.503906 48.234375 C 229.160156 48.234375 230.503906 48.933594 230.441406 49.785156 L 229.207031 66.902344 C 229.164062 67.480469 228.417969 67.941406 227.503906 67.941406 C 226.589844 67.941406 225.839844 67.480469 225.800781 66.902344 Z M 225.800781 66.902344 " fill-opacity="1" fill-rule="nonzero"/><g clip-path="url(#f883ed3ef5)"><path fill="#820ad1" d="M 16.40625 7.570312 C 18.699219 5.144531 21.742188 3.730469 25.3125 3.730469 C 32.273438 3.730469 36.886719 8.84375 37.769531 16.507812 C 38.054688 18.996094 38.054688 22.503906 38.050781 26.566406 C 38.050781 26.984375 38.050781 27.40625 38.050781 27.835938 L 38.050781 43.054688 L 28.480469 43.054688 L 28.480469 31.796875 C 28.480469 31.796875 28.460938 22.160156 28.402344 20.359375 C 28.144531 12.515625 23.53125 7.589844 16.40625 7.582031 C 14.257812 9.871094 13.105469 12.664062 12.933594 16.9375 C 12.910156 17.535156 12.917969 19.648438 12.925781 22.433594 C 12.929688 23.875 12.933594 25.5 12.933594 27.183594 C 12.941406 34.523438 12.933594 43.058594 12.933594 43.058594 L 3.363281 43.058594 L 3.363281 25.730469 C 3.363281 25.136719 3.351562 24.539062 3.34375 23.9375 C 3.320312 22.726562 3.296875 21.507812 3.363281 20.304688 C 3.472656 18.292969 3.816406 16.3125 4.75 14.476562 C 6.882812 10.269531 11.257812 7.558594 15.917969 7.558594 C 16.082031 7.558594 16.246094 7.5625 16.40625 7.570312 Z M 16.40625 7.570312 " fill-opacity="1" fill-rule="nonzero"/></g><g clip-path="url(#9df6eea229)"><path fill="#820ad1" d="M 75.773438 27.417969 C 75.835938 26.210938 75.816406 24.992188 75.792969 23.78125 C 75.785156 23.183594 75.773438 22.582031 75.773438 21.988281 L 75.773438 4.660156 L 66.203125 4.660156 C 66.203125 4.660156 66.195312 13.195312 66.203125 20.535156 C 66.203125 22.222656 66.207031 23.84375 66.210938 25.289062 C 66.21875 28.074219 66.226562 30.183594 66.203125 30.78125 C 66.03125 35.054688 64.878906 37.851562 62.730469 40.136719 C 55.605469 40.132812 50.992188 35.203125 50.734375 27.359375 C 50.675781 25.558594 50.652344 21.089844 50.652344 15.914062 L 50.652344 4.65625 L 41.089844 4.664062 L 41.089844 19.886719 C 41.089844 20.3125 41.085938 20.734375 41.085938 21.152344 C 41.085938 25.214844 41.082031 28.722656 41.367188 31.210938 C 42.25 38.875 46.863281 43.988281 53.824219 43.988281 C 57.394531 43.988281 60.4375 42.574219 62.730469 40.148438 C 62.890625 40.15625 63.054688 40.160156 63.214844 40.160156 C 67.878906 40.160156 72.253906 37.449219 74.386719 33.242188 C 75.320312 31.40625 75.664062 29.429688 75.773438 27.417969 Z M 75.773438 27.417969 " fill-opacity="1" fill-rule="nonzero"/></g><g fill="#ffffff" fill-opacity="1"><g transform="translate(117.282191, 19.805506)"><g><path d="M 8.796875 0 L 3.375 -9.59375 C 3.476562 -8.664062 3.53125 -7.914062 3.53125 -7.34375 L 3.53125 0 L 1.21875 0 L 1.21875 -12.453125 L 4.1875 -12.453125 L 9.703125 -2.78125 C 9.597656 -3.675781 9.546875 -4.488281 9.546875 -5.21875 L 9.546875 -12.453125 L 11.859375 -12.453125 L 11.859375 0 Z M 8.796875 0 "/></g></g></g><g fill="#ffffff" fill-opacity="1"><g transform="translate(130.362268, 19.805506)"><g><path d="M 6.390625 0.171875 C 4.671875 0.171875 3.359375 -0.242188 2.453125 -1.078125 C 1.546875 -1.910156 1.09375 -3.109375 1.09375 -4.671875 L 1.09375 -12.453125 L 3.703125 -12.453125 L 3.703125 -4.875 C 3.703125 -3.882812 3.9375 -3.132812 4.40625 -2.625 C 4.875 -2.113281 5.5625 -1.859375 6.46875 -1.859375 C 7.394531 -1.859375 8.109375 -2.125 8.609375 -2.65625 C 9.109375 -3.195312 9.359375 -3.960938 9.359375 -4.953125 L 9.359375 -12.453125 L 11.96875 -12.453125 L 11.96875 -4.796875 C 11.96875 -3.222656 11.476562 -2 10.5 -1.125 C 9.53125 -0.257812 8.160156 0.171875 6.390625 0.171875 Z M 6.390625 0.171875 "/></g></g></g><g fill="#ffffff" fill-opacity="1"><g transform="translate(143.442345, 19.805506)"><g><path d="M 12.25 -3.546875 C 12.25 -2.421875 11.820312 -1.546875 10.96875 -0.921875 C 10.125 -0.304688 8.953125 0 7.453125 0 L 1.21875 0 L 1.21875 -12.453125 L 6.921875 -12.453125 C 8.441406 -12.453125 9.59375 -12.1875 10.375 -11.65625 C 11.15625 -11.132812 11.546875 -10.359375 11.546875 -9.328125 C 11.546875 -8.617188 11.347656 -8.019531 10.953125 -7.53125 C 10.554688 -7.050781 9.957031 -6.722656 9.15625 -6.546875 C 10.164062 -6.429688 10.929688 -6.113281 11.453125 -5.59375 C 11.984375 -5.082031 12.25 -4.398438 12.25 -3.546875 Z M 8.90625 -8.96875 C 8.90625 -9.53125 8.726562 -9.925781 8.375 -10.15625 C 8.019531 -10.394531 7.492188 -10.515625 6.796875 -10.515625 L 3.8125 -10.515625 L 3.8125 -7.4375 L 6.8125 -7.4375 C 7.539062 -7.4375 8.070312 -7.5625 8.40625 -7.8125 C 8.738281 -8.070312 8.90625 -8.457031 8.90625 -8.96875 Z M 9.640625 -3.765625 C 9.640625 -4.929688 8.800781 -5.515625 7.125 -5.515625 L 3.8125 -5.515625 L 3.8125 -1.9375 L 7.21875 -1.9375 C 8.0625 -1.9375 8.675781 -2.085938 9.0625 -2.390625 C 9.445312 -2.691406 9.640625 -3.148438 9.640625 -3.765625 Z M 9.640625 -3.765625 "/></g></g></g><g fill="#ffffff" fill-opacity="1"><g transform="translate(156.522422, 19.805506)"><g><path d="M 10.015625 0 L 8.90625 -3.1875 L 4.171875 -3.1875 L 3.0625 0 L 0.453125 0 L 5 -12.453125 L 8.078125 -12.453125 L 12.59375 0 Z M 6.53125 -10.546875 L 6.484375 -10.34375 C 6.421875 -10.132812 6.347656 -9.894531 6.265625 -9.625 C 6.179688 -9.351562 5.675781 -7.859375 4.75 -5.140625 L 8.328125 -5.140625 L 7.09375 -8.734375 L 6.71875 -9.9375 Z M 6.53125 -10.546875 "/></g></g></g><g fill="#ffffff" fill-opacity="1"><g transform="translate(169.602498, 19.805506)"><g><path d="M 8.796875 0 L 3.375 -9.59375 C 3.476562 -8.664062 3.53125 -7.914062 3.53125 -7.34375 L 3.53125 0 L 1.21875 0 L 1.21875 -12.453125 L 4.1875 -12.453125 L 9.703125 -2.78125 C 9.597656 -3.675781 9.546875 -4.488281 9.546875 -5.21875 L 9.546875 -12.453125 L 11.859375 -12.453125 L 11.859375 0 Z M 8.796875 0 "/></g></g></g><g fill="#ffffff" fill-opacity="1"><g transform="translate(182.682575, 19.805506)"><g><path d="M 9.828125 0 L 5.359375 -5.71875 L 3.8125 -4.546875 L 3.8125 0 L 1.21875 0 L 1.21875 -12.453125 L 3.8125 -12.453125 L 3.8125 -6.8125 L 9.4375 -12.453125 L 12.484375 -12.453125 L 7.15625 -7.1875 L 12.90625 0 Z M 9.828125 0 "/></g></g></g><g fill="#ffffff" fill-opacity="1"><g transform="translate(74.661813, 96.74788)"><g><path d="M 0.75 0 L 0.75 -7.765625 L 2.390625 -7.765625 L 2.390625 -1.25 L 6.546875 -1.25 L 6.546875 0 Z M 0.75 0 "/></g></g></g><g fill="#ffffff" fill-opacity="1"><g transform="translate(81.559672, 96.74788)"><g><path d="M 2.171875 0.109375 C 1.585938 0.109375 1.132812 -0.046875 0.8125 -0.359375 C 0.488281 -0.671875 0.328125 -1.113281 0.328125 -1.6875 C 0.328125 -2.300781 0.523438 -2.769531 0.921875 -3.09375 C 1.328125 -3.414062 1.914062 -3.582031 2.6875 -3.59375 L 3.96875 -3.625 L 3.96875 -3.921875 C 3.96875 -4.304688 3.898438 -4.59375 3.765625 -4.78125 C 3.628906 -4.976562 3.40625 -5.078125 3.09375 -5.078125 C 2.8125 -5.078125 2.601562 -5.007812 2.46875 -4.875 C 2.332031 -4.75 2.25 -4.535156 2.21875 -4.234375 L 0.59375 -4.3125 C 0.695312 -4.882812 0.960938 -5.320312 1.390625 -5.625 C 1.828125 -5.925781 2.421875 -6.078125 3.171875 -6.078125 C 3.921875 -6.078125 4.5 -5.890625 4.90625 -5.515625 C 5.3125 -5.148438 5.515625 -4.625 5.515625 -3.9375 L 5.515625 -1.765625 C 5.515625 -1.429688 5.550781 -1.195312 5.625 -1.0625 C 5.707031 -0.9375 5.835938 -0.875 6.015625 -0.875 C 6.128906 -0.875 6.242188 -0.890625 6.359375 -0.921875 L 6.359375 -0.078125 C 6.265625 -0.0546875 6.179688 -0.0351562 6.109375 -0.015625 C 6.035156 0.00390625 5.960938 0.0195312 5.890625 0.03125 C 5.816406 0.0390625 5.738281 0.046875 5.65625 0.046875 C 5.570312 0.0546875 5.472656 0.0625 5.359375 0.0625 C 4.972656 0.0625 4.6875 -0.03125 4.5 -0.21875 C 4.3125 -0.40625 4.203125 -0.6875 4.171875 -1.0625 L 4.125 -1.0625 C 3.695312 -0.28125 3.046875 0.109375 2.171875 0.109375 Z M 3.96875 -2.765625 L 3.171875 -2.75 C 2.816406 -2.738281 2.5625 -2.695312 2.40625 -2.625 C 2.257812 -2.5625 2.144531 -2.460938 2.0625 -2.328125 C 1.988281 -2.203125 1.953125 -2.03125 1.953125 -1.8125 C 1.953125 -1.53125 2.015625 -1.316406 2.140625 -1.171875 C 2.273438 -1.035156 2.453125 -0.96875 2.671875 -0.96875 C 2.910156 -0.96875 3.128906 -1.035156 3.328125 -1.171875 C 3.523438 -1.304688 3.679688 -1.488281 3.796875 -1.71875 C 3.910156 -1.945312 3.96875 -2.191406 3.96875 -2.453125 Z M 3.96875 -2.765625 "/></g></g></g><g fill="#ffffff" fill-opacity="1"><g transform="translate(87.839977, 96.74788)"><g><path d="M 2.3125 0.09375 C 1.851562 0.09375 1.5 -0.0234375 1.25 -0.265625 C 1.007812 -0.515625 0.890625 -0.894531 0.890625 -1.40625 L 0.890625 -4.921875 L 0.140625 -4.921875 L 0.140625 -5.96875 L 0.96875 -5.96875 L 1.453125 -7.375 L 2.421875 -7.375 L 2.421875 -5.96875 L 3.5625 -5.96875 L 3.5625 -4.921875 L 2.421875 -4.921875 L 2.421875 -1.8125 C 2.421875 -1.53125 2.476562 -1.316406 2.59375 -1.171875 C 2.707031 -1.035156 2.878906 -0.96875 3.109375 -0.96875 C 3.222656 -0.96875 3.394531 -0.992188 3.625 -1.046875 L 3.625 -0.09375 C 3.238281 0.03125 2.800781 0.09375 2.3125 0.09375 Z M 2.3125 0.09375 "/></g></g></g><g fill="#ffffff" fill-opacity="1"><g transform="translate(91.600437, 96.74788)"><g><path d="M 3.234375 0.109375 C 2.335938 0.109375 1.644531 -0.15625 1.15625 -0.6875 C 0.675781 -1.21875 0.4375 -1.992188 0.4375 -3.015625 C 0.4375 -3.992188 0.679688 -4.75 1.171875 -5.28125 C 1.660156 -5.8125 2.351562 -6.078125 3.25 -6.078125 C 4.113281 -6.078125 4.769531 -5.789062 5.21875 -5.21875 C 5.664062 -4.65625 5.890625 -3.828125 5.890625 -2.734375 L 5.890625 -2.6875 L 2.0625 -2.6875 C 2.0625 -2.101562 2.171875 -1.660156 2.390625 -1.359375 C 2.609375 -1.066406 2.914062 -0.921875 3.3125 -0.921875 C 3.851562 -0.921875 4.195312 -1.160156 4.34375 -1.640625 L 5.8125 -1.515625 C 5.382812 -0.429688 4.523438 0.109375 3.234375 0.109375 Z M 3.234375 -5.109375 C 2.867188 -5.109375 2.585938 -4.976562 2.390625 -4.71875 C 2.191406 -4.46875 2.085938 -4.113281 2.078125 -3.65625 L 4.390625 -3.65625 C 4.367188 -4.132812 4.253906 -4.492188 4.046875 -4.734375 C 3.847656 -4.984375 3.578125 -5.109375 3.234375 -5.109375 Z M 5.296875 -6.6875 L 5.296875 -6.53125 L 4.421875 -6.53125 L 3.296875 -7.578125 L 3.28125 -7.578125 L 2.109375 -6.53125 L 1.234375 -6.53125 L 1.234375 -6.6875 L 2.65625 -8.4375 L 3.921875 -8.4375 Z M 5.296875 -6.6875 "/></g></g></g><g fill="#ffffff" fill-opacity="1"><g transform="translate(97.880741, 96.74788)"><g><path d="M 4.65625 0 L 4.65625 -3.34375 C 4.65625 -4.394531 4.300781 -4.921875 3.59375 -4.921875 C 3.21875 -4.921875 2.914062 -4.757812 2.6875 -4.4375 C 2.457031 -4.113281 2.34375 -3.703125 2.34375 -3.203125 L 2.34375 0 L 0.78125 0 L 0.78125 -4.640625 C 0.78125 -4.953125 0.773438 -5.207031 0.765625 -5.40625 C 0.765625 -5.613281 0.757812 -5.800781 0.75 -5.96875 L 2.21875 -5.96875 C 2.226562 -5.894531 2.242188 -5.707031 2.265625 -5.40625 C 2.285156 -5.101562 2.296875 -4.894531 2.296875 -4.78125 L 2.3125 -4.78125 C 2.519531 -5.238281 2.78125 -5.566406 3.09375 -5.765625 C 3.414062 -5.972656 3.796875 -6.078125 4.234375 -6.078125 C 4.867188 -6.078125 5.351562 -5.882812 5.6875 -5.5 C 6.03125 -5.113281 6.203125 -4.546875 6.203125 -3.796875 L 6.203125 0 Z M 4.65625 0 "/></g></g></g><g fill="#ffffff" fill-opacity="1"><g transform="translate(104.7786, 96.74788)"><g><path d="M 3.28125 0.109375 C 2.375 0.109375 1.671875 -0.15625 1.171875 -0.6875 C 0.679688 -1.226562 0.4375 -1.984375 0.4375 -2.953125 C 0.4375 -3.929688 0.6875 -4.695312 1.1875 -5.25 C 1.6875 -5.800781 2.390625 -6.078125 3.296875 -6.078125 C 4.003906 -6.078125 4.585938 -5.898438 5.046875 -5.546875 C 5.503906 -5.191406 5.789062 -4.707031 5.90625 -4.09375 L 4.34375 -4.015625 C 4.300781 -4.316406 4.191406 -4.554688 4.015625 -4.734375 C 3.835938 -4.921875 3.585938 -5.015625 3.265625 -5.015625 C 2.460938 -5.015625 2.0625 -4.347656 2.0625 -3.015625 C 2.0625 -1.640625 2.46875 -0.953125 3.28125 -0.953125 C 3.582031 -0.953125 3.832031 -1.039062 4.03125 -1.21875 C 4.226562 -1.40625 4.347656 -1.6875 4.390625 -2.0625 L 5.953125 -1.984375 C 5.898438 -1.578125 5.753906 -1.210938 5.515625 -0.890625 C 5.273438 -0.566406 4.960938 -0.316406 4.578125 -0.140625 C 4.191406 0.0234375 3.757812 0.109375 3.28125 0.109375 Z M 3.28125 0.109375 "/></g></g></g><g fill="#ffffff" fill-opacity="1"><g transform="translate(111.058905, 96.74788)"><g><path d="M 0.78125 -7.046875 L 0.78125 -8.1875 L 2.34375 -8.1875 L 2.34375 -7.046875 Z M 0.78125 0 L 0.78125 -5.96875 L 2.34375 -5.96875 L 2.34375 0 Z M 0.78125 0 "/></g></g></g><g fill="#ffffff" fill-opacity="1"><g transform="translate(114.196303, 96.74788)"><g><path d="M 2.171875 0.109375 C 1.585938 0.109375 1.132812 -0.046875 0.8125 -0.359375 C 0.488281 -0.671875 0.328125 -1.113281 0.328125 -1.6875 C 0.328125 -2.300781 0.523438 -2.769531 0.921875 -3.09375 C 1.328125 -3.414062 1.914062 -3.582031 2.6875 -3.59375 L 3.96875 -3.625 L 3.96875 -3.921875 C 3.96875 -4.304688 3.898438 -4.59375 3.765625 -4.78125 C 3.628906 -4.976562 3.40625 -5.078125 3.09375 -5.078125 C 2.8125 -5.078125 2.601562 -5.007812 2.46875 -4.875 C 2.332031 -4.75 2.25 -4.535156 2.21875 -4.234375 L 0.59375 -4.3125 C 0.695312 -4.882812 0.960938 -5.320312 1.390625 -5.625 C 1.828125 -5.925781 2.421875 -6.078125 3.171875 -6.078125 C 3.921875 -6.078125 4.5 -5.890625 4.90625 -5.515625 C 5.3125 -5.148438 5.515625 -4.625 5.515625 -3.9375 L 5.515625 -1.765625 C 5.515625 -1.429688 5.550781 -1.195312 5.625 -1.0625 C 5.707031 -0.9375 5.835938 -0.875 6.015625 -0.875 C 6.128906 -0.875 6.242188 -0.890625 6.359375 -0.921875 L 6.359375 -0.078125 C 6.265625 -0.0546875 6.179688 -0.0351562 6.109375 -0.015625 C 6.035156 0.00390625 5.960938 0.0195312 5.890625 0.03125 C 5.816406 0.0390625 5.738281 0.046875 5.65625 0.046875 C 5.570312 0.0546875 5.472656 0.0625 5.359375 0.0625 C 4.972656 0.0625 4.6875 -0.03125 4.5 -0.21875 C 4.3125 -0.40625 4.203125 -0.6875 4.171875 -1.0625 L 4.125 -1.0625 C 3.695312 -0.28125 3.046875 0.109375 2.171875 0.109375 Z M 3.96875 -2.765625 L 3.171875 -2.75 C 2.816406 -2.738281 2.5625 -2.695312 2.40625 -2.625 C 2.257812 -2.5625 2.144531 -2.460938 2.0625 -2.328125 C 1.988281 -2.203125 1.953125 -2.03125 1.953125 -1.8125 C 1.953125 -1.53125 2.015625 -1.316406 2.140625 -1.171875 C 2.273438 -1.035156 2.453125 -0.96875 2.671875 -0.96875 C 2.910156 -0.96875 3.128906 -1.035156 3.328125 -1.171875 C 3.523438 -1.304688 3.679688 -1.488281 3.796875 -1.71875 C 3.910156 -1.945312 3.96875 -2.191406 3.96875 -2.453125 Z M 3.96875 -2.765625 "/></g></g></g><g fill="#ffffff" fill-opacity="1"><g transform="translate(179.844714, 95.586401)"><g><path d="M 7.15625 -5.3125 C 7.15625 -4.8125 7.039062 -4.363281 6.8125 -3.96875 C 6.582031 -3.570312 6.253906 -3.265625 5.828125 -3.046875 C 5.398438 -2.835938 4.894531 -2.734375 4.3125 -2.734375 L 2.390625 -2.734375 L 2.390625 0 L 0.75 0 L 0.75 -7.765625 L 4.25 -7.765625 C 5.175781 -7.765625 5.890625 -7.550781 6.390625 -7.125 C 6.898438 -6.695312 7.15625 -6.09375 7.15625 -5.3125 Z M 5.515625 -5.28125 C 5.515625 -6.101562 5.03125 -6.515625 4.0625 -6.515625 L 2.390625 -6.515625 L 2.390625 -3.984375 L 4.109375 -3.984375 C 4.554688 -3.984375 4.898438 -4.09375 5.140625 -4.3125 C 5.390625 -4.539062 5.515625 -4.863281 5.515625 -5.28125 Z M 5.515625 -5.28125 "/></g></g></g><g fill="#ffffff" fill-opacity="1"><g transform="translate(187.376662, 95.586401)"><g><path d="M 3.234375 0.109375 C 2.335938 0.109375 1.644531 -0.15625 1.15625 -0.6875 C 0.675781 -1.21875 0.4375 -1.992188 0.4375 -3.015625 C 0.4375 -3.992188 0.679688 -4.75 1.171875 -5.28125 C 1.660156 -5.8125 2.351562 -6.078125 3.25 -6.078125 C 4.113281 -6.078125 4.769531 -5.789062 5.21875 -5.21875 C 5.664062 -4.65625 5.890625 -3.828125 5.890625 -2.734375 L 5.890625 -2.6875 L 2.0625 -2.6875 C 2.0625 -2.101562 2.171875 -1.660156 2.390625 -1.359375 C 2.609375 -1.066406 2.914062 -0.921875 3.3125 -0.921875 C 3.851562 -0.921875 4.195312 -1.160156 4.34375 -1.640625 L 5.8125 -1.515625 C 5.382812 -0.429688 4.523438 0.109375 3.234375 0.109375 Z M 3.234375 -5.109375 C 2.867188 -5.109375 2.585938 -4.976562 2.390625 -4.71875 C 2.191406 -4.46875 2.085938 -4.113281 2.078125 -3.65625 L 4.390625 -3.65625 C 4.367188 -4.132812 4.253906 -4.492188 4.046875 -4.734375 C 3.847656 -4.984375 3.578125 -5.109375 3.234375 -5.109375 Z M 3.234375 -5.109375 "/></g></g></g><g fill="#ffffff" fill-opacity="1"><g transform="translate(193.656967, 95.586401)"><g><path d="M 0.78125 0 L 0.78125 -4.5625 C 0.78125 -4.894531 0.773438 -5.171875 0.765625 -5.390625 C 0.765625 -5.609375 0.757812 -5.800781 0.75 -5.96875 L 2.21875 -5.96875 C 2.226562 -5.90625 2.242188 -5.703125 2.265625 -5.359375 C 2.285156 -5.023438 2.296875 -4.800781 2.296875 -4.6875 L 2.3125 -4.6875 C 2.46875 -5.113281 2.601562 -5.410156 2.71875 -5.578125 C 2.832031 -5.753906 2.96875 -5.878906 3.125 -5.953125 C 3.289062 -6.035156 3.5 -6.078125 3.75 -6.078125 C 3.945312 -6.078125 4.101562 -6.050781 4.21875 -6 L 4.21875 -4.703125 C 3.96875 -4.753906 3.75 -4.78125 3.5625 -4.78125 C 3.175781 -4.78125 2.875 -4.625 2.65625 -4.3125 C 2.445312 -4 2.34375 -3.535156 2.34375 -2.921875 L 2.34375 0 Z M 0.78125 0 "/></g></g></g><g fill="#ffffff" fill-opacity="1"><g transform="translate(198.051528, 95.586401)"><g><path d="M 3.28125 0.109375 C 2.375 0.109375 1.671875 -0.15625 1.171875 -0.6875 C 0.679688 -1.226562 0.4375 -1.984375 0.4375 -2.953125 C 0.4375 -3.929688 0.6875 -4.695312 1.1875 -5.25 C 1.6875 -5.800781 2.390625 -6.078125 3.296875 -6.078125 C 4.003906 -6.078125 4.585938 -5.898438 5.046875 -5.546875 C 5.503906 -5.191406 5.789062 -4.707031 5.90625 -4.09375 L 4.34375 -4.015625 C 4.300781 -4.316406 4.191406 -4.554688 4.015625 -4.734375 C 3.835938 -4.921875 3.585938 -5.015625 3.265625 -5.015625 C 2.460938 -5.015625 2.0625 -4.347656 2.0625 -3.015625 C 2.0625 -1.640625 2.46875 -0.953125 3.28125 -0.953125 C 3.582031 -0.953125 3.832031 -1.039062 4.03125 -1.21875 C 4.226562 -1.40625 4.347656 -1.6875 4.390625 -2.0625 L 5.953125 -1.984375 C 5.898438 -1.578125 5.753906 -1.210938 5.515625 -0.890625 C 5.273438 -0.566406 4.960938 -0.316406 4.578125 -0.140625 C 4.191406 0.0234375 3.757812 0.109375 3.28125 0.109375 Z M 3.28125 0.109375 "/></g></g></g><g fill="#ffffff" fill-opacity="1"><g transform="translate(204.331832, 95.586401)"><g><path d="M 2.171875 0.109375 C 1.585938 0.109375 1.132812 -0.046875 0.8125 -0.359375 C 0.488281 -0.671875 0.328125 -1.113281 0.328125 -1.6875 C 0.328125 -2.300781 0.523438 -2.769531 0.921875 -3.09375 C 1.328125 -3.414062 1.914062 -3.582031 2.6875 -3.59375 L 3.96875 -3.625 L 3.96875 -3.921875 C 3.96875 -4.304688 3.898438 -4.59375 3.765625 -4.78125 C 3.628906 -4.976562 3.40625 -5.078125 3.09375 -5.078125 C 2.8125 -5.078125 2.601562 -5.007812 2.46875 -4.875 C 2.332031 -4.75 2.25 -4.535156 2.21875 -4.234375 L 0.59375 -4.3125 C 0.695312 -4.882812 0.960938 -5.320312 1.390625 -5.625 C 1.828125 -5.925781 2.421875 -6.078125 3.171875 -6.078125 C 3.921875 -6.078125 4.5 -5.890625 4.90625 -5.515625 C 5.3125 -5.148438 5.515625 -4.625 5.515625 -3.9375 L 5.515625 -1.765625 C 5.515625 -1.429688 5.550781 -1.195312 5.625 -1.0625 C 5.707031 -0.9375 5.835938 -0.875 6.015625 -0.875 C 6.128906 -0.875 6.242188 -0.890625 6.359375 -0.921875 L 6.359375 -0.078125 C 6.265625 -0.0546875 6.179688 -0.0351562 6.109375 -0.015625 C 6.035156 0.00390625 5.960938 0.0195312 5.890625 0.03125 C 5.816406 0.0390625 5.738281 0.046875 5.65625 0.046875 C 5.570312 0.0546875 5.472656 0.0625 5.359375 0.0625 C 4.972656 0.0625 4.6875 -0.03125 4.5 -0.21875 C 4.3125 -0.40625 4.203125 -0.6875 4.171875 -1.0625 L 4.125 -1.0625 C 3.695312 -0.28125 3.046875 0.109375 2.171875 0.109375 Z M 3.96875 -2.765625 L 3.171875 -2.75 C 2.816406 -2.738281 2.5625 -2.695312 2.40625 -2.625 C 2.257812 -2.5625 2.144531 -2.460938 2.0625 -2.328125 C 1.988281 -2.203125 1.953125 -2.03125 1.953125 -1.8125 C 1.953125 -1.53125 2.015625 -1.316406 2.140625 -1.171875 C 2.273438 -1.035156 2.453125 -0.96875 2.671875 -0.96875 C 2.910156 -0.96875 3.128906 -1.035156 3.328125 -1.171875 C 3.523438 -1.304688 3.679688 -1.488281 3.796875 -1.71875 C 3.910156 -1.945312 3.96875 -2.191406 3.96875 -2.453125 Z M 3.96875 -2.765625 "/></g></g></g><g fill="#ffffff" fill-opacity="1"><g transform="translate(210.612137, 95.586401)"><g/></g></g><g fill="#ffffff" fill-opacity="1"><g transform="translate(213.749536, 95.586401)"><g><path d="M 4.65625 0 C 4.644531 -0.0507812 4.628906 -0.1875 4.609375 -0.40625 C 4.585938 -0.632812 4.578125 -0.820312 4.578125 -0.96875 L 4.546875 -0.96875 C 4.210938 -0.25 3.578125 0.109375 2.640625 0.109375 C 1.941406 0.109375 1.40625 -0.160156 1.03125 -0.703125 C 0.65625 -1.242188 0.46875 -2.003906 0.46875 -2.984375 C 0.46875 -3.972656 0.664062 -4.734375 1.0625 -5.265625 C 1.457031 -5.804688 2.023438 -6.078125 2.765625 -6.078125 C 3.179688 -6.078125 3.539062 -5.988281 3.84375 -5.8125 C 4.15625 -5.632812 4.394531 -5.375 4.5625 -5.03125 L 4.578125 -5.03125 L 4.5625 -6 L 4.5625 -8.1875 L 6.109375 -8.1875 L 6.109375 -1.296875 C 6.109375 -0.929688 6.125 -0.5 6.15625 0 Z M 4.578125 -3.015625 C 4.578125 -3.660156 4.46875 -4.15625 4.25 -4.5 C 4.039062 -4.851562 3.726562 -5.03125 3.3125 -5.03125 C 2.894531 -5.03125 2.582031 -4.859375 2.375 -4.515625 C 2.175781 -4.179688 2.078125 -3.671875 2.078125 -2.984375 C 2.078125 -1.628906 2.484375 -0.953125 3.296875 -0.953125 C 3.703125 -0.953125 4.015625 -1.128906 4.234375 -1.484375 C 4.460938 -1.847656 4.578125 -2.359375 4.578125 -3.015625 Z M 4.578125 -3.015625 "/></g></g></g><g fill="#ffffff" fill-opacity="1"><g transform="translate(220.647394, 95.586401)"><g><path d="M 3.234375 0.109375 C 2.335938 0.109375 1.644531 -0.15625 1.15625 -0.6875 C 0.675781 -1.21875 0.4375 -1.992188 0.4375 -3.015625 C 0.4375 -3.992188 0.679688 -4.75 1.171875 -5.28125 C 1.660156 -5.8125 2.351562 -6.078125 3.25 -6.078125 C 4.113281 -6.078125 4.769531 -5.789062 5.21875 -5.21875 C 5.664062 -4.65625 5.890625 -3.828125 5.890625 -2.734375 L 5.890625 -2.6875 L 2.0625 -2.6875 C 2.0625 -2.101562 2.171875 -1.660156 2.390625 -1.359375 C 2.609375 -1.066406 2.914062 -0.921875 3.3125 -0.921875 C 3.851562 -0.921875 4.195312 -1.160156 4.34375 -1.640625 L 5.8125 -1.515625 C 5.382812 -0.429688 4.523438 0.109375 3.234375 0.109375 Z M 3.234375 -5.109375 C 2.867188 -5.109375 2.585938 -4.976562 2.390625 -4.71875 C 2.191406 -4.46875 2.085938 -4.113281 2.078125 -3.65625 L 4.390625 -3.65625 C 4.367188 -4.132812 4.253906 -4.492188 4.046875 -4.734375 C 3.847656 -4.984375 3.578125 -5.109375 3.234375 -5.109375 Z M 3.234375 -5.109375 "/></g></g></g><g fill="#ffffff" fill-opacity="1"><g transform="translate(226.927699, 95.586401)"><g/></g></g><g fill="#ffffff" fill-opacity="1"><g transform="translate(230.065097, 95.586401)"><g><path d="M 7.15625 -5.3125 C 7.15625 -4.8125 7.039062 -4.363281 6.8125 -3.96875 C 6.582031 -3.570312 6.253906 -3.265625 5.828125 -3.046875 C 5.398438 -2.835938 4.894531 -2.734375 4.3125 -2.734375 L 2.390625 -2.734375 L 2.390625 0 L 0.75 0 L 0.75 -7.765625 L 4.25 -7.765625 C 5.175781 -7.765625 5.890625 -7.550781 6.390625 -7.125 C 6.898438 -6.695312 7.15625 -6.09375 7.15625 -5.3125 Z M 5.515625 -5.28125 C 5.515625 -6.101562 5.03125 -6.515625 4.0625 -6.515625 L 2.390625 -6.515625 L 2.390625 -3.984375 L 4.109375 -3.984375 C 4.554688 -3.984375 4.898438 -4.09375 5.140625 -4.3125 C 5.390625 -4.539062 5.515625 -4.863281 5.515625 -5.28125 Z M 5.515625 -5.28125 "/></g></g></g><g fill="#ffffff" fill-opacity="1"><g transform="translate(237.597045, 95.586401)"><g><path d="M 2.171875 0.109375 C 1.585938 0.109375 1.132812 -0.046875 0.8125 -0.359375 C 0.488281 -0.671875 0.328125 -1.113281 0.328125 -1.6875 C 0.328125 -2.300781 0.523438 -2.769531 0.921875 -3.09375 C 1.328125 -3.414062 1.914062 -3.582031 2.6875 -3.59375 L 3.96875 -3.625 L 3.96875 -3.921875 C 3.96875 -4.304688 3.898438 -4.59375 3.765625 -4.78125 C 3.628906 -4.976562 3.40625 -5.078125 3.09375 -5.078125 C 2.8125 -5.078125 2.601562 -5.007812 2.46875 -4.875 C 2.332031 -4.75 2.25 -4.535156 2.21875 -4.234375 L 0.59375 -4.3125 C 0.695312 -4.882812 0.960938 -5.320312 1.390625 -5.625 C 1.828125 -5.925781 2.421875 -6.078125 3.171875 -6.078125 C 3.921875 -6.078125 4.5 -5.890625 4.90625 -5.515625 C 5.3125 -5.148438 5.515625 -4.625 5.515625 -3.9375 L 5.515625 -1.765625 C 5.515625 -1.429688 5.550781 -1.195312 5.625 -1.0625 C 5.707031 -0.9375 5.835938 -0.875 6.015625 -0.875 C 6.128906 -0.875 6.242188 -0.890625 6.359375 -0.921875 L 6.359375 -0.078125 C 6.265625 -0.0546875 6.179688 -0.0351562 6.109375 -0.015625 C 6.035156 0.00390625 5.960938 0.0195312 5.890625 0.03125 C 5.816406 0.0390625 5.738281 0.046875 5.65625 0.046875 C 5.570312 0.0546875 5.472656 0.0625 5.359375 0.0625 C 4.972656 0.0625 4.6875 -0.03125 4.5 -0.21875 C 4.3125 -0.40625 4.203125 -0.6875 4.171875 -1.0625 L 4.125 -1.0625 C 3.695312 -0.28125 3.046875 0.109375 2.171875 0.109375 Z M 3.96875 -2.765625 L 3.171875 -2.75 C 2.816406 -2.738281 2.5625 -2.695312 2.40625 -2.625 C 2.257812 -2.5625 2.144531 -2.460938 2.0625 -2.328125 C 1.988281 -2.203125 1.953125 -2.03125 1.953125 -1.8125 C 1.953125 -1.53125 2.015625 -1.316406 2.140625 -1.171875 C 2.273438 -1.035156 2.453125 -0.96875 2.671875 -0.96875 C 2.910156 -0.96875 3.128906 -1.035156 3.328125 -1.171875 C 3.523438 -1.304688 3.679688 -1.488281 3.796875 -1.71875 C 3.910156 -1.945312 3.96875 -2.191406 3.96875 -2.453125 Z M 3.96875 -2.765625 "/></g></g></g><g fill="#ffffff" fill-opacity="1"><g transform="translate(243.87735, 95.586401)"><g><path d="M 3.28125 0.109375 C 2.375 0.109375 1.671875 -0.15625 1.171875 -0.6875 C 0.679688 -1.226562 0.4375 -1.984375 0.4375 -2.953125 C 0.4375 -3.929688 0.6875 -4.695312 1.1875 -5.25 C 1.6875 -5.800781 2.390625 -6.078125 3.296875 -6.078125 C 4.003906 -6.078125 4.585938 -5.898438 5.046875 -5.546875 C 5.503906 -5.191406 5.789062 -4.707031 5.90625 -4.09375 L 4.34375 -4.015625 C 4.300781 -4.316406 4.191406 -4.554688 4.015625 -4.734375 C 3.835938 -4.921875 3.585938 -5.015625 3.265625 -5.015625 C 2.460938 -5.015625 2.0625 -4.347656 2.0625 -3.015625 C 2.0625 -1.640625 2.46875 -0.953125 3.28125 -0.953125 C 3.582031 -0.953125 3.832031 -1.039062 4.03125 -1.21875 C 4.226562 -1.40625 4.347656 -1.6875 4.390625 -2.0625 L 5.953125 -1.984375 C 5.898438 -1.578125 5.753906 -1.210938 5.515625 -0.890625 C 5.273438 -0.566406 4.960938 -0.316406 4.578125 -0.140625 C 4.191406 0.0234375 3.757812 0.109375 3.28125 0.109375 Z M 3.28125 0.109375 "/></g></g></g><g fill="#ffffff" fill-opacity="1"><g transform="translate(250.157655, 95.586401)"><g><path d="M 6.453125 -2.984375 C 6.453125 -2.015625 6.179688 -1.253906 5.640625 -0.703125 C 5.109375 -0.160156 4.367188 0.109375 3.421875 0.109375 C 2.492188 0.109375 1.765625 -0.164062 1.234375 -0.71875 C 0.703125 -1.269531 0.4375 -2.023438 0.4375 -2.984375 C 0.4375 -3.941406 0.703125 -4.695312 1.234375 -5.25 C 1.765625 -5.800781 2.503906 -6.078125 3.453125 -6.078125 C 4.429688 -6.078125 5.175781 -5.8125 5.6875 -5.28125 C 6.195312 -4.75 6.453125 -3.984375 6.453125 -2.984375 Z M 4.84375 -2.984375 C 4.84375 -3.691406 4.722656 -4.207031 4.484375 -4.53125 C 4.253906 -4.851562 3.921875 -5.015625 3.484375 -5.015625 C 2.535156 -5.015625 2.0625 -4.335938 2.0625 -2.984375 C 2.0625 -2.316406 2.175781 -1.8125 2.40625 -1.46875 C 2.644531 -1.125 2.976562 -0.953125 3.40625 -0.953125 C 4.363281 -0.953125 4.84375 -1.628906 4.84375 -2.984375 Z M 4.84375 -2.984375 "/></g></g></g><g fill="#ffffff" fill-opacity="1"><g transform="translate(257.055513, 95.586401)"><g><path d="M 2.3125 0.09375 C 1.851562 0.09375 1.5 -0.0234375 1.25 -0.265625 C 1.007812 -0.515625 0.890625 -0.894531 0.890625 -1.40625 L 0.890625 -4.921875 L 0.140625 -4.921875 L 0.140625 -5.96875 L 0.96875 -5.96875 L 1.453125 -7.375 L 2.421875 -7.375 L 2.421875 -5.96875 L 3.5625 -5.96875 L 3.5625 -4.921875 L 2.421875 -4.921875 L 2.421875 -1.8125 C 2.421875 -1.53125 2.476562 -1.316406 2.59375 -1.171875 C 2.707031 -1.035156 2.878906 -0.96875 3.109375 -0.96875 C 3.222656 -0.96875 3.394531 -0.992188 3.625 -1.046875 L 3.625 -0.09375 C 3.238281 0.03125 2.800781 0.09375 2.3125 0.09375 Z M 2.3125 0.09375 "/></g></g></g><g fill="#ffffff" fill-opacity="1"><g transform="translate(260.815973, 95.586401)"><g><path d="M 3.234375 0.109375 C 2.335938 0.109375 1.644531 -0.15625 1.15625 -0.6875 C 0.675781 -1.21875 0.4375 -1.992188 0.4375 -3.015625 C 0.4375 -3.992188 0.679688 -4.75 1.171875 -5.28125 C 1.660156 -5.8125 2.351562 -6.078125 3.25 -6.078125 C 4.113281 -6.078125 4.769531 -5.789062 5.21875 -5.21875 C 5.664062 -4.65625 5.890625 -3.828125 5.890625 -2.734375 L 5.890625 -2.6875 L 2.0625 -2.6875 C 2.0625 -2.101562 2.171875 -1.660156 2.390625 -1.359375 C 2.609375 -1.066406 2.914062 -0.921875 3.3125 -0.921875 C 3.851562 -0.921875 4.195312 -1.160156 4.34375 -1.640625 L 5.8125 -1.515625 C 5.382812 -0.429688 4.523438 0.109375 3.234375 0.109375 Z M 3.234375 -5.109375 C 2.867188 -5.109375 2.585938 -4.976562 2.390625 -4.71875 C 2.191406 -4.46875 2.085938 -4.113281 2.078125 -3.65625 L 4.390625 -3.65625 C 4.367188 -4.132812 4.253906 -4.492188 4.046875 -4.734375 C 3.847656 -4.984375 3.578125 -5.109375 3.234375 -5.109375 Z M 3.234375 -5.109375 "/></g></g></g></svg>