<svg xmlns="http://www.w3.org/2000/svg" xmlns:xlink="http://www.w3.org/1999/xlink" width="1920" zoomAndPan="magnify" viewBox="0 0 1440 809.999993" height="1080" preserveAspectRatio="xMidYMid meet" version="1.0"><defs><clipPath id="0c8be65e37"><path d="M 109.773438 131.160156 L 1323.273438 131.160156 L 1323.273438 616 L 109.773438 616 Z M 109.773438 131.160156 " clip-rule="nonzero"/></clipPath><clipPath id="2b8eb8c345"><path d="M 1021 585 L 1236 585 L 1236 675.660156 L 1021 675.660156 Z M 1021 585 " clip-rule="nonzero"/></clipPath><clipPath id="87bd234f87"><path d="M 197 585 L 412 585 L 412 675.660156 L 197 675.660156 Z M 197 585 " clip-rule="nonzero"/></clipPath></defs><path fill="#ffffff" d="M 1266.074219 146.152344 L 167.066406 146.152344 C 143.597656 146.152344 124.574219 165.171875 124.574219 188.640625 L 124.574219 558.128906 C 124.574219 581.585938 143.597656 600.617188 167.066406 600.617188 L 1266.074219 600.617188 C 1289.542969 600.617188 1308.472656 581.585938 1308.472656 558.128906 L 1308.472656 188.640625 C 1308.472656 165.171875 1289.542969 146.152344 1266.074219 146.152344 " fill-opacity="1" fill-rule="nonzero"/><g clip-path="url(#0c8be65e37)"><path fill="#333333" d="M 167.066406 160.949219 C 151.792969 160.949219 139.375 173.367188 139.375 188.640625 L 139.375 558.128906 C 139.375 573.390625 151.792969 585.820312 167.066406 585.820312 L 1266.074219 585.820312 C 1281.296875 585.820312 1293.671875 573.390625 1293.671875 558.128906 L 1293.671875 188.640625 C 1293.671875 173.367188 1281.296875 160.949219 1266.074219 160.949219 Z M 1266.074219 615.414062 L 167.066406 615.414062 C 135.476562 615.414062 109.773438 589.714844 109.773438 558.128906 L 109.773438 188.640625 C 109.773438 157.050781 135.476562 131.351562 167.066406 131.351562 L 1266.074219 131.351562 C 1297.613281 131.351562 1323.273438 157.050781 1323.273438 188.640625 L 1323.273438 558.128906 C 1323.273438 589.714844 1297.613281 615.414062 1266.074219 615.414062 " fill-opacity="1" fill-rule="nonzero"/></g><path fill="#018bd3" d="M 1124.195312 442.835938 L 1124.195312 331.433594 C 1124.195312 322.457031 1131.496094 315.167969 1140.46875 315.167969 L 1227.625 315.167969 C 1236.496094 315.167969 1243.796875 322.457031 1243.796875 331.433594 L 1243.796875 442.835938 C 1243.796875 451.707031 1236.496094 459.003906 1227.625 459.003906 L 1140.46875 459.003906 C 1131.496094 459.003906 1124.195312 451.707031 1124.195312 442.835938 " fill-opacity="1" fill-rule="nonzero"/><path fill="#333333" d="M 1140.46875 329.96875 C 1139.667969 329.96875 1138.996094 330.640625 1138.996094 331.433594 L 1138.996094 442.835938 C 1138.996094 443.480469 1139.625 444.207031 1140.46875 444.207031 L 1227.625 444.207031 C 1228.320312 444.207031 1228.996094 443.542969 1228.996094 442.835938 L 1228.996094 331.433594 C 1228.996094 330.601562 1228.269531 329.96875 1227.625 329.96875 Z M 1227.625 473.792969 L 1140.46875 473.792969 C 1123.332031 473.792969 1109.394531 459.910156 1109.394531 442.835938 L 1109.394531 331.433594 C 1109.394531 314.304688 1123.332031 300.371094 1140.46875 300.371094 L 1227.625 300.371094 C 1244.703125 300.371094 1258.585938 314.304688 1258.585938 331.433594 L 1258.585938 442.835938 C 1258.585938 459.910156 1244.703125 473.792969 1227.625 473.792969 " fill-opacity="1" fill-rule="nonzero"/><path fill="#018bd3" d="M 1220.820312 600.617188 L 1220.820312 647.097656 C 1220.820312 654.480469 1214.804688 660.402344 1207.410156 660.402344 L 1049.761719 660.402344 C 1042.378906 660.402344 1036.363281 654.480469 1036.363281 647.097656 L 1036.363281 600.617188 L 1220.820312 600.617188 " fill-opacity="1" fill-rule="nonzero"/><g clip-path="url(#2b8eb8c345)"><path fill="#333333" d="M 1051.164062 645.601562 L 1206.019531 645.601562 L 1206.019531 615.414062 L 1051.164062 615.414062 Z M 1207.410156 675.199219 L 1049.761719 675.199219 C 1034.214844 675.199219 1021.5625 662.59375 1021.5625 647.097656 L 1021.5625 600.617188 C 1021.5625 592.445312 1028.1875 585.820312 1036.363281 585.820312 L 1220.820312 585.820312 C 1228.996094 585.820312 1235.621094 592.445312 1235.621094 600.617188 L 1235.621094 647.097656 C 1235.621094 662.59375 1222.96875 675.199219 1207.410156 675.199219 " fill-opacity="1" fill-rule="nonzero"/></g><path fill="#018bd3" d="M 246.722656 452.347656 L 246.722656 429.871094 L 212.320312 429.871094 L 212.320312 321.828125 L 359.722656 321.828125 L 359.722656 429.871094 L 325.308594 429.871094 L 325.308594 452.347656 L 246.722656 452.347656 " fill-opacity="1" fill-rule="nonzero"/><path fill="#333333" d="M 261.523438 437.550781 L 310.507812 437.550781 L 310.507812 429.871094 C 310.507812 421.699219 317.132812 415.074219 325.308594 415.074219 L 344.921875 415.074219 L 344.921875 336.625 L 227.121094 336.625 L 227.121094 415.074219 L 246.722656 415.074219 C 254.898438 415.074219 261.523438 421.699219 261.523438 429.871094 Z M 325.308594 467.148438 L 246.722656 467.148438 C 238.558594 467.148438 231.933594 460.523438 231.933594 452.347656 L 231.933594 444.667969 L 212.320312 444.667969 C 204.144531 444.667969 197.519531 438.042969 197.519531 429.871094 L 197.519531 321.828125 C 197.519531 313.652344 204.144531 307.027344 212.320312 307.027344 L 359.722656 307.027344 C 367.894531 307.027344 374.519531 313.652344 374.519531 321.828125 L 374.519531 429.871094 C 374.519531 438.042969 367.894531 444.667969 359.722656 444.667969 L 340.105469 444.667969 L 340.105469 452.347656 C 340.105469 460.523438 333.480469 467.148438 325.308594 467.148438 " fill-opacity="1" fill-rule="nonzero"/><path fill="#018bd3" d="M 477.035156 452.347656 L 477.035156 429.871094 L 442.632812 429.871094 L 442.632812 321.828125 L 590.023438 321.828125 L 590.023438 429.871094 L 555.617188 429.871094 L 555.617188 452.347656 L 477.035156 452.347656 " fill-opacity="1" fill-rule="nonzero"/><path fill="#333333" d="M 491.835938 437.550781 L 540.820312 437.550781 L 540.820312 429.871094 C 540.820312 421.699219 547.445312 415.074219 555.617188 415.074219 L 575.234375 415.074219 L 575.234375 336.625 L 457.433594 336.625 L 457.433594 415.074219 L 477.035156 415.074219 C 485.210938 415.074219 491.835938 421.699219 491.835938 429.871094 Z M 555.617188 467.148438 L 477.035156 467.148438 C 468.863281 467.148438 462.238281 460.523438 462.238281 452.347656 L 462.238281 444.667969 L 442.632812 444.667969 C 434.457031 444.667969 427.832031 438.042969 427.832031 429.871094 L 427.832031 321.828125 C 427.832031 313.652344 434.457031 307.027344 442.632812 307.027344 L 590.023438 307.027344 C 598.195312 307.027344 604.824219 313.652344 604.824219 321.828125 L 604.824219 429.871094 C 604.824219 438.042969 598.195312 444.667969 590.023438 444.667969 L 570.417969 444.667969 L 570.417969 452.347656 C 570.417969 460.523438 563.792969 467.148438 555.617188 467.148438 " fill-opacity="1" fill-rule="nonzero"/><path fill="#018bd3" d="M 707.347656 452.347656 L 707.347656 429.871094 L 672.945312 429.871094 L 672.945312 321.828125 L 820.335938 321.828125 L 820.335938 429.871094 L 785.929688 429.871094 L 785.929688 452.347656 L 707.347656 452.347656 " fill-opacity="1" fill-rule="nonzero"/><path fill="#333333" d="M 722.148438 437.550781 L 771.132812 437.550781 L 771.132812 429.871094 C 771.132812 421.699219 777.757812 415.074219 785.929688 415.074219 L 805.535156 415.074219 L 805.535156 336.625 L 687.734375 336.625 L 687.734375 415.074219 L 707.347656 415.074219 C 715.523438 415.074219 722.148438 421.699219 722.148438 429.871094 Z M 785.929688 467.148438 L 707.347656 467.148438 C 699.175781 467.148438 692.546875 460.523438 692.546875 452.347656 L 692.546875 444.667969 L 672.945312 444.667969 C 664.769531 444.667969 658.144531 438.042969 658.144531 429.871094 L 658.144531 321.828125 C 658.144531 313.652344 664.769531 307.027344 672.945312 307.027344 L 820.335938 307.027344 C 828.507812 307.027344 835.132812 313.652344 835.132812 321.828125 L 835.132812 429.871094 C 835.132812 438.042969 828.507812 444.667969 820.335938 444.667969 L 800.730469 444.667969 L 800.730469 452.347656 C 800.730469 460.523438 794.105469 467.148438 785.929688 467.148438 " fill-opacity="1" fill-rule="nonzero"/><path fill="#018bd3" d="M 937.660156 452.347656 L 937.660156 429.871094 L 903.246094 429.871094 L 903.246094 321.828125 L 1050.648438 321.828125 L 1050.648438 429.871094 L 1016.234375 429.871094 L 1016.234375 452.347656 L 937.660156 452.347656 " fill-opacity="1" fill-rule="nonzero"/><path fill="#333333" d="M 952.449219 437.550781 L 1001.433594 437.550781 L 1001.433594 429.871094 C 1001.433594 421.699219 1008.058594 415.074219 1016.234375 415.074219 L 1035.847656 415.074219 L 1035.847656 336.625 L 918.046875 336.625 L 918.046875 415.074219 L 937.660156 415.074219 C 945.824219 415.074219 952.449219 421.699219 952.449219 429.871094 Z M 1016.234375 467.148438 L 937.660156 467.148438 C 929.488281 467.148438 922.859375 460.523438 922.859375 452.347656 L 922.859375 444.667969 L 903.246094 444.667969 C 895.074219 444.667969 888.445312 438.042969 888.445312 429.871094 L 888.445312 321.828125 C 888.445312 313.652344 895.074219 307.027344 903.246094 307.027344 L 1050.648438 307.027344 C 1058.820312 307.027344 1065.445312 313.652344 1065.445312 321.828125 L 1065.445312 429.871094 C 1065.445312 438.042969 1058.820312 444.667969 1050.648438 444.667969 L 1031.03125 444.667969 L 1031.03125 452.347656 C 1031.03125 460.523438 1024.40625 467.148438 1016.234375 467.148438 " fill-opacity="1" fill-rule="nonzero"/><path fill="#018bd3" d="M 396.683594 600.617188 L 396.683594 647.097656 C 396.683594 654.480469 390.667969 660.402344 383.285156 660.402344 L 225.636719 660.402344 C 218.230469 660.402344 212.320312 654.480469 212.320312 647.097656 L 212.320312 600.617188 L 396.683594 600.617188 " fill-opacity="1" fill-rule="nonzero"/><g clip-path="url(#87bd234f87)"><path fill="#333333" d="M 227.121094 645.601562 L 381.882812 645.601562 L 381.882812 615.414062 L 227.121094 615.414062 Z M 383.285156 675.199219 L 225.636719 675.199219 C 210.128906 675.199219 197.519531 662.59375 197.519531 647.097656 L 197.519531 600.617188 C 197.519531 592.445312 204.144531 585.820312 212.320312 585.820312 L 396.683594 585.820312 C 404.859375 585.820312 411.484375 592.445312 411.484375 600.617188 L 411.484375 647.097656 C 411.484375 662.59375 398.832031 675.199219 383.285156 675.199219 " fill-opacity="1" fill-rule="nonzero"/></g><path fill="#333333" d="M 233.492188 273.195312 L 212.320312 273.195312 C 204.144531 273.195312 197.519531 266.570312 197.519531 258.398438 C 197.519531 250.226562 204.144531 243.601562 212.320312 243.601562 L 233.492188 243.601562 C 241.667969 243.601562 248.292969 250.226562 248.292969 258.398438 C 248.292969 266.570312 241.667969 273.195312 233.492188 273.195312 " fill-opacity="1" fill-rule="nonzero"/><path fill="#333333" d="M 359.722656 273.195312 L 338.539062 273.195312 C 330.363281 273.195312 323.738281 266.570312 323.738281 258.398438 C 323.738281 250.226562 330.363281 243.601562 338.539062 243.601562 L 359.722656 243.601562 C 367.894531 243.601562 374.519531 250.226562 374.519531 258.398438 C 374.519531 266.570312 367.894531 273.195312 359.722656 273.195312 " fill-opacity="1" fill-rule="nonzero"/><path fill="#333333" d="M 463.804688 273.195312 L 442.632812 273.195312 C 434.457031 273.195312 427.832031 266.570312 427.832031 258.398438 C 427.832031 250.226562 434.457031 243.601562 442.632812 243.601562 L 463.804688 243.601562 C 471.980469 243.601562 478.605469 250.226562 478.605469 258.398438 C 478.605469 266.570312 471.980469 273.195312 463.804688 273.195312 " fill-opacity="1" fill-rule="nonzero"/><path fill="#333333" d="M 590.023438 273.195312 L 568.847656 273.195312 C 560.675781 273.195312 554.050781 266.570312 554.050781 258.398438 C 554.050781 250.226562 560.675781 243.601562 568.847656 243.601562 L 590.023438 243.601562 C 598.195312 243.601562 604.824219 250.226562 604.824219 258.398438 C 604.824219 266.570312 598.195312 273.195312 590.023438 273.195312 " fill-opacity="1" fill-rule="nonzero"/><path fill="#333333" d="M 694.117188 273.195312 L 672.945312 273.195312 C 664.769531 273.195312 658.144531 266.570312 658.144531 258.398438 C 658.144531 250.226562 664.769531 243.601562 672.945312 243.601562 L 694.117188 243.601562 C 702.292969 243.601562 708.917969 250.226562 708.917969 258.398438 C 708.917969 266.570312 702.292969 273.195312 694.117188 273.195312 " fill-opacity="1" fill-rule="nonzero"/><path fill="#333333" d="M 820.335938 273.195312 L 799.160156 273.195312 C 790.988281 273.195312 784.363281 266.570312 784.363281 258.398438 C 784.363281 250.226562 790.988281 243.601562 799.160156 243.601562 L 820.335938 243.601562 C 828.507812 243.601562 835.132812 250.226562 835.132812 258.398438 C 835.132812 266.570312 828.507812 273.195312 820.335938 273.195312 " fill-opacity="1" fill-rule="nonzero"/><path fill="#333333" d="M 924.429688 273.195312 L 903.246094 273.195312 C 895.074219 273.195312 888.445312 266.570312 888.445312 258.398438 C 888.445312 250.226562 895.074219 243.601562 903.246094 243.601562 L 924.429688 243.601562 C 932.605469 243.601562 939.230469 250.226562 939.230469 258.398438 C 939.230469 266.570312 932.605469 273.195312 924.429688 273.195312 " fill-opacity="1" fill-rule="nonzero"/><path fill="#333333" d="M 1050.648438 273.195312 L 1029.464844 273.195312 C 1021.300781 273.195312 1014.671875 266.570312 1014.671875 258.398438 C 1014.671875 250.226562 1021.300781 243.601562 1029.464844 243.601562 L 1050.648438 243.601562 C 1058.820312 243.601562 1065.445312 250.226562 1065.445312 258.398438 C 1065.445312 266.570312 1058.820312 273.195312 1050.648438 273.195312 " fill-opacity="1" fill-rule="nonzero"/></svg>