<svg xmlns="http://www.w3.org/2000/svg" xmlns:xlink="http://www.w3.org/1999/xlink" width="1920" zoomAndPan="magnify" viewBox="0 0 1440 809.999993" height="1080" preserveAspectRatio="xMidYMid meet" version="1.0"><defs><clipPath id="a741337ac2"><path d="M 113.3125 132.75 L 1326.8125 132.75 L 1326.8125 618 L 113.3125 618 Z M 113.3125 132.75 " clip-rule="nonzero"/></clipPath></defs><path fill="#000000" d="M 1269.488281 147.738281 L 170.597656 147.738281 C 147.132812 147.738281 128.109375 166.761719 128.109375 190.226562 L 128.109375 559.714844 C 128.109375 583.171875 147.132812 602.203125 170.597656 602.203125 L 1269.488281 602.203125 C 1292.957031 602.203125 1311.882812 583.171875 1311.882812 559.714844 L 1311.882812 190.226562 C 1311.882812 166.761719 1292.957031 147.738281 1269.488281 147.738281 " fill-opacity="1" fill-rule="nonzero"/><g clip-path="url(#a741337ac2)"><path fill="#545454" d="M 170.597656 162.535156 C 155.328125 162.535156 142.910156 174.957031 142.910156 190.226562 L 142.910156 559.714844 C 142.910156 574.976562 155.328125 587.40625 170.597656 587.40625 L 1269.488281 587.40625 C 1284.710938 587.40625 1297.085938 574.976562 1297.085938 559.714844 L 1297.085938 190.226562 C 1297.085938 174.957031 1284.710938 162.535156 1269.488281 162.535156 Z M 1269.488281 617.003906 L 170.597656 617.003906 C 139.011719 617.003906 113.3125 591.304688 113.3125 559.714844 L 113.3125 190.226562 C 113.3125 158.640625 139.011719 132.941406 170.597656 132.941406 L 1269.488281 132.941406 C 1301.023438 132.941406 1326.683594 158.640625 1326.683594 190.226562 L 1326.683594 559.714844 C 1326.683594 591.304688 1301.023438 617.003906 1269.488281 617.003906 " fill-opacity="1" fill-rule="nonzero"/></g><path fill="#009bf5" d="M 1127.625 444.425781 L 1127.625 333.019531 C 1127.625 324.046875 1134.921875 316.757812 1143.898438 316.757812 L 1231.046875 316.757812 C 1239.914062 316.757812 1247.214844 324.046875 1247.214844 333.019531 L 1247.214844 444.425781 C 1247.214844 453.292969 1239.914062 460.59375 1231.046875 460.59375 L 1143.898438 460.59375 C 1134.921875 460.59375 1127.625 453.292969 1127.625 444.425781 " fill-opacity="1" fill-rule="nonzero"/><path fill="#545454" d="M 1143.898438 331.554688 C 1143.097656 331.554688 1142.421875 332.230469 1142.421875 333.019531 L 1142.421875 444.425781 C 1142.421875 445.066406 1143.054688 445.792969 1143.898438 445.792969 L 1231.046875 445.792969 C 1231.742188 445.792969 1232.414062 445.128906 1232.414062 444.425781 L 1232.414062 333.019531 C 1232.414062 332.1875 1231.6875 331.554688 1231.046875 331.554688 Z M 1231.046875 475.378906 L 1143.898438 475.378906 C 1126.761719 475.378906 1112.824219 461.5 1112.824219 444.425781 L 1112.824219 333.019531 C 1112.824219 315.894531 1126.761719 301.957031 1143.898438 301.957031 L 1231.046875 301.957031 C 1248.117188 301.957031 1262 315.894531 1262 333.019531 L 1262 444.425781 C 1262 461.5 1248.117188 475.378906 1231.046875 475.378906 " fill-opacity="1" fill-rule="nonzero"/><path fill="#009bf5" d="M 1224.242188 602.203125 L 1224.242188 648.6875 C 1224.242188 656.070312 1218.226562 661.988281 1210.832031 661.988281 L 1053.199219 661.988281 C 1045.816406 661.988281 1039.800781 656.070312 1039.800781 648.6875 L 1039.800781 602.203125 L 1224.242188 602.203125 " fill-opacity="1" fill-rule="nonzero"/><path fill="#545454" d="M 1054.601562 647.191406 L 1209.441406 647.191406 L 1209.441406 617.003906 L 1054.601562 617.003906 Z M 1210.832031 676.789062 L 1053.199219 676.789062 C 1037.652344 676.789062 1025.003906 664.179688 1025.003906 648.6875 L 1025.003906 602.203125 C 1025.003906 594.03125 1031.628906 587.40625 1039.800781 587.40625 L 1224.242188 587.40625 C 1232.414062 587.40625 1239.039062 594.03125 1239.039062 602.203125 L 1239.039062 648.6875 C 1239.039062 664.179688 1226.390625 676.789062 1210.832031 676.789062 " fill-opacity="1" fill-rule="nonzero"/><path fill="#009bf5" d="M 250.246094 453.9375 L 250.246094 431.457031 L 215.847656 431.457031 L 215.847656 323.414062 L 363.230469 323.414062 L 363.230469 431.457031 L 328.820312 431.457031 L 328.820312 453.9375 L 250.246094 453.9375 " fill-opacity="1" fill-rule="nonzero"/><path fill="#545454" d="M 265.046875 439.136719 L 314.023438 439.136719 L 314.023438 431.457031 C 314.023438 423.285156 320.648438 416.660156 328.820312 416.660156 L 348.433594 416.660156 L 348.433594 338.210938 L 230.644531 338.210938 L 230.644531 416.660156 L 250.246094 416.660156 C 258.421875 416.660156 265.046875 423.285156 265.046875 431.457031 Z M 328.820312 468.734375 L 250.246094 468.734375 C 242.085938 468.734375 235.460938 462.109375 235.460938 453.9375 L 235.460938 446.257812 L 215.847656 446.257812 C 207.675781 446.257812 201.050781 439.632812 201.050781 431.457031 L 201.050781 323.414062 C 201.050781 315.242188 207.675781 308.617188 215.847656 308.617188 L 363.230469 308.617188 C 371.40625 308.617188 378.03125 315.242188 378.03125 323.414062 L 378.03125 431.457031 C 378.03125 439.632812 371.40625 446.257812 363.230469 446.257812 L 343.621094 446.257812 L 343.621094 453.9375 C 343.621094 462.109375 336.996094 468.734375 328.820312 468.734375 " fill-opacity="1" fill-rule="nonzero"/><path fill="#009bf5" d="M 480.535156 453.9375 L 480.535156 431.457031 L 446.136719 431.457031 L 446.136719 323.414062 L 593.507812 323.414062 L 593.507812 431.457031 L 559.109375 431.457031 L 559.109375 453.9375 L 480.535156 453.9375 " fill-opacity="1" fill-rule="nonzero"/><path fill="#545454" d="M 495.332031 439.136719 L 544.3125 439.136719 L 544.3125 431.457031 C 544.3125 423.285156 550.9375 416.660156 559.109375 416.660156 L 578.722656 416.660156 L 578.722656 338.210938 L 460.933594 338.210938 L 460.933594 416.660156 L 480.535156 416.660156 C 488.707031 416.660156 495.332031 423.285156 495.332031 431.457031 Z M 559.109375 468.734375 L 480.535156 468.734375 C 472.363281 468.734375 465.738281 462.109375 465.738281 453.9375 L 465.738281 446.257812 L 446.136719 446.257812 C 437.960938 446.257812 431.335938 439.632812 431.335938 431.457031 L 431.335938 323.414062 C 431.335938 315.242188 437.960938 308.617188 446.136719 308.617188 L 593.507812 308.617188 C 601.683594 308.617188 608.308594 315.242188 608.308594 323.414062 L 608.308594 431.457031 C 608.308594 439.632812 601.683594 446.257812 593.507812 446.257812 L 573.90625 446.257812 L 573.90625 453.9375 C 573.90625 462.109375 567.28125 468.734375 559.109375 468.734375 " fill-opacity="1" fill-rule="nonzero"/><path fill="#009bf5" d="M 710.824219 453.9375 L 710.824219 431.457031 L 676.421875 431.457031 L 676.421875 323.414062 L 823.796875 323.414062 L 823.796875 431.457031 L 789.398438 431.457031 L 789.398438 453.9375 L 710.824219 453.9375 " fill-opacity="1" fill-rule="nonzero"/><path fill="#545454" d="M 725.621094 439.136719 L 774.597656 439.136719 L 774.597656 431.457031 C 774.597656 423.285156 781.222656 416.660156 789.398438 416.660156 L 809 416.660156 L 809 338.210938 L 691.210938 338.210938 L 691.210938 416.660156 L 710.824219 416.660156 C 718.996094 416.660156 725.621094 423.285156 725.621094 431.457031 Z M 789.398438 468.734375 L 710.824219 468.734375 C 702.648438 468.734375 696.023438 462.109375 696.023438 453.9375 L 696.023438 446.257812 L 676.421875 446.257812 C 668.25 446.257812 661.625 439.632812 661.625 431.457031 L 661.625 323.414062 C 661.625 315.242188 668.25 308.617188 676.421875 308.617188 L 823.796875 308.617188 C 831.96875 308.617188 838.59375 315.242188 838.59375 323.414062 L 838.59375 431.457031 C 838.59375 439.632812 831.96875 446.257812 823.796875 446.257812 L 804.195312 446.257812 L 804.195312 453.9375 C 804.195312 462.109375 797.570312 468.734375 789.398438 468.734375 " fill-opacity="1" fill-rule="nonzero"/><path fill="#009bf5" d="M 941.109375 453.9375 L 941.109375 431.457031 L 906.699219 431.457031 L 906.699219 323.414062 L 1054.085938 323.414062 L 1054.085938 431.457031 L 1019.675781 431.457031 L 1019.675781 453.9375 L 941.109375 453.9375 " fill-opacity="1" fill-rule="nonzero"/><path fill="#545454" d="M 955.898438 439.136719 L 1004.875 439.136719 L 1004.875 431.457031 C 1004.875 423.285156 1011.5 416.660156 1019.675781 416.660156 L 1039.285156 416.660156 L 1039.285156 338.210938 L 921.5 338.210938 L 921.5 416.660156 L 941.109375 416.660156 C 949.273438 416.660156 955.898438 423.285156 955.898438 431.457031 Z M 1019.675781 468.734375 L 941.109375 468.734375 C 932.9375 468.734375 926.3125 462.109375 926.3125 453.9375 L 926.3125 446.257812 L 906.699219 446.257812 C 898.527344 446.257812 891.902344 439.632812 891.902344 431.457031 L 891.902344 323.414062 C 891.902344 315.242188 898.527344 308.617188 906.699219 308.617188 L 1054.085938 308.617188 C 1062.257812 308.617188 1068.882812 315.242188 1068.882812 323.414062 L 1068.882812 431.457031 C 1068.882812 439.632812 1062.257812 446.257812 1054.085938 446.257812 L 1034.472656 446.257812 L 1034.472656 453.9375 C 1034.472656 462.109375 1027.847656 468.734375 1019.675781 468.734375 " fill-opacity="1" fill-rule="nonzero"/><path fill="#009bf5" d="M 400.191406 602.203125 L 400.191406 648.6875 C 400.191406 656.070312 394.175781 661.988281 386.792969 661.988281 L 229.160156 661.988281 C 221.757812 661.988281 215.847656 656.070312 215.847656 648.6875 L 215.847656 602.203125 L 400.191406 602.203125 " fill-opacity="1" fill-rule="nonzero"/><path fill="#545454" d="M 230.644531 647.191406 L 385.394531 647.191406 L 385.394531 617.003906 L 230.644531 617.003906 Z M 386.792969 676.789062 L 229.160156 676.789062 C 213.65625 676.789062 201.050781 664.179688 201.050781 648.6875 L 201.050781 602.203125 C 201.050781 594.03125 207.675781 587.40625 215.847656 587.40625 L 400.191406 587.40625 C 408.363281 587.40625 414.988281 594.03125 414.988281 602.203125 L 414.988281 648.6875 C 414.988281 664.179688 402.339844 676.789062 386.792969 676.789062 " fill-opacity="1" fill-rule="nonzero"/><path fill="#545454" d="M 237.019531 274.785156 L 215.847656 274.785156 C 207.675781 274.785156 201.050781 268.160156 201.050781 259.984375 C 201.050781 251.8125 207.675781 245.1875 215.847656 245.1875 L 237.019531 245.1875 C 245.191406 245.1875 251.816406 251.8125 251.816406 259.984375 C 251.816406 268.160156 245.191406 274.785156 237.019531 274.785156 " fill-opacity="1" fill-rule="nonzero"/><path fill="#545454" d="M 363.230469 274.785156 L 342.050781 274.785156 C 333.878906 274.785156 327.253906 268.160156 327.253906 259.984375 C 327.253906 251.8125 333.878906 245.1875 342.050781 245.1875 L 363.230469 245.1875 C 371.40625 245.1875 378.03125 251.8125 378.03125 259.984375 C 378.03125 268.160156 371.40625 274.785156 363.230469 274.785156 " fill-opacity="1" fill-rule="nonzero"/><path fill="#545454" d="M 467.304688 274.785156 L 446.136719 274.785156 C 437.960938 274.785156 431.335938 268.160156 431.335938 259.984375 C 431.335938 251.8125 437.960938 245.1875 446.136719 245.1875 L 467.304688 245.1875 C 475.480469 245.1875 482.105469 251.8125 482.105469 259.984375 C 482.105469 268.160156 475.480469 274.785156 467.304688 274.785156 " fill-opacity="1" fill-rule="nonzero"/><path fill="#545454" d="M 593.507812 274.785156 L 572.339844 274.785156 C 564.164062 274.785156 557.539062 268.160156 557.539062 259.984375 C 557.539062 251.8125 564.164062 245.1875 572.339844 245.1875 L 593.507812 245.1875 C 601.683594 245.1875 608.308594 251.8125 608.308594 259.984375 C 608.308594 268.160156 601.683594 274.785156 593.507812 274.785156 " fill-opacity="1" fill-rule="nonzero"/><path fill="#545454" d="M 697.59375 274.785156 L 676.421875 274.785156 C 668.25 274.785156 661.625 268.160156 661.625 259.984375 C 661.625 251.8125 668.25 245.1875 676.421875 245.1875 L 697.59375 245.1875 C 705.765625 245.1875 712.390625 251.8125 712.390625 259.984375 C 712.390625 268.160156 705.765625 274.785156 697.59375 274.785156 " fill-opacity="1" fill-rule="nonzero"/><path fill="#545454" d="M 823.796875 274.785156 L 802.625 274.785156 C 794.453125 274.785156 787.828125 268.160156 787.828125 259.984375 C 787.828125 251.8125 794.453125 245.1875 802.625 245.1875 L 823.796875 245.1875 C 831.96875 245.1875 838.59375 251.8125 838.59375 259.984375 C 838.59375 268.160156 831.96875 274.785156 823.796875 274.785156 " fill-opacity="1" fill-rule="nonzero"/><path fill="#545454" d="M 927.882812 274.785156 L 906.699219 274.785156 C 898.527344 274.785156 891.902344 268.160156 891.902344 259.984375 C 891.902344 251.8125 898.527344 245.1875 906.699219 245.1875 L 927.882812 245.1875 C 936.054688 245.1875 942.679688 251.8125 942.679688 259.984375 C 942.679688 268.160156 936.054688 274.785156 927.882812 274.785156 " fill-opacity="1" fill-rule="nonzero"/><path fill="#545454" d="M 1054.085938 274.785156 L 1032.902344 274.785156 C 1024.742188 274.785156 1018.117188 268.160156 1018.117188 259.984375 C 1018.117188 251.8125 1024.742188 245.1875 1032.902344 245.1875 L 1054.085938 245.1875 C 1062.257812 245.1875 1068.882812 251.8125 1068.882812 259.984375 C 1068.882812 268.160156 1062.257812 274.785156 1054.085938 274.785156 " fill-opacity="1" fill-rule="nonzero"/></svg>