<svg xmlns="http://www.w3.org/2000/svg" xmlns:xlink="http://www.w3.org/1999/xlink" width="1920" zoomAndPan="magnify" viewBox="0 0 1440 809.999993" height="1080" preserveAspectRatio="xMidYMid meet" version="1.0"><defs><clipPath id="d282684da2"><path d="M 179.832031 159.222656 L 1313.082031 159.222656 L 1313.082031 620 L 179.832031 620 Z M 179.832031 159.222656 " clip-rule="nonzero"/></clipPath><clipPath id="a21c908cc6"><path d="M 1021 578 L 1233 578 L 1233 674.472656 L 1021 674.472656 Z M 1021 578 " clip-rule="nonzero"/></clipPath><clipPath id="c69bb491b6"><path d="M 260 578 L 472 578 L 472 674.472656 L 260 674.472656 Z M 260 578 " clip-rule="nonzero"/></clipPath></defs><path fill="#ecf0f1" d="M 1253.484375 179.835938 L 239.515625 179.835938 C 217.867188 179.835938 200.3125 197.382812 200.3125 219.015625 L 200.3125 559.695312 C 200.3125 581.328125 217.867188 598.871094 239.515625 598.871094 L 1253.484375 598.871094 C 1275.132812 598.871094 1292.601562 581.328125 1292.601562 559.695312 L 1292.601562 219.015625 C 1292.601562 197.382812 1275.132812 179.835938 1253.484375 179.835938 " fill-opacity="1" fill-rule="nonzero"/><path fill="#b1b4b5" d="M 1292.601562 536.84375 L 1292.601562 559.695312 C 1292.601562 581.332031 1275.140625 598.867188 1253.484375 598.867188 L 239.511719 598.867188 C 217.867188 598.867188 200.3125 581.332031 200.3125 559.695312 L 200.3125 375.765625 C 200.3125 375.765625 232.34375 500.238281 328.820312 512.449219 C 425.296875 524.648438 1292.601562 536.84375 1292.601562 536.84375 " fill-opacity="1" fill-rule="nonzero"/><g clip-path="url(#d282684da2)"><path stroke-linecap="butt" transform="matrix(0.136536, 0, 0, -0.136437, 63.775191, 1099.098949)" fill="none" stroke-linejoin="round" d="M 8713.510762 6737.659854 L 1287.134859 6737.659854 C 1128.580234 6737.659854 1000.008512 6609.05153 1000.008512 6450.495675 L 1000.008512 3953.512956 C 1000.008512 3794.957101 1128.580234 3666.377408 1287.134859 3666.377408 L 8713.510762 3666.377408 C 8872.065387 3666.377408 9000.007697 3794.957101 9000.007697 3953.512956 L 9000.007697 6450.495675 C 9000.007697 6609.05153 8872.065387 6737.659854 8713.510762 6737.659854 Z M 8713.510762 6737.659854 " stroke="#000000" stroke-width="300" stroke-opacity="1" stroke-miterlimit="10"/></g><path fill="#2c3e50" d="M 1122.585938 453.386719 L 1122.585938 350.675781 C 1122.585938 342.402344 1129.3125 335.679688 1137.59375 335.679688 L 1218 335.679688 C 1226.1875 335.679688 1232.917969 342.402344 1232.917969 350.675781 L 1232.917969 453.386719 C 1232.917969 461.574219 1226.1875 468.296875 1218 468.296875 L 1137.59375 468.296875 C 1129.3125 468.296875 1122.585938 461.574219 1122.585938 453.386719 " fill-opacity="1" fill-rule="nonzero"/><path stroke-linecap="butt" transform="matrix(0.136536, 0, 0, -0.136437, 63.775191, 1099.098949)" fill="none" stroke-linejoin="round" d="M 7754.801727 4732.692729 L 7754.801727 5485.503787 C 7754.801727 5546.143242 7804.067527 5595.416377 7864.719964 5595.416377 L 8453.620793 5595.416377 C 8513.586598 5595.416377 8562.881008 5546.143242 8562.881008 5485.503787 L 8562.881008 4732.692729 C 8562.881008 4672.683146 8513.586598 4623.41001 8453.620793 4623.41001 L 7864.719964 4623.41001 C 7804.067527 4623.41001 7754.801727 4672.683146 7754.801727 4732.692729 Z M 7754.801727 4732.692729 " stroke="#000000" stroke-width="300" stroke-opacity="1" stroke-miterlimit="10"/><path fill="#cacecf" d="M 1211.734375 598.871094 L 1211.734375 641.726562 C 1211.734375 648.542969 1206.1875 653.996094 1199.359375 653.996094 L 1053.914062 653.996094 C 1047.089844 653.996094 1041.539062 648.542969 1041.539062 641.726562 L 1041.539062 598.871094 L 1211.734375 598.871094 " fill-opacity="1" fill-rule="nonzero"/><g clip-path="url(#a21c908cc6)"><path stroke-linecap="butt" transform="matrix(0.136536, 0, 0, -0.136437, 63.775191, 1099.098949)" fill="none" stroke-linejoin="round" d="M 8407.73093 3666.377408 L 8407.73093 3352.271904 C 8407.73093 3302.311636 8367.105242 3262.343421 8317.095591 3262.343421 L 7251.844257 3262.343421 C 7201.863216 3262.343421 7161.208917 3302.311636 7161.208917 3352.271904 L 7161.208917 3666.377408 Z M 8407.73093 3666.377408 " stroke="#000000" stroke-width="300" stroke-opacity="1" stroke-miterlimit="10"/></g><path fill="#000000" d="M 1177.777344 381.523438 C 1189.066406 381.523438 1198.234375 390.683594 1198.234375 402.007812 C 1198.234375 413.292969 1189.066406 422.453125 1177.777344 422.453125 C 1166.441406 422.453125 1157.273438 413.292969 1157.273438 402.007812 C 1157.273438 390.683594 1166.441406 381.523438 1177.777344 381.523438 " fill-opacity="1" fill-rule="nonzero"/><path fill="#2c3e50" d="M 313.019531 462.160156 L 313.019531 441.4375 L 281.269531 441.4375 L 281.269531 341.8125 L 417.261719 341.8125 L 417.261719 441.4375 L 385.515625 441.4375 L 385.515625 462.160156 L 313.019531 462.160156 " fill-opacity="1" fill-rule="nonzero"/><path stroke-linecap="butt" transform="matrix(0.136536, 0, 0, -0.136437, 63.775191, 1099.098949)" fill="none" stroke-linejoin="round" d="M 1825.482454 4668.388567 L 1825.482454 4820.273509 L 1592.943301 4820.273509 L 1592.943301 5550.466451 L 2588.959306 5550.466451 L 2588.959306 4820.273509 L 2356.448762 4820.273509 L 2356.448762 4668.388567 Z M 1825.482454 4668.388567 " stroke="#000000" stroke-width="300" stroke-opacity="1" stroke-miterlimit="10"/><path fill="#2c3e50" d="M 525.503906 462.160156 L 525.503906 441.4375 L 493.757812 441.4375 L 493.757812 341.8125 L 629.75 341.8125 L 629.75 441.4375 L 598 441.4375 L 598 462.160156 L 525.503906 462.160156 " fill-opacity="1" fill-rule="nonzero"/><path stroke-linecap="butt" transform="matrix(0.136536, 0, 0, -0.136437, 63.775191, 1099.098949)" fill="none" stroke-linejoin="round" d="M 3381.73243 4668.388567 L 3381.73243 4820.273509 L 3149.221886 4820.273509 L 3149.221886 5550.466451 L 4145.237891 5550.466451 L 4145.237891 4820.273509 L 3912.698738 4820.273509 L 3912.698738 4668.388567 Z M 3381.73243 4668.388567 " stroke="#000000" stroke-width="300" stroke-opacity="1" stroke-miterlimit="10"/><path fill="#2c3e50" d="M 737.992188 462.160156 L 737.992188 441.4375 L 706.246094 441.4375 L 706.246094 341.8125 L 842.234375 341.8125 L 842.234375 441.4375 L 810.488281 441.4375 L 810.488281 462.160156 L 737.992188 462.160156 " fill-opacity="1" fill-rule="nonzero"/><path stroke-linecap="butt" transform="matrix(0.136536, 0, 0, -0.136437, 63.775191, 1099.098949)" fill="none" stroke-linejoin="round" d="M 4938.011015 4668.388567 L 4938.011015 4820.273509 L 4705.500471 4820.273509 L 4705.500471 5550.466451 L 5701.487867 5550.466451 L 5701.487867 4820.273509 L 5468.977323 4820.273509 L 5468.977323 4668.388567 Z M 4938.011015 4668.388567 " stroke="#000000" stroke-width="300" stroke-opacity="1" stroke-miterlimit="10"/><path fill="#2c3e50" d="M 950.476562 462.160156 L 950.476562 441.4375 L 918.730469 441.4375 L 918.730469 341.8125 L 1054.722656 341.8125 L 1054.722656 441.4375 L 1022.972656 441.4375 L 1022.972656 462.160156 L 950.476562 462.160156 " fill-opacity="1" fill-rule="nonzero"/><path stroke-linecap="butt" transform="matrix(0.136536, 0, 0, -0.136437, 63.775191, 1099.098949)" fill="none" stroke-linejoin="round" d="M 6494.26099 4668.388567 L 6494.26099 4820.273509 L 6261.750446 4820.273509 L 6261.750446 5550.466451 L 7257.766452 5550.466451 L 7257.766452 4820.273509 L 7025.227298 4820.273509 L 7025.227298 4668.388567 Z M 6494.26099 4668.388567 " stroke="#000000" stroke-width="300" stroke-opacity="1" stroke-miterlimit="10"/><path fill="#cacecf" d="M 451.371094 598.871094 L 451.371094 641.726562 C 451.371094 648.542969 445.820312 653.996094 439 653.996094 L 293.550781 653.996094 C 286.722656 653.996094 281.269531 648.542969 281.269531 641.726562 L 281.269531 598.871094 L 451.371094 598.871094 " fill-opacity="1" fill-rule="nonzero"/><g clip-path="url(#c69bb491b6)"><path stroke-linecap="butt" transform="matrix(0.136536, 0, 0, -0.136437, 63.775191, 1099.098949)" fill="none" stroke-linejoin="round" d="M 2838.778683 3666.377408 L 2838.778683 3352.271904 C 2838.778683 3302.311636 2798.124384 3262.343421 2748.171953 3262.343421 L 1682.892009 3262.343421 C 1632.882358 3262.343421 1592.943301 3302.311636 1592.943301 3352.271904 L 1592.943301 3666.377408 Z M 2838.778683 3666.377408 " stroke="#000000" stroke-width="300" stroke-opacity="1" stroke-miterlimit="10"/></g><path stroke-linecap="round" transform="matrix(0.136536, 0, 0, -0.136437, 63.775191, 1099.098949)" fill="none" stroke-linejoin="round" d="M 1592.943301 5979.09406 L 1736.04872 5979.09406 " stroke="#000000" stroke-width="300" stroke-opacity="1" stroke-miterlimit="10"/><path stroke-linecap="round" transform="matrix(0.136536, 0, 0, -0.136437, 63.775191, 1099.098949)" fill="none" stroke-linejoin="round" d="M 2445.853887 5979.09406 L 2588.959306 5979.09406 " stroke="#000000" stroke-width="300" stroke-opacity="1" stroke-miterlimit="10"/><path stroke-linecap="round" transform="matrix(0.136536, 0, 0, -0.136437, 63.775191, 1099.098949)" fill="none" stroke-linejoin="round" d="M 3149.221886 5979.09406 L 3292.298695 5979.09406 " stroke="#000000" stroke-width="300" stroke-opacity="1" stroke-miterlimit="10"/><path stroke-linecap="round" transform="matrix(0.136536, 0, 0, -0.136437, 63.775191, 1099.098949)" fill="none" stroke-linejoin="round" d="M 4002.103863 5979.09406 L 4145.237891 5979.09406 " stroke="#000000" stroke-width="300" stroke-opacity="1" stroke-miterlimit="10"/><path stroke-linecap="round" transform="matrix(0.136536, 0, 0, -0.136437, 63.775191, 1099.098949)" fill="none" stroke-linejoin="round" d="M 4705.500471 5979.09406 L 4848.60589 5979.09406 " stroke="#000000" stroke-width="300" stroke-opacity="1" stroke-miterlimit="10"/><path stroke-linecap="round" transform="matrix(0.136536, 0, 0, -0.136437, 63.775191, 1099.098949)" fill="none" stroke-linejoin="round" d="M 5558.411057 5979.09406 L 5701.487867 5979.09406 " stroke="#000000" stroke-width="300" stroke-opacity="1" stroke-miterlimit="10"/><path stroke-linecap="round" transform="matrix(0.136536, 0, 0, -0.136437, 63.775191, 1099.098949)" fill="none" stroke-linejoin="round" d="M 6261.750446 5979.09406 L 6404.855865 5979.09406 " stroke="#000000" stroke-width="300" stroke-opacity="1" stroke-miterlimit="10"/><path stroke-linecap="round" transform="matrix(0.136536, 0, 0, -0.136437, 63.775191, 1099.098949)" fill="none" stroke-linejoin="round" d="M 7114.661033 5979.09406 L 7257.766452 5979.09406 " stroke="#000000" stroke-width="300" stroke-opacity="1" stroke-miterlimit="10"/></svg>