<svg xmlns="http://www.w3.org/2000/svg" xmlns:xlink="http://www.w3.org/1999/xlink" width="380" zoomAndPan="magnify" viewBox="0 0 285 142.499996" height="190" preserveAspectRatio="xMidYMid meet" version="1.0"><defs><g/><clipPath id="77f075440e"><path d="M 72.953125 31.527344 L 122.28125 31.527344 L 122.28125 85.335938 L 72.953125 85.335938 Z M 72.953125 31.527344 " clip-rule="nonzero"/></clipPath><clipPath id="a20b0fbb23"><path d="M 198.207031 31.527344 L 258 31.527344 L 258 83 L 198.207031 83 Z M 198.207031 31.527344 " clip-rule="nonzero"/></clipPath><clipPath id="7724e07548"><path d="M 3.429688 1.714844 L 58.734375 1.714844 L 58.734375 58 L 3.429688 58 Z M 3.429688 1.714844 " clip-rule="nonzero"/></clipPath></defs><g clip-path="url(#77f075440e)"><path fill="#ffffff" d="M 120.429688 51.195312 C 119.296875 48.527344 117.734375 46.097656 115.757812 43.984375 L 117.765625 41.976562 L 119.632812 43.84375 C 119.804688 44.015625 120.03125 44.101562 120.257812 44.101562 C 120.484375 44.101562 120.710938 44.015625 120.882812 43.84375 C 121.230469 43.496094 121.230469 42.9375 120.882812 42.589844 L 118.390625 40.097656 L 115.898438 37.601562 C 115.550781 37.257812 114.992188 37.257812 114.644531 37.601562 C 114.300781 37.949219 114.300781 38.507812 114.644531 38.855469 L 116.511719 40.722656 L 114.503906 42.730469 C 112.390625 40.753906 109.960938 39.179688 107.292969 38.054688 C 104.519531 36.878906 101.582031 36.230469 98.5625 36.136719 L 98.5625 33.285156 L 102.261719 33.285156 C 102.75 33.285156 103.148438 32.886719 103.148438 32.398438 C 103.148438 31.914062 102.761719 31.527344 102.261719 31.527344 L 93.085938 31.527344 C 92.601562 31.527344 92.203125 31.925781 92.203125 32.410156 C 92.203125 32.894531 92.601562 33.296875 93.085938 33.296875 L 96.789062 33.296875 L 96.789062 36.136719 C 93.769531 36.242188 90.832031 36.890625 88.058594 38.054688 C 85.390625 39.191406 82.960938 40.753906 80.847656 42.730469 L 78.847656 40.722656 L 80.71875 38.855469 C 81.0625 38.507812 81.0625 37.949219 80.71875 37.601562 C 80.371094 37.257812 79.808594 37.257812 79.464844 37.601562 L 74.476562 42.589844 C 74.132812 42.9375 74.132812 43.496094 74.476562 43.84375 C 74.648438 44.015625 74.875 44.101562 75.101562 44.101562 C 75.332031 44.101562 75.558594 44.015625 75.730469 43.84375 L 77.597656 41.976562 L 79.605469 43.984375 C 77.628906 46.097656 76.054688 48.527344 74.929688 51.195312 C 73.636719 54.238281 72.988281 57.476562 72.988281 60.800781 C 72.988281 64.136719 73.636719 67.363281 74.929688 70.410156 C 76.171875 73.355469 77.953125 76 80.21875 78.265625 C 82.488281 80.535156 85.132812 82.316406 88.066406 83.558594 C 91.113281 84.839844 94.351562 85.5 97.675781 85.5 C 101 85.5 104.238281 84.851562 107.28125 83.558594 C 110.21875 82.316406 112.863281 80.535156 115.132812 78.265625 C 117.398438 76 119.179688 73.355469 120.421875 70.417969 C 121.707031 67.375 122.363281 64.136719 122.363281 60.8125 C 122.375 57.476562 121.726562 54.238281 120.429688 51.195312 Z M 97.6875 83.742188 C 85.046875 83.742188 74.757812 73.453125 74.757812 60.8125 C 74.757812 48.171875 85.035156 37.871094 97.6875 37.871094 C 110.328125 37.871094 120.613281 48.160156 120.613281 60.800781 C 120.613281 73.441406 110.328125 83.742188 97.6875 83.742188 Z M 97.6875 83.742188 " fill-opacity="1" fill-rule="nonzero"/></g><path fill="#ffffff" d="M 114.246094 53.804688 C 113.339844 51.667969 112.042969 49.746094 110.390625 48.09375 C 108.742188 46.445312 106.820312 45.148438 104.679688 44.242188 C 102.46875 43.300781 100.117188 42.828125 97.6875 42.828125 C 95.257812 42.828125 92.902344 43.300781 90.691406 44.242188 C 88.554688 45.148438 86.632812 46.445312 84.980469 48.09375 C 83.328125 49.746094 82.035156 51.667969 81.128906 53.804688 C 80.1875 56.019531 79.710938 58.371094 79.710938 60.800781 C 79.710938 62.753906 80.027344 64.6875 80.640625 66.523438 C 81.234375 68.304688 82.109375 69.976562 83.230469 71.488281 C 83.492188 71.84375 83.964844 71.941406 84.34375 71.746094 C 84.367188 71.738281 84.386719 71.726562 84.398438 71.714844 C 84.398438 71.714844 84.410156 71.714844 84.410156 71.714844 C 84.429688 71.703125 84.441406 71.695312 84.460938 71.683594 L 86.976562 69.824219 C 87.367188 69.535156 87.453125 68.984375 87.160156 68.59375 C 86.871094 68.207031 86.320312 68.121094 85.929688 68.410156 L 84.148438 69.730469 C 82.5625 67.320312 81.65625 64.578125 81.503906 61.699219 L 83.71875 61.699219 C 84.203125 61.699219 84.601562 61.296875 84.601562 60.8125 C 84.601562 60.328125 84.203125 59.925781 83.71875 59.925781 L 81.492188 59.925781 C 81.699219 56.117188 83.222656 52.660156 85.617188 49.996094 L 87.183594 51.5625 C 87.355469 51.734375 87.582031 51.820312 87.808594 51.820312 C 88.035156 51.820312 88.261719 51.734375 88.433594 51.5625 C 88.78125 51.214844 88.78125 50.652344 88.433594 50.308594 L 86.871094 48.742188 C 89.535156 46.347656 93 44.824219 96.800781 44.621094 L 96.800781 46.84375 C 96.800781 47.328125 97.199219 47.730469 97.6875 47.730469 C 98.171875 47.730469 98.570312 47.328125 98.570312 46.84375 L 98.570312 44.621094 C 102.382812 44.824219 105.835938 46.347656 108.503906 48.742188 L 106.9375 50.308594 C 106.59375 50.652344 106.59375 51.214844 106.9375 51.5625 C 107.109375 51.734375 107.335938 51.820312 107.5625 51.820312 C 107.789062 51.820312 108.015625 51.734375 108.191406 51.5625 L 109.753906 49.996094 C 112.152344 52.660156 113.671875 56.128906 113.878906 59.925781 L 111.65625 59.925781 C 111.167969 59.925781 110.769531 60.328125 110.769531 60.8125 C 110.769531 61.296875 111.167969 61.699219 111.65625 61.699219 L 113.878906 61.699219 C 113.726562 64.578125 112.820312 67.332031 111.234375 69.730469 L 109.453125 68.410156 C 109.0625 68.121094 108.515625 68.207031 108.222656 68.59375 C 107.929688 68.984375 108.015625 69.535156 108.40625 69.824219 L 110.886719 71.660156 C 110.898438 71.671875 110.898438 71.671875 110.910156 71.683594 C 111.070312 71.800781 111.253906 71.855469 111.4375 71.855469 C 111.710938 71.855469 111.980469 71.738281 112.152344 71.5 C 113.273438 69.988281 114.148438 68.316406 114.742188 66.535156 C 115.359375 64.699219 115.671875 62.765625 115.671875 60.8125 C 115.660156 58.382812 115.183594 56.03125 114.246094 53.804688 Z M 114.246094 53.804688 " fill-opacity="1" fill-rule="nonzero"/><path fill="#ffffff" d="M 103.148438 65.722656 C 103.417969 65.722656 103.6875 65.605469 103.859375 65.367188 C 104.152344 64.980469 104.066406 64.429688 103.675781 64.136719 L 101.011719 62.160156 C 101.183594 61.742188 101.28125 61.285156 101.28125 60.800781 C 101.28125 59.128906 100.125 57.714844 98.570312 57.324219 L 98.570312 50.925781 C 98.570312 50.4375 98.171875 50.039062 97.6875 50.039062 C 97.199219 50.039062 96.800781 50.4375 96.800781 50.925781 L 96.800781 57.324219 C 95.246094 57.714844 94.089844 59.128906 94.089844 60.800781 C 94.089844 62.777344 95.699219 64.386719 97.675781 64.386719 C 98.539062 64.386719 99.328125 64.082031 99.941406 63.574219 L 102.609375 65.550781 C 102.78125 65.667969 102.964844 65.722656 103.148438 65.722656 Z M 97.6875 62.625 C 96.683594 62.625 95.863281 61.804688 95.863281 60.800781 C 95.863281 59.796875 96.683594 58.976562 97.6875 58.976562 C 98.691406 58.976562 99.511719 59.796875 99.511719 60.800781 C 99.511719 61.804688 98.691406 62.625 97.6875 62.625 Z M 97.6875 62.625 " fill-opacity="1" fill-rule="nonzero"/><path fill="#ffffff" d="M 96.953125 73.097656 C 96.519531 73.097656 96.121094 73.183594 95.765625 73.34375 C 95.453125 73.484375 95.183594 73.679688 94.976562 73.917969 C 94.792969 73.667969 94.566406 73.472656 94.285156 73.335938 C 93.960938 73.183594 93.59375 73.097656 93.183594 73.097656 C 92.808594 73.097656 92.460938 73.160156 92.148438 73.292969 C 91.910156 73.386719 91.707031 73.527344 91.535156 73.691406 C 91.457031 73.386719 91.1875 73.152344 90.851562 73.152344 C 90.464844 73.152344 90.152344 73.464844 90.152344 73.851562 L 90.152344 77.945312 C 90.152344 78.34375 90.476562 78.667969 90.875 78.667969 C 91.273438 78.667969 91.597656 78.34375 91.597656 77.945312 L 91.597656 75.871094 C 91.597656 75.386719 91.71875 75.007812 91.945312 74.757812 C 92.171875 74.511719 92.472656 74.382812 92.871094 74.382812 C 93.226562 74.382812 93.488281 74.488281 93.679688 74.695312 C 93.863281 74.910156 93.960938 75.234375 93.960938 75.675781 L 93.960938 77.945312 C 93.960938 78.34375 94.285156 78.667969 94.683594 78.667969 C 95.085938 78.667969 95.410156 78.34375 95.410156 77.945312 L 95.410156 75.871094 C 95.410156 75.386719 95.527344 75.019531 95.753906 74.757812 C 95.992188 74.5 96.292969 74.382812 96.683594 74.382812 C 97.039062 74.382812 97.296875 74.488281 97.492188 74.695312 C 97.675781 74.910156 97.773438 75.234375 97.773438 75.675781 L 97.773438 77.945312 C 97.773438 78.34375 98.097656 78.667969 98.496094 78.667969 C 98.894531 78.667969 99.21875 78.34375 99.21875 77.945312 L 99.21875 75.527344 C 99.21875 74.726562 99.015625 74.113281 98.605469 73.703125 C 98.203125 73.3125 97.644531 73.097656 96.953125 73.097656 Z M 96.953125 73.097656 " fill-opacity="1" fill-rule="nonzero"/><path fill="#ffffff" d="M 104.152344 75.589844 C 103.871094 75.503906 103.515625 75.429688 103.09375 75.363281 C 102.671875 75.289062 102.371094 75.210938 102.175781 75.136719 C 102.015625 75.070312 101.941406 74.964844 101.941406 74.8125 C 101.941406 74.671875 102.015625 74.566406 102.167969 74.46875 C 102.339844 74.371094 102.597656 74.316406 102.945312 74.316406 C 103.320312 74.316406 103.675781 74.382812 104 74.5 C 104.078125 74.53125 104.152344 74.542969 104.226562 74.542969 C 104.464844 74.542969 104.679688 74.414062 104.789062 74.199219 C 104.875 74.035156 104.875 73.839844 104.8125 73.667969 C 104.734375 73.496094 104.59375 73.367188 104.421875 73.3125 C 104.316406 73.28125 104.195312 73.246094 104.078125 73.214844 C 103.699219 73.128906 103.332031 73.085938 102.964844 73.085938 C 102.230469 73.085938 101.636719 73.246094 101.195312 73.5625 C 100.742188 73.882812 100.515625 74.316406 100.515625 74.855469 C 100.515625 75.265625 100.621094 75.589844 100.847656 75.828125 C 101.066406 76.054688 101.3125 76.214844 101.617188 76.3125 C 101.894531 76.398438 102.261719 76.476562 102.695312 76.539062 C 103.105469 76.605469 103.40625 76.667969 103.582031 76.746094 C 103.730469 76.800781 103.796875 76.898438 103.796875 77.035156 C 103.796875 77.15625 103.796875 77.523438 102.792969 77.523438 C 102.480469 77.523438 102.15625 77.480469 101.832031 77.382812 C 101.691406 77.339844 101.550781 77.296875 101.421875 77.242188 C 101.347656 77.210938 101.257812 77.1875 101.171875 77.1875 C 100.9375 77.1875 100.71875 77.316406 100.613281 77.535156 L 100.613281 77.542969 C 100.535156 77.707031 100.527344 77.890625 100.578125 78.050781 C 100.644531 78.214844 100.761719 78.34375 100.925781 78.40625 C 101.074219 78.472656 101.238281 78.527344 101.421875 78.570312 C 101.84375 78.6875 102.273438 78.742188 102.71875 78.742188 C 103.484375 78.742188 104.085938 78.582031 104.542969 78.277344 C 105.003906 77.964844 105.230469 77.535156 105.230469 76.992188 C 105.230469 76.59375 105.125 76.269531 104.910156 76.042969 C 104.691406 75.839844 104.445312 75.6875 104.152344 75.589844 Z M 104.152344 75.589844 " fill-opacity="1" fill-rule="nonzero"/><g clip-path="url(#a20b0fbb23)"><path fill="#ffffff" d="M 256.671875 76.625 L 231.296875 33.519531 C 231.207031 33.371094 231.109375 33.222656 231 33.085938 C 230.894531 32.949219 230.777344 32.816406 230.652344 32.695312 C 230.527344 32.570312 230.394531 32.457031 230.257812 32.351562 C 230.117188 32.246094 229.972656 32.148438 229.820312 32.0625 C 229.667969 31.972656 229.507812 31.898438 229.347656 31.832031 C 229.183594 31.765625 229.019531 31.707031 228.851562 31.664062 C 228.679688 31.617188 228.507812 31.585938 228.335938 31.5625 C 228.160156 31.539062 227.988281 31.527344 227.8125 31.527344 C 227.636719 31.527344 227.460938 31.539062 227.289062 31.5625 C 227.113281 31.585938 226.941406 31.617188 226.773438 31.664062 C 226.605469 31.707031 226.4375 31.765625 226.277344 31.832031 C 226.113281 31.898438 225.957031 31.972656 225.804688 32.0625 C 225.652344 32.148438 225.507812 32.246094 225.367188 32.351562 C 225.226562 32.457031 225.097656 32.570312 224.972656 32.695312 C 224.847656 32.816406 224.730469 32.949219 224.621094 33.085938 C 224.515625 33.222656 224.417969 33.371094 224.328125 33.519531 L 198.953125 76.625 C 198.585938 77.25 198.398438 77.921875 198.394531 78.648438 C 198.390625 79.375 198.566406 80.050781 198.925781 80.683594 C 199.285156 81.3125 199.78125 81.808594 200.40625 82.171875 C 201.035156 82.535156 201.710938 82.71875 202.4375 82.71875 L 253.1875 82.71875 C 256.316406 82.71875 258.257812 79.316406 256.671875 76.625 Z M 203.222656 78.382812 L 227.503906 37.789062 L 251.785156 78.382812 Z M 203.222656 78.382812 " fill-opacity="1" fill-rule="nonzero"/></g><path fill="#ffffff" d="M 224.519531 72.511719 C 224.519531 70.691406 225.785156 69.378906 227.503906 69.378906 C 229.324219 69.378906 230.484375 70.691406 230.484375 72.511719 C 230.484375 74.28125 229.324219 75.644531 227.503906 75.644531 C 225.734375 75.644531 224.519531 74.28125 224.519531 72.511719 Z M 225.800781 66.902344 L 224.570312 49.785156 C 224.507812 48.933594 225.847656 48.234375 227.503906 48.234375 C 229.160156 48.234375 230.503906 48.933594 230.441406 49.785156 L 229.207031 66.902344 C 229.164062 67.480469 228.417969 67.941406 227.503906 67.941406 C 226.589844 67.941406 225.839844 67.480469 225.800781 66.902344 Z M 225.800781 66.902344 " fill-opacity="1" fill-rule="nonzero"/><g clip-path="url(#7724e07548)"><path fill="#278d46" d="M 58.734375 29.410156 C 58.734375 44.699219 46.355469 57.09375 31.085938 57.09375 C 26.546875 57.097656 22.269531 56.046875 18.25 53.933594 C 18.242188 53.9375 18.230469 53.945312 18.21875 53.949219 L 9.886719 57.417969 C 7.277344 58.5 4.648438 55.917969 5.679688 53.285156 L 8.683594 45.636719 C 6.976562 43.277344 5.671875 40.714844 4.777344 37.941406 C 3.878906 35.167969 3.433594 32.324219 3.4375 29.410156 C 3.4375 14.121094 15.816406 1.726562 31.085938 1.726562 C 46.355469 1.726562 58.734375 14.121094 58.734375 29.410156 Z M 58.734375 29.410156 " fill-opacity="1" fill-rule="nonzero"/></g><path fill="#ffffff" d="M 55.144531 29.410156 C 55.144531 30.199219 55.105469 30.984375 55.03125 31.769531 C 54.953125 32.554688 54.835938 33.335938 54.683594 34.109375 C 54.53125 34.882812 54.339844 35.648438 54.109375 36.402344 C 53.882812 37.15625 53.617188 37.898438 53.316406 38.628906 C 53.011719 39.355469 52.675781 40.070312 52.304688 40.765625 C 51.933594 41.460938 51.527344 42.136719 51.089844 42.792969 C 50.652344 43.449219 50.183594 44.082031 49.683594 44.691406 C 49.183594 45.300781 48.65625 45.886719 48.097656 46.445312 C 47.542969 47 46.957031 47.53125 46.347656 48.03125 C 45.742188 48.53125 45.109375 49 44.453125 49.441406 C 43.796875 49.878906 43.121094 50.285156 42.425781 50.65625 C 41.734375 51.027344 41.019531 51.363281 40.292969 51.667969 C 39.566406 51.96875 38.824219 52.234375 38.070312 52.460938 C 37.316406 52.691406 36.550781 52.882812 35.78125 53.035156 C 35.007812 53.191406 34.226562 53.308594 33.445312 53.382812 C 32.660156 53.460938 31.875 53.5 31.085938 53.5 C 30.296875 53.5 29.511719 53.460938 28.726562 53.382812 C 27.941406 53.308594 27.164062 53.191406 26.390625 53.035156 C 25.617188 52.882812 24.855469 52.691406 24.101562 52.460938 C 23.347656 52.234375 22.605469 51.96875 21.878906 51.667969 C 21.148438 51.363281 20.4375 51.027344 19.742188 50.65625 C 19.050781 50.285156 18.375 49.878906 17.71875 49.441406 C 17.0625 49 16.429688 48.53125 15.820312 48.03125 C 15.214844 47.53125 14.628906 47 14.074219 46.445312 C 13.515625 45.886719 12.988281 45.300781 12.488281 44.691406 C 11.988281 44.082031 11.519531 43.449219 11.082031 42.792969 C 10.644531 42.136719 10.238281 41.460938 9.867188 40.765625 C 9.496094 40.070312 9.160156 39.355469 8.855469 38.628906 C 8.554688 37.898438 8.289062 37.15625 8.0625 36.402344 C 7.832031 35.648438 7.640625 34.882812 7.488281 34.109375 C 7.335938 33.335938 7.21875 32.554688 7.140625 31.769531 C 7.0625 30.984375 7.027344 30.199219 7.027344 29.410156 C 7.027344 28.621094 7.0625 27.832031 7.140625 27.046875 C 7.21875 26.261719 7.335938 25.484375 7.488281 24.710938 C 7.640625 23.9375 7.832031 23.171875 8.0625 22.417969 C 8.289062 21.660156 8.554688 20.917969 8.855469 20.191406 C 9.160156 19.460938 9.496094 18.75 9.867188 18.054688 C 10.238281 17.355469 10.644531 16.679688 11.082031 16.023438 C 11.519531 15.371094 11.988281 14.734375 12.488281 14.125 C 12.988281 13.515625 13.515625 12.933594 14.074219 12.375 C 14.628906 11.816406 15.214844 11.289062 15.820312 10.785156 C 16.429688 10.285156 17.0625 9.816406 17.71875 9.378906 C 18.375 8.941406 19.050781 8.535156 19.742188 8.164062 C 20.4375 7.792969 21.148438 7.453125 21.878906 7.152344 C 22.605469 6.851562 23.347656 6.585938 24.101562 6.355469 C 24.855469 6.125 25.617188 5.933594 26.390625 5.78125 C 27.164062 5.628906 27.941406 5.511719 28.726562 5.433594 C 29.511719 5.355469 30.296875 5.320312 31.085938 5.320312 C 31.875 5.320312 32.660156 5.355469 33.445312 5.433594 C 34.226562 5.511719 35.007812 5.628906 35.78125 5.78125 C 36.550781 5.933594 37.316406 6.125 38.070312 6.355469 C 38.824219 6.585938 39.566406 6.851562 40.292969 7.152344 C 41.019531 7.453125 41.734375 7.792969 42.425781 8.164062 C 43.121094 8.535156 43.796875 8.941406 44.453125 9.378906 C 45.109375 9.816406 45.742188 10.285156 46.347656 10.785156 C 46.957031 11.289062 47.542969 11.816406 48.097656 12.375 C 48.65625 12.933594 49.183594 13.515625 49.683594 14.125 C 50.183594 14.734375 50.652344 15.371094 51.089844 16.023438 C 51.527344 16.679688 51.933594 17.355469 52.304688 18.054688 C 52.675781 18.75 53.011719 19.460938 53.316406 20.191406 C 53.617188 20.917969 53.882812 21.660156 54.109375 22.417969 C 54.339844 23.171875 54.53125 23.9375 54.683594 24.710938 C 54.835938 25.484375 54.953125 26.261719 55.03125 27.046875 C 55.105469 27.832031 55.144531 28.621094 55.144531 29.410156 Z M 55.144531 29.410156 " fill-opacity="1" fill-rule="nonzero"/><path fill="#278d46" d="M 51.777344 29.410156 C 51.777344 30.085938 51.742188 30.765625 51.675781 31.441406 C 51.609375 32.113281 51.511719 32.785156 51.378906 33.449219 C 51.246094 34.117188 51.082031 34.773438 50.886719 35.421875 C 50.6875 36.070312 50.460938 36.710938 50.199219 37.335938 C 49.941406 37.964844 49.652344 38.578125 49.332031 39.175781 C 49.011719 39.773438 48.664062 40.355469 48.289062 40.917969 C 47.914062 41.484375 47.507812 42.027344 47.078125 42.550781 C 46.648438 43.078125 46.195312 43.578125 45.714844 44.058594 C 45.238281 44.539062 44.734375 44.992188 44.210938 45.421875 C 43.6875 45.855469 43.144531 46.257812 42.582031 46.632812 C 42.015625 47.011719 41.4375 47.359375 40.839844 47.679688 C 40.242188 48 39.628906 48.289062 39.003906 48.550781 C 38.378906 48.808594 37.742188 49.035156 37.09375 49.234375 C 36.445312 49.429688 35.785156 49.59375 35.121094 49.726562 C 34.457031 49.859375 33.789062 49.960938 33.113281 50.027344 C 32.4375 50.09375 31.761719 50.125 31.085938 50.125 C 30.40625 50.125 29.730469 50.09375 29.058594 50.027344 C 28.382812 49.960938 27.714844 49.859375 27.050781 49.726562 C 26.382812 49.59375 25.726562 49.429688 25.078125 49.234375 C 24.429688 49.035156 23.792969 48.808594 23.167969 48.550781 C 22.542969 48.289062 21.929688 48 21.332031 47.679688 C 20.734375 47.359375 20.152344 47.011719 19.589844 46.632812 C 19.027344 46.257812 18.484375 45.855469 17.960938 45.421875 C 17.4375 44.992188 16.933594 44.539062 16.457031 44.058594 C 15.976562 43.578125 15.523438 43.078125 15.09375 42.550781 C 14.660156 42.027344 14.257812 41.484375 13.882812 40.917969 C 13.507812 40.355469 13.15625 39.773438 12.839844 39.175781 C 12.519531 38.578125 12.230469 37.964844 11.96875 37.335938 C 11.710938 36.710938 11.484375 36.074219 11.285156 35.421875 C 11.089844 34.773438 10.925781 34.117188 10.792969 33.449219 C 10.660156 32.785156 10.5625 32.113281 10.496094 31.441406 C 10.429688 30.765625 10.394531 30.085938 10.394531 29.410156 C 10.394531 28.730469 10.429688 28.054688 10.496094 27.378906 C 10.5625 26.703125 10.660156 26.03125 10.792969 25.367188 C 10.925781 24.703125 11.089844 24.042969 11.285156 23.394531 C 11.484375 22.746094 11.710938 22.109375 11.96875 21.480469 C 12.230469 20.855469 12.519531 20.242188 12.839844 19.644531 C 13.15625 19.046875 13.507812 18.464844 13.882812 17.898438 C 14.257812 17.335938 14.660156 16.792969 15.09375 16.265625 C 15.523438 15.742188 15.976562 15.238281 16.457031 14.761719 C 16.933594 14.28125 17.4375 13.824219 17.960938 13.394531 C 18.484375 12.964844 19.027344 12.5625 19.589844 12.183594 C 20.152344 11.808594 20.734375 11.457031 21.332031 11.140625 C 21.929688 10.820312 22.542969 10.53125 23.167969 10.269531 C 23.792969 10.011719 24.429688 9.78125 25.078125 9.585938 C 25.726562 9.386719 26.382812 9.222656 27.050781 9.089844 C 27.714844 8.957031 28.382812 8.859375 29.058594 8.792969 C 29.730469 8.726562 30.40625 8.691406 31.085938 8.691406 C 31.761719 8.691406 32.4375 8.726562 33.113281 8.792969 C 33.789062 8.859375 34.457031 8.957031 35.121094 9.089844 C 35.785156 9.222656 36.445312 9.386719 37.09375 9.585938 C 37.742188 9.78125 38.378906 10.011719 39.003906 10.269531 C 39.628906 10.53125 40.242188 10.820312 40.839844 11.140625 C 41.4375 11.457031 42.015625 11.808594 42.582031 12.183594 C 43.144531 12.5625 43.6875 12.964844 44.210938 13.394531 C 44.734375 13.824219 45.238281 14.28125 45.714844 14.761719 C 46.195312 15.238281 46.648438 15.742188 47.078125 16.265625 C 47.507812 16.792969 47.914062 17.335938 48.289062 17.898438 C 48.664062 18.464844 49.011719 19.046875 49.332031 19.644531 C 49.652344 20.242188 49.941406 20.855469 50.199219 21.480469 C 50.460938 22.109375 50.6875 22.746094 50.886719 23.394531 C 51.082031 24.042969 51.246094 24.703125 51.378906 25.367188 C 51.511719 26.03125 51.609375 26.703125 51.675781 27.378906 C 51.742188 28.054688 51.777344 28.730469 51.777344 29.410156 Z M 51.777344 29.410156 " fill-opacity="1" fill-rule="nonzero"/><path fill="#ffffff" d="M 28.429688 22.640625 L 27.625 19.238281 C 27.53125 18.84375 27.363281 18.488281 27.117188 18.167969 C 26.871094 17.847656 26.570312 17.589844 26.214844 17.398438 C 25.863281 17.207031 25.484375 17.09375 25.082031 17.0625 C 24.679688 17.03125 24.289062 17.085938 23.90625 17.222656 L 22.050781 17.890625 C 21.75 18 21.472656 18.15625 21.222656 18.359375 C 20.972656 18.5625 20.765625 18.804688 20.597656 19.078125 C 20.429688 19.351562 20.308594 19.648438 20.242188 19.960938 C 20.171875 20.277344 20.160156 20.59375 20.199219 20.914062 C 20.847656 26.175781 23.824219 38.914062 37.523438 41.710938 C 38.082031 41.824219 38.621094 41.777344 39.148438 41.5625 C 39.675781 41.351562 40.097656 41.011719 40.421875 40.546875 L 41.488281 39.003906 C 41.703125 38.695312 41.847656 38.355469 41.925781 37.988281 C 42.007812 37.621094 42.011719 37.253906 41.945312 36.882812 C 41.878906 36.511719 41.742188 36.167969 41.539062 35.855469 C 41.335938 35.539062 41.078125 35.273438 40.769531 35.058594 L 40.753906 35.046875 L 38.410156 33.449219 C 38.15625 33.277344 37.882812 33.148438 37.585938 33.0625 C 37.292969 32.980469 36.992188 32.945312 36.683594 32.960938 C 36.378906 32.972656 36.082031 33.035156 35.796875 33.148438 C 35.507812 33.257812 35.25 33.410156 35.011719 33.605469 C 34.777344 33.800781 34.515625 33.953125 34.234375 34.066406 C 33.949219 34.175781 33.65625 34.238281 33.351562 34.253906 C 33.046875 34.269531 32.746094 34.234375 32.453125 34.15625 C 32.160156 34.074219 31.886719 33.949219 31.632812 33.777344 C 30.207031 32.816406 28.277344 31.222656 27.027344 29.011719 C 26.738281 28.503906 26.617188 27.960938 26.660156 27.378906 C 26.707031 26.796875 26.914062 26.277344 27.277344 25.824219 L 27.878906 25.074219 C 28.152344 24.730469 28.339844 24.347656 28.4375 23.921875 C 28.53125 23.496094 28.53125 23.066406 28.429688 22.640625 Z M 28.429688 22.640625 " fill-opacity="1" fill-rule="nonzero"/><g fill="#ffffff" fill-opacity="1"><g transform="translate(105.370861, 22.874416)"><g><path d="M 13.859375 0 L 10.765625 0 L 9.078125 -7.203125 C 8.867188 -8.054688 8.691406 -8.945312 8.546875 -9.875 C 8.410156 -9.09375 8.296875 -8.5 8.203125 -8.09375 C 8.117188 -7.695312 7.492188 -5 6.328125 0 L 3.234375 0 L 0.015625 -12.453125 L 2.65625 -12.453125 L 4.46875 -4.40625 L 4.875 -2.46875 C 5.039062 -3.289062 5.203125 -4.070312 5.359375 -4.8125 C 5.515625 -5.5625 6.101562 -8.109375 7.125 -12.453125 L 10.03125 -12.453125 L 11.609375 -5.828125 C 11.734375 -5.328125 11.941406 -4.207031 12.234375 -2.46875 L 12.453125 -3.5 L 12.921875 -5.53125 L 14.4375 -12.453125 L 17.078125 -12.453125 Z M 13.859375 0 "/></g></g></g><g fill="#ffffff" fill-opacity="1"><g transform="translate(122.466051, 22.874416)"><g><path d="M 9.25 0 L 9.25 -5.34375 L 3.8125 -5.34375 L 3.8125 0 L 1.21875 0 L 1.21875 -12.453125 L 3.8125 -12.453125 L 3.8125 -7.5 L 9.25 -7.5 L 9.25 -12.453125 L 11.859375 -12.453125 L 11.859375 0 Z M 9.25 0 "/></g></g></g><g fill="#ffffff" fill-opacity="1"><g transform="translate(135.546128, 22.874416)"><g><path d="M 10.015625 0 L 8.90625 -3.1875 L 4.171875 -3.1875 L 3.0625 0 L 0.453125 0 L 5 -12.453125 L 8.078125 -12.453125 L 12.59375 0 Z M 6.53125 -10.546875 L 6.484375 -10.34375 C 6.421875 -10.132812 6.347656 -9.894531 6.265625 -9.625 C 6.179688 -9.351562 5.675781 -7.859375 4.75 -5.140625 L 8.328125 -5.140625 L 7.09375 -8.734375 L 6.71875 -9.9375 Z M 6.53125 -10.546875 "/></g></g></g><g fill="#ffffff" fill-opacity="1"><g transform="translate(147.28163, 22.874416)"><g><path d="M 6.828125 -10.4375 L 6.828125 0 L 4.234375 0 L 4.234375 -10.4375 L 0.203125 -10.4375 L 0.203125 -12.453125 L 10.875 -12.453125 L 10.875 -10.4375 Z M 6.828125 -10.4375 "/></g></g></g><g fill="#ffffff" fill-opacity="1"><g transform="translate(158.345307, 22.874416)"><g><path d="M 11.375 -3.59375 C 11.375 -2.375 10.921875 -1.441406 10.015625 -0.796875 C 9.109375 -0.148438 7.78125 0.171875 6.03125 0.171875 C 4.4375 0.171875 3.179688 -0.109375 2.265625 -0.671875 C 1.359375 -1.234375 0.773438 -2.09375 0.515625 -3.25 L 3.046875 -3.65625 C 3.210938 -3 3.539062 -2.519531 4.03125 -2.21875 C 4.53125 -1.925781 5.21875 -1.78125 6.09375 -1.78125 C 7.914062 -1.78125 8.828125 -2.332031 8.828125 -3.4375 C 8.828125 -3.789062 8.722656 -4.082031 8.515625 -4.3125 C 8.304688 -4.539062 8.007812 -4.734375 7.625 -4.890625 C 7.25 -5.046875 6.523438 -5.234375 5.453125 -5.453125 C 4.515625 -5.671875 3.863281 -5.84375 3.5 -5.96875 C 3.132812 -6.101562 2.800781 -6.257812 2.5 -6.4375 C 2.207031 -6.625 1.957031 -6.84375 1.75 -7.09375 C 1.550781 -7.34375 1.394531 -7.640625 1.28125 -7.984375 C 1.164062 -8.328125 1.109375 -8.71875 1.109375 -9.15625 C 1.109375 -10.28125 1.53125 -11.140625 2.375 -11.734375 C 3.21875 -12.335938 4.445312 -12.640625 6.0625 -12.640625 C 7.601562 -12.640625 8.757812 -12.394531 9.53125 -11.90625 C 10.3125 -11.425781 10.816406 -10.628906 11.046875 -9.515625 L 8.515625 -9.171875 C 8.390625 -9.710938 8.125 -10.117188 7.71875 -10.390625 C 7.320312 -10.660156 6.753906 -10.796875 6.015625 -10.796875 C 4.429688 -10.796875 3.640625 -10.300781 3.640625 -9.3125 C 3.640625 -8.988281 3.722656 -8.722656 3.890625 -8.515625 C 4.054688 -8.304688 4.304688 -8.128906 4.640625 -7.984375 C 4.972656 -7.835938 5.644531 -7.660156 6.65625 -7.453125 C 7.84375 -7.191406 8.691406 -6.953125 9.203125 -6.734375 C 9.722656 -6.523438 10.132812 -6.273438 10.4375 -5.984375 C 10.738281 -5.703125 10.96875 -5.363281 11.125 -4.96875 C 11.289062 -4.570312 11.375 -4.113281 11.375 -3.59375 Z M 11.375 -3.59375 "/></g></g></g><g fill="#ffffff" fill-opacity="1"><g transform="translate(170.426021, 22.874416)"><g><path d="M 10.015625 0 L 8.90625 -3.1875 L 4.171875 -3.1875 L 3.0625 0 L 0.453125 0 L 5 -12.453125 L 8.078125 -12.453125 L 12.59375 0 Z M 6.53125 -10.546875 L 6.484375 -10.34375 C 6.421875 -10.132812 6.347656 -9.894531 6.265625 -9.625 C 6.179688 -9.351562 5.675781 -7.859375 4.75 -5.140625 L 8.328125 -5.140625 L 7.09375 -8.734375 L 6.71875 -9.9375 Z M 6.53125 -10.546875 "/></g></g></g><g fill="#ffffff" fill-opacity="1"><g transform="translate(183.506098, 22.874416)"><g><path d="M 11.453125 -8.515625 C 11.453125 -7.710938 11.269531 -6.992188 10.90625 -6.359375 C 10.539062 -5.734375 10.019531 -5.25 9.34375 -4.90625 C 8.664062 -4.5625 7.859375 -4.390625 6.921875 -4.390625 L 3.8125 -4.390625 L 3.8125 0 L 1.21875 0 L 1.21875 -12.453125 L 6.8125 -12.453125 C 8.300781 -12.453125 9.445312 -12.109375 10.25 -11.421875 C 11.050781 -10.742188 11.453125 -9.773438 11.453125 -8.515625 Z M 8.828125 -8.46875 C 8.828125 -9.78125 8.054688 -10.4375 6.515625 -10.4375 L 3.8125 -10.4375 L 3.8125 -6.390625 L 6.59375 -6.390625 C 7.3125 -6.390625 7.863281 -6.566406 8.25 -6.921875 C 8.632812 -7.285156 8.828125 -7.800781 8.828125 -8.46875 Z M 8.828125 -8.46875 "/></g></g></g><g fill="#ffffff" fill-opacity="1"><g transform="translate(195.586813, 22.874416)"><g><path d="M 11.453125 -8.515625 C 11.453125 -7.710938 11.269531 -6.992188 10.90625 -6.359375 C 10.539062 -5.734375 10.019531 -5.25 9.34375 -4.90625 C 8.664062 -4.5625 7.859375 -4.390625 6.921875 -4.390625 L 3.8125 -4.390625 L 3.8125 0 L 1.21875 0 L 1.21875 -12.453125 L 6.8125 -12.453125 C 8.300781 -12.453125 9.445312 -12.109375 10.25 -11.421875 C 11.050781 -10.742188 11.453125 -9.773438 11.453125 -8.515625 Z M 8.828125 -8.46875 C 8.828125 -9.78125 8.054688 -10.4375 6.515625 -10.4375 L 3.8125 -10.4375 L 3.8125 -6.390625 L 6.59375 -6.390625 C 7.3125 -6.390625 7.863281 -6.566406 8.25 -6.921875 C 8.632812 -7.285156 8.828125 -7.800781 8.828125 -8.46875 Z M 8.828125 -8.46875 "/></g></g></g><g fill="#ffffff" fill-opacity="1"><g transform="translate(74.661813, 96.74788)"><g><path d="M 0.75 0 L 0.75 -7.765625 L 2.390625 -7.765625 L 2.390625 -1.25 L 6.546875 -1.25 L 6.546875 0 Z M 0.75 0 "/></g></g></g><g fill="#ffffff" fill-opacity="1"><g transform="translate(81.559672, 96.74788)"><g><path d="M 2.171875 0.109375 C 1.585938 0.109375 1.132812 -0.046875 0.8125 -0.359375 C 0.488281 -0.671875 0.328125 -1.113281 0.328125 -1.6875 C 0.328125 -2.300781 0.523438 -2.769531 0.921875 -3.09375 C 1.328125 -3.414062 1.914062 -3.582031 2.6875 -3.59375 L 3.96875 -3.625 L 3.96875 -3.921875 C 3.96875 -4.304688 3.898438 -4.59375 3.765625 -4.78125 C 3.628906 -4.976562 3.40625 -5.078125 3.09375 -5.078125 C 2.8125 -5.078125 2.601562 -5.007812 2.46875 -4.875 C 2.332031 -4.75 2.25 -4.535156 2.21875 -4.234375 L 0.59375 -4.3125 C 0.695312 -4.882812 0.960938 -5.320312 1.390625 -5.625 C 1.828125 -5.925781 2.421875 -6.078125 3.171875 -6.078125 C 3.921875 -6.078125 4.5 -5.890625 4.90625 -5.515625 C 5.3125 -5.148438 5.515625 -4.625 5.515625 -3.9375 L 5.515625 -1.765625 C 5.515625 -1.429688 5.550781 -1.195312 5.625 -1.0625 C 5.707031 -0.9375 5.835938 -0.875 6.015625 -0.875 C 6.128906 -0.875 6.242188 -0.890625 6.359375 -0.921875 L 6.359375 -0.078125 C 6.265625 -0.0546875 6.179688 -0.0351562 6.109375 -0.015625 C 6.035156 0.00390625 5.960938 0.0195312 5.890625 0.03125 C 5.816406 0.0390625 5.738281 0.046875 5.65625 0.046875 C 5.570312 0.0546875 5.472656 0.0625 5.359375 0.0625 C 4.972656 0.0625 4.6875 -0.03125 4.5 -0.21875 C 4.3125 -0.40625 4.203125 -0.6875 4.171875 -1.0625 L 4.125 -1.0625 C 3.695312 -0.28125 3.046875 0.109375 2.171875 0.109375 Z M 3.96875 -2.765625 L 3.171875 -2.75 C 2.816406 -2.738281 2.5625 -2.695312 2.40625 -2.625 C 2.257812 -2.5625 2.144531 -2.460938 2.0625 -2.328125 C 1.988281 -2.203125 1.953125 -2.03125 1.953125 -1.8125 C 1.953125 -1.53125 2.015625 -1.316406 2.140625 -1.171875 C 2.273438 -1.035156 2.453125 -0.96875 2.671875 -0.96875 C 2.910156 -0.96875 3.128906 -1.035156 3.328125 -1.171875 C 3.523438 -1.304688 3.679688 -1.488281 3.796875 -1.71875 C 3.910156 -1.945312 3.96875 -2.191406 3.96875 -2.453125 Z M 3.96875 -2.765625 "/></g></g></g><g fill="#ffffff" fill-opacity="1"><g transform="translate(87.839977, 96.74788)"><g><path d="M 2.3125 0.09375 C 1.851562 0.09375 1.5 -0.0234375 1.25 -0.265625 C 1.007812 -0.515625 0.890625 -0.894531 0.890625 -1.40625 L 0.890625 -4.921875 L 0.140625 -4.921875 L 0.140625 -5.96875 L 0.96875 -5.96875 L 1.453125 -7.375 L 2.421875 -7.375 L 2.421875 -5.96875 L 3.5625 -5.96875 L 3.5625 -4.921875 L 2.421875 -4.921875 L 2.421875 -1.8125 C 2.421875 -1.53125 2.476562 -1.316406 2.59375 -1.171875 C 2.707031 -1.035156 2.878906 -0.96875 3.109375 -0.96875 C 3.222656 -0.96875 3.394531 -0.992188 3.625 -1.046875 L 3.625 -0.09375 C 3.238281 0.03125 2.800781 0.09375 2.3125 0.09375 Z M 2.3125 0.09375 "/></g></g></g><g fill="#ffffff" fill-opacity="1"><g transform="translate(91.600437, 96.74788)"><g><path d="M 3.234375 0.109375 C 2.335938 0.109375 1.644531 -0.15625 1.15625 -0.6875 C 0.675781 -1.21875 0.4375 -1.992188 0.4375 -3.015625 C 0.4375 -3.992188 0.679688 -4.75 1.171875 -5.28125 C 1.660156 -5.8125 2.351562 -6.078125 3.25 -6.078125 C 4.113281 -6.078125 4.769531 -5.789062 5.21875 -5.21875 C 5.664062 -4.65625 5.890625 -3.828125 5.890625 -2.734375 L 5.890625 -2.6875 L 2.0625 -2.6875 C 2.0625 -2.101562 2.171875 -1.660156 2.390625 -1.359375 C 2.609375 -1.066406 2.914062 -0.921875 3.3125 -0.921875 C 3.851562 -0.921875 4.195312 -1.160156 4.34375 -1.640625 L 5.8125 -1.515625 C 5.382812 -0.429688 4.523438 0.109375 3.234375 0.109375 Z M 3.234375 -5.109375 C 2.867188 -5.109375 2.585938 -4.976562 2.390625 -4.71875 C 2.191406 -4.46875 2.085938 -4.113281 2.078125 -3.65625 L 4.390625 -3.65625 C 4.367188 -4.132812 4.253906 -4.492188 4.046875 -4.734375 C 3.847656 -4.984375 3.578125 -5.109375 3.234375 -5.109375 Z M 5.296875 -6.6875 L 5.296875 -6.53125 L 4.421875 -6.53125 L 3.296875 -7.578125 L 3.28125 -7.578125 L 2.109375 -6.53125 L 1.234375 -6.53125 L 1.234375 -6.6875 L 2.65625 -8.4375 L 3.921875 -8.4375 Z M 5.296875 -6.6875 "/></g></g></g><g fill="#ffffff" fill-opacity="1"><g transform="translate(97.880741, 96.74788)"><g><path d="M 4.65625 0 L 4.65625 -3.34375 C 4.65625 -4.394531 4.300781 -4.921875 3.59375 -4.921875 C 3.21875 -4.921875 2.914062 -4.757812 2.6875 -4.4375 C 2.457031 -4.113281 2.34375 -3.703125 2.34375 -3.203125 L 2.34375 0 L 0.78125 0 L 0.78125 -4.640625 C 0.78125 -4.953125 0.773438 -5.207031 0.765625 -5.40625 C 0.765625 -5.613281 0.757812 -5.800781 0.75 -5.96875 L 2.21875 -5.96875 C 2.226562 -5.894531 2.242188 -5.707031 2.265625 -5.40625 C 2.285156 -5.101562 2.296875 -4.894531 2.296875 -4.78125 L 2.3125 -4.78125 C 2.519531 -5.238281 2.78125 -5.566406 3.09375 -5.765625 C 3.414062 -5.972656 3.796875 -6.078125 4.234375 -6.078125 C 4.867188 -6.078125 5.351562 -5.882812 5.6875 -5.5 C 6.03125 -5.113281 6.203125 -4.546875 6.203125 -3.796875 L 6.203125 0 Z M 4.65625 0 "/></g></g></g><g fill="#ffffff" fill-opacity="1"><g transform="translate(104.7786, 96.74788)"><g><path d="M 3.28125 0.109375 C 2.375 0.109375 1.671875 -0.15625 1.171875 -0.6875 C 0.679688 -1.226562 0.4375 -1.984375 0.4375 -2.953125 C 0.4375 -3.929688 0.6875 -4.695312 1.1875 -5.25 C 1.6875 -5.800781 2.390625 -6.078125 3.296875 -6.078125 C 4.003906 -6.078125 4.585938 -5.898438 5.046875 -5.546875 C 5.503906 -5.191406 5.789062 -4.707031 5.90625 -4.09375 L 4.34375 -4.015625 C 4.300781 -4.316406 4.191406 -4.554688 4.015625 -4.734375 C 3.835938 -4.921875 3.585938 -5.015625 3.265625 -5.015625 C 2.460938 -5.015625 2.0625 -4.347656 2.0625 -3.015625 C 2.0625 -1.640625 2.46875 -0.953125 3.28125 -0.953125 C 3.582031 -0.953125 3.832031 -1.039062 4.03125 -1.21875 C 4.226562 -1.40625 4.347656 -1.6875 4.390625 -2.0625 L 5.953125 -1.984375 C 5.898438 -1.578125 5.753906 -1.210938 5.515625 -0.890625 C 5.273438 -0.566406 4.960938 -0.316406 4.578125 -0.140625 C 4.191406 0.0234375 3.757812 0.109375 3.28125 0.109375 Z M 3.28125 0.109375 "/></g></g></g><g fill="#ffffff" fill-opacity="1"><g transform="translate(111.058905, 96.74788)"><g><path d="M 0.78125 -7.046875 L 0.78125 -8.1875 L 2.34375 -8.1875 L 2.34375 -7.046875 Z M 0.78125 0 L 0.78125 -5.96875 L 2.34375 -5.96875 L 2.34375 0 Z M 0.78125 0 "/></g></g></g><g fill="#ffffff" fill-opacity="1"><g transform="translate(114.196303, 96.74788)"><g><path d="M 2.171875 0.109375 C 1.585938 0.109375 1.132812 -0.046875 0.8125 -0.359375 C 0.488281 -0.671875 0.328125 -1.113281 0.328125 -1.6875 C 0.328125 -2.300781 0.523438 -2.769531 0.921875 -3.09375 C 1.328125 -3.414062 1.914062 -3.582031 2.6875 -3.59375 L 3.96875 -3.625 L 3.96875 -3.921875 C 3.96875 -4.304688 3.898438 -4.59375 3.765625 -4.78125 C 3.628906 -4.976562 3.40625 -5.078125 3.09375 -5.078125 C 2.8125 -5.078125 2.601562 -5.007812 2.46875 -4.875 C 2.332031 -4.75 2.25 -4.535156 2.21875 -4.234375 L 0.59375 -4.3125 C 0.695312 -4.882812 0.960938 -5.320312 1.390625 -5.625 C 1.828125 -5.925781 2.421875 -6.078125 3.171875 -6.078125 C 3.921875 -6.078125 4.5 -5.890625 4.90625 -5.515625 C 5.3125 -5.148438 5.515625 -4.625 5.515625 -3.9375 L 5.515625 -1.765625 C 5.515625 -1.429688 5.550781 -1.195312 5.625 -1.0625 C 5.707031 -0.9375 5.835938 -0.875 6.015625 -0.875 C 6.128906 -0.875 6.242188 -0.890625 6.359375 -0.921875 L 6.359375 -0.078125 C 6.265625 -0.0546875 6.179688 -0.0351562 6.109375 -0.015625 C 6.035156 0.00390625 5.960938 0.0195312 5.890625 0.03125 C 5.816406 0.0390625 5.738281 0.046875 5.65625 0.046875 C 5.570312 0.0546875 5.472656 0.0625 5.359375 0.0625 C 4.972656 0.0625 4.6875 -0.03125 4.5 -0.21875 C 4.3125 -0.40625 4.203125 -0.6875 4.171875 -1.0625 L 4.125 -1.0625 C 3.695312 -0.28125 3.046875 0.109375 2.171875 0.109375 Z M 3.96875 -2.765625 L 3.171875 -2.75 C 2.816406 -2.738281 2.5625 -2.695312 2.40625 -2.625 C 2.257812 -2.5625 2.144531 -2.460938 2.0625 -2.328125 C 1.988281 -2.203125 1.953125 -2.03125 1.953125 -1.8125 C 1.953125 -1.53125 2.015625 -1.316406 2.140625 -1.171875 C 2.273438 -1.035156 2.453125 -0.96875 2.671875 -0.96875 C 2.910156 -0.96875 3.128906 -1.035156 3.328125 -1.171875 C 3.523438 -1.304688 3.679688 -1.488281 3.796875 -1.71875 C 3.910156 -1.945312 3.96875 -2.191406 3.96875 -2.453125 Z M 3.96875 -2.765625 "/></g></g></g><g fill="#ffffff" fill-opacity="1"><g transform="translate(179.844714, 95.586401)"><g><path d="M 7.15625 -5.3125 C 7.15625 -4.8125 7.039062 -4.363281 6.8125 -3.96875 C 6.582031 -3.570312 6.253906 -3.265625 5.828125 -3.046875 C 5.398438 -2.835938 4.894531 -2.734375 4.3125 -2.734375 L 2.390625 -2.734375 L 2.390625 0 L 0.75 0 L 0.75 -7.765625 L 4.25 -7.765625 C 5.175781 -7.765625 5.890625 -7.550781 6.390625 -7.125 C 6.898438 -6.695312 7.15625 -6.09375 7.15625 -5.3125 Z M 5.515625 -5.28125 C 5.515625 -6.101562 5.03125 -6.515625 4.0625 -6.515625 L 2.390625 -6.515625 L 2.390625 -3.984375 L 4.109375 -3.984375 C 4.554688 -3.984375 4.898438 -4.09375 5.140625 -4.3125 C 5.390625 -4.539062 5.515625 -4.863281 5.515625 -5.28125 Z M 5.515625 -5.28125 "/></g></g></g><g fill="#ffffff" fill-opacity="1"><g transform="translate(187.376662, 95.586401)"><g><path d="M 3.234375 0.109375 C 2.335938 0.109375 1.644531 -0.15625 1.15625 -0.6875 C 0.675781 -1.21875 0.4375 -1.992188 0.4375 -3.015625 C 0.4375 -3.992188 0.679688 -4.75 1.171875 -5.28125 C 1.660156 -5.8125 2.351562 -6.078125 3.25 -6.078125 C 4.113281 -6.078125 4.769531 -5.789062 5.21875 -5.21875 C 5.664062 -4.65625 5.890625 -3.828125 5.890625 -2.734375 L 5.890625 -2.6875 L 2.0625 -2.6875 C 2.0625 -2.101562 2.171875 -1.660156 2.390625 -1.359375 C 2.609375 -1.066406 2.914062 -0.921875 3.3125 -0.921875 C 3.851562 -0.921875 4.195312 -1.160156 4.34375 -1.640625 L 5.8125 -1.515625 C 5.382812 -0.429688 4.523438 0.109375 3.234375 0.109375 Z M 3.234375 -5.109375 C 2.867188 -5.109375 2.585938 -4.976562 2.390625 -4.71875 C 2.191406 -4.46875 2.085938 -4.113281 2.078125 -3.65625 L 4.390625 -3.65625 C 4.367188 -4.132812 4.253906 -4.492188 4.046875 -4.734375 C 3.847656 -4.984375 3.578125 -5.109375 3.234375 -5.109375 Z M 3.234375 -5.109375 "/></g></g></g><g fill="#ffffff" fill-opacity="1"><g transform="translate(193.656967, 95.586401)"><g><path d="M 0.78125 0 L 0.78125 -4.5625 C 0.78125 -4.894531 0.773438 -5.171875 0.765625 -5.390625 C 0.765625 -5.609375 0.757812 -5.800781 0.75 -5.96875 L 2.21875 -5.96875 C 2.226562 -5.90625 2.242188 -5.703125 2.265625 -5.359375 C 2.285156 -5.023438 2.296875 -4.800781 2.296875 -4.6875 L 2.3125 -4.6875 C 2.46875 -5.113281 2.601562 -5.410156 2.71875 -5.578125 C 2.832031 -5.753906 2.96875 -5.878906 3.125 -5.953125 C 3.289062 -6.035156 3.5 -6.078125 3.75 -6.078125 C 3.945312 -6.078125 4.101562 -6.050781 4.21875 -6 L 4.21875 -4.703125 C 3.96875 -4.753906 3.75 -4.78125 3.5625 -4.78125 C 3.175781 -4.78125 2.875 -4.625 2.65625 -4.3125 C 2.445312 -4 2.34375 -3.535156 2.34375 -2.921875 L 2.34375 0 Z M 0.78125 0 "/></g></g></g><g fill="#ffffff" fill-opacity="1"><g transform="translate(198.051528, 95.586401)"><g><path d="M 3.28125 0.109375 C 2.375 0.109375 1.671875 -0.15625 1.171875 -0.6875 C 0.679688 -1.226562 0.4375 -1.984375 0.4375 -2.953125 C 0.4375 -3.929688 0.6875 -4.695312 1.1875 -5.25 C 1.6875 -5.800781 2.390625 -6.078125 3.296875 -6.078125 C 4.003906 -6.078125 4.585938 -5.898438 5.046875 -5.546875 C 5.503906 -5.191406 5.789062 -4.707031 5.90625 -4.09375 L 4.34375 -4.015625 C 4.300781 -4.316406 4.191406 -4.554688 4.015625 -4.734375 C 3.835938 -4.921875 3.585938 -5.015625 3.265625 -5.015625 C 2.460938 -5.015625 2.0625 -4.347656 2.0625 -3.015625 C 2.0625 -1.640625 2.46875 -0.953125 3.28125 -0.953125 C 3.582031 -0.953125 3.832031 -1.039062 4.03125 -1.21875 C 4.226562 -1.40625 4.347656 -1.6875 4.390625 -2.0625 L 5.953125 -1.984375 C 5.898438 -1.578125 5.753906 -1.210938 5.515625 -0.890625 C 5.273438 -0.566406 4.960938 -0.316406 4.578125 -0.140625 C 4.191406 0.0234375 3.757812 0.109375 3.28125 0.109375 Z M 3.28125 0.109375 "/></g></g></g><g fill="#ffffff" fill-opacity="1"><g transform="translate(204.331832, 95.586401)"><g><path d="M 2.171875 0.109375 C 1.585938 0.109375 1.132812 -0.046875 0.8125 -0.359375 C 0.488281 -0.671875 0.328125 -1.113281 0.328125 -1.6875 C 0.328125 -2.300781 0.523438 -2.769531 0.921875 -3.09375 C 1.328125 -3.414062 1.914062 -3.582031 2.6875 -3.59375 L 3.96875 -3.625 L 3.96875 -3.921875 C 3.96875 -4.304688 3.898438 -4.59375 3.765625 -4.78125 C 3.628906 -4.976562 3.40625 -5.078125 3.09375 -5.078125 C 2.8125 -5.078125 2.601562 -5.007812 2.46875 -4.875 C 2.332031 -4.75 2.25 -4.535156 2.21875 -4.234375 L 0.59375 -4.3125 C 0.695312 -4.882812 0.960938 -5.320312 1.390625 -5.625 C 1.828125 -5.925781 2.421875 -6.078125 3.171875 -6.078125 C 3.921875 -6.078125 4.5 -5.890625 4.90625 -5.515625 C 5.3125 -5.148438 5.515625 -4.625 5.515625 -3.9375 L 5.515625 -1.765625 C 5.515625 -1.429688 5.550781 -1.195312 5.625 -1.0625 C 5.707031 -0.9375 5.835938 -0.875 6.015625 -0.875 C 6.128906 -0.875 6.242188 -0.890625 6.359375 -0.921875 L 6.359375 -0.078125 C 6.265625 -0.0546875 6.179688 -0.0351562 6.109375 -0.015625 C 6.035156 0.00390625 5.960938 0.0195312 5.890625 0.03125 C 5.816406 0.0390625 5.738281 0.046875 5.65625 0.046875 C 5.570312 0.0546875 5.472656 0.0625 5.359375 0.0625 C 4.972656 0.0625 4.6875 -0.03125 4.5 -0.21875 C 4.3125 -0.40625 4.203125 -0.6875 4.171875 -1.0625 L 4.125 -1.0625 C 3.695312 -0.28125 3.046875 0.109375 2.171875 0.109375 Z M 3.96875 -2.765625 L 3.171875 -2.75 C 2.816406 -2.738281 2.5625 -2.695312 2.40625 -2.625 C 2.257812 -2.5625 2.144531 -2.460938 2.0625 -2.328125 C 1.988281 -2.203125 1.953125 -2.03125 1.953125 -1.8125 C 1.953125 -1.53125 2.015625 -1.316406 2.140625 -1.171875 C 2.273438 -1.035156 2.453125 -0.96875 2.671875 -0.96875 C 2.910156 -0.96875 3.128906 -1.035156 3.328125 -1.171875 C 3.523438 -1.304688 3.679688 -1.488281 3.796875 -1.71875 C 3.910156 -1.945312 3.96875 -2.191406 3.96875 -2.453125 Z M 3.96875 -2.765625 "/></g></g></g><g fill="#ffffff" fill-opacity="1"><g transform="translate(210.612137, 95.586401)"><g/></g></g><g fill="#ffffff" fill-opacity="1"><g transform="translate(213.749536, 95.586401)"><g><path d="M 4.65625 0 C 4.644531 -0.0507812 4.628906 -0.1875 4.609375 -0.40625 C 4.585938 -0.632812 4.578125 -0.820312 4.578125 -0.96875 L 4.546875 -0.96875 C 4.210938 -0.25 3.578125 0.109375 2.640625 0.109375 C 1.941406 0.109375 1.40625 -0.160156 1.03125 -0.703125 C 0.65625 -1.242188 0.46875 -2.003906 0.46875 -2.984375 C 0.46875 -3.972656 0.664062 -4.734375 1.0625 -5.265625 C 1.457031 -5.804688 2.023438 -6.078125 2.765625 -6.078125 C 3.179688 -6.078125 3.539062 -5.988281 3.84375 -5.8125 C 4.15625 -5.632812 4.394531 -5.375 4.5625 -5.03125 L 4.578125 -5.03125 L 4.5625 -6 L 4.5625 -8.1875 L 6.109375 -8.1875 L 6.109375 -1.296875 C 6.109375 -0.929688 6.125 -0.5 6.15625 0 Z M 4.578125 -3.015625 C 4.578125 -3.660156 4.46875 -4.15625 4.25 -4.5 C 4.039062 -4.851562 3.726562 -5.03125 3.3125 -5.03125 C 2.894531 -5.03125 2.582031 -4.859375 2.375 -4.515625 C 2.175781 -4.179688 2.078125 -3.671875 2.078125 -2.984375 C 2.078125 -1.628906 2.484375 -0.953125 3.296875 -0.953125 C 3.703125 -0.953125 4.015625 -1.128906 4.234375 -1.484375 C 4.460938 -1.847656 4.578125 -2.359375 4.578125 -3.015625 Z M 4.578125 -3.015625 "/></g></g></g><g fill="#ffffff" fill-opacity="1"><g transform="translate(220.647394, 95.586401)"><g><path d="M 3.234375 0.109375 C 2.335938 0.109375 1.644531 -0.15625 1.15625 -0.6875 C 0.675781 -1.21875 0.4375 -1.992188 0.4375 -3.015625 C 0.4375 -3.992188 0.679688 -4.75 1.171875 -5.28125 C 1.660156 -5.8125 2.351562 -6.078125 3.25 -6.078125 C 4.113281 -6.078125 4.769531 -5.789062 5.21875 -5.21875 C 5.664062 -4.65625 5.890625 -3.828125 5.890625 -2.734375 L 5.890625 -2.6875 L 2.0625 -2.6875 C 2.0625 -2.101562 2.171875 -1.660156 2.390625 -1.359375 C 2.609375 -1.066406 2.914062 -0.921875 3.3125 -0.921875 C 3.851562 -0.921875 4.195312 -1.160156 4.34375 -1.640625 L 5.8125 -1.515625 C 5.382812 -0.429688 4.523438 0.109375 3.234375 0.109375 Z M 3.234375 -5.109375 C 2.867188 -5.109375 2.585938 -4.976562 2.390625 -4.71875 C 2.191406 -4.46875 2.085938 -4.113281 2.078125 -3.65625 L 4.390625 -3.65625 C 4.367188 -4.132812 4.253906 -4.492188 4.046875 -4.734375 C 3.847656 -4.984375 3.578125 -5.109375 3.234375 -5.109375 Z M 3.234375 -5.109375 "/></g></g></g><g fill="#ffffff" fill-opacity="1"><g transform="translate(226.927699, 95.586401)"><g/></g></g><g fill="#ffffff" fill-opacity="1"><g transform="translate(230.065097, 95.586401)"><g><path d="M 7.15625 -5.3125 C 7.15625 -4.8125 7.039062 -4.363281 6.8125 -3.96875 C 6.582031 -3.570312 6.253906 -3.265625 5.828125 -3.046875 C 5.398438 -2.835938 4.894531 -2.734375 4.3125 -2.734375 L 2.390625 -2.734375 L 2.390625 0 L 0.75 0 L 0.75 -7.765625 L 4.25 -7.765625 C 5.175781 -7.765625 5.890625 -7.550781 6.390625 -7.125 C 6.898438 -6.695312 7.15625 -6.09375 7.15625 -5.3125 Z M 5.515625 -5.28125 C 5.515625 -6.101562 5.03125 -6.515625 4.0625 -6.515625 L 2.390625 -6.515625 L 2.390625 -3.984375 L 4.109375 -3.984375 C 4.554688 -3.984375 4.898438 -4.09375 5.140625 -4.3125 C 5.390625 -4.539062 5.515625 -4.863281 5.515625 -5.28125 Z M 5.515625 -5.28125 "/></g></g></g><g fill="#ffffff" fill-opacity="1"><g transform="translate(237.597045, 95.586401)"><g><path d="M 2.171875 0.109375 C 1.585938 0.109375 1.132812 -0.046875 0.8125 -0.359375 C 0.488281 -0.671875 0.328125 -1.113281 0.328125 -1.6875 C 0.328125 -2.300781 0.523438 -2.769531 0.921875 -3.09375 C 1.328125 -3.414062 1.914062 -3.582031 2.6875 -3.59375 L 3.96875 -3.625 L 3.96875 -3.921875 C 3.96875 -4.304688 3.898438 -4.59375 3.765625 -4.78125 C 3.628906 -4.976562 3.40625 -5.078125 3.09375 -5.078125 C 2.8125 -5.078125 2.601562 -5.007812 2.46875 -4.875 C 2.332031 -4.75 2.25 -4.535156 2.21875 -4.234375 L 0.59375 -4.3125 C 0.695312 -4.882812 0.960938 -5.320312 1.390625 -5.625 C 1.828125 -5.925781 2.421875 -6.078125 3.171875 -6.078125 C 3.921875 -6.078125 4.5 -5.890625 4.90625 -5.515625 C 5.3125 -5.148438 5.515625 -4.625 5.515625 -3.9375 L 5.515625 -1.765625 C 5.515625 -1.429688 5.550781 -1.195312 5.625 -1.0625 C 5.707031 -0.9375 5.835938 -0.875 6.015625 -0.875 C 6.128906 -0.875 6.242188 -0.890625 6.359375 -0.921875 L 6.359375 -0.078125 C 6.265625 -0.0546875 6.179688 -0.0351562 6.109375 -0.015625 C 6.035156 0.00390625 5.960938 0.0195312 5.890625 0.03125 C 5.816406 0.0390625 5.738281 0.046875 5.65625 0.046875 C 5.570312 0.0546875 5.472656 0.0625 5.359375 0.0625 C 4.972656 0.0625 4.6875 -0.03125 4.5 -0.21875 C 4.3125 -0.40625 4.203125 -0.6875 4.171875 -1.0625 L 4.125 -1.0625 C 3.695312 -0.28125 3.046875 0.109375 2.171875 0.109375 Z M 3.96875 -2.765625 L 3.171875 -2.75 C 2.816406 -2.738281 2.5625 -2.695312 2.40625 -2.625 C 2.257812 -2.5625 2.144531 -2.460938 2.0625 -2.328125 C 1.988281 -2.203125 1.953125 -2.03125 1.953125 -1.8125 C 1.953125 -1.53125 2.015625 -1.316406 2.140625 -1.171875 C 2.273438 -1.035156 2.453125 -0.96875 2.671875 -0.96875 C 2.910156 -0.96875 3.128906 -1.035156 3.328125 -1.171875 C 3.523438 -1.304688 3.679688 -1.488281 3.796875 -1.71875 C 3.910156 -1.945312 3.96875 -2.191406 3.96875 -2.453125 Z M 3.96875 -2.765625 "/></g></g></g><g fill="#ffffff" fill-opacity="1"><g transform="translate(243.87735, 95.586401)"><g><path d="M 3.28125 0.109375 C 2.375 0.109375 1.671875 -0.15625 1.171875 -0.6875 C 0.679688 -1.226562 0.4375 -1.984375 0.4375 -2.953125 C 0.4375 -3.929688 0.6875 -4.695312 1.1875 -5.25 C 1.6875 -5.800781 2.390625 -6.078125 3.296875 -6.078125 C 4.003906 -6.078125 4.585938 -5.898438 5.046875 -5.546875 C 5.503906 -5.191406 5.789062 -4.707031 5.90625 -4.09375 L 4.34375 -4.015625 C 4.300781 -4.316406 4.191406 -4.554688 4.015625 -4.734375 C 3.835938 -4.921875 3.585938 -5.015625 3.265625 -5.015625 C 2.460938 -5.015625 2.0625 -4.347656 2.0625 -3.015625 C 2.0625 -1.640625 2.46875 -0.953125 3.28125 -0.953125 C 3.582031 -0.953125 3.832031 -1.039062 4.03125 -1.21875 C 4.226562 -1.40625 4.347656 -1.6875 4.390625 -2.0625 L 5.953125 -1.984375 C 5.898438 -1.578125 5.753906 -1.210938 5.515625 -0.890625 C 5.273438 -0.566406 4.960938 -0.316406 4.578125 -0.140625 C 4.191406 0.0234375 3.757812 0.109375 3.28125 0.109375 Z M 3.28125 0.109375 "/></g></g></g><g fill="#ffffff" fill-opacity="1"><g transform="translate(250.157655, 95.586401)"><g><path d="M 6.453125 -2.984375 C 6.453125 -2.015625 6.179688 -1.253906 5.640625 -0.703125 C 5.109375 -0.160156 4.367188 0.109375 3.421875 0.109375 C 2.492188 0.109375 1.765625 -0.164062 1.234375 -0.71875 C 0.703125 -1.269531 0.4375 -2.023438 0.4375 -2.984375 C 0.4375 -3.941406 0.703125 -4.695312 1.234375 -5.25 C 1.765625 -5.800781 2.503906 -6.078125 3.453125 -6.078125 C 4.429688 -6.078125 5.175781 -5.8125 5.6875 -5.28125 C 6.195312 -4.75 6.453125 -3.984375 6.453125 -2.984375 Z M 4.84375 -2.984375 C 4.84375 -3.691406 4.722656 -4.207031 4.484375 -4.53125 C 4.253906 -4.851562 3.921875 -5.015625 3.484375 -5.015625 C 2.535156 -5.015625 2.0625 -4.335938 2.0625 -2.984375 C 2.0625 -2.316406 2.175781 -1.8125 2.40625 -1.46875 C 2.644531 -1.125 2.976562 -0.953125 3.40625 -0.953125 C 4.363281 -0.953125 4.84375 -1.628906 4.84375 -2.984375 Z M 4.84375 -2.984375 "/></g></g></g><g fill="#ffffff" fill-opacity="1"><g transform="translate(257.055513, 95.586401)"><g><path d="M 2.3125 0.09375 C 1.851562 0.09375 1.5 -0.0234375 1.25 -0.265625 C 1.007812 -0.515625 0.890625 -0.894531 0.890625 -1.40625 L 0.890625 -4.921875 L 0.140625 -4.921875 L 0.140625 -5.96875 L 0.96875 -5.96875 L 1.453125 -7.375 L 2.421875 -7.375 L 2.421875 -5.96875 L 3.5625 -5.96875 L 3.5625 -4.921875 L 2.421875 -4.921875 L 2.421875 -1.8125 C 2.421875 -1.53125 2.476562 -1.316406 2.59375 -1.171875 C 2.707031 -1.035156 2.878906 -0.96875 3.109375 -0.96875 C 3.222656 -0.96875 3.394531 -0.992188 3.625 -1.046875 L 3.625 -0.09375 C 3.238281 0.03125 2.800781 0.09375 2.3125 0.09375 Z M 2.3125 0.09375 "/></g></g></g><g fill="#ffffff" fill-opacity="1"><g transform="translate(260.815973, 95.586401)"><g><path d="M 3.234375 0.109375 C 2.335938 0.109375 1.644531 -0.15625 1.15625 -0.6875 C 0.675781 -1.21875 0.4375 -1.992188 0.4375 -3.015625 C 0.4375 -3.992188 0.679688 -4.75 1.171875 -5.28125 C 1.660156 -5.8125 2.351562 -6.078125 3.25 -6.078125 C 4.113281 -6.078125 4.769531 -5.789062 5.21875 -5.21875 C 5.664062 -4.65625 5.890625 -3.828125 5.890625 -2.734375 L 5.890625 -2.6875 L 2.0625 -2.6875 C 2.0625 -2.101562 2.171875 -1.660156 2.390625 -1.359375 C 2.609375 -1.066406 2.914062 -0.921875 3.3125 -0.921875 C 3.851562 -0.921875 4.195312 -1.160156 4.34375 -1.640625 L 5.8125 -1.515625 C 5.382812 -0.429688 4.523438 0.109375 3.234375 0.109375 Z M 3.234375 -5.109375 C 2.867188 -5.109375 2.585938 -4.976562 2.390625 -4.71875 C 2.191406 -4.46875 2.085938 -4.113281 2.078125 -3.65625 L 4.390625 -3.65625 C 4.367188 -4.132812 4.253906 -4.492188 4.046875 -4.734375 C 3.847656 -4.984375 3.578125 -5.109375 3.234375 -5.109375 Z M 3.234375 -5.109375 "/></g></g></g></svg>